<svg width="20" height="21" viewBox="0 0 20 21" fill="none" xmlns="http://www.w3.org/2000/svg">
<path d="M6.66663 2.83464C7.66663 2.41797 8.83329 2.16797 9.99996 2.16797C14.5833 2.16797 18.3333 5.91797 18.3333 10.5013C18.3333 15.0846 14.5833 18.8346 9.99996 18.8346C5.41663 18.8346 1.66663 15.0846 1.66663 10.5013C1.66663 9.33464 1.91663 8.16797 2.33329 7.16797" stroke="black" stroke-width="1.5" stroke-miterlimit="10" stroke-linecap="round" stroke-linejoin="round"/>
<path d="M13.3334 14V10.5C13.3334 8.58333 11.75 7 9.83337 7C7.91671 7 6.33337 8.58333 6.33337 10.5C6.33337 12.4167 7.91671 14 9.83337 14H13.3334Z" stroke="black" stroke-width="1.5" stroke-miterlimit="10" stroke-linecap="round" stroke-linejoin="round"/>
<path d="M4.16663 5.91797C4.85698 5.91797 5.41663 5.35832 5.41663 4.66797C5.41663 3.97761 4.85698 3.41797 4.16663 3.41797C3.47627 3.41797 2.91663 3.97761 2.91663 4.66797C2.91663 5.35832 3.47627 5.91797 4.16663 5.91797Z" stroke="black" stroke-width="1.5" stroke-miterlimit="10" stroke-linecap="round" stroke-linejoin="round"/>
</svg>
