<svg width="539" height="223" viewBox="0 0 539 223" fill="none" xmlns="http://www.w3.org/2000/svg">
<g filter="url(#filter0_dd_780_19884)">
<mask id="path-1-inside-1_780_19884" fill="white">
<path d="M83 62C83 57.5817 86.5817 54 91 54H471.537C475.956 54 479.537 57.5817 479.537 62V127C479.537 131.418 475.956 135 471.537 135H91C86.5817 135 83 131.418 83 127V62Z"/>
</mask>
<path d="M83 62C83 57.5817 86.5817 54 91 54H471.537C475.956 54 479.537 57.5817 479.537 62V127C479.537 131.418 475.956 135 471.537 135H91C86.5817 135 83 131.418 83 127V62Z" fill="#F5F8FF" shape-rendering="crispEdges"/>
<path d="M83 54H479.537H83ZM479.537 127C479.537 131.898 475.567 135.868 470.669 135.868H91.8683C86.9705 135.868 83 131.898 83 127C83 130.939 86.5817 134.132 91 134.132H471.537C475.956 134.132 479.537 130.939 479.537 127ZM83 135V54V135ZM479.537 54V135V54Z" fill="black" mask="url(#path-1-inside-1_780_19884)"/>
<rect x="97.5078" y="78.7891" width="86.4683" height="31.4195" rx="5.20976" fill="#DAE4FF"/>
<mask id="mask0_780_19884" style="mask-type:alpha" maskUnits="userSpaceOnUse" x="104" y="85" width="18" height="19">
<rect x="104.453" y="85.8164" width="17.3659" height="17.3659" fill="#D9D9D9"/>
</mask>
<g mask="url(#mask0_780_19884)">
<path d="M117.476 101.011H109.516V91.6041L114.581 86.5391L115.486 87.4435C115.57 87.528 115.64 87.6425 115.694 87.7872C115.748 87.9319 115.775 88.0706 115.775 88.2033V88.4565L114.979 91.6041H119.646C120.032 91.6041 120.37 91.7488 120.659 92.0383C120.949 92.3277 121.094 92.6654 121.094 93.0513V94.4984C121.094 94.5828 121.082 94.6733 121.057 94.7698C121.033 94.8662 121.009 94.9567 120.985 95.0411L118.814 100.142C118.706 100.384 118.525 100.589 118.272 100.757C118.018 100.926 117.753 101.011 117.476 101.011ZM110.963 99.5635H117.476L119.646 94.4984V93.0513H113.134L114.111 89.0716L110.963 92.2191V99.5635ZM109.516 91.6041V93.0513H107.346V99.5635H109.516V101.011H105.898V91.6041H109.516Z" fill="#1C1B1F"/>
</g>
<path d="M128.313 96.385C128.98 95.8084 129.504 95.3361 129.886 94.9679C130.275 94.5928 130.598 94.2038 130.855 93.8009C131.112 93.398 131.241 92.9952 131.241 92.5923C131.241 92.1755 131.14 91.849 130.939 91.6128C130.744 91.3767 130.435 91.2586 130.011 91.2586C129.601 91.2586 129.282 91.3906 129.053 91.6545C128.83 91.9115 128.712 92.2588 128.698 92.6965H127.552C127.573 91.9046 127.809 91.3002 128.261 90.8835C128.719 90.4597 129.299 90.2479 130.001 90.2479C130.758 90.2479 131.348 90.4563 131.772 90.873C132.203 91.2898 132.418 91.8455 132.418 92.5402C132.418 93.0403 132.29 93.5231 132.033 93.9885C131.783 94.4469 131.48 94.8603 131.126 95.2284C130.779 95.5896 130.334 96.0099 129.792 96.4892L129.324 96.906H132.627V97.8958H127.563V97.031L128.313 96.385ZM134.306 98.0729C134.09 98.0729 133.91 98 133.764 97.8541C133.618 97.7083 133.545 97.5276 133.545 97.3123C133.545 97.097 133.618 96.9164 133.764 96.7705C133.91 96.6246 134.09 96.5517 134.306 96.5517C134.514 96.5517 134.691 96.6246 134.837 96.7705C134.983 96.9164 135.056 97.097 135.056 97.3123C135.056 97.5276 134.983 97.7083 134.837 97.8541C134.691 98 134.514 98.0729 134.306 98.0729ZM141.081 91.4253H137.59V93.4988C137.736 93.3043 137.951 93.141 138.236 93.0091C138.528 92.8771 138.837 92.8111 139.163 92.8111C139.747 92.8111 140.219 92.9361 140.58 93.1862C140.949 93.4363 141.209 93.7523 141.362 94.1344C141.522 94.5164 141.601 94.9193 141.601 95.343C141.601 95.8571 141.501 96.3155 141.299 96.7184C141.105 97.1143 140.81 97.4269 140.414 97.6562C140.025 97.8854 139.545 98 138.976 98C138.219 98 137.611 97.8124 137.152 97.4373C136.694 97.0622 136.42 96.5656 136.329 95.9474H137.486C137.562 96.2738 137.732 96.5343 137.996 96.7288C138.26 96.9164 138.59 97.0101 138.986 97.0101C139.479 97.0101 139.848 96.8608 140.091 96.5621C140.341 96.2634 140.466 95.8675 140.466 95.3743C140.466 94.8741 140.341 94.4921 140.091 94.2281C139.841 93.9572 139.472 93.8218 138.986 93.8218C138.646 93.8218 138.358 93.9086 138.121 94.0823C137.892 94.249 137.725 94.4782 137.621 94.7699H136.496V90.3833H141.081V91.4253ZM146.985 98L144.182 94.7595V98H142.994V90.7584H144.182V94.0614L146.995 90.7584H148.485L145.339 94.3844L148.537 98H146.985ZM153.482 97.0414H155.931V98H152.295V90.7584H153.482V97.0414ZM157.529 91.4982C157.313 91.4982 157.133 91.4253 156.987 91.2794C156.841 91.1335 156.768 90.9529 156.768 90.7376C156.768 90.5223 156.841 90.3417 156.987 90.1958C157.133 90.0499 157.313 89.977 157.529 89.977C157.737 89.977 157.914 90.0499 158.06 90.1958C158.206 90.3417 158.279 90.5223 158.279 90.7376C158.279 90.9529 158.206 91.1335 158.06 91.2794C157.914 91.4253 157.737 91.4982 157.529 91.4982ZM158.112 92.2588V98H156.924V92.2588H158.112ZM161.943 95.1346L164.59 98H162.985L160.859 95.5306V98H159.672V90.2896H160.859V94.7699L162.943 92.2588H164.59L161.943 95.1346ZM170.703 94.9888C170.703 95.2041 170.689 95.3986 170.661 95.5723H166.275C166.309 96.0307 166.479 96.3989 166.785 96.6767C167.091 96.9546 167.466 97.0935 167.91 97.0935C168.55 97.0935 169.001 96.8261 169.265 96.2912H170.547C170.373 96.8191 170.057 97.2533 169.598 97.5936C169.147 97.9271 168.584 98.0938 167.91 98.0938C167.362 98.0938 166.868 97.9722 166.431 97.7291C166 97.479 165.66 97.1317 165.41 96.6871C165.167 96.2356 165.045 95.7147 165.045 95.1242C165.045 94.5338 165.163 94.0163 165.399 93.5717C165.642 93.1202 165.979 92.7729 166.41 92.5298C166.848 92.2866 167.348 92.1651 167.91 92.1651C168.452 92.1651 168.935 92.2832 169.359 92.5193C169.782 92.7555 170.112 93.0889 170.349 93.5196C170.585 93.9433 170.703 94.4331 170.703 94.9888ZM169.463 94.6137C169.456 94.176 169.3 93.8252 168.994 93.5613C168.688 93.2973 168.31 93.1653 167.858 93.1653C167.449 93.1653 167.098 93.2973 166.806 93.5613C166.514 93.8183 166.341 94.1691 166.285 94.6137H169.463ZM173.956 98.0938C173.504 98.0938 173.098 98.0139 172.737 97.8541C172.382 97.6874 172.101 97.4651 171.893 97.1873C171.684 96.9025 171.573 96.5864 171.559 96.2391H172.789C172.81 96.4822 172.924 96.6871 173.133 96.8539C173.348 97.0136 173.615 97.0935 173.935 97.0935C174.268 97.0935 174.525 97.031 174.706 96.906C174.893 96.774 174.987 96.6073 174.987 96.4058C174.987 96.1905 174.883 96.0307 174.675 95.9265C174.473 95.8223 174.15 95.7077 173.706 95.5827C173.275 95.4646 172.924 95.35 172.653 95.2388C172.382 95.1277 172.146 94.9575 171.945 94.7283C171.75 94.499 171.653 94.1969 171.653 93.8218C171.653 93.5161 171.743 93.2383 171.924 92.9882C172.105 92.7312 172.362 92.5298 172.695 92.3839C173.035 92.238 173.424 92.1651 173.862 92.1651C174.515 92.1651 175.039 92.3318 175.435 92.6652C175.838 92.9917 176.054 93.4397 176.081 94.0093H174.893C174.873 93.7523 174.768 93.5474 174.581 93.3946C174.393 93.2418 174.14 93.1653 173.82 93.1653C173.508 93.1653 173.268 93.2244 173.101 93.3425C172.935 93.4606 172.851 93.6169 172.851 93.8114C172.851 93.9642 172.907 94.0927 173.018 94.1969C173.129 94.3011 173.265 94.3844 173.424 94.4469C173.584 94.5025 173.82 94.5755 174.133 94.6658C174.55 94.7769 174.89 94.8915 175.154 95.0096C175.425 95.1207 175.658 95.2875 175.852 95.5097C176.047 95.732 176.147 96.0272 176.154 96.3954C176.154 96.7219 176.064 97.0136 175.883 97.2706C175.703 97.5276 175.446 97.7291 175.112 97.875C174.786 98.0208 174.4 98.0938 173.956 98.0938Z" fill="#323232"/>
<rect x="209.363" y="78.7891" width="120.468" height="31.4195" rx="5.20976" fill="#DAE4FF"/>
<mask id="mask1_780_19884" style="mask-type:alpha" maskUnits="userSpaceOnUse" x="216" y="85" width="18" height="19">
<rect x="216.309" y="85.8164" width="17.3659" height="17.3659" fill="#D9D9D9"/>
</mask>
<g mask="url(#mask1_780_19884)">
<path d="M220.648 95.9486H226.437V94.5014H220.648V95.9486ZM220.648 93.7778H229.331V92.3307H220.648V93.7778ZM220.648 91.6071H229.331V90.1599H220.648V91.6071ZM217.754 101.737V88.7128C217.754 88.3148 217.896 87.9741 218.179 87.6907C218.462 87.4073 218.803 87.2656 219.201 87.2656H230.778C231.176 87.2656 231.517 87.4073 231.8 87.6907C232.084 87.9741 232.225 88.3148 232.225 88.7128V97.3957C232.225 97.7937 232.084 98.1344 231.8 98.4178C231.517 98.7012 231.176 98.8429 230.778 98.8429H220.648L217.754 101.737ZM220.033 97.3957H230.778V88.7128H219.201V98.2097L220.033 97.3957Z" fill="#1C1B1F"/>
</g>
<path d="M239.491 92.2797C239.533 91.6337 239.779 91.1301 240.231 90.7689C240.689 90.4076 241.273 90.227 241.981 90.227C242.468 90.227 242.888 90.3139 243.242 90.4875C243.596 90.6612 243.864 90.8974 244.044 91.1961C244.225 91.4947 244.315 91.8316 244.315 92.2067C244.315 92.6374 244.201 93.0056 243.971 93.3112C243.742 93.6169 243.468 93.8218 243.148 93.926V93.9676C243.558 94.0927 243.878 94.3219 244.107 94.6553C244.336 94.9818 244.451 95.4021 244.451 95.9161C244.451 96.3259 244.357 96.6906 244.169 97.0101C243.982 97.3297 243.704 97.5832 243.336 97.7708C242.968 97.9514 242.527 98.0417 242.013 98.0417C241.262 98.0417 240.644 97.8507 240.158 97.4686C239.679 97.0796 239.422 96.5239 239.387 95.8015H240.533C240.561 96.1696 240.703 96.4718 240.96 96.708C241.217 96.9372 241.565 97.0518 242.002 97.0518C242.426 97.0518 242.752 96.9372 242.982 96.708C243.211 96.4718 243.325 96.1696 243.325 95.8015C243.325 95.3152 243.169 94.9714 242.857 94.7699C242.551 94.5616 242.079 94.4574 241.44 94.4574H241.169V93.4779H241.45C242.013 93.471 242.44 93.3772 242.732 93.1966C243.03 93.016 243.18 92.7312 243.18 92.3422C243.18 92.0088 243.072 91.7448 242.857 91.5503C242.641 91.3489 242.336 91.2482 241.94 91.2482C241.551 91.2482 241.248 91.3489 241.033 91.5503C240.818 91.7448 240.689 91.9879 240.648 92.2797H239.491ZM246.334 98.0729C246.119 98.0729 245.938 98 245.792 97.8541C245.646 97.7083 245.573 97.5276 245.573 97.3123C245.573 97.097 245.646 96.9164 245.792 96.7705C245.938 96.6246 246.119 96.5517 246.334 96.5517C246.542 96.5517 246.72 96.6246 246.865 96.7705C247.011 96.9164 247.084 97.097 247.084 97.3123C247.084 97.5276 247.011 97.7083 246.865 97.8541C246.72 98 246.542 98.0729 246.334 98.0729ZM253.109 91.4253H249.618V93.4988C249.764 93.3043 249.98 93.141 250.264 93.0091C250.556 92.8771 250.865 92.8111 251.192 92.8111C251.775 92.8111 252.248 92.9361 252.609 93.1862C252.977 93.4363 253.237 93.7523 253.39 94.1344C253.55 94.5164 253.63 94.9193 253.63 95.343C253.63 95.8571 253.529 96.3155 253.328 96.7184C253.133 97.1143 252.838 97.4269 252.442 97.6562C252.053 97.8854 251.574 98 251.004 98C250.247 98 249.639 97.8124 249.181 97.4373C248.722 97.0622 248.448 96.5656 248.358 95.9474H249.514C249.591 96.2738 249.761 96.5343 250.025 96.7288C250.289 96.9164 250.619 97.0101 251.015 97.0101C251.508 97.0101 251.876 96.8608 252.119 96.5621C252.369 96.2634 252.494 95.8675 252.494 95.3743C252.494 94.8741 252.369 94.4921 252.119 94.2281C251.869 93.9572 251.501 93.8218 251.015 93.8218C250.674 93.8218 250.386 93.9086 250.15 94.0823C249.921 94.249 249.754 94.4782 249.65 94.7699H248.524V90.3833H253.109V91.4253ZM259.013 98L256.211 94.7595V98H255.023V90.7584H256.211V94.0614L259.024 90.7584H260.514L257.367 94.3844L260.566 98H259.013ZM263.927 94.3636C263.927 93.6551 264.09 93.0195 264.417 92.4568C264.75 91.8942 265.198 91.4565 265.761 91.144C266.33 90.8244 266.952 90.6647 267.626 90.6647C268.397 90.6647 269.081 90.8557 269.679 91.2377C270.283 91.6128 270.721 92.1477 270.991 92.8423H269.564C269.376 92.4603 269.116 92.1755 268.783 91.9879C268.449 91.8004 268.064 91.7066 267.626 91.7066C267.147 91.7066 266.719 91.8143 266.344 92.0296C265.969 92.245 265.674 92.5541 265.459 92.957C265.25 93.3598 265.146 93.8287 265.146 94.3636C265.146 94.8985 265.25 95.3673 265.459 95.7702C265.674 96.1731 265.969 96.4857 266.344 96.708C266.719 96.9233 267.147 97.031 267.626 97.031C268.064 97.031 268.449 96.9372 268.783 96.7497C269.116 96.5621 269.376 96.2773 269.564 95.8953H270.991C270.721 96.5899 270.283 97.1248 269.679 97.4999C269.081 97.875 268.397 98.0625 267.626 98.0625C266.945 98.0625 266.324 97.9062 265.761 97.5936C265.198 97.2741 264.75 96.833 264.417 96.2704C264.09 95.7077 263.927 95.0721 263.927 94.3636ZM274.872 98.0938C274.33 98.0938 273.841 97.9722 273.403 97.7291C272.965 97.479 272.621 97.1317 272.371 96.6871C272.121 96.2356 271.996 95.7147 271.996 95.1242C271.996 94.5407 272.125 94.0232 272.382 93.5717C272.639 93.1202 272.99 92.7729 273.434 92.5298C273.879 92.2866 274.375 92.1651 274.924 92.1651C275.473 92.1651 275.97 92.2866 276.414 92.5298C276.859 92.7729 277.21 93.1202 277.467 93.5717C277.724 94.0232 277.852 94.5407 277.852 95.1242C277.852 95.7077 277.72 96.2252 277.456 96.6767C277.192 97.1282 276.831 97.479 276.372 97.7291C275.921 97.9722 275.421 98.0938 274.872 98.0938ZM274.872 97.0622C275.178 97.0622 275.463 96.9893 275.726 96.8434C275.997 96.6976 276.216 96.4788 276.383 96.187C276.55 95.8953 276.633 95.541 276.633 95.1242C276.633 94.7074 276.553 94.3566 276.393 94.0718C276.234 93.7801 276.022 93.5613 275.758 93.4154C275.494 93.2695 275.209 93.1966 274.903 93.1966C274.598 93.1966 274.313 93.2695 274.049 93.4154C273.792 93.5613 273.587 93.7801 273.434 94.0718C273.281 94.3566 273.205 94.7074 273.205 95.1242C273.205 95.7424 273.361 96.2217 273.674 96.5621C273.993 96.8955 274.393 97.0622 274.872 97.0622ZM285.976 92.1651C286.428 92.1651 286.831 92.2588 287.185 92.4464C287.546 92.6339 287.827 92.9118 288.029 93.28C288.237 93.6481 288.341 94.0927 288.341 94.6137V98H287.164V94.7908C287.164 94.2768 287.035 93.8843 286.778 93.6134C286.521 93.3355 286.171 93.1966 285.726 93.1966C285.281 93.1966 284.927 93.3355 284.663 93.6134C284.406 93.8843 284.278 94.2768 284.278 94.7908V98H283.1V94.7908C283.1 94.2768 282.972 93.8843 282.715 93.6134C282.458 93.3355 282.107 93.1966 281.662 93.1966C281.218 93.1966 280.864 93.3355 280.6 93.6134C280.343 93.8843 280.214 94.2768 280.214 94.7908V98H279.026V92.2588H280.214V92.9153C280.409 92.6791 280.655 92.495 280.954 92.363C281.253 92.2311 281.572 92.1651 281.912 92.1651C282.371 92.1651 282.781 92.2623 283.142 92.4568C283.503 92.6513 283.781 92.9326 283.976 93.3008C284.149 92.9535 284.42 92.6791 284.788 92.4777C285.156 92.2693 285.552 92.1651 285.976 92.1651ZM296.803 92.1651C297.254 92.1651 297.657 92.2588 298.011 92.4464C298.373 92.6339 298.654 92.9118 298.855 93.28C299.064 93.6481 299.168 94.0927 299.168 94.6137V98H297.99V94.7908C297.99 94.2768 297.862 93.8843 297.605 93.6134C297.348 93.3355 296.997 93.1966 296.553 93.1966C296.108 93.1966 295.754 93.3355 295.49 93.6134C295.233 93.8843 295.104 94.2768 295.104 94.7908V98H293.927V94.7908C293.927 94.2768 293.798 93.8843 293.541 93.6134C293.284 93.3355 292.934 93.1966 292.489 93.1966C292.044 93.1966 291.69 93.3355 291.426 93.6134C291.169 93.8843 291.041 94.2768 291.041 94.7908V98H289.853V92.2588H291.041V92.9153C291.235 92.6791 291.482 92.495 291.78 92.363C292.079 92.2311 292.399 92.1651 292.739 92.1651C293.197 92.1651 293.607 92.2623 293.969 92.4568C294.33 92.6513 294.608 92.9326 294.802 93.3008C294.976 92.9535 295.247 92.6791 295.615 92.4777C295.983 92.2693 296.379 92.1651 296.803 92.1651ZM305.941 94.9888C305.941 95.2041 305.927 95.3986 305.9 95.5723H301.513C301.548 96.0307 301.718 96.3989 302.023 96.6767C302.329 96.9546 302.704 97.0935 303.149 97.0935C303.788 97.0935 304.239 96.8261 304.503 96.2912H305.785C305.611 96.8191 305.295 97.2533 304.837 97.5936C304.385 97.9271 303.823 98.0938 303.149 98.0938C302.6 98.0938 302.107 97.9722 301.669 97.7291C301.239 97.479 300.898 97.1317 300.648 96.6871C300.405 96.2356 300.283 95.7147 300.283 95.1242C300.283 94.5338 300.401 94.0163 300.638 93.5717C300.881 93.1202 301.218 92.7729 301.648 92.5298C302.086 92.2866 302.586 92.1651 303.149 92.1651C303.691 92.1651 304.173 92.2832 304.597 92.5193C305.021 92.7555 305.351 93.0889 305.587 93.5196C305.823 93.9433 305.941 94.4331 305.941 94.9888ZM304.701 94.6137C304.694 94.176 304.538 93.8252 304.232 93.5613C303.927 93.2973 303.548 93.1653 303.097 93.1653C302.687 93.1653 302.336 93.2973 302.044 93.5613C301.753 93.8183 301.579 94.1691 301.523 94.6137H304.701ZM310.007 92.1651C310.458 92.1651 310.861 92.2588 311.215 92.4464C311.577 92.6339 311.858 92.9118 312.059 93.28C312.261 93.6481 312.362 94.0927 312.362 94.6137V98H311.184V94.7908C311.184 94.2768 311.056 93.8843 310.799 93.6134C310.542 93.3355 310.191 93.1966 309.746 93.1966C309.302 93.1966 308.947 93.3355 308.683 93.6134C308.426 93.8843 308.298 94.2768 308.298 94.7908V98H307.11V92.2588H308.298V92.9153C308.492 92.6791 308.739 92.495 309.038 92.363C309.343 92.2311 309.666 92.1651 310.007 92.1651ZM315.263 93.2279V96.4058C315.263 96.6212 315.311 96.7774 315.408 96.8747C315.513 96.965 315.686 97.0101 315.929 97.0101H316.659V98H315.721C315.186 98 314.776 97.875 314.491 97.6249C314.207 97.3748 314.064 96.9685 314.064 96.4058V93.2279H313.387V92.2588H314.064V90.8314H315.263V92.2588H316.659V93.2279H315.263ZM319.837 98.0938C319.386 98.0938 318.98 98.0139 318.618 97.8541C318.264 97.6874 317.983 97.4651 317.774 97.1873C317.566 96.9025 317.455 96.5864 317.441 96.2391H318.67C318.691 96.4822 318.806 96.6871 319.014 96.8539C319.23 97.0136 319.497 97.0935 319.817 97.0935C320.15 97.0935 320.407 97.031 320.588 96.906C320.775 96.774 320.869 96.6073 320.869 96.4058C320.869 96.1905 320.765 96.0307 320.556 95.9265C320.355 95.8223 320.032 95.7077 319.587 95.5827C319.157 95.4646 318.806 95.35 318.535 95.2388C318.264 95.1277 318.028 94.9575 317.826 94.7283C317.632 94.499 317.535 94.1969 317.535 93.8218C317.535 93.5161 317.625 93.2383 317.806 92.9882C317.986 92.7312 318.243 92.5298 318.577 92.3839C318.917 92.238 319.306 92.1651 319.744 92.1651C320.397 92.1651 320.921 92.3318 321.317 92.6652C321.72 92.9917 321.935 93.4397 321.963 94.0093H320.775C320.754 93.7523 320.65 93.5474 320.463 93.3946C320.275 93.2418 320.021 93.1653 319.702 93.1653C319.389 93.1653 319.15 93.2244 318.983 93.3425C318.816 93.4606 318.733 93.6169 318.733 93.8114C318.733 93.9642 318.789 94.0927 318.9 94.1969C319.011 94.3011 319.146 94.3844 319.306 94.4469C319.466 94.5025 319.702 94.5755 320.015 94.6658C320.431 94.7769 320.772 94.8915 321.036 95.0096C321.307 95.1207 321.539 95.2875 321.734 95.5097C321.928 95.732 322.029 96.0272 322.036 96.3954C322.036 96.7219 321.946 97.0136 321.765 97.2706C321.584 97.5276 321.327 97.7291 320.994 97.875C320.668 98.0208 320.282 98.0938 319.837 98.0938Z" fill="#323232"/>
<rect x="355.219" y="78.7891" width="94.4683" height="31.4195" rx="5.20976" fill="#DAE4FF"/>
<mask id="mask2_780_19884" style="mask-type:alpha" maskUnits="userSpaceOnUse" x="362" y="85" width="18" height="19">
<rect x="362.164" y="85.8164" width="17.3659" height="17.3659" fill="#D9D9D9"/>
</mask>
<g mask="url(#mask2_780_19884)">
<path d="M367.517 101.736L366.504 100.723L371.496 95.7125L374.029 98.245L377.773 94.5005L378.805 95.5316L374.029 100.289L371.496 97.7566L367.517 101.736ZM365.057 101.013C364.659 101.013 364.318 100.871 364.034 100.588C363.751 100.304 363.609 99.9635 363.609 99.5655V89.4354C363.609 89.0375 363.751 88.6968 364.034 88.4134C364.318 88.13 364.659 87.9883 365.057 87.9883H375.187C375.585 87.9883 375.925 88.13 376.209 88.4134C376.492 88.6968 376.634 89.0375 376.634 89.4354V92.4745H365.057V101.013ZM365.057 91.0273H375.187V89.4354H365.057V91.0273Z" fill="#1C1B1F"/>
</g>
<path d="M386.024 96.385C386.691 95.8084 387.215 95.3361 387.597 94.9679C387.986 94.5928 388.309 94.2038 388.566 93.8009C388.823 93.398 388.952 92.9952 388.952 92.5923C388.952 92.1755 388.851 91.849 388.65 91.6128C388.455 91.3767 388.146 91.2586 387.722 91.2586C387.312 91.2586 386.993 91.3906 386.764 91.6545C386.541 91.9115 386.423 92.2588 386.409 92.6965H385.263C385.284 91.9046 385.52 91.3002 385.972 90.8835C386.43 90.4597 387.01 90.2479 387.712 90.2479C388.469 90.2479 389.059 90.4563 389.483 90.873C389.914 91.2898 390.129 91.8455 390.129 92.5402C390.129 93.0403 390.001 93.5231 389.744 93.9885C389.493 94.4469 389.191 94.8603 388.837 95.2284C388.49 95.5896 388.045 96.0099 387.503 96.4892L387.034 96.906H390.337V97.8958H385.274V97.031L386.024 96.385ZM392.017 98.0729C391.801 98.0729 391.621 98 391.475 97.8541C391.329 97.7083 391.256 97.5276 391.256 97.3123C391.256 97.097 391.329 96.9164 391.475 96.7705C391.621 96.6246 391.801 96.5517 392.017 96.5517C392.225 96.5517 392.402 96.6246 392.548 96.7705C392.694 96.9164 392.767 97.097 392.767 97.3123C392.767 97.5276 392.694 97.7083 392.548 97.8541C392.402 98 392.225 98.0729 392.017 98.0729ZM398.791 91.4253H395.301V93.4988C395.447 93.3043 395.662 93.141 395.947 93.0091C396.239 92.8771 396.548 92.8111 396.874 92.8111C397.458 92.8111 397.93 92.9361 398.291 93.1862C398.659 93.4363 398.92 93.7523 399.073 94.1344C399.233 94.5164 399.312 94.9193 399.312 95.343C399.312 95.8571 399.212 96.3155 399.01 96.7184C398.816 97.1143 398.521 97.4269 398.125 97.6562C397.736 97.8854 397.256 98 396.687 98C395.93 98 395.322 97.8124 394.863 97.4373C394.405 97.0622 394.13 96.5656 394.04 95.9474H395.197C395.273 96.2738 395.443 96.5343 395.707 96.7288C395.971 96.9164 396.301 97.0101 396.697 97.0101C397.19 97.0101 397.558 96.8608 397.802 96.5621C398.052 96.2634 398.177 95.8675 398.177 95.3743C398.177 94.8741 398.052 94.4921 397.802 94.2281C397.552 93.9572 397.183 93.8218 396.697 93.8218C396.357 93.8218 396.068 93.9086 395.832 94.0823C395.603 94.249 395.436 94.4782 395.332 94.7699H394.207V90.3833H398.791V91.4253ZM408.332 90.7584V98H407.144V93.0403L404.936 98H404.112L401.893 93.0403V98H400.705V90.7584H401.987L404.529 96.4371L407.061 90.7584H408.332ZM418.841 90.7584L416.122 98H414.747L412.017 90.7584H413.288L415.434 96.7809L417.591 90.7584H418.841ZM420.439 91.4982C420.224 91.4982 420.043 91.4253 419.897 91.2794C419.751 91.1335 419.679 90.9529 419.679 90.7376C419.679 90.5223 419.751 90.3417 419.897 90.1958C420.043 90.0499 420.224 89.977 420.439 89.977C420.648 89.977 420.825 90.0499 420.971 90.1958C421.116 90.3417 421.189 90.5223 421.189 90.7376C421.189 90.9529 421.116 91.1335 420.971 91.2794C420.825 91.4253 420.648 91.4982 420.439 91.4982ZM421.023 92.2588V98H419.835V92.2588H421.023ZM427.844 94.9888C427.844 95.2041 427.83 95.3986 427.802 95.5723H423.416C423.45 96.0307 423.621 96.3989 423.926 96.6767C424.232 96.9546 424.607 97.0935 425.052 97.0935C425.691 97.0935 426.142 96.8261 426.406 96.2912H427.688C427.514 96.8191 427.198 97.2533 426.74 97.5936C426.288 97.9271 425.725 98.0938 425.052 98.0938C424.503 98.0938 424.01 97.9722 423.572 97.7291C423.141 97.479 422.801 97.1317 422.551 96.6871C422.308 96.2356 422.186 95.7147 422.186 95.1242C422.186 94.5338 422.304 94.0163 422.54 93.5717C422.784 93.1202 423.12 92.7729 423.551 92.5298C423.989 92.2866 424.489 92.1651 425.052 92.1651C425.593 92.1651 426.076 92.2832 426.5 92.5193C426.924 92.7555 427.254 93.0889 427.49 93.5196C427.726 93.9433 427.844 94.4331 427.844 94.9888ZM426.604 94.6137C426.597 94.176 426.441 93.8252 426.135 93.5613C425.83 93.2973 425.451 93.1653 424.999 93.1653C424.59 93.1653 424.239 93.2973 423.947 93.5613C423.655 93.8183 423.482 94.1691 423.426 94.6137H426.604ZM436.723 92.2588L434.942 98H433.691L432.535 93.7593L431.378 98H430.128L428.336 92.2588H429.544L430.743 96.8747L431.962 92.2588H433.202L434.369 96.8539L435.556 92.2588H436.723ZM439.695 98.0938C439.243 98.0938 438.837 98.0139 438.476 97.8541C438.122 97.6874 437.84 97.4651 437.632 97.1873C437.424 96.9025 437.312 96.5864 437.298 96.2391H438.528C438.549 96.4822 438.663 96.6871 438.872 96.8539C439.087 97.0136 439.355 97.0935 439.674 97.0935C440.008 97.0935 440.265 97.031 440.445 96.906C440.633 96.774 440.727 96.6073 440.727 96.4058C440.727 96.1905 440.622 96.0307 440.414 95.9265C440.212 95.8223 439.889 95.7077 439.445 95.5827C439.014 95.4646 438.663 95.35 438.393 95.2388C438.122 95.1277 437.885 94.9575 437.684 94.7283C437.49 94.499 437.392 94.1969 437.392 93.8218C437.392 93.5161 437.483 93.2383 437.663 92.9882C437.844 92.7312 438.101 92.5298 438.434 92.3839C438.775 92.238 439.164 92.1651 439.601 92.1651C440.254 92.1651 440.779 92.3318 441.175 92.6652C441.577 92.9917 441.793 93.4397 441.821 94.0093H440.633C440.612 93.7523 440.508 93.5474 440.32 93.3946C440.133 93.2418 439.879 93.1653 439.56 93.1653C439.247 93.1653 439.007 93.2244 438.841 93.3425C438.674 93.4606 438.591 93.6169 438.591 93.8114C438.591 93.9642 438.646 94.0927 438.757 94.1969C438.868 94.3011 439.004 94.3844 439.164 94.4469C439.323 94.5025 439.56 94.5755 439.872 94.6658C440.289 94.7769 440.629 94.8915 440.893 95.0096C441.164 95.1207 441.397 95.2875 441.591 95.5097C441.786 95.732 441.887 96.0272 441.893 96.3954C441.893 96.7219 441.803 97.0136 441.623 97.2706C441.442 97.5276 441.185 97.7291 440.852 97.875C440.525 98.0208 440.14 98.0938 439.695 98.0938Z" fill="#323232"/>
</g>
<defs>
<filter id="filter0_dd_780_19884" x="0.307458" y="0.322384" width="537.745" height="222.206" filterUnits="userSpaceOnUse" color-interpolation-filters="sRGB">
<feFlood flood-opacity="0" result="BackgroundImageFix"/>
<feColorMatrix in="SourceAlpha" type="matrix" values="0 0 0 0 0 0 0 0 0 0 0 0 0 0 0 0 0 0 127 0" result="hardAlpha"/>
<feOffset dx="-1.20896" dy="8.46269"/>
<feGaussianBlur stdDeviation="12.15"/>
<feComposite in2="hardAlpha" operator="out"/>
<feColorMatrix type="matrix" values="0 0 0 0 0.472431 0 0 0 0 0.496338 0 0 0 0 0.534798 0 0 0 0.25 0"/>
<feBlend mode="normal" in2="BackgroundImageFix" result="effect1_dropShadow_780_19884"/>
<feColorMatrix in="SourceAlpha" type="matrix" values="0 0 0 0 0 0 0 0 0 0 0 0 0 0 0 0 0 0 127 0" result="hardAlpha"/>
<feOffset dx="-12.0896" dy="16.9254"/>
<feGaussianBlur stdDeviation="35.3015"/>
<feComposite in2="hardAlpha" operator="out"/>
<feColorMatrix type="matrix" values="0 0 0 0 0.0444481 0 0 0 0 0 0 0 0 0 0.888965 0 0 0 0.07 0"/>
<feBlend mode="normal" in2="effect1_dropShadow_780_19884" result="effect2_dropShadow_780_19884"/>
<feBlend mode="normal" in="SourceGraphic" in2="effect2_dropShadow_780_19884" result="shape"/>
</filter>
</defs>
</svg>
