<svg width="308" height="266" viewBox="0 0 308 266" fill="none" xmlns="http://www.w3.org/2000/svg">
<g filter="url(#filter0_dd_780_20103)">
<rect x="82" y="53" width="168" height="126" rx="5.6" fill="white" shape-rendering="crispEdges"/>
<rect x="82.7" y="53.7" width="166.6" height="124.6" rx="4.9" stroke="#B1B1B1" stroke-width="1.4" shape-rendering="crispEdges"/>
<mask id="path-3-inside-1_780_20103" fill="white">
<path d="M96 67H236V114.6H96V67Z"/>
</mask>
<path d="M236 113.2H96V116H236V113.2Z" fill="#EAEAEA" mask="url(#path-3-inside-1_780_20103)"/>
<path d="M124.507 84.8249C123.989 84.8249 123.555 84.4329 123.499 83.9149C123.163 80.8349 121.511 78.0629 118.963 76.2989C118.501 75.9769 118.389 75.3469 118.711 74.8849C119.033 74.4229 119.663 74.3109 120.125 74.6329C123.163 76.7469 125.123 80.0509 125.529 83.7049C125.585 84.2649 125.179 84.7689 124.619 84.8249C124.577 84.8249 124.549 84.8249 124.507 84.8249Z" fill="#505050"/>
<path d="M101.236 84.8944C101.208 84.8944 101.166 84.8944 101.138 84.8944C100.578 84.8384 100.172 84.3344 100.228 83.7744C100.606 80.1204 102.538 76.8164 105.548 74.6884C105.996 74.3664 106.64 74.4784 106.962 74.9264C107.284 75.3884 107.172 76.0184 106.724 76.3404C104.204 78.1324 102.566 80.9044 102.258 83.9704C102.202 84.5024 101.754 84.8944 101.236 84.8944Z" fill="#505050"/>
<path d="M118.383 96.5405C116.661 97.3665 114.813 97.7865 112.881 97.7865C110.865 97.7865 108.947 97.3385 107.155 96.4285C106.651 96.1905 106.455 95.5745 106.707 95.0705C106.945 94.5665 107.561 94.3705 108.065 94.6085C108.947 95.0565 109.885 95.3645 110.837 95.5465C112.125 95.7985 113.441 95.8125 114.729 95.5885C115.681 95.4205 116.619 95.1265 117.487 94.7065C118.005 94.4685 118.621 94.6645 118.845 95.1825C119.097 95.6865 118.901 96.3025 118.383 96.5405Z" fill="#505050"/>
<path d="M112.87 69.8164C110.7 69.8164 108.922 71.5804 108.922 73.7644C108.922 75.9484 110.686 77.7124 112.87 77.7124C115.054 77.7124 116.818 75.9484 116.818 73.7644C116.818 71.5804 115.054 69.8164 112.87 69.8164Z" fill="#505050"/>
<path d="M103.069 86.418C100.899 86.418 99.1211 88.182 99.1211 90.366C99.1211 92.55 100.885 94.314 103.069 94.314C105.253 94.314 107.017 92.55 107.017 90.366C107.017 88.182 105.239 86.418 103.069 86.418Z" fill="#505050"/>
<path d="M122.53 86.418C120.36 86.418 118.582 88.182 118.582 90.366C118.582 92.55 120.346 94.314 122.53 94.314C124.714 94.314 126.478 92.55 126.478 90.366C126.478 88.182 124.714 86.418 122.53 86.418Z" fill="#505050"/>
<path d="M145.908 89.4184C145.124 89.4184 144.418 89.284 143.791 89.0152C143.164 88.7352 142.671 88.3432 142.313 87.8392C141.954 87.3352 141.775 86.7472 141.775 86.0752H143.825C143.87 86.5792 144.066 86.9936 144.413 87.3184C144.771 87.6432 145.27 87.8056 145.908 87.8056C146.569 87.8056 147.084 87.6488 147.454 87.3352C147.823 87.0104 148.008 86.596 148.008 86.092C148.008 85.7 147.89 85.3808 147.655 85.1344C147.431 84.888 147.146 84.6976 146.798 84.5632C146.462 84.4288 145.992 84.2832 145.387 84.1264C144.626 83.9248 144.004 83.7232 143.522 83.5216C143.052 83.3088 142.649 82.984 142.313 82.5472C141.977 82.1104 141.809 81.528 141.809 80.8C141.809 80.128 141.977 79.54 142.313 79.036C142.649 78.532 143.119 78.1456 143.724 77.8768C144.329 77.608 145.029 77.4736 145.824 77.4736C146.955 77.4736 147.879 77.7592 148.596 78.3304C149.324 78.8904 149.727 79.6632 149.806 80.6488H147.689C147.655 80.2232 147.454 79.8592 147.084 79.5568C146.714 79.2544 146.227 79.1032 145.622 79.1032C145.074 79.1032 144.626 79.2432 144.278 79.5232C143.931 79.8032 143.758 80.2064 143.758 80.7328C143.758 81.0912 143.864 81.388 144.077 81.6232C144.301 81.8472 144.581 82.0264 144.917 82.1608C145.253 82.2952 145.712 82.4408 146.294 82.5976C147.067 82.8104 147.694 83.0232 148.176 83.236C148.669 83.4488 149.083 83.7792 149.419 84.2272C149.766 84.664 149.94 85.252 149.94 85.9912C149.94 86.5848 149.778 87.1448 149.453 87.6712C149.139 88.1976 148.674 88.6232 148.058 88.948C147.454 89.2616 146.737 89.4184 145.908 89.4184ZM156.803 79.8928C157.509 79.8928 158.136 80.044 158.685 80.3464C159.245 80.6488 159.681 81.0968 159.995 81.6904C160.32 82.284 160.482 83.0008 160.482 83.8408V89.3008H158.584V84.1264C158.584 83.2976 158.377 82.6648 157.962 82.228C157.548 81.78 156.982 81.556 156.265 81.556C155.549 81.556 154.977 81.78 154.552 82.228C154.137 82.6648 153.93 83.2976 153.93 84.1264V89.3008H152.015V76.8688H153.93V81.1192C154.255 80.7272 154.664 80.4248 155.157 80.212C155.661 79.9992 156.209 79.8928 156.803 79.8928ZM162.102 84.6304C162.102 83.7008 162.292 82.8776 162.673 82.1608C163.065 81.444 163.592 80.8896 164.252 80.4976C164.924 80.0944 165.664 79.8928 166.47 79.8928C167.198 79.8928 167.831 80.0384 168.368 80.3296C168.917 80.6096 169.354 80.9624 169.679 81.388V80.044H171.611V89.3008H169.679V87.9232C169.354 88.36 168.912 88.724 168.352 89.0152C167.792 89.3064 167.153 89.452 166.436 89.452C165.641 89.452 164.913 89.2504 164.252 88.8472C163.592 88.4328 163.065 87.8616 162.673 87.1336C162.292 86.3944 162.102 85.56 162.102 84.6304ZM169.679 84.664C169.679 84.0256 169.544 83.4712 169.276 83.0008C169.018 82.5304 168.676 82.172 168.251 81.9256C167.825 81.6792 167.366 81.556 166.873 81.556C166.38 81.556 165.921 81.6792 165.496 81.9256C165.07 82.1608 164.723 82.5136 164.454 82.984C164.196 83.4432 164.068 83.992 164.068 84.6304C164.068 85.2688 164.196 85.8288 164.454 86.3104C164.723 86.792 165.07 87.1616 165.496 87.4192C165.932 87.6656 166.392 87.7888 166.873 87.7888C167.366 87.7888 167.825 87.6656 168.251 87.4192C168.676 87.1728 169.018 86.8144 169.276 86.344C169.544 85.8624 169.679 85.3024 169.679 84.664ZM175.857 81.388C176.137 80.9176 176.506 80.5536 176.966 80.296C177.436 80.0272 177.99 79.8928 178.629 79.8928V81.8752H178.142C177.391 81.8752 176.82 82.0656 176.428 82.4464C176.047 82.8272 175.857 83.488 175.857 84.4288V89.3008H173.942V80.044H175.857V81.388ZM188.688 84.4456C188.688 84.7928 188.666 85.1064 188.621 85.3864H181.548C181.604 86.1256 181.879 86.7192 182.372 87.1672C182.864 87.6152 183.469 87.8392 184.186 87.8392C185.216 87.8392 185.944 87.408 186.37 86.5456H188.436C188.156 87.3968 187.647 88.0968 186.908 88.6456C186.18 89.1832 185.272 89.452 184.186 89.452C183.301 89.452 182.506 89.256 181.8 88.864C181.106 88.4608 180.557 87.9008 180.154 87.184C179.762 86.456 179.566 85.616 179.566 84.664C179.566 83.712 179.756 82.8776 180.137 82.1608C180.529 81.4328 181.072 80.8728 181.767 80.4808C182.472 80.0888 183.279 79.8928 184.186 79.8928C185.06 79.8928 185.838 80.0832 186.521 80.464C187.204 80.8448 187.736 81.3824 188.117 82.0768C188.498 82.76 188.688 83.5496 188.688 84.4456ZM186.689 83.8408C186.678 83.1352 186.426 82.5696 185.933 82.144C185.44 81.7184 184.83 81.5056 184.102 81.5056C183.441 81.5056 182.876 81.7184 182.405 82.144C181.935 82.5584 181.655 83.124 181.565 83.8408H186.689Z" fill="#505050"/>
<path d="M125.498 138.72C123.244 138.496 120.99 138.328 118.722 138.202V138.188L118.414 136.368C118.204 135.08 117.896 133.148 114.62 133.148H110.952C107.69 133.148 107.382 134.996 107.158 136.354L106.864 138.146C105.562 138.23 104.26 138.314 102.958 138.44L100.102 138.72C99.5135 138.776 99.0935 139.294 99.1495 139.868C99.2055 140.442 99.7095 140.862 100.298 140.806L103.154 140.526C110.49 139.798 117.882 140.078 125.302 140.82C125.344 140.82 125.372 140.82 125.414 140.82C125.946 140.82 126.408 140.414 126.464 139.868C126.506 139.294 126.086 138.776 125.498 138.72Z" fill="#505050"/>
<path d="M122.926 142.796C122.59 142.446 122.128 142.25 121.652 142.25H103.956C103.48 142.25 103.004 142.446 102.682 142.796C102.36 143.146 102.178 143.622 102.206 144.112L103.074 158.476C103.228 160.604 103.424 163.264 108.31 163.264H117.298C122.184 163.264 122.38 160.618 122.534 158.476L123.402 144.126C123.43 143.622 123.248 143.146 122.926 142.796ZM115.128 156.25H110.466C109.892 156.25 109.416 155.774 109.416 155.2C109.416 154.626 109.892 154.15 110.466 154.15H115.128C115.702 154.15 116.178 154.626 116.178 155.2C116.178 155.774 115.702 156.25 115.128 156.25ZM116.304 150.65H109.304C108.73 150.65 108.254 150.174 108.254 149.6C108.254 149.026 108.73 148.55 109.304 148.55H116.304C116.878 148.55 117.354 149.026 117.354 149.6C117.354 150.174 116.878 150.65 116.304 150.65Z" fill="#505050"/>
<path d="M149.1 151.314H144.211L143.371 153.699H141.372L145.555 142.006H147.773L151.956 153.699H149.94L149.1 151.314ZM148.562 149.751L146.664 144.325L144.749 149.751H148.562ZM155.505 145.786C155.785 145.316 156.155 144.952 156.614 144.694C157.084 144.426 157.639 144.291 158.277 144.291V146.274H157.79C157.04 146.274 156.468 146.464 156.076 146.845C155.696 147.226 155.505 147.886 155.505 148.827V153.699H153.59V144.442H155.505V145.786ZM159.215 149.062C159.215 148.11 159.405 147.276 159.786 146.559C160.178 145.831 160.715 145.271 161.399 144.879C162.082 144.487 162.866 144.291 163.751 144.291C164.871 144.291 165.795 144.56 166.523 145.098C167.262 145.624 167.76 146.38 168.018 147.366H165.951C165.783 146.906 165.515 146.548 165.145 146.29C164.775 146.033 164.311 145.904 163.751 145.904C162.967 145.904 162.339 146.184 161.869 146.744C161.41 147.293 161.18 148.066 161.18 149.062C161.18 150.059 161.41 150.838 161.869 151.398C162.339 151.958 162.967 152.238 163.751 152.238C164.859 152.238 165.593 151.75 165.951 150.776H168.018C167.749 151.717 167.245 152.467 166.506 153.027C165.767 153.576 164.848 153.85 163.751 153.85C162.866 153.85 162.082 153.654 161.399 153.262C160.715 152.859 160.178 152.299 159.786 151.582C159.405 150.854 159.215 150.014 159.215 149.062ZM174.53 144.291C175.235 144.291 175.862 144.442 176.411 144.745C176.971 145.047 177.408 145.495 177.722 146.089C178.046 146.682 178.209 147.399 178.209 148.239V153.699H176.31V148.525C176.31 147.696 176.103 147.063 175.689 146.626C175.274 146.178 174.709 145.954 173.992 145.954C173.275 145.954 172.704 146.178 172.278 146.626C171.864 147.063 171.657 147.696 171.657 148.525V153.699H169.742V141.267H171.657V145.518C171.982 145.126 172.39 144.823 172.883 144.61C173.387 144.398 173.936 144.291 174.53 144.291ZM181.441 143.216C181.094 143.216 180.803 143.098 180.568 142.863C180.332 142.628 180.215 142.337 180.215 141.99C180.215 141.642 180.332 141.351 180.568 141.116C180.803 140.881 181.094 140.763 181.441 140.763C181.777 140.763 182.063 140.881 182.298 141.116C182.533 141.351 182.651 141.642 182.651 141.99C182.651 142.337 182.533 142.628 182.298 142.863C182.063 143.098 181.777 143.216 181.441 143.216ZM182.382 144.442V153.699H180.467V144.442H182.382ZM193.196 148.844C193.196 149.191 193.173 149.505 193.129 149.785H186.056C186.112 150.524 186.386 151.118 186.879 151.566C187.372 152.014 187.977 152.238 188.693 152.238C189.724 152.238 190.452 151.806 190.877 150.944H192.944C192.664 151.795 192.154 152.495 191.415 153.044C190.687 153.582 189.78 153.85 188.693 153.85C187.809 153.85 187.013 153.654 186.308 153.262C185.613 152.859 185.065 152.299 184.661 151.582C184.269 150.854 184.073 150.014 184.073 149.062C184.073 148.11 184.264 147.276 184.645 146.559C185.037 145.831 185.58 145.271 186.274 144.879C186.98 144.487 187.786 144.291 188.693 144.291C189.567 144.291 190.345 144.482 191.029 144.862C191.712 145.243 192.244 145.781 192.625 146.475C193.005 147.158 193.196 147.948 193.196 148.844ZM191.197 148.239C191.185 147.534 190.933 146.968 190.441 146.542C189.948 146.117 189.337 145.904 188.609 145.904C187.949 145.904 187.383 146.117 186.913 146.542C186.442 146.957 186.162 147.522 186.073 148.239H191.197ZM198.474 151.986L201.095 144.442H203.128L199.6 153.699H197.315L193.804 144.442H195.853L198.474 151.986ZM212.875 148.844C212.875 149.191 212.852 149.505 212.807 149.785H205.735C205.791 150.524 206.065 151.118 206.558 151.566C207.051 152.014 207.655 152.238 208.372 152.238C209.403 152.238 210.131 151.806 210.556 150.944H212.623C212.343 151.795 211.833 152.495 211.094 153.044C210.366 153.582 209.459 153.85 208.372 153.85C207.487 153.85 206.692 153.654 205.987 153.262C205.292 152.859 204.743 152.299 204.34 151.582C203.948 150.854 203.752 150.014 203.752 149.062C203.752 148.11 203.943 147.276 204.323 146.559C204.715 145.831 205.259 145.271 205.953 144.879C206.659 144.487 207.465 144.291 208.372 144.291C209.246 144.291 210.024 144.482 210.707 144.862C211.391 145.243 211.923 145.781 212.303 146.475C212.684 147.158 212.875 147.948 212.875 148.844ZM210.875 148.239C210.864 147.534 210.612 146.968 210.119 146.542C209.627 146.117 209.016 145.904 208.288 145.904C207.627 145.904 207.062 146.117 206.591 146.542C206.121 146.957 205.841 147.522 205.751 148.239H210.875Z" fill="#505050"/>
</g>
<defs>
<filter id="filter0_dd_780_20103" x="0.694339" y="0.222641" width="306.838" height="264.838" filterUnits="userSpaceOnUse" color-interpolation-filters="sRGB">
<feFlood flood-opacity="0" result="BackgroundImageFix"/>
<feColorMatrix in="SourceAlpha" type="matrix" values="0 0 0 0 0 0 0 0 0 0 0 0 0 0 0 0 0 0 127 0" result="hardAlpha"/>
<feOffset dy="8.4"/>
<feGaussianBlur stdDeviation="26.32"/>
<feComposite in2="hardAlpha" operator="out"/>
<feColorMatrix type="matrix" values="0 0 0 0 0.554152 0 0 0 0 0.554152 0 0 0 0 0.554152 0 0 0 0.19 0"/>
<feBlend mode="normal" in2="BackgroundImageFix" result="effect1_dropShadow_780_20103"/>
<feColorMatrix in="SourceAlpha" type="matrix" values="0 0 0 0 0 0 0 0 0 0 0 0 0 0 0 0 0 0 127 0" result="hardAlpha"/>
<feOffset dx="-11.8868" dy="16.6415"/>
<feGaussianBlur stdDeviation="34.7094"/>
<feComposite in2="hardAlpha" operator="out"/>
<feColorMatrix type="matrix" values="0 0 0 0 0.0444481 0 0 0 0 0 0 0 0 0 0.888965 0 0 0 0.07 0"/>
<feBlend mode="normal" in2="effect1_dropShadow_780_20103" result="effect2_dropShadow_780_20103"/>
<feBlend mode="normal" in="SourceGraphic" in2="effect2_dropShadow_780_20103" result="shape"/>
</filter>
</defs>
</svg>
