<svg width="239" height="202" viewBox="0 0 239 202" fill="none" xmlns="http://www.w3.org/2000/svg">
<g filter="url(#filter0_d_745_12185)">
<rect x="8" y="8" width="222.121" height="185.873" rx="12" fill="white"/>
<mask id="path-2-inside-1_745_12185" fill="white">
<path d="M19.8438 19.8438H218.273V52.6894H19.8438V19.8438Z"/>
</mask>
<path d="M218.273 51.5048H19.8438V53.874H218.273V51.5048Z" fill="#EAEAEA" mask="url(#path-2-inside-1_745_12185)"/>
<path d="M26.4688 35.4694V27.4459C26.4688 27.13 26.5635 26.822 26.7373 26.5614L28.8932 23.3552C29.2327 22.8419 30.0777 22.4786 30.7964 22.7471C31.5703 23.0077 32.0836 23.8764 31.9177 24.6503L31.5071 27.2327C31.4755 27.4696 31.5387 27.6828 31.6729 27.8487C31.8072 27.9987 32.0046 28.0935 32.2178 28.0935H35.4635C36.0874 28.0935 36.6244 28.3462 36.9403 28.7884C37.2404 29.2149 37.2957 29.7677 37.0982 30.3283L35.1556 36.2433C34.9108 37.2225 33.8446 38.0201 32.7864 38.0201H29.7066C29.1775 38.0201 28.4351 37.8385 28.0956 37.4989L27.0847 36.7171C26.6978 36.4249 26.4688 35.959 26.4688 35.4694Z" fill="#7B7B7B"/>
<path d="M23.9647 25.9062H23.1513C21.9272 25.9062 21.4297 26.3801 21.4297 27.5488V35.4933C21.4297 36.6621 21.9272 37.1359 23.1513 37.1359H23.9647C25.1887 37.1359 25.6862 36.6621 25.6862 35.4933V27.5488C25.6862 26.3801 25.1887 25.9062 23.9647 25.9062Z" fill="#7B7B7B"/>
<path d="M50.96 33.536H54.3005V34.8438H49.3395V24.9645H50.96V33.536ZM56.3238 25.9737C56.03 25.9737 55.7836 25.8742 55.5846 25.6752C55.3856 25.4762 55.2861 25.2298 55.2861 24.936C55.2861 24.6423 55.3856 24.3959 55.5846 24.1969C55.7836 23.9979 56.03 23.8984 56.3238 23.8984C56.6081 23.8984 56.8497 23.9979 57.0487 24.1969C57.2477 24.3959 57.3472 24.6423 57.3472 24.936C57.3472 25.2298 57.2477 25.4762 57.0487 25.6752C56.8497 25.8742 56.6081 25.9737 56.3238 25.9737ZM57.1198 27.0114V34.8438H55.4993V27.0114H57.1198ZM62.1898 30.9347L65.8004 34.8438H63.6113L60.7115 31.4748V34.8438H59.091V24.3248H60.7115V30.4372L63.5544 27.0114H65.8004L62.1898 30.9347ZM73.984 30.7357C73.984 31.0294 73.965 31.2948 73.9271 31.5317H67.9427C67.9901 32.1572 68.2223 32.6594 68.6392 33.0385C69.0562 33.4175 69.5679 33.6071 70.1744 33.6071C71.0463 33.6071 71.6622 33.2422 72.0223 32.5125H73.7708C73.5338 33.2327 73.1027 33.825 72.4772 34.2894C71.8612 34.7442 71.0936 34.9717 70.1744 34.9717C69.4258 34.9717 68.7529 34.8058 68.1559 34.4742C67.5684 34.133 67.104 33.6592 66.7629 33.0527C66.4312 32.4367 66.2654 31.726 66.2654 30.9205C66.2654 30.115 66.4265 29.409 66.7487 28.8025C67.0803 28.1865 67.5399 27.7127 68.1275 27.381C68.7245 27.0493 69.4068 26.8835 70.1744 26.8835C70.9136 26.8835 71.5722 27.0446 72.1503 27.3668C72.7283 27.689 73.1785 28.1438 73.5007 28.7314C73.8229 29.3095 73.984 29.9776 73.984 30.7357ZM72.2924 30.2239C72.2829 29.6269 72.0697 29.1484 71.6528 28.7883C71.2358 28.4281 70.7193 28.2481 70.1033 28.2481C69.5442 28.2481 69.0657 28.4281 68.6677 28.7883C68.2696 29.1389 68.0327 29.6174 67.9569 30.2239H72.2924ZM78.2653 34.9717C77.6493 34.9717 77.0949 34.8627 76.6022 34.6447C76.1189 34.4173 75.7351 34.1141 75.4508 33.735C75.1665 33.3465 75.0149 32.9153 74.9959 32.4415H76.6732C76.7017 32.7731 76.858 33.0527 77.1423 33.2801C77.4361 33.4981 77.8009 33.6071 78.2369 33.6071C78.6917 33.6071 79.0424 33.5218 79.2888 33.3512C79.5446 33.1711 79.6726 32.9437 79.6726 32.6689C79.6726 32.3751 79.5304 32.1572 79.2461 32.015C78.9713 31.8729 78.5306 31.7165 77.9241 31.5459C77.3366 31.3848 76.858 31.2285 76.4885 31.0768C76.1189 30.9252 75.7967 30.693 75.5218 30.3803C75.2565 30.0676 75.1238 29.6554 75.1238 29.1436C75.1238 28.7267 75.247 28.3476 75.4934 28.0064C75.7398 27.6558 76.0904 27.381 76.5453 27.182C77.0097 26.983 77.5403 26.8835 78.1374 26.8835C79.0282 26.8835 79.7436 27.1109 80.2838 27.5658C80.8334 28.0112 81.1272 28.6224 81.1651 29.3995H79.5446C79.5162 29.0489 79.3741 28.7693 79.1182 28.5608C78.8623 28.3523 78.5164 28.2481 78.0805 28.2481C77.6541 28.2481 77.3271 28.3286 77.0997 28.4897C76.8723 28.6508 76.7585 28.8641 76.7585 29.1294C76.7585 29.3379 76.8343 29.5132 76.986 29.6554C77.1376 29.7975 77.3224 29.9112 77.5403 29.9965C77.7583 30.0723 78.0805 30.1718 78.507 30.295C79.0755 30.4466 79.5399 30.603 79.9 30.7641C80.2696 30.9157 80.587 31.1432 80.8524 31.4464C81.1177 31.7497 81.2551 32.1524 81.2646 32.6547C81.2646 33.1001 81.1414 33.4981 80.895 33.8487C80.6486 34.1993 80.298 34.4742 79.8431 34.6732C79.3977 34.8722 78.8718 34.9717 78.2653 34.9717ZM87.0493 34.9433C86.7555 34.9433 86.5091 34.8438 86.3101 34.6447C86.1111 34.4457 86.0116 34.1993 86.0116 33.9056C86.0116 33.6118 86.1111 33.3654 86.3101 33.1664C86.5091 32.9674 86.7555 32.8679 87.0493 32.8679C87.3336 32.8679 87.5752 32.9674 87.7742 33.1664C87.9732 33.3654 88.0727 33.6118 88.0727 33.9056C88.0727 34.1993 87.9732 34.4457 87.7742 34.6447C87.5752 34.8438 87.3336 34.9433 87.0493 34.9433ZM87.0493 28.973C86.7555 28.973 86.5091 28.8735 86.3101 28.6745C86.1111 28.4755 86.0116 28.2291 86.0116 27.9354C86.0116 27.6416 86.1111 27.3952 86.3101 27.1962C86.5091 26.9972 86.7555 26.8977 87.0493 26.8977C87.3336 26.8977 87.5752 26.9972 87.7742 27.1962C87.9732 27.3952 88.0727 27.6416 88.0727 27.9354C88.0727 28.2291 87.9732 28.4755 87.7742 28.6745C87.5752 28.8735 87.3336 28.973 87.0493 28.973ZM99.2154 32.8253H95.0789L94.3682 34.8438H92.6766L96.2161 24.9503H98.0925L101.632 34.8438H99.9262L99.2154 32.8253ZM98.7606 31.5033L97.1543 26.9119L95.5338 31.5033H98.7606ZM105.858 34.9717C105.242 34.9717 104.687 34.8627 104.194 34.6447C103.711 34.4173 103.327 34.1141 103.043 33.735C102.759 33.3465 102.607 32.9153 102.588 32.4415H104.265C104.294 32.7731 104.45 33.0527 104.735 33.2801C105.028 33.4981 105.393 33.6071 105.829 33.6071C106.284 33.6071 106.635 33.5218 106.881 33.3512C107.137 33.1711 107.265 32.9437 107.265 32.6689C107.265 32.3751 107.123 32.1572 106.838 32.015C106.564 31.8729 106.123 31.7165 105.516 31.5459C104.929 31.3848 104.45 31.2285 104.081 31.0768C103.711 30.9252 103.389 30.693 103.114 30.3803C102.849 30.0676 102.716 29.6554 102.716 29.1436C102.716 28.7267 102.839 28.3476 103.086 28.0064C103.332 27.6558 103.683 27.381 104.138 27.182C104.602 26.983 105.133 26.8835 105.73 26.8835C106.62 26.8835 107.336 27.1109 107.876 27.5658C108.426 28.0112 108.719 28.6224 108.757 29.3995H107.137C107.108 29.0489 106.966 28.7693 106.71 28.5608C106.455 28.3523 106.109 28.2481 105.673 28.2481C105.246 28.2481 104.919 28.3286 104.692 28.4897C104.464 28.6508 104.351 28.8641 104.351 29.1294C104.351 29.3379 104.427 29.5132 104.578 29.6554C104.73 29.7975 104.915 29.9112 105.133 29.9965C105.351 30.0723 105.673 30.1718 106.099 30.295C106.668 30.4466 107.132 30.603 107.492 30.7641C107.862 30.9157 108.179 31.1432 108.445 31.4464C108.71 31.7497 108.847 32.1524 108.857 32.6547C108.857 33.1001 108.734 33.4981 108.487 33.8487C108.241 34.1993 107.89 34.4742 107.435 34.6732C106.99 34.8722 106.464 34.9717 105.858 34.9717ZM109.911 30.9205C109.911 30.115 110.072 29.409 110.395 28.8025C110.726 28.1865 111.181 27.7127 111.759 27.381C112.337 27.0493 113.001 26.8835 113.749 26.8835C114.697 26.8835 115.479 27.1109 116.095 27.5658C116.72 28.0112 117.142 28.6508 117.36 29.4848H115.611C115.469 29.0962 115.242 28.793 114.929 28.575C114.616 28.3571 114.223 28.2481 113.749 28.2481C113.086 28.2481 112.555 28.485 112.157 28.9588C111.769 29.4232 111.574 30.0771 111.574 30.9205C111.574 31.7639 111.769 32.4225 112.157 32.8963C112.555 33.3702 113.086 33.6071 113.749 33.6071C114.687 33.6071 115.308 33.1948 115.611 32.3704H117.36C117.132 33.1664 116.706 33.8013 116.081 34.2752C115.455 34.7395 114.678 34.9717 113.749 34.9717C113.001 34.9717 112.337 34.8058 111.759 34.4742C111.181 34.133 110.726 33.6592 110.395 33.0527C110.072 32.4367 109.911 31.726 109.911 30.9205ZM125.997 30.7357C125.997 31.0294 125.978 31.2948 125.94 31.5317H119.956C120.003 32.1572 120.235 32.6594 120.652 33.0385C121.069 33.4175 121.581 33.6071 122.187 33.6071C123.059 33.6071 123.675 33.2422 124.035 32.5125H125.784C125.547 33.2327 125.116 33.825 124.49 34.2894C123.874 34.7442 123.107 34.9717 122.187 34.9717C121.439 34.9717 120.766 34.8058 120.169 34.4742C119.581 34.133 119.117 33.6592 118.776 33.0527C118.444 32.4367 118.278 31.726 118.278 30.9205C118.278 30.115 118.439 29.409 118.762 28.8025C119.093 28.1865 119.553 27.7127 120.14 27.381C120.737 27.0493 121.42 26.8835 122.187 26.8835C122.926 26.8835 123.585 27.0446 124.163 27.3668C124.741 27.689 125.191 28.1438 125.514 28.7314C125.836 29.3095 125.997 29.9776 125.997 30.7357ZM124.305 30.2239C124.296 29.6269 124.083 29.1484 123.666 28.7883C123.249 28.4281 122.732 28.2481 122.116 28.2481C121.557 28.2481 121.079 28.4281 120.681 28.7883C120.283 29.1389 120.046 29.6174 119.97 30.2239H124.305ZM131.387 26.8835C132.003 26.8835 132.553 27.0114 133.036 27.2673C133.529 27.5231 133.912 27.9022 134.187 28.4045C134.462 28.9067 134.599 29.5132 134.599 30.2239V34.8438H132.993V30.4656C132.993 29.7643 132.818 29.2289 132.467 28.8593C132.117 28.4803 131.638 28.2907 131.032 28.2907C130.425 28.2907 129.942 28.4803 129.582 28.8593C129.231 29.2289 129.056 29.7643 129.056 30.4656V34.8438H127.435V27.0114H129.056V27.9069C129.321 27.5847 129.657 27.3336 130.065 27.1536C130.482 26.9735 130.923 26.8835 131.387 26.8835ZM135.97 30.892C135.97 30.1055 136.131 29.409 136.453 28.8025C136.785 28.196 137.23 27.7269 137.789 27.3952C138.358 27.054 138.988 26.8835 139.68 26.8835C140.192 26.8835 140.694 26.9972 141.187 27.2246C141.689 27.4426 142.087 27.7364 142.381 28.1059V24.3248H144.016V34.8438H142.381V33.6639C142.116 34.043 141.746 34.3557 141.272 34.6021C140.808 34.8485 140.272 34.9717 139.666 34.9717C138.984 34.9717 138.358 34.8011 137.789 34.46C137.23 34.1093 136.785 33.626 136.453 33.01C136.131 32.3846 135.97 31.6786 135.97 30.892ZM142.381 30.9205C142.381 30.3803 142.267 29.9112 142.04 29.5132C141.822 29.1152 141.533 28.8119 141.173 28.6035C140.812 28.395 140.424 28.2907 140.007 28.2907C139.59 28.2907 139.201 28.395 138.841 28.6035C138.481 28.8025 138.187 29.101 137.96 29.499C137.742 29.8875 137.633 30.3519 137.633 30.892C137.633 31.4322 137.742 31.906 137.96 32.3135C138.187 32.721 138.481 33.0337 138.841 33.2517C139.211 33.4602 139.6 33.5644 140.007 33.5644C140.424 33.5644 140.812 33.4602 141.173 33.2517C141.533 33.0432 141.822 32.74 142.04 32.3419C142.267 31.9345 142.381 31.4606 142.381 30.9205ZM146.812 25.9737C146.518 25.9737 146.272 25.8742 146.073 25.6752C145.874 25.4762 145.774 25.2298 145.774 24.936C145.774 24.6423 145.874 24.3959 146.073 24.1969C146.272 23.9979 146.518 23.8984 146.812 23.8984C147.096 23.8984 147.338 23.9979 147.537 24.1969C147.736 24.3959 147.836 24.6423 147.836 24.936C147.836 25.2298 147.736 25.4762 147.537 25.6752C147.338 25.8742 147.096 25.9737 146.812 25.9737ZM147.608 27.0114V34.8438H145.988V27.0114H147.608ZM153.531 26.8835C154.147 26.8835 154.697 27.0114 155.18 27.2673C155.673 27.5231 156.057 27.9022 156.331 28.4045C156.606 28.9067 156.744 29.5132 156.744 30.2239V34.8438H155.137V30.4656C155.137 29.7643 154.962 29.2289 154.611 28.8593C154.261 28.4803 153.782 28.2907 153.176 28.2907C152.569 28.2907 152.086 28.4803 151.726 28.8593C151.375 29.2289 151.2 29.7643 151.2 30.4656V34.8438H149.579V27.0114H151.2V27.9069C151.465 27.5847 151.802 27.3336 152.209 27.1536C152.626 26.9735 153.067 26.8835 153.531 26.8835ZM161.81 26.8835C162.416 26.8835 162.952 27.0067 163.416 27.2531C163.89 27.49 164.26 27.7885 164.525 28.1486V27.0114H166.16V34.9717C166.16 35.6919 166.008 36.3316 165.705 36.8907C165.402 37.4593 164.961 37.9047 164.383 38.2269C163.814 38.5491 163.132 38.7102 162.336 38.7102C161.274 38.7102 160.393 38.459 159.692 37.9568C158.991 37.464 158.593 36.7912 158.498 35.9383H160.104C160.227 36.3458 160.488 36.6727 160.886 36.9191C161.293 37.175 161.777 37.3029 162.336 37.3029C162.99 37.3029 163.516 37.1039 163.914 36.7059C164.321 36.3079 164.525 35.7298 164.525 34.9717V33.6639C164.25 34.0335 163.876 34.3462 163.402 34.6021C162.938 34.8485 162.407 34.9717 161.81 34.9717C161.128 34.9717 160.502 34.8011 159.934 34.46C159.374 34.1093 158.929 33.626 158.597 33.01C158.275 32.3846 158.114 31.6786 158.114 30.892C158.114 30.1055 158.275 29.409 158.597 28.8025C158.929 28.196 159.374 27.7269 159.934 27.3952C160.502 27.054 161.128 26.8835 161.81 26.8835ZM164.525 30.9205C164.525 30.3803 164.411 29.9112 164.184 29.5132C163.966 29.1152 163.677 28.8119 163.317 28.6035C162.957 28.395 162.568 28.2907 162.151 28.2907C161.734 28.2907 161.346 28.395 160.985 28.6035C160.625 28.8025 160.332 29.101 160.104 29.499C159.886 29.8875 159.777 30.3519 159.777 30.892C159.777 31.4322 159.886 31.906 160.104 32.3135C160.332 32.721 160.625 33.0337 160.985 33.2517C161.355 33.4602 161.744 33.5644 162.151 33.5644C162.568 33.5644 162.957 33.4602 163.317 33.2517C163.677 33.0432 163.966 32.74 164.184 32.3419C164.411 31.9345 164.525 31.4606 164.525 30.9205Z" fill="#505050"/>
<mask id="path-7-inside-2_745_12185" fill="white">
<path d="M19.8438 66.9062H218.273V99.7519H19.8438V66.9062Z"/>
</mask>
<path d="M218.273 98.5673H19.8438V100.936H218.273V98.5673Z" fill="#EAEAEA" mask="url(#path-7-inside-2_745_12185)"/>
<path d="M26.4688 82.5319V74.5084C26.4688 74.1925 26.5635 73.8845 26.7373 73.6239L28.8932 70.4177C29.2327 69.9044 30.0777 69.5411 30.7964 69.8096C31.5703 70.0702 32.0836 70.9389 31.9177 71.7128L31.5071 74.2952C31.4755 74.5321 31.5387 74.7453 31.6729 74.9112C31.8072 75.0612 32.0046 75.156 32.2178 75.156H35.4635C36.0874 75.156 36.6244 75.4087 36.9403 75.8509C37.2404 76.2774 37.2957 76.8302 37.0982 77.3908L35.1556 83.3058C34.9108 84.285 33.8446 85.0826 32.7864 85.0826H29.7066C29.1775 85.0826 28.4351 84.901 28.0956 84.5614L27.0847 83.7796C26.6978 83.4874 26.4688 83.0215 26.4688 82.5319Z" fill="#7B7B7B"/>
<path d="M23.9647 72.9688H23.1513C21.9272 72.9688 21.4297 73.4426 21.4297 74.6113V82.5558C21.4297 83.7246 21.9272 84.1984 23.1513 84.1984H23.9647C25.1887 84.1984 25.6862 83.7246 25.6862 82.5558V74.6113C25.6862 73.4426 25.1887 72.9688 23.9647 72.9688Z" fill="#7B7B7B"/>
<path d="M50.96 80.5985H54.3005V81.9062H49.3395V72.027H50.96V80.5985ZM56.3238 73.0362C56.03 73.0362 55.7836 72.9367 55.5846 72.7377C55.3856 72.5387 55.2861 72.2923 55.2861 71.9985C55.2861 71.7048 55.3856 71.4584 55.5846 71.2594C55.7836 71.0604 56.03 70.9609 56.3238 70.9609C56.6081 70.9609 56.8497 71.0604 57.0487 71.2594C57.2477 71.4584 57.3472 71.7048 57.3472 71.9985C57.3472 72.2923 57.2477 72.5387 57.0487 72.7377C56.8497 72.9367 56.6081 73.0362 56.3238 73.0362ZM57.1198 74.0739V81.9062H55.4993V74.0739H57.1198ZM62.1898 77.9972L65.8004 81.9062H63.6113L60.7115 78.5373V81.9062H59.091V71.3873H60.7115V77.4997L63.5544 74.0739H65.8004L62.1898 77.9972ZM73.984 77.7982C73.984 78.0919 73.965 78.3573 73.9271 78.5942H67.9427C67.9901 79.2197 68.2223 79.7219 68.6392 80.101C69.0562 80.48 69.5679 80.6696 70.1744 80.6696C71.0463 80.6696 71.6622 80.3047 72.0223 79.575H73.7708C73.5338 80.2952 73.1027 80.8875 72.4772 81.3519C71.8612 81.8067 71.0936 82.0342 70.1744 82.0342C69.4258 82.0342 68.7529 81.8683 68.1559 81.5367C67.5684 81.1955 67.104 80.7217 66.7629 80.1152C66.4312 79.4992 66.2654 78.7885 66.2654 77.983C66.2654 77.1775 66.4265 76.4715 66.7487 75.865C67.0803 75.249 67.5399 74.7752 68.1275 74.4435C68.7245 74.1118 69.4068 73.946 70.1744 73.946C70.9136 73.946 71.5722 74.1071 72.1503 74.4293C72.7283 74.7515 73.1785 75.2063 73.5007 75.7939C73.8229 76.372 73.984 77.0401 73.984 77.7982ZM72.2924 77.2864C72.2829 76.6894 72.0697 76.2109 71.6528 75.8508C71.2358 75.4906 70.7193 75.3106 70.1033 75.3106C69.5442 75.3106 69.0657 75.4906 68.6677 75.8508C68.2696 76.2014 68.0327 76.6799 67.9569 77.2864H72.2924ZM78.2653 82.0342C77.6493 82.0342 77.0949 81.9252 76.6022 81.7072C76.1189 81.4798 75.7351 81.1766 75.4508 80.7975C75.1665 80.409 75.0149 79.9778 74.9959 79.504H76.6732C76.7017 79.8356 76.858 80.1152 77.1423 80.3426C77.4361 80.5606 77.8009 80.6696 78.2369 80.6696C78.6917 80.6696 79.0424 80.5843 79.2888 80.4137C79.5446 80.2336 79.6726 80.0062 79.6726 79.7314C79.6726 79.4376 79.5304 79.2197 79.2461 79.0775C78.9713 78.9354 78.5306 78.779 77.9241 78.6084C77.3366 78.4473 76.858 78.291 76.4885 78.1393C76.1189 77.9877 75.7967 77.7555 75.5218 77.4428C75.2565 77.1301 75.1238 76.7179 75.1238 76.2061C75.1238 75.7892 75.247 75.4101 75.4934 75.0689C75.7398 74.7183 76.0904 74.4435 76.5453 74.2445C77.0097 74.0455 77.5403 73.946 78.1374 73.946C79.0282 73.946 79.7436 74.1734 80.2838 74.6283C80.8334 75.0737 81.1272 75.6849 81.1651 76.462H79.5446C79.5162 76.1114 79.3741 75.8318 79.1182 75.6233C78.8623 75.4148 78.5164 75.3106 78.0805 75.3106C77.6541 75.3106 77.3271 75.3911 77.0997 75.5522C76.8723 75.7133 76.7585 75.9266 76.7585 76.1919C76.7585 76.4004 76.8343 76.5757 76.986 76.7179C77.1376 76.86 77.3224 76.9737 77.5403 77.059C77.7583 77.1348 78.0805 77.2343 78.507 77.3575C79.0755 77.5091 79.5399 77.6655 79.9 77.8266C80.2696 77.9782 80.587 78.2057 80.8524 78.5089C81.1177 78.8122 81.2551 79.2149 81.2646 79.7172C81.2646 80.1626 81.1414 80.5606 80.895 80.9112C80.6486 81.2618 80.298 81.5367 79.8431 81.7357C79.3977 81.9347 78.8718 82.0342 78.2653 82.0342ZM87.0493 82.0058C86.7555 82.0058 86.5091 81.9062 86.3101 81.7072C86.1111 81.5082 86.0116 81.2618 86.0116 80.9681C86.0116 80.6743 86.1111 80.4279 86.3101 80.2289C86.5091 80.0299 86.7555 79.9304 87.0493 79.9304C87.3336 79.9304 87.5752 80.0299 87.7742 80.2289C87.9732 80.4279 88.0727 80.6743 88.0727 80.9681C88.0727 81.2618 87.9732 81.5082 87.7742 81.7072C87.5752 81.9062 87.3336 82.0058 87.0493 82.0058ZM87.0493 76.0355C86.7555 76.0355 86.5091 75.936 86.3101 75.737C86.1111 75.538 86.0116 75.2916 86.0116 74.9979C86.0116 74.7041 86.1111 74.4577 86.3101 74.2587C86.5091 74.0597 86.7555 73.9602 87.0493 73.9602C87.3336 73.9602 87.5752 74.0597 87.7742 74.2587C87.9732 74.4577 88.0727 74.7041 88.0727 74.9979C88.0727 75.2916 87.9732 75.538 87.7742 75.737C87.5752 75.936 87.3336 76.0355 87.0493 76.0355ZM96.4862 72.027C97.5381 72.027 98.4573 72.2307 99.2439 72.6382C100.04 73.0362 100.651 73.6143 101.078 74.3724C101.514 75.1211 101.731 75.9976 101.731 77.0021C101.731 78.0067 101.514 78.8785 101.078 79.6177C100.651 80.3568 100.04 80.9254 99.2439 81.3234C98.4573 81.712 97.5381 81.9062 96.4862 81.9062H93.2595V72.027H96.4862ZM96.4862 80.5843C97.6423 80.5843 98.5284 80.2715 99.1444 79.6461C99.7603 79.0206 100.068 78.1393 100.068 77.0021C100.068 75.8555 99.7603 74.96 99.1444 74.3156C98.5284 73.6712 97.6423 73.3489 96.4862 73.3489H94.8799V80.5843H96.4862ZM110.36 77.7982C110.36 78.0919 110.341 78.3573 110.303 78.5942H104.318C104.366 79.2197 104.598 79.7219 105.015 80.101C105.432 80.48 105.944 80.6696 106.55 80.6696C107.422 80.6696 108.038 80.3047 108.398 79.575H110.146C109.909 80.2952 109.478 80.8875 108.853 81.3519C108.237 81.8067 107.469 82.0342 106.55 82.0342C105.801 82.0342 105.129 81.8683 104.532 81.5367C103.944 81.1955 103.48 80.7217 103.139 80.1152C102.807 79.4992 102.641 78.7885 102.641 77.983C102.641 77.1775 102.802 76.4715 103.124 75.865C103.456 75.249 103.916 74.7752 104.503 74.4435C105.1 74.1118 105.782 73.946 106.55 73.946C107.289 73.946 107.948 74.1071 108.526 74.4293C109.104 74.7515 109.554 75.2063 109.876 75.7939C110.199 76.372 110.36 77.0401 110.36 77.7982ZM108.668 77.2864C108.659 76.6894 108.445 76.2109 108.028 75.8508C107.611 75.4906 107.095 75.3106 106.479 75.3106C105.92 75.3106 105.441 75.4906 105.043 75.8508C104.645 76.2014 104.408 76.6799 104.333 77.2864H108.668ZM114.641 82.0342C114.025 82.0342 113.471 81.9252 112.978 81.7072C112.494 81.4798 112.111 81.1766 111.826 80.7975C111.542 80.409 111.39 79.9778 111.372 79.504H113.049C113.077 79.8356 113.234 80.1152 113.518 80.3426C113.812 80.5606 114.177 80.6696 114.613 80.6696C115.067 80.6696 115.418 80.5843 115.664 80.4137C115.92 80.2336 116.048 80.0062 116.048 79.7314C116.048 79.4376 115.906 79.2197 115.622 79.0775C115.347 78.9354 114.906 78.779 114.3 78.6084C113.712 78.4473 113.234 78.291 112.864 78.1393C112.494 77.9877 112.172 77.7555 111.897 77.4428C111.632 77.1301 111.499 76.7179 111.499 76.2061C111.499 75.7892 111.623 75.4101 111.869 75.0689C112.115 74.7183 112.466 74.4435 112.921 74.2445C113.385 74.0455 113.916 73.946 114.513 73.946C115.404 73.946 116.119 74.1734 116.659 74.6283C117.209 75.0737 117.503 75.6849 117.541 76.462H115.92C115.892 76.1114 115.75 75.8318 115.494 75.6233C115.238 75.4148 114.892 75.3106 114.456 75.3106C114.03 75.3106 113.703 75.3911 113.475 75.5522C113.248 75.7133 113.134 75.9266 113.134 76.1919C113.134 76.4004 113.21 76.5757 113.362 76.7179C113.513 76.86 113.698 76.9737 113.916 77.059C114.134 77.1348 114.456 77.2343 114.883 77.3575C115.451 77.5091 115.916 77.6655 116.276 77.8266C116.645 77.9782 116.963 78.2057 117.228 78.5089C117.493 78.8122 117.631 79.2149 117.64 79.7172C117.64 80.1626 117.517 80.5606 117.271 80.9112C117.024 81.2618 116.674 81.5367 116.219 81.7357C115.773 81.9347 115.247 82.0342 114.641 82.0342ZM118.695 77.983C118.695 77.1775 118.856 76.4715 119.178 75.865C119.51 75.249 119.965 74.7752 120.543 74.4435C121.121 74.1118 121.784 73.946 122.533 73.946C123.48 73.946 124.262 74.1734 124.878 74.6283C125.504 75.0737 125.925 75.7133 126.143 76.5473H124.395C124.253 76.1587 124.025 75.8555 123.713 75.6375C123.4 75.4196 123.007 75.3106 122.533 75.3106C121.869 75.3106 121.339 75.5475 120.941 76.0213C120.552 76.4857 120.358 77.1396 120.358 77.983C120.358 78.8264 120.552 79.485 120.941 79.9588C121.339 80.4327 121.869 80.6696 122.533 80.6696C123.471 80.6696 124.092 80.2573 124.395 79.4329H126.143C125.916 80.2289 125.489 80.8638 124.864 81.3377C124.238 81.802 123.461 82.0342 122.533 82.0342C121.784 82.0342 121.121 81.8683 120.543 81.5367C119.965 81.1955 119.51 80.7217 119.178 80.1152C118.856 79.4992 118.695 78.7885 118.695 77.983ZM134.78 77.7982C134.78 78.0919 134.761 78.3573 134.723 78.5942H128.739C128.786 79.2197 129.019 79.7219 129.436 80.101C129.852 80.48 130.364 80.6696 130.971 80.6696C131.843 80.6696 132.459 80.3047 132.819 79.575H134.567C134.33 80.2952 133.899 80.8875 133.274 81.3519C132.658 81.8067 131.89 82.0342 130.971 82.0342C130.222 82.0342 129.549 81.8683 128.952 81.5367C128.365 81.1955 127.9 80.7217 127.559 80.1152C127.227 79.4992 127.062 78.7885 127.062 77.983C127.062 77.1775 127.223 76.4715 127.545 75.865C127.877 75.249 128.336 74.7752 128.924 74.4435C129.521 74.1118 130.203 73.946 130.971 73.946C131.71 73.946 132.369 74.1071 132.947 74.4293C133.525 74.7515 133.975 75.2063 134.297 75.7939C134.619 76.372 134.78 77.0401 134.78 77.7982ZM133.089 77.2864C133.079 76.6894 132.866 76.2109 132.449 75.8508C132.032 75.4906 131.516 75.3106 130.9 75.3106C130.341 75.3106 129.862 75.4906 129.464 75.8508C129.066 76.2014 128.829 76.6799 128.753 77.2864H133.089ZM140.17 73.946C140.786 73.946 141.336 74.0739 141.819 74.3298C142.312 74.5856 142.696 74.9647 142.971 75.467C143.245 75.9692 143.383 76.5757 143.383 77.2864V81.9062H141.777V77.5281C141.777 76.8268 141.601 76.2914 141.251 75.9218C140.9 75.5428 140.421 75.3532 139.815 75.3532C139.208 75.3532 138.725 75.5428 138.365 75.9218C138.014 76.2914 137.839 76.8268 137.839 77.5281V81.9062H136.219V74.0739H137.839V74.9694C138.104 74.6472 138.441 74.3961 138.848 74.2161C139.265 74.036 139.706 73.946 140.17 73.946ZM144.753 77.9545C144.753 77.168 144.914 76.4715 145.237 75.865C145.568 75.2585 146.014 74.7894 146.573 74.4577C147.141 74.1165 147.772 73.946 148.463 73.946C148.975 73.946 149.477 74.0597 149.97 74.2871C150.472 74.5051 150.87 74.7989 151.164 75.1684V71.3873H152.799V81.9062H151.164V80.7264C150.899 81.1055 150.529 81.4182 150.056 81.6646C149.591 81.911 149.056 82.0342 148.449 82.0342C147.767 82.0342 147.141 81.8636 146.573 81.5225C146.014 81.1718 145.568 80.6885 145.237 80.0725C144.914 79.4471 144.753 78.7411 144.753 77.9545ZM151.164 77.983C151.164 77.4428 151.051 76.9737 150.823 76.5757C150.605 76.1777 150.316 75.8744 149.956 75.666C149.596 75.4575 149.207 75.3532 148.79 75.3532C148.373 75.3532 147.985 75.4575 147.625 75.666C147.265 75.865 146.971 76.1635 146.743 76.5615C146.526 76.95 146.417 77.4144 146.417 77.9545C146.417 78.4947 146.526 78.9685 146.743 79.376C146.971 79.7835 147.265 80.0962 147.625 80.3142C147.994 80.5227 148.383 80.6269 148.79 80.6269C149.207 80.6269 149.596 80.5227 149.956 80.3142C150.316 80.1057 150.605 79.8025 150.823 79.4044C151.051 78.997 151.164 78.5231 151.164 77.983ZM155.595 73.0362C155.302 73.0362 155.055 72.9367 154.856 72.7377C154.657 72.5387 154.558 72.2923 154.558 71.9985C154.558 71.7048 154.657 71.4584 154.856 71.2594C155.055 71.0604 155.302 70.9609 155.595 70.9609C155.88 70.9609 156.121 71.0604 156.32 71.2594C156.519 71.4584 156.619 71.7048 156.619 71.9985C156.619 72.2923 156.519 72.5387 156.32 72.7377C156.121 72.9367 155.88 73.0362 155.595 73.0362ZM156.392 74.0739V81.9062H154.771V74.0739H156.392ZM162.314 73.946C162.93 73.946 163.48 74.0739 163.963 74.3298C164.456 74.5856 164.84 74.9647 165.115 75.467C165.39 75.9692 165.527 76.5757 165.527 77.2864V81.9062H163.921V77.5281C163.921 76.8268 163.745 76.2914 163.395 75.9218C163.044 75.5428 162.566 75.3532 161.959 75.3532C161.353 75.3532 160.869 75.5428 160.509 75.9218C160.159 76.2914 159.983 76.8268 159.983 77.5281V81.9062H158.363V74.0739H159.983V74.9694C160.249 74.6472 160.585 74.3961 160.992 74.2161C161.409 74.036 161.85 73.946 162.314 73.946ZM170.593 73.946C171.2 73.946 171.735 74.0692 172.2 74.3156C172.673 74.5525 173.043 74.851 173.308 75.2111V74.0739H174.943V82.0342C174.943 82.7544 174.791 83.3941 174.488 83.9532C174.185 84.5218 173.744 84.9672 173.166 85.2894C172.598 85.6116 171.915 85.7727 171.119 85.7727C170.058 85.7727 169.177 85.5215 168.475 85.0193C167.774 84.5265 167.376 83.8537 167.281 83.0008H168.888C169.011 83.4083 169.271 83.7352 169.669 83.9816C170.077 84.2375 170.56 84.3654 171.119 84.3654C171.773 84.3654 172.299 84.1664 172.697 83.7684C173.105 83.3704 173.308 82.7923 173.308 82.0342V80.7264C173.034 81.096 172.659 81.4087 172.185 81.6646C171.721 81.911 171.19 82.0342 170.593 82.0342C169.911 82.0342 169.286 81.8636 168.717 81.5225C168.158 81.1718 167.712 80.6885 167.381 80.0725C167.059 79.4471 166.897 78.7411 166.897 77.9545C166.897 77.168 167.059 76.4715 167.381 75.865C167.712 75.2585 168.158 74.7894 168.717 74.4577C169.286 74.1165 169.911 73.946 170.593 73.946ZM173.308 77.983C173.308 77.4428 173.195 76.9737 172.967 76.5757C172.749 76.1777 172.46 75.8744 172.1 75.666C171.74 75.4575 171.351 75.3532 170.934 75.3532C170.518 75.3532 170.129 75.4575 169.769 75.666C169.409 75.865 169.115 76.1635 168.888 76.5615C168.67 76.95 168.561 77.4144 168.561 77.9545C168.561 78.4947 168.67 78.9685 168.888 79.376C169.115 79.7835 169.409 80.0962 169.769 80.3142C170.138 80.5227 170.527 80.6269 170.934 80.6269C171.351 80.6269 171.74 80.5227 172.1 80.3142C172.46 80.1057 172.749 79.8025 172.967 79.4044C173.195 78.997 173.308 78.5231 173.308 77.983Z" fill="#505050"/>
<mask id="path-12-inside-3_745_12185" fill="white">
<path d="M19.8438 113.965H218.273V146.81H19.8438V113.965Z"/>
</mask>
<path d="M218.273 145.626H19.8438V147.995H218.273V145.626Z" fill="#EAEAEA" mask="url(#path-12-inside-3_745_12185)"/>
<path d="M29.3268 116.566C24.9755 116.566 21.4297 120.112 21.4297 124.464C21.4297 128.815 24.9755 132.361 29.3268 132.361C33.6781 132.361 37.2239 128.815 37.2239 124.464C37.2239 120.112 33.6781 116.566 29.3268 116.566ZM32.762 127.283C32.6515 127.472 32.454 127.575 32.2487 127.575C32.1461 127.575 32.0434 127.551 31.9486 127.488L29.5005 126.027C28.8924 125.664 28.4423 124.866 28.4423 124.163V120.926C28.4423 120.602 28.7108 120.333 29.0346 120.333C29.3584 120.333 29.6269 120.602 29.6269 120.926V124.163C29.6269 124.448 29.8638 124.866 30.1086 125.008L32.5567 126.469C32.841 126.635 32.9358 126.998 32.762 127.283Z" fill="#7B7B7B"/>
<path d="M56.2479 122.028C56.2479 122.53 56.1295 123.004 55.8926 123.45C55.6556 123.895 55.2766 124.26 54.7554 124.544C54.2342 124.819 53.5661 124.956 52.7511 124.956H50.96V128.965H49.3395V119.086H52.7511C53.5092 119.086 54.1489 119.218 54.6701 119.484C55.2008 119.739 55.5941 120.09 55.8499 120.535C56.1153 120.981 56.2479 121.478 56.2479 122.028ZM52.7511 123.634C53.3671 123.634 53.8267 123.497 54.1299 123.222C54.4332 122.938 54.5848 122.54 54.5848 122.028C54.5848 120.948 53.9736 120.408 52.7511 120.408H50.96V123.634H52.7511ZM61.0344 129.093C60.2953 129.093 59.6272 128.927 59.0301 128.595C58.4331 128.254 57.964 127.78 57.6229 127.174C57.2817 126.558 57.1111 125.847 57.1111 125.042C57.1111 124.246 57.2865 123.54 57.6371 122.924C57.9877 122.308 58.4663 121.834 59.0728 121.502C59.6793 121.17 60.3569 121.005 61.1055 121.005C61.8541 121.005 62.5317 121.17 63.1382 121.502C63.7447 121.834 64.2233 122.308 64.5739 122.924C64.9245 123.54 65.0999 124.246 65.0999 125.042C65.0999 125.838 64.9198 126.544 64.5597 127.16C64.1996 127.776 63.7068 128.254 63.0814 128.595C62.4654 128.927 61.7831 129.093 61.0344 129.093ZM61.0344 127.686C61.4514 127.686 61.8399 127.586 62.2 127.387C62.5696 127.188 62.8681 126.889 63.0956 126.491C63.323 126.093 63.4367 125.61 63.4367 125.042C63.4367 124.473 63.3277 123.994 63.1098 123.606C62.8918 123.208 62.6028 122.909 62.2427 122.71C61.8826 122.511 61.494 122.412 61.0771 122.412C60.6601 122.412 60.2716 122.511 59.9115 122.71C59.5608 122.909 59.2813 123.208 59.0728 123.606C58.8643 123.994 58.7601 124.473 58.7601 125.042C58.7601 125.885 58.9733 126.539 59.3997 127.003C59.8356 127.458 60.3805 127.686 61.0344 127.686ZM69.3884 129.093C68.7724 129.093 68.218 128.984 67.7253 128.766C67.242 128.538 66.8582 128.235 66.5739 127.856C66.2896 127.468 66.1379 127.036 66.119 126.563H67.7963C67.8248 126.894 67.9811 127.174 68.2654 127.401C68.5592 127.619 68.924 127.728 69.36 127.728C69.8148 127.728 70.1655 127.643 70.4119 127.472C70.6677 127.292 70.7957 127.065 70.7957 126.79C70.7957 126.496 70.6535 126.278 70.3692 126.136C70.0944 125.994 69.6537 125.838 69.0472 125.667C68.4597 125.506 67.9811 125.35 67.6115 125.198C67.242 125.046 66.9198 124.814 66.6449 124.501C66.3796 124.189 66.2469 123.776 66.2469 123.265C66.2469 122.848 66.3701 122.469 66.6165 122.128C66.8629 121.777 67.2135 121.502 67.6684 121.303C68.1327 121.104 68.6634 121.005 69.2605 121.005C70.1512 121.005 70.8667 121.232 71.4069 121.687C71.9565 122.132 72.2503 122.744 72.2882 123.521H70.6677C70.6393 123.17 70.4971 122.89 70.2413 122.682C69.9854 122.473 69.6395 122.369 69.2036 122.369C68.7772 122.369 68.4502 122.45 68.2228 122.611C67.9953 122.772 67.8816 122.985 67.8816 123.251C67.8816 123.459 67.9574 123.634 68.1091 123.776C68.2607 123.919 68.4455 124.032 68.6634 124.118C68.8814 124.193 69.2036 124.293 69.63 124.416C70.1986 124.568 70.663 124.724 71.0231 124.885C71.3927 125.037 71.7101 125.264 71.9755 125.568C72.2408 125.871 72.3782 126.274 72.3877 126.776C72.3877 127.221 72.2645 127.619 72.0181 127.97C71.7717 128.32 71.4211 128.595 70.9662 128.794C70.5208 128.993 69.9949 129.093 69.3884 129.093ZM75.8729 122.454V126.79C75.8729 127.084 75.9392 127.297 76.0719 127.43C76.214 127.553 76.451 127.614 76.7826 127.614H77.7777V128.965H76.4983C75.7686 128.965 75.2095 128.794 74.821 128.453C74.4325 128.112 74.2382 127.558 74.2382 126.79V122.454H73.3142V121.132H74.2382V119.185H75.8729V121.132H77.7777V122.454H75.8729ZM86.2933 124.857C86.2933 125.151 86.2744 125.416 86.2365 125.653H80.252C80.2994 126.278 80.5316 126.781 80.9486 127.16C81.3655 127.539 81.8773 127.728 82.4838 127.728C83.3556 127.728 83.9716 127.363 84.3317 126.634H86.0801C85.8432 127.354 85.412 127.946 84.7866 128.41C84.1706 128.865 83.403 129.093 82.4838 129.093C81.7351 129.093 81.0623 128.927 80.4653 128.595C79.8777 128.254 79.4134 127.78 79.0722 127.174C78.7405 126.558 78.5747 125.847 78.5747 125.042C78.5747 124.236 78.7358 123.53 79.058 122.924C79.3897 122.308 79.8493 121.834 80.4368 121.502C81.0339 121.17 81.7162 121.005 82.4838 121.005C83.2229 121.005 83.8815 121.166 84.4596 121.488C85.0377 121.81 85.4878 122.265 85.81 122.852C86.1322 123.431 86.2933 124.099 86.2933 124.857ZM84.6018 124.345C84.5923 123.748 84.3791 123.269 83.9621 122.909C83.5451 122.549 83.0287 122.369 82.4127 122.369C81.8536 122.369 81.375 122.549 80.977 122.909C80.579 123.26 80.3421 123.739 80.2663 124.345H84.6018ZM87.1915 125.013C87.1915 124.227 87.3526 123.53 87.6748 122.924C88.0065 122.317 88.4519 121.848 89.011 121.516C89.5796 121.175 90.2098 121.005 90.9016 121.005C91.4133 121.005 91.9156 121.118 92.4083 121.346C92.9106 121.564 93.3086 121.857 93.6024 122.227V118.446H95.2371V128.965H93.6024V127.785C93.337 128.164 92.9675 128.477 92.4936 128.723C92.0293 128.97 91.4939 129.093 90.8874 129.093C90.2051 129.093 89.5796 128.922 89.011 128.581C88.4519 128.23 88.0065 127.747 87.6748 127.131C87.3526 126.506 87.1915 125.8 87.1915 125.013ZM93.6024 125.042C93.6024 124.501 93.4887 124.032 93.2612 123.634C93.0433 123.236 92.7542 122.933 92.3941 122.725C92.034 122.516 91.6455 122.412 91.2285 122.412C90.8115 122.412 90.423 122.516 90.0629 122.725C89.7028 122.924 89.409 123.222 89.1816 123.62C88.9636 124.009 88.8546 124.473 88.8546 125.013C88.8546 125.553 88.9636 126.027 89.1816 126.435C89.409 126.842 89.7028 127.155 90.0629 127.373C90.4325 127.581 90.821 127.686 91.2285 127.686C91.6455 127.686 92.034 127.581 92.3941 127.373C92.7542 127.164 93.0433 126.861 93.2612 126.463C93.4887 126.056 93.6024 125.582 93.6024 125.042ZM107.128 119.086V120.408H104.498V128.965H102.878V120.408H100.234V119.086H107.128ZM109.437 120.095C109.143 120.095 108.897 119.995 108.698 119.796C108.499 119.597 108.399 119.351 108.399 119.057C108.399 118.763 108.499 118.517 108.698 118.318C108.897 118.119 109.143 118.019 109.437 118.019C109.721 118.019 109.963 118.119 110.162 118.318C110.361 118.517 110.46 118.763 110.46 119.057C110.46 119.351 110.361 119.597 110.162 119.796C109.963 119.995 109.721 120.095 109.437 120.095ZM110.233 121.132V128.965H108.613V121.132H110.233ZM121.685 121.005C122.301 121.005 122.851 121.132 123.334 121.388C123.827 121.644 124.211 122.023 124.486 122.526C124.77 123.028 124.912 123.634 124.912 124.345V128.965H123.306V124.587C123.306 123.885 123.131 123.35 122.78 122.98C122.429 122.601 121.951 122.412 121.344 122.412C120.738 122.412 120.255 122.601 119.894 122.98C119.544 123.35 119.368 123.885 119.368 124.587V128.965H117.762V124.587C117.762 123.885 117.587 123.35 117.236 122.98C116.886 122.601 116.407 122.412 115.801 122.412C115.194 122.412 114.711 122.601 114.351 122.98C114 123.35 113.825 123.885 113.825 124.587V128.965H112.204V121.132H113.825V122.028C114.09 121.706 114.426 121.455 114.834 121.275C115.241 121.095 115.677 121.005 116.142 121.005C116.767 121.005 117.326 121.137 117.819 121.403C118.312 121.668 118.691 122.052 118.956 122.554C119.193 122.08 119.563 121.706 120.065 121.431C120.567 121.147 121.107 121.005 121.685 121.005ZM133.996 124.857C133.996 125.151 133.977 125.416 133.94 125.653H127.955C128.002 126.278 128.235 126.781 128.652 127.16C129.069 127.539 129.58 127.728 130.187 127.728C131.059 127.728 131.675 127.363 132.035 126.634H133.783C133.546 127.354 133.115 127.946 132.49 128.41C131.874 128.865 131.106 129.093 130.187 129.093C129.438 129.093 128.765 128.927 128.168 128.595C127.581 128.254 127.116 127.78 126.775 127.174C126.444 126.558 126.278 125.847 126.278 125.042C126.278 124.236 126.439 123.53 126.761 122.924C127.093 122.308 127.552 121.834 128.14 121.502C128.737 121.17 129.419 121.005 130.187 121.005C130.926 121.005 131.585 121.166 132.163 121.488C132.741 121.81 133.191 122.265 133.513 122.852C133.835 123.431 133.996 124.099 133.996 124.857ZM132.305 124.345C132.295 123.748 132.082 123.269 131.665 122.909C131.248 122.549 130.732 122.369 130.116 122.369C129.557 122.369 129.078 122.549 128.68 122.909C128.282 123.26 128.045 123.739 127.969 124.345H132.305ZM136.089 129.064C135.795 129.064 135.548 128.965 135.349 128.766C135.15 128.567 135.051 128.32 135.051 128.027C135.051 127.733 135.15 127.487 135.349 127.287C135.548 127.088 135.795 126.989 136.089 126.989C136.373 126.989 136.615 127.088 136.814 127.287C137.013 127.487 137.112 127.733 137.112 128.027C137.112 128.32 137.013 128.567 136.814 128.766C136.615 128.965 136.373 129.064 136.089 129.064ZM136.089 123.094C135.795 123.094 135.548 122.995 135.349 122.796C135.15 122.597 135.051 122.35 135.051 122.056C135.051 121.763 135.15 121.516 135.349 121.317C135.548 121.118 135.795 121.019 136.089 121.019C136.373 121.019 136.615 121.118 136.814 121.317C137.013 121.516 137.112 121.763 137.112 122.056C137.112 122.35 137.013 122.597 136.814 122.796C136.615 122.995 136.373 123.094 136.089 123.094ZM148.255 126.946H144.118L143.408 128.965H141.716L145.255 119.071H147.132L150.671 128.965H148.966L148.255 126.946ZM147.8 125.624L146.194 121.033L144.573 125.624H147.8ZM154.897 129.093C154.281 129.093 153.727 128.984 153.234 128.766C152.75 128.538 152.367 128.235 152.082 127.856C151.798 127.468 151.646 127.036 151.627 126.563H153.305C153.333 126.894 153.49 127.174 153.774 127.401C154.068 127.619 154.433 127.728 154.868 127.728C155.323 127.728 155.674 127.643 155.92 127.472C156.176 127.292 156.304 127.065 156.304 126.79C156.304 126.496 156.162 126.278 155.878 126.136C155.603 125.994 155.162 125.838 154.556 125.667C153.968 125.506 153.49 125.35 153.12 125.198C152.75 125.046 152.428 124.814 152.153 124.501C151.888 124.189 151.755 123.776 151.755 123.265C151.755 122.848 151.879 122.469 152.125 122.128C152.371 121.777 152.722 121.502 153.177 121.303C153.641 121.104 154.172 121.005 154.769 121.005C155.66 121.005 156.375 121.232 156.915 121.687C157.465 122.132 157.759 122.744 157.797 123.521H156.176C156.148 123.17 156.006 122.89 155.75 122.682C155.494 122.473 155.148 122.369 154.712 122.369C154.286 122.369 153.959 122.45 153.731 122.611C153.504 122.772 153.39 122.985 153.39 123.251C153.39 123.459 153.466 123.634 153.618 123.776C153.769 123.919 153.954 124.032 154.172 124.118C154.39 124.193 154.712 124.293 155.139 124.416C155.707 124.568 156.171 124.724 156.532 124.885C156.901 125.037 157.219 125.264 157.484 125.568C157.749 125.871 157.887 126.274 157.896 126.776C157.896 127.221 157.773 127.619 157.527 127.97C157.28 128.32 156.93 128.595 156.475 128.794C156.029 128.993 155.503 129.093 154.897 129.093ZM158.951 125.042C158.951 124.236 159.112 123.53 159.434 122.924C159.766 122.308 160.22 121.834 160.799 121.502C161.377 121.17 162.04 121.005 162.789 121.005C163.736 121.005 164.518 121.232 165.134 121.687C165.76 122.132 166.181 122.772 166.399 123.606H164.651C164.509 123.217 164.281 122.914 163.968 122.696C163.656 122.478 163.262 122.369 162.789 122.369C162.125 122.369 161.595 122.606 161.197 123.08C160.808 123.544 160.614 124.198 160.614 125.042C160.614 125.885 160.808 126.544 161.197 127.017C161.595 127.491 162.125 127.728 162.789 127.728C163.727 127.728 164.348 127.316 164.651 126.491H166.399C166.172 127.287 165.745 127.922 165.12 128.396C164.494 128.861 163.717 129.093 162.789 129.093C162.04 129.093 161.377 128.927 160.799 128.595C160.22 128.254 159.766 127.78 159.434 127.174C159.112 126.558 158.951 125.847 158.951 125.042ZM175.036 124.857C175.036 125.151 175.017 125.416 174.979 125.653H168.995C169.042 126.278 169.274 126.781 169.691 127.16C170.108 127.539 170.62 127.728 171.227 127.728C172.098 127.728 172.714 127.363 173.075 126.634H174.823C174.586 127.354 174.155 127.946 173.529 128.41C172.913 128.865 172.146 129.093 171.227 129.093C170.478 129.093 169.805 128.927 169.208 128.595C168.621 128.254 168.156 127.78 167.815 127.174C167.483 126.558 167.318 125.847 167.318 125.042C167.318 124.236 167.479 123.53 167.801 122.924C168.133 122.308 168.592 121.834 169.18 121.502C169.777 121.17 170.459 121.005 171.227 121.005C171.966 121.005 172.624 121.166 173.203 121.488C173.781 121.81 174.231 122.265 174.553 122.852C174.875 123.431 175.036 124.099 175.036 124.857ZM173.345 124.345C173.335 123.748 173.122 123.269 172.705 122.909C172.288 122.549 171.772 122.369 171.156 122.369C170.596 122.369 170.118 122.549 169.72 122.909C169.322 123.26 169.085 123.739 169.009 124.345H173.345ZM180.426 121.005C181.042 121.005 181.592 121.132 182.075 121.388C182.568 121.644 182.952 122.023 183.227 122.526C183.501 123.028 183.639 123.634 183.639 124.345V128.965H182.033V124.587C182.033 123.885 181.857 123.35 181.507 122.98C181.156 122.601 180.677 122.412 180.071 122.412C179.464 122.412 178.981 122.601 178.621 122.98C178.27 123.35 178.095 123.885 178.095 124.587V128.965H176.475V121.132H178.095V122.028C178.36 121.706 178.697 121.455 179.104 121.275C179.521 121.095 179.962 121.005 180.426 121.005ZM185.009 125.013C185.009 124.227 185.17 123.53 185.493 122.924C185.824 122.317 186.27 121.848 186.829 121.516C187.397 121.175 188.028 121.005 188.719 121.005C189.231 121.005 189.733 121.118 190.226 121.346C190.728 121.564 191.126 121.857 191.42 122.227V118.446H193.055V128.965H191.42V127.785C191.155 128.164 190.785 128.477 190.311 128.723C189.847 128.97 189.312 129.093 188.705 129.093C188.023 129.093 187.397 128.922 186.829 128.581C186.27 128.23 185.824 127.747 185.493 127.131C185.17 126.506 185.009 125.8 185.009 125.013ZM191.42 125.042C191.42 124.501 191.306 124.032 191.079 123.634C190.861 123.236 190.572 122.933 190.212 122.725C189.852 122.516 189.463 122.412 189.046 122.412C188.629 122.412 188.241 122.516 187.881 122.725C187.521 122.924 187.227 123.222 186.999 123.62C186.781 124.009 186.672 124.473 186.672 125.013C186.672 125.553 186.781 126.027 186.999 126.435C187.227 126.842 187.521 127.155 187.881 127.373C188.25 127.581 188.639 127.686 189.046 127.686C189.463 127.686 189.852 127.581 190.212 127.373C190.572 127.164 190.861 126.861 191.079 126.463C191.306 126.056 191.42 125.582 191.42 125.042ZM195.851 120.095C195.558 120.095 195.311 119.995 195.112 119.796C194.913 119.597 194.814 119.351 194.814 119.057C194.814 118.763 194.913 118.517 195.112 118.318C195.311 118.119 195.558 118.019 195.851 118.019C196.136 118.019 196.377 118.119 196.576 118.318C196.775 118.517 196.875 118.763 196.875 119.057C196.875 119.351 196.775 119.597 196.576 119.796C196.377 119.995 196.136 120.095 195.851 120.095ZM196.647 121.132V128.965H195.027V121.132H196.647ZM202.57 121.005C203.186 121.005 203.736 121.132 204.219 121.388C204.712 121.644 205.096 122.023 205.371 122.526C205.645 123.028 205.783 123.634 205.783 124.345V128.965H204.177V124.587C204.177 123.885 204.001 123.35 203.651 122.98C203.3 122.601 202.821 122.412 202.215 122.412C201.608 122.412 201.125 122.601 200.765 122.98C200.414 123.35 200.239 123.885 200.239 124.587V128.965H198.619V121.132H200.239V122.028C200.504 121.706 200.841 121.455 201.248 121.275C201.665 121.095 202.106 121.005 202.57 121.005ZM210.849 121.005C211.456 121.005 211.991 121.128 212.456 121.374C212.929 121.611 213.299 121.91 213.564 122.27V121.132H215.199V129.093C215.199 129.813 215.047 130.453 214.744 131.012C214.441 131.58 214 132.026 213.422 132.348C212.854 132.67 212.171 132.831 211.375 132.831C210.314 132.831 209.433 132.58 208.731 132.078C208.03 131.585 207.632 130.912 207.537 130.059H209.143C209.267 130.467 209.527 130.794 209.925 131.04C210.333 131.296 210.816 131.424 211.375 131.424C212.029 131.424 212.555 131.225 212.953 130.827C213.361 130.429 213.564 129.851 213.564 129.093V127.785C213.289 128.155 212.915 128.467 212.441 128.723C211.977 128.97 211.446 129.093 210.849 129.093C210.167 129.093 209.541 128.922 208.973 128.581C208.414 128.23 207.968 127.747 207.637 127.131C207.315 126.506 207.153 125.8 207.153 125.013C207.153 124.227 207.315 123.53 207.637 122.924C207.968 122.317 208.414 121.848 208.973 121.516C209.541 121.175 210.167 121.005 210.849 121.005ZM213.564 125.042C213.564 124.501 213.451 124.032 213.223 123.634C213.005 123.236 212.716 122.933 212.356 122.725C211.996 122.516 211.607 122.412 211.19 122.412C210.773 122.412 210.385 122.516 210.025 122.725C209.665 122.924 209.371 123.222 209.143 123.62C208.926 124.009 208.817 124.473 208.817 125.013C208.817 125.553 208.926 126.027 209.143 126.435C209.371 126.842 209.665 127.155 210.025 127.373C210.394 127.581 210.783 127.686 211.19 127.686C211.607 127.686 211.996 127.581 212.356 127.373C212.716 127.164 213.005 126.861 213.223 126.463C213.451 126.056 213.564 125.582 213.564 125.042Z" fill="#505050"/>
<path d="M29.3268 163.629C24.9755 163.629 21.4297 167.175 21.4297 171.526C21.4297 175.877 24.9755 179.423 29.3268 179.423C33.6781 179.423 37.2239 175.877 37.2239 171.526C37.2239 167.175 33.6781 163.629 29.3268 163.629ZM32.762 174.345C32.6515 174.535 32.454 174.637 32.2487 174.637C32.1461 174.637 32.0434 174.614 31.9486 174.551L29.5005 173.09C28.8924 172.726 28.4423 171.929 28.4423 171.226V167.988C28.4423 167.664 28.7108 167.396 29.0346 167.396C29.3584 167.396 29.6269 167.664 29.6269 167.988V171.226C29.6269 171.51 29.8638 171.929 30.1086 172.071L32.5567 173.532C32.841 173.698 32.9358 174.061 32.762 174.345Z" fill="#7B7B7B"/>
<path d="M56.2479 169.091C56.2479 169.593 56.1295 170.067 55.8926 170.512C55.6556 170.957 55.2766 171.322 54.7554 171.607C54.2342 171.881 53.5661 172.019 52.7511 172.019H50.96V176.027H49.3395V166.148H52.7511C53.5092 166.148 54.1489 166.281 54.6701 166.546C55.2008 166.802 55.5941 167.153 55.8499 167.598C56.1153 168.043 56.2479 168.541 56.2479 169.091ZM52.7511 170.697C53.3671 170.697 53.8267 170.559 54.1299 170.285C54.4332 170 54.5848 169.602 54.5848 169.091C54.5848 168.01 53.9736 167.47 52.7511 167.47H50.96V170.697H52.7511ZM61.0344 176.155C60.2953 176.155 59.6272 175.989 59.0301 175.658C58.4331 175.317 57.964 174.843 57.6229 174.236C57.2817 173.62 57.1111 172.91 57.1111 172.104C57.1111 171.308 57.2865 170.602 57.6371 169.986C57.9877 169.37 58.4663 168.896 59.0728 168.565C59.6793 168.233 60.3569 168.067 61.1055 168.067C61.8541 168.067 62.5317 168.233 63.1382 168.565C63.7447 168.896 64.2233 169.37 64.5739 169.986C64.9245 170.602 65.0999 171.308 65.0999 172.104C65.0999 172.9 64.9198 173.606 64.5597 174.222C64.1996 174.838 63.7068 175.317 63.0814 175.658C62.4654 175.989 61.7831 176.155 61.0344 176.155ZM61.0344 174.748C61.4514 174.748 61.8399 174.649 62.2 174.45C62.5696 174.25 62.8681 173.952 63.0956 173.554C63.323 173.156 63.4367 172.673 63.4367 172.104C63.4367 171.535 63.3277 171.057 63.1098 170.668C62.8918 170.27 62.6028 169.972 62.2427 169.773C61.8826 169.574 61.494 169.474 61.0771 169.474C60.6601 169.474 60.2716 169.574 59.9115 169.773C59.5608 169.972 59.2813 170.27 59.0728 170.668C58.8643 171.057 58.7601 171.535 58.7601 172.104C58.7601 172.947 58.9733 173.601 59.3997 174.066C59.8356 174.521 60.3805 174.748 61.0344 174.748ZM69.3884 176.155C68.7724 176.155 68.218 176.046 67.7253 175.828C67.242 175.601 66.8582 175.298 66.5739 174.919C66.2896 174.53 66.1379 174.099 66.119 173.625H67.7963C67.8248 173.957 67.9811 174.236 68.2654 174.464C68.5592 174.682 68.924 174.791 69.36 174.791C69.8148 174.791 70.1655 174.705 70.4119 174.535C70.6677 174.355 70.7957 174.127 70.7957 173.852C70.7957 173.559 70.6535 173.341 70.3692 173.199C70.0944 173.056 69.6537 172.9 69.0472 172.73C68.4597 172.568 67.9811 172.412 67.6115 172.26C67.242 172.109 66.9198 171.877 66.6449 171.564C66.3796 171.251 66.2469 170.839 66.2469 170.327C66.2469 169.91 66.3701 169.531 66.6165 169.19C66.8629 168.839 67.2135 168.565 67.6684 168.366C68.1327 168.167 68.6634 168.067 69.2605 168.067C70.1512 168.067 70.8667 168.295 71.4069 168.749C71.9565 169.195 72.2503 169.806 72.2882 170.583H70.6677C70.6393 170.232 70.4971 169.953 70.2413 169.744C69.9854 169.536 69.6395 169.432 69.2036 169.432C68.7772 169.432 68.4502 169.512 68.2228 169.673C67.9953 169.834 67.8816 170.048 67.8816 170.313C67.8816 170.521 67.9574 170.697 68.1091 170.839C68.2607 170.981 68.4455 171.095 68.6634 171.18C68.8814 171.256 69.2036 171.355 69.63 171.479C70.1986 171.63 70.663 171.787 71.0231 171.948C71.3927 172.099 71.7101 172.327 71.9755 172.63C72.2408 172.933 72.3782 173.336 72.3877 173.838C72.3877 174.284 72.2645 174.682 72.0181 175.032C71.7717 175.383 71.4211 175.658 70.9662 175.857C70.5208 176.056 69.9949 176.155 69.3884 176.155ZM75.8729 169.517V173.852C75.8729 174.146 75.9392 174.359 76.0719 174.492C76.214 174.615 76.451 174.677 76.7826 174.677H77.7777V176.027H76.4983C75.7686 176.027 75.2095 175.857 74.821 175.516C74.4325 175.174 74.2382 174.62 74.2382 173.852V169.517H73.3142V168.195H74.2382V166.248H75.8729V168.195H77.7777V169.517H75.8729ZM86.2933 171.919C86.2933 172.213 86.2744 172.478 86.2365 172.715H80.252C80.2994 173.341 80.5316 173.843 80.9486 174.222C81.3655 174.601 81.8773 174.791 82.4838 174.791C83.3556 174.791 83.9716 174.426 84.3317 173.696H86.0801C85.8432 174.416 85.412 175.009 84.7866 175.473C84.1706 175.928 83.403 176.155 82.4838 176.155C81.7351 176.155 81.0623 175.989 80.4653 175.658C79.8777 175.317 79.4134 174.843 79.0722 174.236C78.7405 173.62 78.5747 172.91 78.5747 172.104C78.5747 171.299 78.7358 170.593 79.058 169.986C79.3897 169.37 79.8493 168.896 80.4368 168.565C81.0339 168.233 81.7162 168.067 82.4838 168.067C83.2229 168.067 83.8815 168.228 84.4596 168.55C85.0377 168.873 85.4878 169.327 85.81 169.915C86.1322 170.493 86.2933 171.161 86.2933 171.919ZM84.6018 171.408C84.5923 170.811 84.3791 170.332 83.9621 169.972C83.5451 169.612 83.0287 169.432 82.4127 169.432C81.8536 169.432 81.375 169.612 80.977 169.972C80.579 170.322 80.3421 170.801 80.2663 171.408H84.6018ZM87.1915 172.076C87.1915 171.289 87.3526 170.593 87.6748 169.986C88.0065 169.38 88.4519 168.91 89.011 168.579C89.5796 168.238 90.2098 168.067 90.9016 168.067C91.4133 168.067 91.9156 168.181 92.4083 168.408C92.9106 168.626 93.3086 168.92 93.6024 169.29V165.508H95.2371V176.027H93.6024V174.848C93.337 175.227 92.9675 175.539 92.4936 175.786C92.0293 176.032 91.4939 176.155 90.8874 176.155C90.2051 176.155 89.5796 175.985 89.011 175.644C88.4519 175.293 88.0065 174.81 87.6748 174.194C87.3526 173.568 87.1915 172.862 87.1915 172.076ZM93.6024 172.104C93.6024 171.564 93.4887 171.095 93.2612 170.697C93.0433 170.299 92.7542 169.996 92.3941 169.787C92.034 169.579 91.6455 169.474 91.2285 169.474C90.8115 169.474 90.423 169.579 90.0629 169.787C89.7028 169.986 89.409 170.285 89.1816 170.683C88.9636 171.071 88.8546 171.535 88.8546 172.076C88.8546 172.616 88.9636 173.09 89.1816 173.497C89.409 173.905 89.7028 174.217 90.0629 174.435C90.4325 174.644 90.821 174.748 91.2285 174.748C91.6455 174.748 92.034 174.644 92.3941 174.435C92.7542 174.227 93.0433 173.924 93.2612 173.526C93.4887 173.118 93.6024 172.644 93.6024 172.104ZM107.128 166.148V167.47H104.498V176.027H102.878V167.47H100.234V166.148H107.128ZM109.437 167.157C109.143 167.157 108.897 167.058 108.698 166.859C108.499 166.66 108.399 166.413 108.399 166.12C108.399 165.826 108.499 165.579 108.698 165.38C108.897 165.181 109.143 165.082 109.437 165.082C109.721 165.082 109.963 165.181 110.162 165.38C110.361 165.579 110.46 165.826 110.46 166.12C110.46 166.413 110.361 166.66 110.162 166.859C109.963 167.058 109.721 167.157 109.437 167.157ZM110.233 168.195V176.027H108.613V168.195H110.233ZM121.685 168.067C122.301 168.067 122.851 168.195 123.334 168.451C123.827 168.707 124.211 169.086 124.486 169.588C124.77 170.09 124.912 170.697 124.912 171.408V176.027H123.306V171.649C123.306 170.948 123.131 170.413 122.78 170.043C122.429 169.664 121.951 169.474 121.344 169.474C120.738 169.474 120.255 169.664 119.894 170.043C119.544 170.413 119.368 170.948 119.368 171.649V176.027H117.762V171.649C117.762 170.948 117.587 170.413 117.236 170.043C116.886 169.664 116.407 169.474 115.801 169.474C115.194 169.474 114.711 169.664 114.351 170.043C114 170.413 113.825 170.948 113.825 171.649V176.027H112.204V168.195H113.825V169.091C114.09 168.768 114.426 168.517 114.834 168.337C115.241 168.157 115.677 168.067 116.142 168.067C116.767 168.067 117.326 168.2 117.819 168.465C118.312 168.73 118.691 169.114 118.956 169.616C119.193 169.143 119.563 168.768 120.065 168.494C120.567 168.209 121.107 168.067 121.685 168.067ZM133.996 171.919C133.996 172.213 133.977 172.478 133.94 172.715H127.955C128.002 173.341 128.235 173.843 128.652 174.222C129.069 174.601 129.58 174.791 130.187 174.791C131.059 174.791 131.675 174.426 132.035 173.696H133.783C133.546 174.416 133.115 175.009 132.49 175.473C131.874 175.928 131.106 176.155 130.187 176.155C129.438 176.155 128.765 175.989 128.168 175.658C127.581 175.317 127.116 174.843 126.775 174.236C126.444 173.62 126.278 172.91 126.278 172.104C126.278 171.299 126.439 170.593 126.761 169.986C127.093 169.37 127.552 168.896 128.14 168.565C128.737 168.233 129.419 168.067 130.187 168.067C130.926 168.067 131.585 168.228 132.163 168.55C132.741 168.873 133.191 169.327 133.513 169.915C133.835 170.493 133.996 171.161 133.996 171.919ZM132.305 171.408C132.295 170.811 132.082 170.332 131.665 169.972C131.248 169.612 130.732 169.432 130.116 169.432C129.557 169.432 129.078 169.612 128.68 169.972C128.282 170.322 128.045 170.801 127.969 171.408H132.305ZM136.089 176.127C135.795 176.127 135.548 176.027 135.349 175.828C135.15 175.629 135.051 175.383 135.051 175.089C135.051 174.795 135.15 174.549 135.349 174.35C135.548 174.151 135.795 174.051 136.089 174.051C136.373 174.051 136.615 174.151 136.814 174.35C137.013 174.549 137.112 174.795 137.112 175.089C137.112 175.383 137.013 175.629 136.814 175.828C136.615 176.027 136.373 176.127 136.089 176.127ZM136.089 170.157C135.795 170.157 135.548 170.057 135.349 169.858C135.15 169.659 135.051 169.413 135.051 169.119C135.051 168.825 135.15 168.579 135.349 168.38C135.548 168.181 135.795 168.081 136.089 168.081C136.373 168.081 136.615 168.181 136.814 168.38C137.013 168.579 137.112 168.825 137.112 169.119C137.112 169.413 137.013 169.659 136.814 169.858C136.615 170.057 136.373 170.157 136.089 170.157ZM145.526 166.148C146.577 166.148 147.497 166.352 148.283 166.759C149.079 167.157 149.69 167.735 150.117 168.494C150.553 169.242 150.771 170.119 150.771 171.123C150.771 172.128 150.553 173 150.117 173.739C149.69 174.478 149.079 175.047 148.283 175.445C147.497 175.833 146.577 176.027 145.526 176.027H142.299V166.148H145.526ZM145.526 174.705C146.682 174.705 147.568 174.393 148.184 173.767C148.8 173.142 149.108 172.26 149.108 171.123C149.108 169.977 148.8 169.081 148.184 168.437C147.568 167.792 146.682 167.47 145.526 167.47H143.919V174.705H145.526ZM159.399 171.919C159.399 172.213 159.38 172.478 159.342 172.715H153.358C153.405 173.341 153.637 173.843 154.054 174.222C154.471 174.601 154.983 174.791 155.589 174.791C156.461 174.791 157.077 174.426 157.437 173.696H159.186C158.949 174.416 158.518 175.009 157.892 175.473C157.276 175.928 156.509 176.155 155.589 176.155C154.841 176.155 154.168 175.989 153.571 175.658C152.983 175.317 152.519 174.843 152.178 174.236C151.846 173.62 151.68 172.91 151.68 172.104C151.68 171.299 151.841 170.593 152.164 169.986C152.495 169.37 152.955 168.896 153.542 168.565C154.139 168.233 154.822 168.067 155.589 168.067C156.329 168.067 156.987 168.228 157.565 168.55C158.143 168.873 158.593 169.327 158.916 169.915C159.238 170.493 159.399 171.161 159.399 171.919ZM157.707 171.408C157.698 170.811 157.485 170.332 157.068 169.972C156.651 169.612 156.134 169.432 155.518 169.432C154.959 169.432 154.481 169.612 154.083 169.972C153.685 170.322 153.448 170.801 153.372 171.408H157.707ZM160.297 172.104C160.297 171.299 160.458 170.593 160.78 169.986C161.112 169.37 161.567 168.896 162.145 168.565C162.723 168.233 163.386 168.067 164.135 168.067C165.083 168.067 165.865 168.295 166.481 168.749C167.106 169.195 167.528 169.834 167.746 170.668H165.997C165.855 170.28 165.628 169.977 165.315 169.759C165.002 169.541 164.609 169.432 164.135 169.432C163.472 169.432 162.941 169.669 162.543 170.142C162.155 170.607 161.96 171.261 161.96 172.104C161.96 172.947 162.155 173.606 162.543 174.08C162.941 174.554 163.472 174.791 164.135 174.791C165.073 174.791 165.694 174.378 165.997 173.554H167.746C167.518 174.35 167.092 174.985 166.466 175.459C165.841 175.923 165.064 176.155 164.135 176.155C163.386 176.155 162.723 175.989 162.145 175.658C161.567 175.317 161.112 174.843 160.78 174.236C160.458 173.62 160.297 172.91 160.297 172.104ZM176.383 171.919C176.383 172.213 176.364 172.478 176.326 172.715H170.341C170.389 173.341 170.621 173.843 171.038 174.222C171.455 174.601 171.967 174.791 172.573 174.791C173.445 174.791 174.061 174.426 174.421 173.696H176.17C175.933 174.416 175.501 175.009 174.876 175.473C174.26 175.928 173.492 176.155 172.573 176.155C171.825 176.155 171.152 175.989 170.555 175.658C169.967 175.317 169.503 174.843 169.162 174.236C168.83 173.62 168.664 172.91 168.664 172.104C168.664 171.299 168.825 170.593 169.147 169.986C169.479 169.37 169.939 168.896 170.526 168.565C171.123 168.233 171.806 168.067 172.573 168.067C173.312 168.067 173.971 168.228 174.549 168.55C175.127 168.873 175.577 169.327 175.899 169.915C176.222 170.493 176.383 171.161 176.383 171.919ZM174.691 171.408C174.682 170.811 174.468 170.332 174.052 169.972C173.635 169.612 173.118 169.432 172.502 169.432C171.943 169.432 171.464 169.612 171.066 169.972C170.668 170.322 170.431 170.801 170.356 171.408H174.691ZM181.773 168.067C182.389 168.067 182.938 168.195 183.422 168.451C183.914 168.707 184.298 169.086 184.573 169.588C184.848 170.09 184.985 170.697 184.985 171.408V176.027H183.379V171.649C183.379 170.948 183.204 170.413 182.853 170.043C182.502 169.664 182.024 169.474 181.417 169.474C180.811 169.474 180.328 169.664 179.968 170.043C179.617 170.413 179.442 170.948 179.442 171.649V176.027H177.821V168.195H179.442V169.091C179.707 168.768 180.043 168.517 180.451 168.337C180.868 168.157 181.308 168.067 181.773 168.067ZM186.356 172.076C186.356 171.289 186.517 170.593 186.839 169.986C187.171 169.38 187.616 168.91 188.175 168.579C188.744 168.238 189.374 168.067 190.066 168.067C190.578 168.067 191.08 168.181 191.573 168.408C192.075 168.626 192.473 168.92 192.767 169.29V165.508H194.401V176.027H192.767V174.848C192.501 175.227 192.132 175.539 191.658 175.786C191.194 176.032 190.658 176.155 190.052 176.155C189.369 176.155 188.744 175.985 188.175 175.644C187.616 175.293 187.171 174.81 186.839 174.194C186.517 173.568 186.356 172.862 186.356 172.076ZM192.767 172.104C192.767 171.564 192.653 171.095 192.426 170.697C192.208 170.299 191.919 169.996 191.558 169.787C191.198 169.579 190.81 169.474 190.393 169.474C189.976 169.474 189.587 169.579 189.227 169.787C188.867 169.986 188.573 170.285 188.346 170.683C188.128 171.071 188.019 171.535 188.019 172.076C188.019 172.616 188.128 173.09 188.346 173.497C188.573 173.905 188.867 174.217 189.227 174.435C189.597 174.644 189.985 174.748 190.393 174.748C190.81 174.748 191.198 174.644 191.558 174.435C191.919 174.227 192.208 173.924 192.426 173.526C192.653 173.118 192.767 172.644 192.767 172.104ZM197.198 167.157C196.904 167.157 196.658 167.058 196.459 166.859C196.26 166.66 196.16 166.413 196.16 166.12C196.16 165.826 196.26 165.579 196.459 165.38C196.658 165.181 196.904 165.082 197.198 165.082C197.482 165.082 197.724 165.181 197.923 165.38C198.122 165.579 198.221 165.826 198.221 166.12C198.221 166.413 198.122 166.66 197.923 166.859C197.724 167.058 197.482 167.157 197.198 167.157ZM197.994 168.195V176.027H196.373V168.195H197.994ZM203.917 168.067C204.533 168.067 205.082 168.195 205.566 168.451C206.059 168.707 206.442 169.086 206.717 169.588C206.992 170.09 207.129 170.697 207.129 171.408V176.027H205.523V171.649C205.523 170.948 205.348 170.413 204.997 170.043C204.647 169.664 204.168 169.474 203.562 169.474C202.955 169.474 202.472 169.664 202.112 170.043C201.761 170.413 201.586 170.948 201.586 171.649V176.027H199.965V168.195H201.586V169.091C201.851 168.768 202.187 168.517 202.595 168.337C203.012 168.157 203.453 168.067 203.917 168.067ZM212.196 168.067C212.802 168.067 213.338 168.19 213.802 168.437C214.276 168.674 214.645 168.972 214.911 169.332V168.195H216.545V176.155C216.545 176.875 216.394 177.515 216.091 178.074C215.787 178.643 215.347 179.088 214.769 179.41C214.2 179.733 213.518 179.894 212.722 179.894C211.66 179.894 210.779 179.643 210.078 179.14C209.377 178.648 208.978 177.975 208.884 177.122H210.49C210.613 177.529 210.874 177.856 211.272 178.103C211.679 178.359 212.163 178.487 212.722 178.487C213.376 178.487 213.902 178.287 214.3 177.889C214.707 177.491 214.911 176.913 214.911 176.155V174.848C214.636 175.217 214.262 175.53 213.788 175.786C213.323 176.032 212.793 176.155 212.196 176.155C211.513 176.155 210.888 175.985 210.319 175.644C209.76 175.293 209.315 174.81 208.983 174.194C208.661 173.568 208.5 172.862 208.5 172.076C208.5 171.289 208.661 170.593 208.983 169.986C209.315 169.38 209.76 168.91 210.319 168.579C210.888 168.238 211.513 168.067 212.196 168.067ZM214.911 172.104C214.911 171.564 214.797 171.095 214.57 170.697C214.352 170.299 214.063 169.996 213.703 169.787C213.342 169.579 212.954 169.474 212.537 169.474C212.12 169.474 211.731 169.579 211.371 169.787C211.011 169.986 210.717 170.285 210.49 170.683C210.272 171.071 210.163 171.535 210.163 172.076C210.163 172.616 210.272 173.09 210.49 173.497C210.717 173.905 211.011 174.217 211.371 174.435C211.741 174.644 212.129 174.748 212.537 174.748C212.954 174.748 213.342 174.644 213.703 174.435C214.063 174.227 214.352 173.924 214.57 173.526C214.797 173.118 214.911 172.644 214.911 172.104Z" fill="#505050"/>
</g>
<defs>
<filter id="filter0_d_745_12185" x="0" y="0" width="238.117" height="201.871" filterUnits="userSpaceOnUse" color-interpolation-filters="sRGB">
<feFlood flood-opacity="0" result="BackgroundImageFix"/>
<feColorMatrix in="SourceAlpha" type="matrix" values="0 0 0 0 0 0 0 0 0 0 0 0 0 0 0 0 0 0 127 0" result="hardAlpha"/>
<feMorphology radius="8" operator="dilate" in="SourceAlpha" result="effect1_dropShadow_745_12185"/>
<feOffset/>
<feComposite in2="hardAlpha" operator="out"/>
<feColorMatrix type="matrix" values="0 0 0 0 0.350753 0 0 0 0 0 0 0 0 0 0.915007 0 0 0 0.09 0"/>
<feBlend mode="normal" in2="BackgroundImageFix" result="effect1_dropShadow_745_12185"/>
<feBlend mode="normal" in="SourceGraphic" in2="effect1_dropShadow_745_12185" result="shape"/>
</filter>
</defs>
</svg>
