<svg width="438" height="279" viewBox="0 0 438 279" fill="none" xmlns="http://www.w3.org/2000/svg">
<g filter="url(#filter0_dd_780_20129)">
<mask id="path-1-inside-1_780_20129" fill="white">
<path d="M86 68.0547C86 61.4273 91.3726 56.0547 98 56.0547H365.315C371.943 56.0547 377.315 61.4273 377.315 68.0547V176.084C377.315 182.712 371.943 188.084 365.315 188.084H98C91.3726 188.084 86 182.712 86 176.084V68.0547Z"/>
</mask>
<path d="M86 68.0547C86 61.4273 91.3726 56.0547 98 56.0547H365.315C371.943 56.0547 377.315 61.4273 377.315 68.0547V176.084C377.315 182.712 371.943 188.084 365.315 188.084H98C91.3726 188.084 86 182.712 86 176.084V68.0547Z" fill="white" shape-rendering="crispEdges"/>
<path d="M86 56.0547H377.315H86ZM377.315 176.084C377.315 183.188 371.557 188.946 364.453 188.946H98.8619C91.7585 188.946 86 183.188 86 176.084C86 182.236 91.3726 187.222 98 187.222H365.315C371.943 187.222 377.315 182.236 377.315 176.084ZM86 188.084V56.0547V188.084ZM377.315 56.0547V188.084V56.0547Z" fill="black" mask="url(#path-1-inside-1_780_20129)"/>
<mask id="path-3-inside-2_780_20129" fill="white">
<path d="M110 76.4531H346.115V116.668H110V76.4531Z"/>
</mask>
<path d="M346.115 115.246H110V118.089H346.115V115.246Z" fill="#EAEAEA" mask="url(#path-3-inside-2_780_20129)"/>
<path d="M117.953 95.6062V85.978C117.953 85.599 118.067 85.2294 118.275 84.9167L120.862 81.0692C121.27 80.4532 122.284 80.0173 123.146 80.3395C124.075 80.6523 124.691 81.6947 124.492 82.6234L123.999 85.7222C123.961 86.0065 124.037 86.2623 124.198 86.4613C124.359 86.6414 124.596 86.7551 124.852 86.7551H128.747C129.496 86.7551 130.14 87.0584 130.519 87.5891C130.879 88.1008 130.945 88.7641 130.708 89.437L128.377 96.5349C128.084 97.71 126.804 98.6671 125.534 98.6671H121.838C121.204 98.6671 120.313 98.4491 119.905 98.0416L118.692 97.1035C118.228 96.7528 117.953 96.1937 117.953 95.6062Z" fill="#7B7B7B"/>
<path d="M114.936 84.1289H113.96C112.492 84.1289 111.895 84.6975 111.895 86.1V95.6334C111.895 97.0359 112.492 97.6045 113.96 97.6045H114.936C116.405 97.6045 117.002 97.0359 117.002 95.6334V86.1C117.002 84.6975 116.405 84.1289 114.936 84.1289Z" fill="#7B7B7B"/>
<path d="M147.341 93.8838H151.35V95.4531H145.397V83.598H147.341V93.8838ZM153.778 84.8091C153.425 84.8091 153.129 84.6897 152.891 84.4509C152.652 84.2121 152.532 83.9164 152.532 83.5639C152.532 83.2114 152.652 82.9157 152.891 82.6769C153.129 82.4381 153.425 82.3187 153.778 82.3187C154.119 82.3187 154.409 82.4381 154.648 82.6769C154.886 82.9157 155.006 83.2114 155.006 83.5639C155.006 83.9164 154.886 84.2121 154.648 84.4509C154.409 84.6897 154.119 84.8091 153.778 84.8091ZM154.733 86.0543V95.4531H152.788V86.0543H154.733ZM160.817 90.7623L165.149 95.4531H162.523L159.043 91.4104V95.4531H157.098V82.8304H159.043V90.1652L162.454 86.0543H165.149L160.817 90.7623ZM174.97 90.5234C174.97 90.876 174.947 91.1944 174.902 91.4787H167.72C167.777 92.2292 168.056 92.8319 168.556 93.2868C169.056 93.7417 169.671 93.9691 170.398 93.9691C171.445 93.9691 172.184 93.5313 172.616 92.6557H174.714C174.43 93.5199 173.912 94.2307 173.162 94.7879C172.422 95.3337 171.501 95.6066 170.398 95.6066C169.5 95.6066 168.693 95.4076 167.976 95.0096C167.271 94.6002 166.714 94.0316 166.304 93.3039C165.906 92.5647 165.707 91.7118 165.707 90.7452C165.707 89.7786 165.901 88.9314 166.287 88.2036C166.685 87.4644 167.237 86.8958 167.942 86.4978C168.658 86.0998 169.477 85.9008 170.398 85.9008C171.285 85.9008 172.076 86.0941 172.769 86.4808C173.463 86.8674 174.003 87.4133 174.39 88.1183C174.776 88.812 174.97 89.6137 174.97 90.5234ZM172.94 89.9094C172.929 89.1929 172.673 88.6187 172.172 88.1865C171.672 87.7544 171.052 87.5383 170.313 87.5383C169.642 87.5383 169.068 87.7544 168.59 88.1865C168.113 88.6073 167.828 89.1816 167.737 89.9094H172.94ZM180.107 95.6066C179.368 95.6066 178.703 95.4759 178.112 95.2143C177.532 94.9414 177.071 94.5775 176.73 94.1226C176.389 93.6564 176.207 93.139 176.184 92.5704H178.197C178.231 92.9684 178.419 93.3039 178.76 93.5768C179.112 93.8383 179.55 93.9691 180.073 93.9691C180.619 93.9691 181.04 93.8668 181.336 93.6621C181.643 93.446 181.796 93.1731 181.796 92.8433C181.796 92.4908 181.625 92.2292 181.284 92.0586C180.955 91.8881 180.426 91.7004 179.698 91.4957C178.993 91.3024 178.419 91.1148 177.975 90.9328C177.532 90.7509 177.145 90.4723 176.815 90.097C176.497 89.7217 176.338 89.2271 176.338 88.613C176.338 88.1126 176.485 87.6578 176.781 87.2484C177.077 86.8276 177.498 86.4978 178.043 86.259C178.601 86.0202 179.237 85.9008 179.954 85.9008C181.023 85.9008 181.881 86.1737 182.53 86.7196C183.189 87.2541 183.542 87.9875 183.587 88.92H181.643C181.608 88.4993 181.438 88.1638 181.131 87.9136C180.824 87.6634 180.409 87.5383 179.886 87.5383C179.374 87.5383 178.982 87.635 178.709 87.8283C178.436 88.0217 178.299 88.2775 178.299 88.5959C178.299 88.8461 178.39 89.0565 178.572 89.2271C178.754 89.3976 178.976 89.5341 179.237 89.6364C179.499 89.7274 179.886 89.8468 180.397 89.9947C181.08 90.1766 181.637 90.3642 182.069 90.5576C182.512 90.7395 182.893 91.0124 183.212 91.3763C183.53 91.7402 183.695 92.2235 183.707 92.8262C183.707 93.3607 183.559 93.8383 183.263 94.2591C182.967 94.6798 182.547 95.0096 182.001 95.2484C181.466 95.4872 180.835 95.6066 180.107 95.6066ZM190.648 95.5725C190.296 95.5725 190 95.4531 189.761 95.2143C189.522 94.9755 189.403 94.6798 189.403 94.3273C189.403 93.9748 189.522 93.6791 189.761 93.4403C190 93.2015 190.296 93.0821 190.648 93.0821C190.989 93.0821 191.279 93.2015 191.518 93.4403C191.757 93.6791 191.876 93.9748 191.876 94.3273C191.876 94.6798 191.757 94.9755 191.518 95.2143C191.279 95.4531 190.989 95.5725 190.648 95.5725ZM190.648 88.4083C190.296 88.4083 190 88.2889 189.761 88.0501C189.522 87.8113 189.403 87.5156 189.403 87.1631C189.403 86.8106 189.522 86.5149 189.761 86.2761C190 86.0373 190.296 85.9179 190.648 85.9179C190.989 85.9179 191.279 86.0373 191.518 86.2761C191.757 86.5149 191.876 86.8106 191.876 87.1631C191.876 87.5156 191.757 87.8113 191.518 88.0501C191.279 88.2889 190.989 88.4083 190.648 88.4083ZM201.972 83.598C203.235 83.598 204.338 83.8425 205.282 84.3315C206.237 84.8091 206.97 85.5028 207.482 86.4125C208.005 87.3109 208.267 88.3628 208.267 89.5682C208.267 90.7736 208.005 91.8198 207.482 92.7068C206.97 93.5938 206.237 94.2761 205.282 94.7538C204.338 95.22 203.235 95.4531 201.972 95.4531H198.1V83.598H201.972ZM201.972 93.8668C203.36 93.8668 204.423 93.4915 205.162 92.7409C205.901 91.9904 206.271 90.9328 206.271 89.5682C206.271 88.1922 205.901 87.1176 205.162 86.3443C204.423 85.571 203.36 85.1844 201.972 85.1844H200.045V93.8668H201.972ZM218.62 90.5234C218.62 90.876 218.598 91.1944 218.552 91.4787H211.371C211.428 92.2292 211.706 92.8319 212.207 93.2868C212.707 93.7417 213.321 93.9691 214.049 93.9691C215.095 93.9691 215.834 93.5313 216.266 92.6557H218.365C218.08 93.5199 217.563 94.2307 216.812 94.7879C216.073 95.3337 215.152 95.6066 214.049 95.6066C213.151 95.6066 212.343 95.4076 211.627 95.0096C210.922 94.6002 210.365 94.0316 209.955 93.3039C209.557 92.5647 209.358 91.7118 209.358 90.7452C209.358 89.7786 209.551 88.9314 209.938 88.2036C210.336 87.4644 210.888 86.8958 211.593 86.4978C212.309 86.0998 213.128 85.9008 214.049 85.9008C214.936 85.9008 215.726 86.0941 216.42 86.4808C217.114 86.8674 217.654 87.4133 218.04 88.1183C218.427 88.812 218.62 89.6137 218.62 90.5234ZM216.591 89.9094C216.579 89.1929 216.323 88.6187 215.823 88.1865C215.323 87.7544 214.703 87.5383 213.964 87.5383C213.293 87.5383 212.718 87.7544 212.241 88.1865C211.763 88.6073 211.479 89.1816 211.388 89.9094H216.591ZM223.758 95.6066C223.019 95.6066 222.354 95.4759 221.762 95.2143C221.182 94.9414 220.722 94.5775 220.381 94.1226C220.039 93.6564 219.857 93.139 219.835 92.5704H221.848C221.882 92.9684 222.069 93.3039 222.41 93.5768C222.763 93.8383 223.201 93.9691 223.724 93.9691C224.27 93.9691 224.691 93.8668 224.986 93.6621C225.293 93.446 225.447 93.1731 225.447 92.8433C225.447 92.4908 225.276 92.2292 224.935 92.0586C224.605 91.8881 224.076 91.7004 223.349 91.4957C222.644 91.3024 222.069 91.1148 221.626 90.9328C221.182 90.7509 220.796 90.4723 220.466 90.097C220.147 89.7217 219.988 89.2271 219.988 88.613C219.988 88.1126 220.136 87.6578 220.432 87.2484C220.727 86.8276 221.148 86.4978 221.694 86.259C222.251 86.0202 222.888 85.9008 223.605 85.9008C224.673 85.9008 225.532 86.1737 226.18 86.7196C226.84 87.2541 227.192 87.9875 227.238 88.92H225.293C225.259 88.4993 225.089 88.1638 224.781 87.9136C224.474 87.6634 224.059 87.5383 223.536 87.5383C223.025 87.5383 222.632 87.635 222.359 87.8283C222.086 88.0217 221.95 88.2775 221.95 88.5959C221.95 88.8461 222.041 89.0565 222.223 89.2271C222.405 89.3976 222.627 89.5341 222.888 89.6364C223.15 89.7274 223.536 89.8468 224.048 89.9947C224.73 90.1766 225.288 90.3642 225.72 90.5576C226.163 90.7395 226.544 91.0124 226.863 91.3763C227.181 91.7402 227.346 92.2235 227.357 92.8262C227.357 93.3607 227.209 93.8383 226.914 94.2591C226.618 94.6798 226.197 95.0096 225.651 95.2484C225.117 95.4872 224.486 95.6066 223.758 95.6066ZM228.623 90.7452C228.623 89.7786 228.816 88.9314 229.202 88.2036C229.601 87.4644 230.146 86.8958 230.84 86.4978C231.534 86.0998 232.33 85.9008 233.228 85.9008C234.365 85.9008 235.303 86.1737 236.043 86.7196C236.793 87.2541 237.299 88.0217 237.561 89.0224H235.463C235.292 88.5561 235.019 88.1922 234.644 87.9307C234.269 87.6691 233.797 87.5383 233.228 87.5383C232.432 87.5383 231.795 87.8226 231.318 88.3912C230.851 88.9485 230.618 89.7331 230.618 90.7452C230.618 91.7573 230.851 92.5476 231.318 93.1162C231.795 93.6848 232.432 93.9691 233.228 93.9691C234.354 93.9691 235.099 93.4744 235.463 92.4851H237.561C237.288 93.4403 236.776 94.2022 236.026 94.7708C235.275 95.328 234.343 95.6066 233.228 95.6066C232.33 95.6066 231.534 95.4076 230.84 95.0096C230.146 94.6002 229.601 94.0316 229.202 93.3039C228.816 92.5647 228.623 91.7118 228.623 90.7452ZM247.925 90.5234C247.925 90.876 247.902 91.1944 247.857 91.4787H240.676C240.733 92.2292 241.011 92.8319 241.511 93.2868C242.012 93.7417 242.626 93.9691 243.354 93.9691C244.4 93.9691 245.139 93.5313 245.571 92.6557H247.669C247.385 93.5199 246.868 94.2307 246.117 94.7879C245.378 95.3337 244.457 95.6066 243.354 95.6066C242.455 95.6066 241.648 95.4076 240.932 95.0096C240.226 94.6002 239.669 94.0316 239.26 93.3039C238.862 92.5647 238.663 91.7118 238.663 90.7452C238.663 89.7786 238.856 88.9314 239.243 88.2036C239.641 87.4644 240.192 86.8958 240.897 86.4978C241.614 86.0998 242.433 85.9008 243.354 85.9008C244.241 85.9008 245.031 86.0941 245.725 86.4808C246.418 86.8674 246.959 87.4133 247.345 88.1183C247.732 88.812 247.925 89.6137 247.925 90.5234ZM245.895 89.9094C245.884 89.1929 245.628 88.6187 245.128 88.1865C244.627 87.7544 244.008 87.5383 243.268 87.5383C242.598 87.5383 242.023 87.7544 241.546 88.1865C241.068 88.6073 240.784 89.1816 240.693 89.9094H245.895ZM254.393 85.9008C255.132 85.9008 255.792 86.0543 256.372 86.3614C256.963 86.6684 257.424 87.1233 257.754 87.726C258.083 88.3287 258.248 89.0565 258.248 89.9094V95.4531H256.321V90.1994C256.321 89.3578 256.11 88.7153 255.69 88.2718C255.269 87.817 254.695 87.5895 253.967 87.5895C253.239 87.5895 252.659 87.817 252.227 88.2718C251.806 88.7153 251.596 89.3578 251.596 90.1994V95.4531H249.651V86.0543H251.596V87.129C251.914 86.7423 252.318 86.441 252.807 86.2249C253.307 86.0088 253.836 85.9008 254.393 85.9008ZM259.893 90.7111C259.893 89.7672 260.086 88.9314 260.473 88.2036C260.871 87.4758 261.405 86.9129 262.076 86.5149C262.759 86.1055 263.515 85.9008 264.345 85.9008C264.959 85.9008 265.562 86.0373 266.153 86.3102C266.756 86.5717 267.233 86.9243 267.586 87.3678V82.8304H269.548V95.4531H267.586V94.0373C267.268 94.4922 266.824 94.8675 266.255 95.1631C265.698 95.4588 265.056 95.6066 264.328 95.6066C263.509 95.6066 262.759 95.402 262.076 94.9926C261.405 94.5718 260.871 93.9918 260.473 93.2527C260.086 92.5021 259.893 91.6549 259.893 90.7111ZM267.586 90.7452C267.586 90.097 267.449 89.5341 267.177 89.0565C266.915 88.5789 266.568 88.215 266.136 87.9648C265.704 87.7146 265.238 87.5895 264.737 87.5895C264.237 87.5895 263.771 87.7146 263.339 87.9648C262.906 88.2036 262.554 88.5618 262.281 89.0394C262.019 89.5057 261.889 90.0629 261.889 90.7111C261.889 91.3593 262.019 91.9279 262.281 92.4169C262.554 92.9058 262.906 93.2811 263.339 93.5427C263.782 93.7928 264.248 93.9179 264.737 93.9179C265.238 93.9179 265.704 93.7928 266.136 93.5427C266.568 93.2925 266.915 92.9286 267.177 92.451C267.449 91.962 267.586 91.3934 267.586 90.7452ZM272.903 84.8091C272.551 84.8091 272.255 84.6897 272.016 84.4509C271.778 84.2121 271.658 83.9164 271.658 83.5639C271.658 83.2114 271.778 82.9157 272.016 82.6769C272.255 82.4381 272.551 82.3187 272.903 82.3187C273.245 82.3187 273.535 82.4381 273.773 82.6769C274.012 82.9157 274.132 83.2114 274.132 83.5639C274.132 83.9164 274.012 84.2121 273.773 84.4509C273.535 84.6897 273.245 84.8091 272.903 84.8091ZM273.859 86.0543V95.4531H271.914V86.0543H273.859ZM280.966 85.9008C281.705 85.9008 282.365 86.0543 282.945 86.3614C283.536 86.6684 283.997 87.1233 284.326 87.726C284.656 88.3287 284.821 89.0565 284.821 89.9094V95.4531H282.894V90.1994C282.894 89.3578 282.683 88.7153 282.262 88.2718C281.842 87.817 281.267 87.5895 280.54 87.5895C279.812 87.5895 279.232 87.817 278.8 88.2718C278.379 88.7153 278.169 89.3578 278.169 90.1994V95.4531H276.224V86.0543H278.169V87.129C278.487 86.7423 278.891 86.441 279.38 86.2249C279.88 86.0088 280.409 85.9008 280.966 85.9008ZM290.901 85.9008C291.629 85.9008 292.271 86.0486 292.828 86.3443C293.397 86.6286 293.84 86.9868 294.159 87.4189V86.0543H296.12V95.6066C296.12 96.4709 295.938 97.2385 295.575 97.9094C295.211 98.5917 294.682 99.1262 293.988 99.5129C293.306 99.8995 292.487 100.093 291.532 100.093C290.258 100.093 289.201 99.7915 288.359 99.1888C287.518 98.5974 287.04 97.79 286.926 96.7666H288.854C289.002 97.2556 289.314 97.6479 289.792 97.9436C290.281 98.2506 290.861 98.4041 291.532 98.4041C292.317 98.4041 292.948 98.1653 293.425 97.6877C293.914 97.2101 294.159 96.5164 294.159 95.6066V94.0373C293.829 94.4808 293.38 94.8561 292.811 95.1631C292.254 95.4588 291.617 95.6066 290.901 95.6066C290.082 95.6066 289.331 95.402 288.649 94.9926C287.978 94.5718 287.444 93.9918 287.046 93.2527C286.659 92.5021 286.466 91.6549 286.466 90.7111C286.466 89.7672 286.659 88.9314 287.046 88.2036C287.444 87.4758 287.978 86.9129 288.649 86.5149C289.331 86.1055 290.082 85.9008 290.901 85.9008ZM294.159 90.7452C294.159 90.097 294.022 89.5341 293.749 89.0565C293.488 88.5789 293.141 88.215 292.709 87.9648C292.277 87.7146 291.81 87.5895 291.31 87.5895C290.81 87.5895 290.344 87.7146 289.911 87.9648C289.479 88.2036 289.127 88.5618 288.854 89.0394C288.592 89.5057 288.461 90.0629 288.461 90.7111C288.461 91.3593 288.592 91.9279 288.854 92.4169C289.127 92.9058 289.479 93.2811 289.911 93.5427C290.355 93.7928 290.821 93.9179 291.31 93.9179C291.81 93.9179 292.277 93.7928 292.709 93.5427C293.141 93.2925 293.488 92.9286 293.749 92.451C294.022 91.962 294.159 91.3934 294.159 90.7452Z" fill="#505050"/>
<path d="M121.371 138.191C116.149 138.191 111.895 142.446 111.895 147.668C111.895 152.889 116.149 157.144 121.371 157.144C126.593 157.144 130.848 152.889 130.848 147.668C130.848 142.446 126.593 138.191 121.371 138.191ZM125.493 151.051C125.361 151.278 125.124 151.402 124.877 151.402C124.754 151.402 124.631 151.373 124.517 151.297L121.58 149.544C120.85 149.108 120.31 148.151 120.31 147.308V143.422C120.31 143.034 120.632 142.712 121.02 142.712C121.409 142.712 121.731 143.034 121.731 143.422V147.308C121.731 147.649 122.015 148.151 122.309 148.322L125.247 150.075C125.588 150.274 125.702 150.71 125.493 151.051Z" fill="#7B7B7B"/>
<path d="M153.687 145.344C153.687 145.947 153.544 146.515 153.26 147.05C152.976 147.584 152.521 148.022 151.896 148.363C151.27 148.693 150.468 148.858 149.49 148.858H147.341V153.668H145.397V141.813H149.49C150.4 141.813 151.168 141.972 151.793 142.29C152.43 142.598 152.902 143.018 153.209 143.553C153.527 144.087 153.687 144.684 153.687 145.344ZM149.49 147.271C150.23 147.271 150.781 147.106 151.145 146.777C151.509 146.436 151.691 145.958 151.691 145.344C151.691 144.047 150.957 143.399 149.49 143.399H147.341V147.271H149.49ZM159.43 153.821C158.543 153.821 157.742 153.622 157.025 153.224C156.309 152.815 155.746 152.246 155.336 151.519C154.927 150.78 154.722 149.927 154.722 148.96C154.722 148.005 154.933 147.158 155.354 146.418C155.774 145.679 156.349 145.111 157.076 144.713C157.804 144.315 158.617 144.116 159.516 144.116C160.414 144.116 161.227 144.315 161.955 144.713C162.683 145.111 163.257 145.679 163.678 146.418C164.098 147.158 164.309 148.005 164.309 148.96C164.309 149.915 164.093 150.762 163.661 151.502C163.229 152.241 162.637 152.815 161.887 153.224C161.147 153.622 160.329 153.821 159.43 153.821ZM159.43 152.133C159.931 152.133 160.397 152.013 160.829 151.775C161.273 151.536 161.631 151.178 161.904 150.7C162.177 150.222 162.313 149.642 162.313 148.96C162.313 148.278 162.182 147.703 161.921 147.237C161.659 146.76 161.312 146.401 160.88 146.163C160.448 145.924 159.982 145.804 159.482 145.804C158.981 145.804 158.515 145.924 158.083 146.163C157.662 146.401 157.327 146.76 157.076 147.237C156.826 147.703 156.701 148.278 156.701 148.96C156.701 149.972 156.957 150.757 157.469 151.314C157.992 151.86 158.646 152.133 159.43 152.133ZM169.455 153.821C168.716 153.821 168.051 153.691 167.459 153.429C166.879 153.156 166.419 152.792 166.078 152.337C165.736 151.871 165.555 151.354 165.532 150.785H167.545C167.579 151.183 167.766 151.519 168.108 151.792C168.46 152.053 168.898 152.184 169.421 152.184C169.967 152.184 170.388 152.082 170.683 151.877C170.99 151.661 171.144 151.388 171.144 151.058C171.144 150.706 170.973 150.444 170.632 150.273C170.302 150.103 169.773 149.915 169.046 149.711C168.341 149.517 167.766 149.33 167.323 149.148C166.879 148.966 166.493 148.687 166.163 148.312C165.845 147.937 165.685 147.442 165.685 146.828C165.685 146.327 165.833 145.873 166.129 145.463C166.424 145.042 166.845 144.713 167.391 144.474C167.948 144.235 168.585 144.116 169.302 144.116C170.371 144.116 171.229 144.389 171.877 144.934C172.537 145.469 172.889 146.202 172.935 147.135H170.99C170.956 146.714 170.786 146.379 170.479 146.128C170.172 145.878 169.756 145.753 169.233 145.753C168.722 145.753 168.329 145.85 168.056 146.043C167.783 146.236 167.647 146.492 167.647 146.811C167.647 147.061 167.738 147.271 167.92 147.442C168.102 147.612 168.324 147.749 168.585 147.851C168.847 147.942 169.233 148.062 169.745 148.21C170.427 148.391 170.985 148.579 171.417 148.772C171.86 148.954 172.241 149.227 172.56 149.591C172.878 149.955 173.043 150.438 173.054 151.041C173.054 151.576 172.906 152.053 172.611 152.474C172.315 152.895 171.894 153.224 171.348 153.463C170.814 153.702 170.183 153.821 169.455 153.821ZM177.236 145.856V151.058C177.236 151.411 177.316 151.667 177.475 151.826C177.646 151.974 177.93 152.047 178.328 152.047H179.522V153.668H177.987C177.111 153.668 176.44 153.463 175.974 153.054C175.508 152.645 175.275 151.979 175.275 151.058V145.856H174.166V144.269H175.275V141.932H177.236V144.269H179.522V145.856H177.236ZM189.741 148.738C189.741 149.091 189.718 149.409 189.673 149.694H182.491C182.548 150.444 182.827 151.047 183.327 151.502C183.828 151.957 184.442 152.184 185.169 152.184C186.216 152.184 186.955 151.746 187.387 150.871H189.485C189.201 151.735 188.683 152.445 187.933 153.003C187.194 153.549 186.273 153.821 185.169 153.821C184.271 153.821 183.464 153.622 182.747 153.224C182.042 152.815 181.485 152.246 181.076 151.519C180.678 150.78 180.479 149.927 180.479 148.96C180.479 147.993 180.672 147.146 181.059 146.418C181.457 145.679 182.008 145.111 182.713 144.713C183.43 144.315 184.248 144.116 185.169 144.116C186.056 144.116 186.847 144.309 187.541 144.696C188.234 145.082 188.774 145.628 189.161 146.333C189.548 147.027 189.741 147.829 189.741 148.738ZM187.711 148.124C187.7 147.408 187.444 146.834 186.943 146.401C186.443 145.969 185.823 145.753 185.084 145.753C184.413 145.753 183.839 145.969 183.361 146.401C182.884 146.822 182.599 147.396 182.508 148.124H187.711ZM190.819 148.926C190.819 147.982 191.012 147.146 191.399 146.418C191.797 145.691 192.331 145.128 193.002 144.73C193.684 144.32 194.441 144.116 195.271 144.116C195.885 144.116 196.488 144.252 197.079 144.525C197.682 144.787 198.159 145.139 198.512 145.583V141.045H200.473V153.668H198.512V152.252C198.193 152.707 197.75 153.082 197.181 153.378C196.624 153.674 195.982 153.821 195.254 153.821C194.435 153.821 193.684 153.617 193.002 153.207C192.331 152.787 191.797 152.207 191.399 151.468C191.012 150.717 190.819 149.87 190.819 148.926ZM198.512 148.96C198.512 148.312 198.375 147.749 198.102 147.271C197.841 146.794 197.494 146.43 197.062 146.18C196.63 145.929 196.164 145.804 195.663 145.804C195.163 145.804 194.697 145.929 194.264 146.18C193.832 146.418 193.48 146.777 193.207 147.254C192.945 147.721 192.815 148.278 192.815 148.926C192.815 149.574 192.945 150.143 193.207 150.632C193.48 151.121 193.832 151.496 194.264 151.758C194.708 152.008 195.174 152.133 195.663 152.133C196.164 152.133 196.63 152.008 197.062 151.758C197.494 151.507 197.841 151.143 198.102 150.666C198.375 150.177 198.512 149.608 198.512 148.96ZM214.742 141.813V143.399H211.587V153.668H209.642V143.399H206.469V141.813H214.742ZM217.513 143.024C217.161 143.024 216.865 142.905 216.626 142.666C216.387 142.427 216.268 142.131 216.268 141.779C216.268 141.426 216.387 141.131 216.626 140.892C216.865 140.653 217.161 140.534 217.513 140.534C217.854 140.534 218.144 140.653 218.383 140.892C218.622 141.131 218.741 141.426 218.741 141.779C218.741 142.131 218.622 142.427 218.383 142.666C218.144 142.905 217.854 143.024 217.513 143.024ZM218.469 144.269V153.668H216.524V144.269H218.469ZM232.211 144.116C232.951 144.116 233.61 144.269 234.19 144.576C234.781 144.883 235.242 145.338 235.572 145.941C235.913 146.544 236.084 147.271 236.084 148.124V153.668H234.156V148.414C234.156 147.573 233.946 146.93 233.525 146.487C233.104 146.032 232.53 145.804 231.802 145.804C231.074 145.804 230.494 146.032 230.062 146.487C229.641 146.93 229.431 147.573 229.431 148.414V153.668H227.504V148.414C227.504 147.573 227.293 146.93 226.872 146.487C226.452 146.032 225.877 145.804 225.15 145.804C224.422 145.804 223.842 146.032 223.41 146.487C222.989 146.93 222.779 147.573 222.779 148.414V153.668H220.834V144.269H222.779V145.344C223.097 144.957 223.501 144.656 223.99 144.44C224.479 144.224 225.002 144.116 225.559 144.116C226.309 144.116 226.98 144.275 227.572 144.593C228.163 144.912 228.618 145.372 228.936 145.975C229.221 145.406 229.664 144.957 230.267 144.627C230.87 144.286 231.518 144.116 232.211 144.116ZM246.984 148.738C246.984 149.091 246.962 149.409 246.916 149.694H239.735C239.792 150.444 240.07 151.047 240.571 151.502C241.071 151.957 241.685 152.184 242.413 152.184C243.459 152.184 244.198 151.746 244.631 150.871H246.729C246.444 151.735 245.927 152.445 245.176 153.003C244.437 153.549 243.516 153.821 242.413 153.821C241.515 153.821 240.707 153.622 239.991 153.224C239.286 152.815 238.729 152.246 238.319 151.519C237.921 150.78 237.722 149.927 237.722 148.96C237.722 147.993 237.915 147.146 238.302 146.418C238.7 145.679 239.252 145.111 239.957 144.713C240.673 144.315 241.492 144.116 242.413 144.116C243.3 144.116 244.09 144.309 244.784 144.696C245.478 145.082 246.018 145.628 246.405 146.333C246.791 147.027 246.984 147.829 246.984 148.738ZM244.955 148.124C244.943 147.408 244.687 146.834 244.187 146.401C243.687 145.969 243.067 145.753 242.328 145.753C241.657 145.753 241.083 145.969 240.605 146.401C240.127 146.822 239.843 147.396 239.752 148.124H244.955ZM249.495 153.787C249.143 153.787 248.847 153.668 248.608 153.429C248.369 153.19 248.25 152.895 248.25 152.542C248.25 152.19 248.369 151.894 248.608 151.655C248.847 151.416 249.143 151.297 249.495 151.297C249.836 151.297 250.126 151.416 250.365 151.655C250.604 151.894 250.723 152.19 250.723 152.542C250.723 152.895 250.604 153.19 250.365 153.429C250.126 153.668 249.836 153.787 249.495 153.787ZM249.495 146.623C249.143 146.623 248.847 146.504 248.608 146.265C248.369 146.026 248.25 145.73 248.25 145.378C248.25 145.025 248.369 144.73 248.608 144.491C248.847 144.252 249.143 144.133 249.495 144.133C249.836 144.133 250.126 144.252 250.365 144.491C250.604 144.73 250.723 145.025 250.723 145.378C250.723 145.73 250.604 146.026 250.365 146.265C250.126 146.504 249.836 146.623 249.495 146.623ZM264.095 151.246H259.131L258.278 153.668H256.248L260.495 141.796H262.747L266.994 153.668H264.947L264.095 151.246ZM263.549 149.659L261.621 144.15L259.677 149.659H263.549ZM272.065 153.821C271.326 153.821 270.661 153.691 270.069 153.429C269.489 153.156 269.029 152.792 268.688 152.337C268.346 151.871 268.165 151.354 268.142 150.785H270.155C270.189 151.183 270.376 151.519 270.717 151.792C271.07 152.053 271.508 152.184 272.031 152.184C272.577 152.184 272.998 152.082 273.293 151.877C273.6 151.661 273.754 151.388 273.754 151.058C273.754 150.706 273.583 150.444 273.242 150.273C272.912 150.103 272.383 149.915 271.656 149.711C270.951 149.517 270.376 149.33 269.933 149.148C269.489 148.966 269.103 148.687 268.773 148.312C268.454 147.937 268.295 147.442 268.295 146.828C268.295 146.327 268.443 145.873 268.739 145.463C269.034 145.042 269.455 144.713 270.001 144.474C270.558 144.235 271.195 144.116 271.912 144.116C272.98 144.116 273.839 144.389 274.487 144.934C275.147 145.469 275.499 146.202 275.545 147.135H273.6C273.566 146.714 273.396 146.379 273.089 146.128C272.781 145.878 272.366 145.753 271.843 145.753C271.332 145.753 270.939 145.85 270.666 146.043C270.393 146.236 270.257 146.492 270.257 146.811C270.257 147.061 270.348 147.271 270.53 147.442C270.712 147.612 270.934 147.749 271.195 147.851C271.457 147.942 271.843 148.062 272.355 148.21C273.037 148.391 273.595 148.579 274.027 148.772C274.47 148.954 274.851 149.227 275.17 149.591C275.488 149.955 275.653 150.438 275.664 151.041C275.664 151.576 275.516 152.053 275.221 152.474C274.925 152.895 274.504 153.224 273.958 153.463C273.424 153.702 272.793 153.821 272.065 153.821ZM276.93 148.96C276.93 147.993 277.123 147.146 277.51 146.418C277.908 145.679 278.453 145.111 279.147 144.713C279.841 144.315 280.637 144.116 281.535 144.116C282.672 144.116 283.611 144.389 284.35 144.934C285.1 145.469 285.606 146.236 285.868 147.237H283.77C283.599 146.771 283.326 146.407 282.951 146.146C282.576 145.884 282.104 145.753 281.535 145.753C280.739 145.753 280.102 146.037 279.625 146.606C279.158 147.163 278.925 147.948 278.925 148.96C278.925 149.972 279.158 150.762 279.625 151.331C280.102 151.9 280.739 152.184 281.535 152.184C282.661 152.184 283.406 151.689 283.77 150.7H285.868C285.595 151.655 285.083 152.417 284.333 152.986C283.582 153.543 282.65 153.821 281.535 153.821C280.637 153.821 279.841 153.622 279.147 153.224C278.453 152.815 277.908 152.246 277.51 151.519C277.123 150.78 276.93 149.927 276.93 148.96ZM296.232 148.738C296.232 149.091 296.209 149.409 296.164 149.694H288.983C289.04 150.444 289.318 151.047 289.819 151.502C290.319 151.957 290.933 152.184 291.661 152.184C292.707 152.184 293.446 151.746 293.878 150.871H295.976C295.692 151.735 295.175 152.445 294.424 153.003C293.685 153.549 292.764 153.821 291.661 153.821C290.762 153.821 289.955 153.622 289.239 153.224C288.534 152.815 287.976 152.246 287.567 151.519C287.169 150.78 286.97 149.927 286.97 148.96C286.97 147.993 287.163 147.146 287.55 146.418C287.948 145.679 288.499 145.111 289.204 144.713C289.921 144.315 290.74 144.116 291.661 144.116C292.548 144.116 293.338 144.309 294.032 144.696C294.725 145.082 295.266 145.628 295.652 146.333C296.039 147.027 296.232 147.829 296.232 148.738ZM294.202 148.124C294.191 147.408 293.935 146.834 293.435 146.401C292.934 145.969 292.315 145.753 291.575 145.753C290.905 145.753 290.33 145.969 289.853 146.401C289.375 146.822 289.091 147.396 289 148.124H294.202ZM302.7 144.116C303.439 144.116 304.099 144.269 304.679 144.576C305.27 144.883 305.731 145.338 306.061 145.941C306.39 146.544 306.555 147.271 306.555 148.124V153.668H304.628V148.414C304.628 147.573 304.417 146.93 303.997 146.487C303.576 146.032 303.002 145.804 302.274 145.804C301.546 145.804 300.966 146.032 300.534 146.487C300.113 146.93 299.903 147.573 299.903 148.414V153.668H297.958V144.269H299.903V145.344C300.221 144.957 300.625 144.656 301.114 144.44C301.614 144.224 302.143 144.116 302.7 144.116ZM308.2 148.926C308.2 147.982 308.393 147.146 308.78 146.418C309.178 145.691 309.712 145.128 310.383 144.73C311.066 144.32 311.822 144.116 312.652 144.116C313.266 144.116 313.869 144.252 314.46 144.525C315.063 144.787 315.54 145.139 315.893 145.583V141.045H317.855V153.668H315.893V152.252C315.575 152.707 315.131 153.082 314.562 153.378C314.005 153.674 313.363 153.821 312.635 153.821C311.816 153.821 311.066 153.617 310.383 153.207C309.712 152.787 309.178 152.207 308.78 151.468C308.393 150.717 308.2 149.87 308.2 148.926ZM315.893 148.96C315.893 148.312 315.757 147.749 315.484 147.271C315.222 146.794 314.875 146.43 314.443 146.18C314.011 145.929 313.545 145.804 313.044 145.804C312.544 145.804 312.078 145.929 311.646 146.18C311.213 146.418 310.861 146.777 310.588 147.254C310.326 147.721 310.196 148.278 310.196 148.926C310.196 149.574 310.326 150.143 310.588 150.632C310.861 151.121 311.213 151.496 311.646 151.758C312.089 152.008 312.555 152.133 313.044 152.133C313.545 152.133 314.011 152.008 314.443 151.758C314.875 151.507 315.222 151.143 315.484 150.666C315.757 150.177 315.893 149.608 315.893 148.96ZM321.21 143.024C320.858 143.024 320.562 142.905 320.323 142.666C320.085 142.427 319.965 142.131 319.965 141.779C319.965 141.426 320.085 141.131 320.323 140.892C320.562 140.653 320.858 140.534 321.21 140.534C321.552 140.534 321.842 140.653 322.08 140.892C322.319 141.131 322.439 141.426 322.439 141.779C322.439 142.131 322.319 142.427 322.08 142.666C321.842 142.905 321.552 143.024 321.21 143.024ZM322.166 144.269V153.668H320.221V144.269H322.166ZM329.273 144.116C330.012 144.116 330.672 144.269 331.252 144.576C331.843 144.883 332.304 145.338 332.633 145.941C332.963 146.544 333.128 147.271 333.128 148.124V153.668H331.201V148.414C331.201 147.573 330.99 146.93 330.57 146.487C330.149 146.032 329.574 145.804 328.847 145.804C328.119 145.804 327.539 146.032 327.107 146.487C326.686 146.93 326.476 147.573 326.476 148.414V153.668H324.531V144.269H326.476V145.344C326.794 144.957 327.198 144.656 327.687 144.44C328.187 144.224 328.716 144.116 329.273 144.116ZM339.208 144.116C339.936 144.116 340.578 144.263 341.135 144.559C341.704 144.843 342.147 145.202 342.466 145.634V144.269H344.427V153.821C344.427 154.686 344.245 155.453 343.882 156.124C343.518 156.807 342.989 157.341 342.295 157.728C341.613 158.114 340.794 158.308 339.839 158.308C338.565 158.308 337.508 158.006 336.666 157.404C335.825 156.812 335.347 156.005 335.233 154.981H337.161C337.309 155.47 337.621 155.863 338.099 156.158C338.588 156.465 339.168 156.619 339.839 156.619C340.624 156.619 341.255 156.38 341.732 155.903C342.221 155.425 342.466 154.731 342.466 153.821V152.252C342.136 152.696 341.687 153.071 341.118 153.378C340.561 153.674 339.924 153.821 339.208 153.821C338.389 153.821 337.638 153.617 336.956 153.207C336.285 152.787 335.751 152.207 335.353 151.468C334.966 150.717 334.773 149.87 334.773 148.926C334.773 147.982 334.966 147.146 335.353 146.418C335.751 145.691 336.285 145.128 336.956 144.73C337.638 144.32 338.389 144.116 339.208 144.116ZM342.466 148.96C342.466 148.312 342.329 147.749 342.056 147.271C341.795 146.794 341.448 146.43 341.016 146.18C340.584 145.929 340.118 145.804 339.617 145.804C339.117 145.804 338.651 145.929 338.218 146.18C337.786 146.418 337.434 146.777 337.161 147.254C336.899 147.721 336.769 148.278 336.769 148.926C336.769 149.574 336.899 150.143 337.161 150.632C337.434 151.121 337.786 151.496 338.218 151.758C338.662 152.008 339.128 152.133 339.617 152.133C340.118 152.133 340.584 152.008 341.016 151.758C341.448 151.507 341.795 151.143 342.056 150.666C342.329 150.177 342.466 149.608 342.466 148.96Z" fill="#505050"/>
</g>
<defs>
<filter id="filter0_dd_780_20129" x="0.780334" y="0.73666" width="436.838" height="277.553" filterUnits="userSpaceOnUse" color-interpolation-filters="sRGB">
<feFlood flood-opacity="0" result="BackgroundImageFix"/>
<feColorMatrix in="SourceAlpha" type="matrix" values="0 0 0 0 0 0 0 0 0 0 0 0 0 0 0 0 0 0 127 0" result="hardAlpha"/>
<feOffset dx="-12.2233" dy="17.1126"/>
<feGaussianBlur stdDeviation="35.6921"/>
<feComposite in2="hardAlpha" operator="out"/>
<feColorMatrix type="matrix" values="0 0 0 0 0.0444481 0 0 0 0 0 0 0 0 0 0.888965 0 0 0 0.07 0"/>
<feBlend mode="normal" in2="BackgroundImageFix" result="effect1_dropShadow_780_20129"/>
<feColorMatrix in="SourceAlpha" type="matrix" values="0 0 0 0 0 0 0 0 0 0 0 0 0 0 0 0 0 0 127 0" result="hardAlpha"/>
<feOffset dx="-12.459" dy="17.4426"/>
<feGaussianBlur stdDeviation="36.3803"/>
<feComposite in2="hardAlpha" operator="out"/>
<feColorMatrix type="matrix" values="0 0 0 0 0.0444481 0 0 0 0 0 0 0 0 0 0.888965 0 0 0 0.07 0"/>
<feBlend mode="normal" in2="effect1_dropShadow_780_20129" result="effect2_dropShadow_780_20129"/>
<feBlend mode="normal" in="SourceGraphic" in2="effect2_dropShadow_780_20129" result="shape"/>
</filter>
</defs>
</svg>
