<svg width="502" height="223" viewBox="0 0 502 223" fill="none" xmlns="http://www.w3.org/2000/svg">
<g filter="url(#filter0_d_780_20076)">
<mask id="path-1-inside-1_780_20076" fill="white">
<path d="M86 66C86 60.4772 90.4772 56 96 56H431.214C436.737 56 441.214 60.4772 441.214 66V121.884C441.214 127.407 436.737 131.884 431.214 131.884H96C90.4771 131.884 86 127.407 86 121.884V66Z"/>
</mask>
<path d="M86 66C86 60.4772 90.4772 56 96 56H431.214C436.737 56 441.214 60.4772 441.214 66V121.884C441.214 127.407 436.737 131.884 431.214 131.884H96C90.4771 131.884 86 127.407 86 121.884V66Z" fill="white" shape-rendering="crispEdges"/>
<path d="M86 56H441.214H86ZM441.214 121.884C441.214 128.048 436.217 133.044 430.053 133.044H97.1605C90.9967 133.044 86 128.048 86 121.884C86 126.766 90.4772 130.724 96 130.724H431.214C436.737 130.724 441.214 126.766 441.214 121.884ZM86 131.884V56V131.884ZM441.214 56V131.884V56Z" fill="black" mask="url(#path-1-inside-1_780_20076)"/>
<rect x="105.375" y="75.375" width="43.2092" height="35.9255" rx="4.64184" fill="#F7F9FB"/>
<path d="M117.305 99.3359L121.107 87.6385H123.552L127.354 99.3359H125.591L122.09 88.662H122.529L119.068 99.3359H117.305ZM119.279 96.6959V95.1037H125.388V96.6959H119.279ZM128.974 99.3359V87.3948H130.671V99.3359H128.974ZM133.273 99.3359V87.3948H134.971V99.3359H133.273Z" fill="#1D2136"/>
<rect x="164.832" y="75.375" width="108.381" height="37.1347" rx="4.64184" fill="#E3F0FF"/>
<g clip-path="url(#clip0_780_20076)">
<path d="M183.736 103.327C192.495 103.327 197.285 96.0711 197.285 89.7787C197.285 89.5725 197.285 89.3674 197.271 89.1622C198.203 88.4884 199.007 87.6541 199.647 86.6984C198.778 87.0835 197.856 87.3361 196.912 87.4476C197.906 86.8525 198.65 85.9166 199.005 84.8139C198.07 85.3686 197.048 85.7594 195.981 85.9697C195.264 85.2063 194.314 84.7008 193.28 84.5314C192.246 84.362 191.184 84.5382 190.26 85.0327C189.337 85.5272 188.601 86.3124 188.169 87.2669C187.736 88.2213 187.63 89.2918 187.867 90.3126C185.973 90.2177 184.121 89.7257 182.431 88.8686C180.74 88.0115 179.248 86.8084 178.053 85.3374C177.444 86.3857 177.257 87.6266 177.531 88.8076C177.805 89.9885 178.519 91.0207 179.527 91.6939C178.769 91.6714 178.028 91.467 177.366 91.0979V91.1582C177.366 92.2576 177.747 93.3231 178.443 94.1739C179.139 95.0246 180.109 95.6084 181.186 95.8261C180.485 96.0172 179.75 96.0452 179.036 95.9077C179.34 96.8539 179.933 97.6813 180.73 98.2742C181.528 98.8672 182.491 99.1959 183.485 99.2146C181.799 100.54 179.716 101.259 177.571 101.257C177.192 101.256 176.814 101.233 176.438 101.188C178.615 102.586 181.149 103.327 183.736 103.324" fill="#1DA1F2"/>
</g>
<path d="M210.663 99.9414V89.8442H206.772V88.244H216.252V89.8442H212.361V99.9414H210.663ZM218.452 99.9414L215.771 91.1602L217.453 91.1683L219.289 97.1876L221.141 91.1683H222.603L224.455 97.1876L226.291 91.1683H227.964L225.284 99.9414H223.919L221.872 93.589L219.817 99.9414H218.452ZM229.582 89.7305V88.0815H231.279V89.7305H229.582ZM229.582 99.9414V91.1683H231.279V99.9414H229.582ZM238.739 99.9414C238.187 100.05 237.645 100.096 237.114 100.08C236.584 100.063 236.11 99.9604 235.693 99.7708C235.276 99.5813 234.962 99.2834 234.75 98.8773C234.561 98.5144 234.458 98.1462 234.442 97.7725C234.431 97.3934 234.425 96.9656 234.425 96.489V88.7314H236.131V96.4078C236.131 96.7598 236.134 97.0658 236.139 97.3257C236.15 97.5857 236.207 97.805 236.31 97.9837C236.505 98.3195 236.814 98.5117 237.236 98.5605C237.664 98.6038 238.165 98.5848 238.739 98.5036V99.9414ZM232.744 92.533V91.1683H238.739V92.533H232.744ZM244.628 99.9414C244.076 100.05 243.534 100.096 243.004 100.08C242.473 100.063 241.999 99.9604 241.582 99.7708C241.165 99.5813 240.851 99.2834 240.64 98.8773C240.45 98.5144 240.347 98.1462 240.331 97.7725C240.32 97.3934 240.315 96.9656 240.315 96.489V88.7314H242.021V96.4078C242.021 96.7598 242.023 97.0658 242.029 97.3257C242.04 97.5857 242.096 97.805 242.199 97.9837C242.394 98.3195 242.703 98.5117 243.125 98.5605C243.553 98.6038 244.054 98.5848 244.628 98.5036V99.9414ZM238.633 92.533V91.1683H244.628V92.533H238.633ZM250.35 100.185C249.478 100.185 248.712 99.9956 248.051 99.6165C247.396 99.232 246.884 98.6986 246.516 98.0162C246.153 97.3284 245.971 96.5324 245.971 95.628C245.971 94.6694 246.15 93.8382 246.508 93.1341C246.87 92.4301 247.374 91.8859 248.019 91.5014C248.663 91.1169 249.413 90.9246 250.269 90.9246C251.162 90.9246 251.923 91.1331 252.551 91.5501C253.179 91.9617 253.648 92.5493 253.957 93.3129C254.271 94.0764 254.395 94.9835 254.33 96.0341H252.633V95.4168C252.622 94.3987 252.427 93.6459 252.048 93.1585C251.674 92.6711 251.103 92.4274 250.334 92.4274C249.483 92.4274 248.844 92.6955 248.417 93.2316C247.989 93.7678 247.775 94.5422 247.775 95.5549C247.775 96.5188 247.989 97.2662 248.417 97.7969C248.844 98.3222 249.462 98.5848 250.269 98.5848C250.799 98.5848 251.257 98.4657 251.641 98.2274C252.031 97.9837 252.335 97.6371 252.551 97.1876L254.217 97.7156C253.875 98.5009 253.358 99.1101 252.665 99.5434C251.972 99.9712 251.2 100.185 250.35 100.185ZM247.222 96.0341V94.7101H253.485V96.0341H247.222ZM256.153 99.9414V91.1683H257.664V93.2966L257.453 93.0204C257.561 92.7388 257.702 92.4816 257.875 92.2487C258.048 92.0104 258.249 91.8155 258.476 91.6638C258.698 91.5014 258.944 91.3768 259.215 91.2902C259.491 91.1981 259.773 91.144 260.06 91.1277C260.347 91.106 260.623 91.1196 260.889 91.1683V92.7605C260.602 92.6847 260.282 92.663 259.93 92.6955C259.583 92.728 259.264 92.839 258.972 93.0285C258.695 93.2073 258.476 93.4239 258.314 93.6784C258.157 93.9329 258.043 94.2172 257.972 94.5313C257.902 94.84 257.867 95.1677 257.867 95.5142V99.9414H256.153Z" fill="#1D2136"/>
<rect x="289.457" y="75.375" width="132.381" height="37.1347" rx="4.64184" fill="#F7F9FB"/>
<g clip-path="url(#clip1_780_20076)">
<path d="M312.663 82.3242C307.818 82.3242 306.401 82.3292 306.126 82.3519C305.132 82.4348 304.513 82.5912 303.839 82.9271C303.319 83.185 302.91 83.4842 302.506 83.9035C301.769 84.6678 301.323 85.6084 301.162 86.7263C301.083 87.2689 301.06 87.3799 301.055 90.1523C301.054 91.0766 301.055 92.2928 301.055 93.9243C301.055 98.7665 301.061 100.182 301.084 100.457C301.164 101.425 301.316 102.034 301.638 102.7C302.252 103.975 303.424 104.931 304.806 105.289C305.284 105.412 305.812 105.479 306.491 105.512C306.778 105.524 309.707 105.533 312.638 105.533C315.569 105.533 318.5 105.529 318.781 105.515C319.566 105.478 320.022 105.417 320.526 105.287C321.917 104.928 323.068 103.985 323.694 102.693C324.009 102.043 324.169 101.411 324.242 100.494C324.257 100.294 324.264 97.1051 324.264 93.9211C324.264 90.7367 324.257 87.554 324.241 87.3541C324.168 86.4221 324.008 85.7952 323.683 85.1329C323.416 84.5907 323.12 84.1855 322.69 83.7716C321.922 83.0382 320.983 82.5917 319.864 82.4303C319.322 82.3523 319.214 82.3292 316.44 82.3242H312.663Z" fill="url(#paint0_radial_780_20076)"/>
<path d="M312.663 82.3242C307.818 82.3242 306.401 82.3292 306.126 82.3519C305.132 82.4348 304.513 82.5912 303.839 82.9271C303.319 83.185 302.91 83.4842 302.506 83.9035C301.769 84.6678 301.323 85.6084 301.162 86.7263C301.083 87.2689 301.06 87.3799 301.055 90.1523C301.054 91.0766 301.055 92.2928 301.055 93.9243C301.055 98.7665 301.061 100.182 301.084 100.457C301.164 101.425 301.316 102.034 301.638 102.7C302.252 103.975 303.424 104.931 304.806 105.289C305.284 105.412 305.812 105.479 306.491 105.512C306.778 105.524 309.707 105.533 312.638 105.533C315.569 105.533 318.5 105.529 318.781 105.515C319.566 105.478 320.022 105.417 320.526 105.287C321.917 104.928 323.068 103.985 323.694 102.693C324.009 102.043 324.169 101.411 324.242 100.494C324.257 100.294 324.264 97.1051 324.264 93.9211C324.264 90.7367 324.257 87.554 324.241 87.3541C324.168 86.4221 324.008 85.7952 323.683 85.1329C323.416 84.5907 323.12 84.1855 322.69 83.7716C321.922 83.0382 320.983 82.5917 319.864 82.4303C319.322 82.3523 319.214 82.3292 316.44 82.3242H312.663Z" fill="url(#paint1_radial_780_20076)"/>
<path d="M312.663 82.3242C307.818 82.3242 306.401 82.3292 306.126 82.3519C305.132 82.4348 304.513 82.5912 303.839 82.9271C303.319 83.185 302.91 83.4842 302.506 83.9035C301.769 84.6678 301.323 85.6084 301.162 86.7263C301.083 87.2689 301.06 87.3799 301.055 90.1523C301.054 91.0766 301.055 92.2928 301.055 93.9243C301.055 98.7665 301.061 100.182 301.084 100.457C301.164 101.425 301.316 102.034 301.638 102.7C302.252 103.975 303.424 104.931 304.806 105.289C305.284 105.412 305.812 105.479 306.491 105.512C306.778 105.524 309.707 105.533 312.638 105.533C315.569 105.533 318.5 105.529 318.781 105.515C319.566 105.478 320.022 105.417 320.526 105.287C321.917 104.928 323.068 103.985 323.694 102.693C324.009 102.043 324.169 101.411 324.242 100.494C324.257 100.294 324.264 97.1051 324.264 93.9211C324.264 90.7367 324.257 87.554 324.241 87.3541C324.168 86.4221 324.008 85.7952 323.683 85.1329C323.416 84.5907 323.12 84.1855 322.69 83.7716C321.922 83.0382 320.983 82.5917 319.864 82.4303C319.322 82.3523 319.214 82.3292 316.44 82.3242H312.663Z" fill="url(#paint2_radial_780_20076)"/>
<path d="M312.663 82.3242C307.818 82.3242 306.401 82.3292 306.126 82.3519C305.132 82.4348 304.513 82.5912 303.839 82.9271C303.319 83.185 302.91 83.4842 302.506 83.9035C301.769 84.6678 301.323 85.6084 301.162 86.7263C301.083 87.2689 301.06 87.3799 301.055 90.1523C301.054 91.0766 301.055 92.2928 301.055 93.9243C301.055 98.7665 301.061 100.182 301.084 100.457C301.164 101.425 301.316 102.034 301.638 102.7C302.252 103.975 303.424 104.931 304.806 105.289C305.284 105.412 305.812 105.479 306.491 105.512C306.778 105.524 309.707 105.533 312.638 105.533C315.569 105.533 318.5 105.529 318.781 105.515C319.566 105.478 320.022 105.417 320.526 105.287C321.917 104.928 323.068 103.985 323.694 102.693C324.009 102.043 324.169 101.411 324.242 100.494C324.257 100.294 324.264 97.1051 324.264 93.9211C324.264 90.7367 324.257 87.554 324.241 87.3541C324.168 86.4221 324.008 85.7952 323.683 85.1329C323.416 84.5907 323.12 84.1855 322.69 83.7716C321.922 83.0382 320.983 82.5917 319.864 82.4303C319.322 82.3523 319.214 82.3292 316.44 82.3242H312.663Z" fill="url(#paint3_radial_780_20076)"/>
<path d="M312.661 85.3047C310.317 85.3047 310.023 85.3151 309.103 85.3568C308.184 85.399 307.557 85.544 307.009 85.7575C306.441 85.9778 305.96 86.2725 305.48 86.7516C305 87.2308 304.705 87.7122 304.484 88.2788C304.27 88.8273 304.125 89.4542 304.083 90.3717C304.042 91.2915 304.031 91.5857 304.031 93.9275C304.031 96.2692 304.042 96.5625 304.083 97.4823C304.126 98.4002 304.271 99.0267 304.484 99.5752C304.705 100.142 305 100.623 305.48 101.103C305.959 101.582 306.441 101.878 307.008 102.098C307.557 102.311 308.184 102.457 309.102 102.499C310.023 102.541 310.317 102.551 312.66 102.551C315.004 102.551 315.297 102.541 316.218 102.499C317.137 102.457 317.765 102.312 318.314 102.098C318.881 101.878 319.362 101.583 319.841 101.103C320.321 100.624 320.616 100.143 320.837 99.5761C321.049 99.0276 321.195 98.4007 321.238 97.4832C321.279 96.5634 321.29 96.2701 321.29 93.9284C321.29 91.5866 321.279 91.2924 321.238 90.3726C321.195 89.4547 321.049 88.8282 320.837 88.2797C320.616 87.7126 320.321 87.2317 319.841 86.7521C319.361 86.2725 318.881 85.9778 318.313 85.7575C317.763 85.5445 317.135 85.399 316.217 85.3568C315.296 85.3151 315.003 85.3047 312.659 85.3047H312.661ZM311.887 86.8586C312.117 86.8582 312.373 86.8586 312.661 86.8586C314.965 86.8586 315.238 86.8668 316.148 86.908C316.989 86.9466 317.446 87.0871 317.75 87.2049C318.153 87.3613 318.44 87.5481 318.742 87.85C319.044 88.1519 319.231 88.4393 319.388 88.8418C319.506 89.1455 319.647 89.6016 319.685 90.4424C319.726 91.3513 319.736 91.6247 319.736 93.9256C319.736 96.2271 319.726 96.5 319.685 97.4088C319.647 98.2497 319.506 98.7057 319.388 99.0095C319.231 99.412 319.044 99.6985 318.742 99.9999C318.44 100.302 318.153 100.489 317.75 100.645C317.446 100.764 316.989 100.904 316.148 100.942C315.238 100.983 314.965 100.992 312.661 100.992C310.357 100.992 310.084 100.983 309.174 100.942C308.333 100.903 307.877 100.763 307.572 100.645C307.169 100.488 306.882 100.301 306.58 99.9995C306.278 99.6976 306.091 99.4111 305.934 99.0085C305.815 98.7048 305.675 98.2488 305.636 97.4079C305.595 96.4991 305.587 96.2257 305.587 93.9234C305.587 91.6206 305.595 91.3491 305.636 90.4402C305.675 89.5993 305.815 89.1433 305.934 88.8391C306.09 88.4366 306.277 88.1492 306.58 87.8473C306.882 87.5454 307.169 87.3586 307.572 87.2018C307.876 87.083 308.333 86.9429 309.174 86.9044C309.97 86.8686 310.279 86.8577 311.887 86.8559L311.887 86.8586ZM317.267 88.2906C316.696 88.2906 316.232 88.7534 316.232 89.325C316.232 89.8962 316.696 90.3599 317.267 90.3599C317.839 90.3599 318.303 89.8967 318.303 89.325C318.303 88.7534 317.839 88.2902 317.267 88.2906ZM312.661 89.4996C310.213 89.4996 308.229 91.4823 308.229 93.9279C308.229 96.3735 310.213 98.3553 312.661 98.3553C315.108 98.3553 317.091 96.3735 317.091 93.9279C317.091 91.4823 315.108 89.4996 312.661 89.4996ZM312.661 91.0535C314.249 91.0535 315.537 92.3404 315.537 93.9279C315.537 95.5154 314.25 96.8023 312.661 96.8023C311.072 96.8023 309.784 95.5154 309.784 93.9279C309.785 92.34 311.072 91.0535 312.661 91.0535Z" fill="#F9F9F9"/>
</g>
<path d="M332.534 99.9414V88.244H334.232V99.9414H332.534ZM342.829 99.9414V95.628C342.829 95.2868 342.799 94.9375 342.739 94.5801C342.685 94.2172 342.577 93.8815 342.414 93.5728C342.257 93.2641 342.033 93.015 341.74 92.8255C341.453 92.6359 341.077 92.5411 340.611 92.5411C340.308 92.5411 340.021 92.5926 339.75 92.6955C339.479 92.793 339.241 92.9527 339.035 93.1748C338.835 93.3968 338.675 93.6892 338.556 94.0521C338.442 94.4149 338.385 94.8563 338.385 95.3762L337.329 94.9781C337.329 94.182 337.478 93.4807 337.776 92.8742C338.074 92.2623 338.502 91.7857 339.059 91.4445C339.617 91.1033 340.291 90.9328 341.082 90.9328C341.689 90.9328 342.198 91.0302 342.609 91.2252C343.021 91.4201 343.354 91.6774 343.608 91.9969C343.868 92.311 344.066 92.6549 344.201 93.0285C344.337 93.4022 344.429 93.7678 344.478 94.1252C344.526 94.4826 344.551 94.7967 344.551 95.0675V99.9414H342.829ZM336.663 99.9414V91.1683H338.182V93.7028H338.385V99.9414H336.663ZM350.021 100.177C348.955 100.177 348.085 99.9414 347.414 99.4703C346.742 98.9991 346.331 98.3357 346.179 97.4801L347.918 97.212C348.026 97.6669 348.275 98.027 348.665 98.2924C349.06 98.5523 349.55 98.6823 350.135 98.6823C350.666 98.6823 351.08 98.574 351.378 98.3574C351.681 98.1408 351.833 97.8429 351.833 97.4638C351.833 97.2418 351.779 97.0631 351.671 96.9277C351.568 96.7869 351.348 96.6542 351.013 96.5297C350.677 96.4051 350.165 96.2508 349.477 96.0666C348.724 95.8717 348.126 95.6632 347.682 95.4411C347.243 95.2137 346.929 94.951 346.74 94.6532C346.556 94.3499 346.464 93.9844 346.464 93.5566C346.464 93.0258 346.604 92.5628 346.886 92.1675C347.168 91.7722 347.563 91.4662 348.072 91.2496C348.586 91.0329 349.188 90.9246 349.875 90.9246C350.547 90.9246 351.145 91.0302 351.671 91.2414C352.196 91.4526 352.621 91.7532 352.946 92.1431C353.271 92.5276 353.466 92.9798 353.531 93.4997L351.792 93.8165C351.733 93.3941 351.535 93.061 351.199 92.8173C350.864 92.5736 350.428 92.441 349.892 92.4193C349.377 92.3976 348.96 92.4843 348.641 92.6792C348.321 92.8688 348.161 93.1314 348.161 93.4672C348.161 93.6622 348.221 93.8273 348.34 93.9627C348.465 94.0981 348.703 94.2281 349.055 94.3526C349.407 94.4772 349.927 94.6261 350.614 94.7994C351.351 94.9889 351.936 95.2002 352.369 95.433C352.802 95.6605 353.111 95.9339 353.295 96.2535C353.485 96.5676 353.579 96.9494 353.579 97.3988C353.579 98.2653 353.263 98.945 352.629 99.4378C352.001 99.9306 351.132 100.177 350.021 100.177ZM360.397 99.9414C359.845 100.05 359.303 100.096 358.772 100.08C358.242 100.063 357.768 99.9604 357.351 99.7708C356.934 99.5813 356.62 99.2834 356.408 98.8773C356.219 98.5144 356.116 98.1462 356.1 97.7725C356.089 97.3934 356.084 96.9656 356.084 96.489V88.7314H357.789V96.4078C357.789 96.7598 357.792 97.0658 357.798 97.3257C357.808 97.5857 357.865 97.805 357.968 97.9837C358.163 98.3195 358.472 98.5117 358.894 98.5605C359.322 98.6038 359.823 98.5848 360.397 98.5036V99.9414ZM354.402 92.533V91.1683H360.397V92.533H354.402ZM364.724 100.185C364.074 100.185 363.53 100.066 363.091 99.8277C362.653 99.584 362.32 99.2645 362.092 98.8691C361.87 98.4684 361.759 98.0297 361.759 97.5532C361.759 97.1091 361.838 96.7192 361.995 96.3834C362.152 96.0477 362.385 95.7634 362.693 95.5305C363.002 95.2922 363.381 95.1 363.831 94.9537C364.221 94.84 364.662 94.7398 365.155 94.6532C365.648 94.5665 366.165 94.4853 366.706 94.4095C367.253 94.3337 367.795 94.2579 368.331 94.182L367.714 94.5232C367.724 93.8354 367.578 93.3264 367.275 92.9961C366.977 92.6603 366.463 92.4924 365.732 92.4924C365.271 92.4924 364.849 92.6007 364.464 92.8173C364.08 93.0285 363.812 93.3805 363.66 93.8734L362.076 93.386C362.293 92.6332 362.704 92.0348 363.311 91.5907C363.923 91.1467 364.735 90.9246 365.748 90.9246C366.533 90.9246 367.215 91.06 367.795 91.3308C368.38 91.5961 368.808 92.0186 369.078 92.598C369.219 92.885 369.306 93.1883 369.338 93.5078C369.371 93.8273 369.387 94.1712 369.387 94.5395V99.9414H367.884V97.935L368.177 98.1949C367.814 98.8664 367.351 99.3674 366.788 99.6977C366.23 100.023 365.542 100.185 364.724 100.185ZM365.025 98.796C365.507 98.796 365.921 98.7121 366.268 98.5442C366.614 98.3709 366.893 98.1516 367.104 97.8862C367.316 97.6209 367.454 97.3447 367.519 97.0577C367.611 96.7977 367.662 96.5053 367.673 96.1804C367.689 95.8554 367.697 95.5955 367.697 95.4005L368.25 95.6036C367.714 95.6848 367.226 95.7579 366.788 95.8229C366.349 95.8879 365.951 95.9529 365.593 96.0179C365.241 96.0775 364.927 96.1506 364.651 96.2372C364.418 96.3184 364.21 96.4159 364.026 96.5297C363.847 96.6434 363.703 96.7815 363.595 96.9439C363.492 97.1064 363.441 97.3041 363.441 97.5369C363.441 97.7644 363.498 97.9756 363.611 98.1705C363.725 98.3601 363.898 98.5117 364.131 98.6254C364.364 98.7392 364.662 98.796 365.025 98.796ZM375.111 104.084C374.64 104.084 374.182 104.011 373.738 103.865C373.3 103.719 372.899 103.502 372.536 103.215C372.173 102.933 371.873 102.584 371.634 102.167L373.202 101.371C373.392 101.745 373.663 102.018 374.015 102.192C374.367 102.365 374.738 102.451 375.127 102.451C375.609 102.451 376.021 102.365 376.362 102.192C376.703 102.024 376.961 101.769 377.134 101.428C377.313 101.087 377.399 100.664 377.394 100.161V97.7075H377.597V91.1683H379.1V100.177C379.1 100.41 379.092 100.632 379.075 100.843C379.059 101.054 379.029 101.265 378.986 101.477C378.861 102.067 378.623 102.554 378.271 102.939C377.925 103.323 377.48 103.61 376.939 103.8C376.403 103.989 375.794 104.084 375.111 104.084ZM374.981 100.185C374.163 100.185 373.457 99.982 372.861 99.5759C372.271 99.1697 371.813 98.6173 371.488 97.9187C371.169 97.2147 371.009 96.4241 371.009 95.5467C371.009 94.664 371.171 93.8761 371.496 93.1829C371.821 92.4843 372.282 91.9346 372.877 91.5339C373.478 91.1277 374.191 90.9246 375.014 90.9246C375.842 90.9246 376.538 91.1277 377.101 91.5339C377.67 91.9346 378.098 92.4843 378.385 93.1829C378.677 93.8815 378.824 94.6694 378.824 95.5467C378.824 96.4241 378.677 97.212 378.385 97.9106C378.092 98.6092 377.662 99.1643 377.093 99.5759C376.525 99.982 375.821 100.185 374.981 100.185ZM375.217 98.6498C375.775 98.6498 376.23 98.5171 376.582 98.2518C376.934 97.9864 377.191 97.6209 377.353 97.1551C377.516 96.6894 377.597 96.1533 377.597 95.5467C377.597 94.9402 377.513 94.4041 377.345 93.9383C377.183 93.4726 376.928 93.1098 376.582 92.8498C376.24 92.5899 375.804 92.4599 375.274 92.4599C374.71 92.4599 374.247 92.598 373.885 92.8742C373.522 93.1504 373.251 93.5214 373.072 93.9871C372.899 94.4528 372.812 94.9727 372.812 95.5467C372.812 96.1262 372.899 96.6515 373.072 97.1226C373.251 97.5884 373.516 97.9593 373.868 98.2355C374.226 98.5117 374.675 98.6498 375.217 98.6498ZM381.381 99.9414V91.1683H382.892V93.2966L382.68 93.0204C382.789 92.7388 382.93 92.4816 383.103 92.2487C383.276 92.0104 383.476 91.8155 383.704 91.6638C383.926 91.5014 384.172 91.3768 384.443 91.2902C384.719 91.1981 385.001 91.144 385.288 91.1277C385.575 91.106 385.851 91.1196 386.117 91.1683V92.7605C385.83 92.6847 385.51 92.663 385.158 92.6955C384.811 92.728 384.492 92.839 384.199 93.0285C383.923 93.2073 383.704 93.4239 383.541 93.6784C383.384 93.9329 383.271 94.2172 383.2 94.5313C383.13 94.84 383.095 95.1677 383.095 95.5142V99.9414H381.381ZM389.887 100.185C389.237 100.185 388.693 100.066 388.254 99.8277C387.816 99.584 387.483 99.2645 387.255 98.8691C387.033 98.4684 386.922 98.0297 386.922 97.5532C386.922 97.1091 387.001 96.7192 387.158 96.3834C387.315 96.0477 387.548 95.7634 387.856 95.5305C388.165 95.2922 388.544 95.1 388.994 94.9537C389.384 94.84 389.825 94.7398 390.318 94.6532C390.811 94.5665 391.328 94.4853 391.869 94.4095C392.416 94.3337 392.958 94.2579 393.494 94.182L392.877 94.5232C392.887 93.8354 392.741 93.3264 392.438 92.9961C392.14 92.6603 391.626 92.4924 390.894 92.4924C390.434 92.4924 390.012 92.6007 389.627 92.8173C389.243 93.0285 388.975 93.3805 388.823 93.8734L387.239 93.386C387.456 92.6332 387.867 92.0348 388.474 91.5907C389.086 91.1467 389.898 90.9246 390.911 90.9246C391.696 90.9246 392.378 91.06 392.958 91.3308C393.543 91.5961 393.97 92.0186 394.241 92.598C394.382 92.885 394.469 93.1883 394.501 93.5078C394.534 93.8273 394.55 94.1712 394.55 94.5395V99.9414H393.047V97.935L393.34 98.1949C392.977 98.8664 392.514 99.3674 391.951 99.6977C391.393 100.023 390.705 100.185 389.887 100.185ZM390.188 98.796C390.67 98.796 391.084 98.7121 391.431 98.5442C391.777 98.3709 392.056 98.1516 392.267 97.8862C392.479 97.6209 392.617 97.3447 392.682 97.0577C392.774 96.7977 392.825 96.5053 392.836 96.1804C392.852 95.8554 392.86 95.5955 392.86 95.4005L393.413 95.6036C392.877 95.6848 392.389 95.7579 391.951 95.8229C391.512 95.8879 391.114 95.9529 390.756 96.0179C390.404 96.0775 390.09 96.1506 389.814 96.2372C389.581 96.3184 389.373 96.4159 389.189 96.5297C389.01 96.6434 388.866 96.7815 388.758 96.9439C388.655 97.1064 388.604 97.3041 388.604 97.5369C388.604 97.7644 388.661 97.9756 388.774 98.1705C388.888 98.3601 389.061 98.5117 389.294 98.6254C389.527 98.7392 389.825 98.796 390.188 98.796ZM407.171 99.9414L407.179 94.4745C407.179 93.8409 407.016 93.3481 406.692 92.9961C406.367 92.6386 405.939 92.4599 405.408 92.4599C405.083 92.4599 404.785 92.5357 404.514 92.6874C404.249 92.8336 404.033 93.0556 403.865 93.3535C403.702 93.6459 403.621 94.0142 403.621 94.4582L402.8 94.0439C402.79 93.4266 402.92 92.885 403.19 92.4193C403.467 91.9536 403.84 91.5934 404.311 91.3389C404.783 91.079 405.311 90.949 405.895 90.949C406.843 90.949 407.577 91.2333 408.097 91.8019C408.617 92.3706 408.877 93.126 408.877 94.0683L408.869 99.9414H407.171ZM396.651 99.9414V91.1683H398.162V93.7028H398.357V99.9414H396.651ZM401.915 99.9414L401.923 94.507C401.923 93.8679 401.761 93.367 401.436 93.0042C401.116 92.6413 400.686 92.4599 400.144 92.4599C399.608 92.4599 399.175 92.644 398.844 93.0123C398.52 93.3805 398.357 93.8625 398.357 94.4582L397.545 93.9383C397.545 93.3643 397.683 92.8525 397.959 92.4031C398.235 91.9536 398.609 91.5989 399.08 91.3389C399.551 91.079 400.085 90.949 400.68 90.949C401.303 90.949 401.834 91.0817 402.272 91.347C402.711 91.607 403.044 91.9725 403.272 92.4437C403.504 92.9148 403.621 93.4618 403.621 94.0846L403.613 99.9414H401.915Z" fill="#1D2136"/>
</g>
<defs>
<filter id="filter0_d_780_20076" x="0.780334" y="0.681973" width="500.736" height="221.404" filterUnits="userSpaceOnUse" color-interpolation-filters="sRGB">
<feFlood flood-opacity="0" result="BackgroundImageFix"/>
<feColorMatrix in="SourceAlpha" type="matrix" values="0 0 0 0 0 0 0 0 0 0 0 0 0 0 0 0 0 0 127 0" result="hardAlpha"/>
<feOffset dx="-12.459" dy="17.4426"/>
<feGaussianBlur stdDeviation="36.3803"/>
<feComposite in2="hardAlpha" operator="out"/>
<feColorMatrix type="matrix" values="0 0 0 0 0.0444481 0 0 0 0 0 0 0 0 0 0.888965 0 0 0 0.07 0"/>
<feBlend mode="normal" in2="BackgroundImageFix" result="effect1_dropShadow_780_20076"/>
<feBlend mode="normal" in="SourceGraphic" in2="effect1_dropShadow_780_20076" result="shape"/>
</filter>
<radialGradient id="paint0_radial_780_20076" cx="0" cy="0" r="1" gradientUnits="userSpaceOnUse" gradientTransform="translate(323.515 93.2028) rotate(164.251) scale(14.8294 10.6839)">
<stop stop-color="#FF005F"/>
<stop offset="1" stop-color="#FC01D8"/>
</radialGradient>
<radialGradient id="paint1_radial_780_20076" cx="0" cy="0" r="1" gradientUnits="userSpaceOnUse" gradientTransform="translate(307.219 107.321) rotate(-90) scale(18.5261 19.6558)">
<stop stop-color="#FFCC00"/>
<stop offset="0.1242" stop-color="#FFCC00"/>
<stop offset="0.5672" stop-color="#FE4A05"/>
<stop offset="0.6942" stop-color="#FF0F3F"/>
<stop offset="1" stop-color="#FE0657" stop-opacity="0"/>
</radialGradient>
<radialGradient id="paint2_radial_780_20076" cx="0" cy="0" r="1" gradientUnits="userSpaceOnUse" gradientTransform="translate(313.245 105.206) rotate(-59.8697) scale(7.66068 9.97339)">
<stop stop-color="#FFCC00"/>
<stop offset="1" stop-color="#FFCC00" stop-opacity="0"/>
</radialGradient>
<radialGradient id="paint3_radial_780_20076" cx="0" cy="0" r="1" gradientUnits="userSpaceOnUse" gradientTransform="translate(304.204 83.2701) rotate(164.274) scale(14.6649 4.99634)">
<stop stop-color="#780CFF"/>
<stop offset="1" stop-color="#820BFF" stop-opacity="0"/>
</radialGradient>
<clipPath id="clip0_780_20076">
<rect width="23.2092" height="18.9481" fill="white" transform="translate(176.438 84.4688)"/>
</clipPath>
<clipPath id="clip1_780_20076">
<rect width="23.2092" height="23.2092" fill="white" transform="translate(301.062 82.3359)"/>
</clipPath>
</defs>
</svg>
