<svg width="561" height="223" viewBox="0 0 561 223" fill="none" xmlns="http://www.w3.org/2000/svg">
<g filter="url(#filter0_d_780_19855)">
<mask id="path-1-inside-1_780_19855" fill="white">
<path d="M85.3359 60.9836C85.3359 58.2312 87.5672 56 90.3195 56H495.238C497.99 56 500.221 58.2312 500.221 60.9836V127.016C500.221 129.769 497.99 132 495.238 132H90.3196C87.5672 132 85.3359 129.769 85.3359 127.016V60.9836Z"/>
</mask>
<path d="M85.3359 60.9836C85.3359 58.2312 87.5672 56 90.3195 56H495.238C497.99 56 500.221 58.2312 500.221 60.9836V127.016C500.221 129.769 497.99 132 495.238 132H90.3196C87.5672 132 85.3359 129.769 85.3359 127.016V60.9836Z" fill="white" shape-rendering="crispEdges"/>
<path d="M85.3359 56H500.221H85.3359ZM500.221 127.016C500.221 130.263 497.589 132.895 494.343 132.895H91.2144C87.9678 132.895 85.3359 130.263 85.3359 127.016C85.3359 129.275 87.5672 131.105 90.3195 131.105H495.238C497.99 131.105 500.221 129.275 500.221 127.016ZM85.3359 132V56V132ZM500.221 56V132V56Z" fill="black" mask="url(#path-1-inside-1_780_19855)"/>
<rect x="138.825" y="78.7894" width="111.217" height="37.5828" rx="6.2638" stroke="#333333" stroke-width="1.78966"/>
<path d="M164.776 105.638C169.224 105.638 172.83 102.033 172.83 97.5847C172.83 93.1369 169.224 89.5312 164.776 89.5312C160.328 89.5312 156.723 93.1369 156.723 97.5847C156.723 102.033 160.328 105.638 164.776 105.638Z" stroke="#333333" stroke-width="1.78966" stroke-miterlimit="10"/>
<path d="M167.463 94.9023L162.094 100.271" stroke="#333333" stroke-width="1.78966" stroke-linecap="round" stroke-linejoin="round"/>
<path d="M167.463 100.271L162.094 94.9023" stroke="#333333" stroke-width="1.78966" stroke-linecap="round" stroke-linejoin="round"/>
<path d="M183.11 97.6974C183.11 96.8371 183.302 96.0688 183.687 95.3923C184.079 94.7074 184.609 94.1771 185.278 93.8013C185.954 93.4171 186.71 93.225 187.545 93.225C188.522 93.225 189.378 93.4756 190.113 93.9767C190.848 94.4778 191.362 95.171 191.654 96.0563H189.637C189.437 95.6387 189.153 95.3255 188.785 95.1167C188.426 94.9079 188.009 94.8035 187.533 94.8035C187.023 94.8035 186.568 94.9246 186.167 95.1668C185.775 95.4006 185.466 95.7347 185.24 96.169C185.023 96.6033 184.914 97.1127 184.914 97.6974C184.914 98.2736 185.023 98.7831 185.24 99.2257C185.466 99.66 185.775 99.9983 186.167 100.24C186.568 100.474 187.023 100.591 187.533 100.591C188.009 100.591 188.426 100.487 188.785 100.278C189.153 100.061 189.437 99.7435 189.637 99.326H191.654C191.362 100.22 190.848 100.917 190.113 101.418C189.387 101.911 188.531 102.157 187.545 102.157C186.71 102.157 185.954 101.969 185.278 101.593C184.609 101.209 184.079 100.679 183.687 100.002C183.302 99.326 183.11 98.5576 183.11 97.6974ZM192.563 98.5868C192.563 97.8853 192.701 97.2631 192.977 96.7202C193.261 96.1774 193.641 95.7598 194.117 95.4675C194.601 95.1751 195.14 95.029 195.733 95.029C196.251 95.029 196.702 95.1334 197.086 95.3422C197.478 95.551 197.792 95.8141 198.025 96.1314V95.1417H199.792V102.082H198.025V101.067C197.8 101.393 197.487 101.664 197.086 101.882C196.693 102.09 196.238 102.195 195.72 102.195C195.136 102.195 194.601 102.044 194.117 101.744C193.641 101.443 193.261 101.021 192.977 100.478C192.701 99.9273 192.563 99.2967 192.563 98.5868ZM198.025 98.6119C198.025 98.1859 197.942 97.8226 197.775 97.522C197.608 97.213 197.382 96.9791 197.098 96.8204C196.814 96.6534 196.51 96.5699 196.184 96.5699C195.858 96.5699 195.557 96.6492 195.282 96.8079C195.006 96.9666 194.781 97.2004 194.605 97.5095C194.438 97.8101 194.355 98.1692 194.355 98.5868C194.355 99.0044 194.438 99.3719 194.605 99.6893C194.781 99.9983 195.006 100.236 195.282 100.403C195.566 100.57 195.867 100.654 196.184 100.654C196.51 100.654 196.814 100.575 197.098 100.416C197.382 100.249 197.608 100.015 197.775 99.7143C197.942 99.4053 198.025 99.0378 198.025 98.6119ZM205.213 95.0415C206.04 95.0415 206.708 95.3046 207.217 95.8308C207.727 96.3486 207.982 97.0752 207.982 98.0106V102.082H206.228V98.2486C206.228 97.6974 206.09 97.2756 205.814 96.9833C205.539 96.6826 205.163 96.5323 204.687 96.5323C204.202 96.5323 203.818 96.6826 203.534 96.9833C203.259 97.2756 203.121 97.6974 203.121 98.2486V102.082H201.367V95.1417H203.121V96.0061C203.355 95.7055 203.651 95.4716 204.01 95.3046C204.378 95.1292 204.779 95.0415 205.213 95.0415ZM209.061 98.6119C209.061 97.8936 209.207 97.2673 209.499 96.7327C209.791 96.1899 210.196 95.7723 210.714 95.48C211.232 95.1793 211.825 95.029 212.493 95.029C213.353 95.029 214.063 95.2461 214.623 95.6804C215.191 96.1064 215.571 96.7077 215.763 97.4844H213.871C213.771 97.1837 213.6 96.9499 213.358 96.7829C213.124 96.6075 212.831 96.5198 212.481 96.5198C211.98 96.5198 211.583 96.7035 211.29 97.071C210.998 97.4301 210.852 97.9437 210.852 98.6119C210.852 99.2717 210.998 99.7853 211.29 100.153C211.583 100.512 211.98 100.691 212.481 100.691C213.191 100.691 213.654 100.374 213.871 99.7394H215.763C215.571 100.491 215.191 101.088 214.623 101.531C214.055 101.973 213.345 102.195 212.493 102.195C211.825 102.195 211.232 102.049 210.714 101.756C210.196 101.456 209.791 101.038 209.499 100.504C209.207 99.9607 209.061 99.3301 209.061 98.6119ZM223.362 98.4616C223.362 98.7121 223.345 98.9376 223.312 99.138H218.238C218.28 99.6391 218.455 100.032 218.764 100.316C219.073 100.6 219.453 100.742 219.904 100.742C220.555 100.742 221.019 100.462 221.295 99.9022H223.186C222.986 100.57 222.602 101.122 222.034 101.556C221.466 101.982 220.768 102.195 219.942 102.195C219.273 102.195 218.672 102.049 218.138 101.756C217.611 101.456 217.198 101.034 216.897 100.491C216.605 99.9482 216.459 99.3218 216.459 98.6119C216.459 97.8936 216.605 97.2631 216.897 96.7202C217.19 96.1774 217.599 95.7598 218.125 95.4675C218.651 95.1751 219.257 95.029 219.942 95.029C220.601 95.029 221.19 95.171 221.708 95.4549C222.234 95.7389 222.639 96.1439 222.923 96.6701C223.215 97.1879 223.362 97.7851 223.362 98.4616ZM221.545 97.9605C221.537 97.5095 221.374 97.1503 221.057 96.8831C220.739 96.6075 220.351 96.4697 219.891 96.4697C219.457 96.4697 219.09 96.6033 218.789 96.8705C218.497 97.1295 218.317 97.4928 218.25 97.9605H221.545ZM226.258 92.8116V102.082H224.504V92.8116H226.258Z" fill="#333333"/>
<rect x="271.766" y="78.7894" width="180.217" height="37.5828" rx="6.2638" fill="black"/>
<rect x="271.766" y="78.7894" width="180.217" height="37.5828" rx="6.2638" stroke="black" stroke-width="1.78966"/>
<path d="M304.616 89.8548L288.979 94.259C288.845 94.2954 288.727 94.3719 288.639 94.4782C288.551 94.5845 288.498 94.7153 288.487 94.8529C288.476 94.9904 288.507 95.128 288.577 95.2469C288.647 95.3658 288.752 95.4603 288.878 95.5174L296.059 98.9149C296.2 98.9801 296.312 99.093 296.378 99.2337L299.775 106.415C299.832 106.54 299.927 106.645 300.046 106.715C300.165 106.785 300.302 106.817 300.44 106.806C300.577 106.795 300.708 106.742 300.814 106.654C300.921 106.566 300.997 106.447 301.034 106.314L305.438 90.6769C305.471 90.5628 305.473 90.4418 305.444 90.3266C305.414 90.2114 305.354 90.1063 305.27 90.0222C305.186 89.9382 305.081 89.8783 304.966 89.8488C304.851 89.8193 304.73 89.8214 304.616 89.8548V89.8548Z" stroke="#F9F9F9" stroke-width="1.78966" stroke-linecap="round" stroke-linejoin="round"/>
<path d="M295.93 98.6942L299.722 94.9023" stroke="#F9F9F9" stroke-width="1.78966" stroke-linecap="round" stroke-linejoin="round"/>
<path d="M316.052 97.6974C316.052 96.8371 316.244 96.0688 316.628 95.3923C317.021 94.7074 317.551 94.1771 318.219 93.8013C318.896 93.4171 319.651 93.225 320.487 93.225C321.464 93.225 322.32 93.4756 323.055 93.9767C323.79 94.4778 324.303 95.171 324.596 96.0563H322.579C322.378 95.6387 322.094 95.3255 321.727 95.1167C321.368 94.9079 320.95 94.8035 320.474 94.8035C319.965 94.8035 319.509 94.9246 319.108 95.1668C318.716 95.4006 318.407 95.7347 318.181 96.169C317.964 96.6033 317.856 97.1127 317.856 97.6974C317.856 98.2736 317.964 98.7831 318.181 99.2257C318.407 99.66 318.716 99.9983 319.108 100.24C319.509 100.474 319.965 100.591 320.474 100.591C320.95 100.591 321.368 100.487 321.727 100.278C322.094 100.061 322.378 99.7435 322.579 99.326H324.596C324.303 100.22 323.79 100.917 323.055 101.418C322.328 101.911 321.472 102.157 320.487 102.157C319.651 102.157 318.896 101.969 318.219 101.593C317.551 101.209 317.021 100.679 316.628 100.002C316.244 99.326 316.052 98.5576 316.052 97.6974ZM327.71 96.2191C327.935 95.8516 328.227 95.5635 328.587 95.3547C328.954 95.1459 329.372 95.0415 329.839 95.0415V96.8831H329.376C328.825 96.8831 328.407 97.0125 328.123 97.2714C327.847 97.5303 327.71 97.9813 327.71 98.6244V102.082H325.956V95.1417H327.71V96.2191ZM337.335 98.4616C337.335 98.7121 337.318 98.9376 337.284 99.138H332.211C332.253 99.6391 332.428 100.032 332.737 100.316C333.046 100.6 333.426 100.742 333.877 100.742C334.528 100.742 334.992 100.462 335.268 99.9022H337.159C336.959 100.57 336.575 101.122 336.007 101.556C335.439 101.982 334.741 102.195 333.915 102.195C333.246 102.195 332.645 102.049 332.111 101.756C331.584 101.456 331.171 101.034 330.87 100.491C330.578 99.9482 330.432 99.3218 330.432 98.6119C330.432 97.8936 330.578 97.2631 330.87 96.7202C331.163 96.1774 331.572 95.7598 332.098 95.4675C332.624 95.1751 333.23 95.029 333.915 95.029C334.574 95.029 335.163 95.171 335.681 95.4549C336.207 95.7389 336.612 96.1439 336.896 96.6701C337.188 97.1879 337.335 97.7851 337.335 98.4616ZM335.518 97.9605C335.51 97.5095 335.347 97.1503 335.029 96.8831C334.712 96.6075 334.324 96.4697 333.864 96.4697C333.43 96.4697 333.063 96.6033 332.762 96.8705C332.47 97.1295 332.29 97.4928 332.223 97.9605H335.518ZM338.026 98.5868C338.026 97.8853 338.164 97.2631 338.439 96.7202C338.723 96.1774 339.103 95.7598 339.579 95.4675C340.064 95.1751 340.602 95.029 341.195 95.029C341.713 95.029 342.164 95.1334 342.548 95.3422C342.941 95.551 343.254 95.8141 343.488 96.1314V95.1417H345.254V102.082H343.488V101.067C343.262 101.393 342.949 101.664 342.548 101.882C342.156 102.09 341.701 102.195 341.183 102.195C340.598 102.195 340.064 102.044 339.579 101.744C339.103 101.443 338.723 101.021 338.439 100.478C338.164 99.9273 338.026 99.2967 338.026 98.5868ZM343.488 98.6119C343.488 98.1859 343.404 97.8226 343.237 97.522C343.07 97.213 342.845 96.9791 342.561 96.8204C342.277 96.6534 341.972 96.5699 341.646 96.5699C341.321 96.5699 341.02 96.6492 340.744 96.8079C340.469 96.9666 340.243 97.2004 340.068 97.5095C339.901 97.8101 339.817 98.1692 339.817 98.5868C339.817 99.0044 339.901 99.3719 340.068 99.6893C340.243 99.9983 340.469 100.236 340.744 100.403C341.028 100.57 341.329 100.654 341.646 100.654C341.972 100.654 342.277 100.575 342.561 100.416C342.845 100.249 343.07 100.015 343.237 99.7143C343.404 99.4053 343.488 99.0378 343.488 98.6119ZM348.872 96.5824V99.9398C348.872 100.174 348.926 100.345 349.034 100.453C349.151 100.554 349.343 100.604 349.611 100.604H350.425V102.082H349.323C347.844 102.082 347.105 101.364 347.105 99.9273V96.5824H346.278V95.1417H347.105V93.4255H348.872V95.1417H350.425V96.5824H348.872ZM358 98.4616C358 98.7121 357.984 98.9376 357.95 99.138H352.877C352.918 99.6391 353.094 100.032 353.403 100.316C353.712 100.6 354.092 100.742 354.543 100.742C355.194 100.742 355.658 100.462 355.933 99.9022H357.825C357.624 100.57 357.24 101.122 356.672 101.556C356.104 101.982 355.407 102.195 354.58 102.195C353.912 102.195 353.311 102.049 352.776 101.756C352.25 101.456 351.837 101.034 351.536 100.491C351.244 99.9482 351.098 99.3218 351.098 98.6119C351.098 97.8936 351.244 97.2631 351.536 96.7202C351.828 96.1774 352.238 95.7598 352.764 95.4675C353.29 95.1751 353.895 95.029 354.58 95.029C355.24 95.029 355.829 95.171 356.347 95.4549C356.873 95.7389 357.278 96.1439 357.562 96.6701C357.854 97.1879 358 97.7851 358 98.4616ZM356.184 97.9605C356.175 97.5095 356.013 97.1503 355.695 96.8831C355.378 96.6075 354.99 96.4697 354.53 96.4697C354.096 96.4697 353.728 96.6033 353.428 96.8705C353.135 97.1295 352.956 97.4928 352.889 97.9605H356.184ZM361.564 97.6974C361.564 96.8371 361.756 96.0688 362.14 95.3923C362.533 94.7074 363.063 94.1771 363.731 93.8013C364.408 93.4171 365.164 93.225 365.999 93.225C366.976 93.225 367.832 93.4756 368.567 93.9767C369.302 94.4778 369.816 95.171 370.108 96.0563H368.091C367.89 95.6387 367.607 95.3255 367.239 95.1167C366.88 94.9079 366.462 94.8035 365.986 94.8035C365.477 94.8035 365.022 94.9246 364.621 95.1668C364.228 95.4006 363.919 95.7347 363.694 96.169C363.477 96.6033 363.368 97.1127 363.368 97.6974C363.368 98.2736 363.477 98.7831 363.694 99.2257C363.919 99.66 364.228 99.9983 364.621 100.24C365.022 100.474 365.477 100.591 365.986 100.591C366.462 100.591 366.88 100.487 367.239 100.278C367.607 100.061 367.89 99.7435 368.091 99.326H370.108C369.816 100.22 369.302 100.917 368.567 101.418C367.84 101.911 366.984 102.157 365.999 102.157C365.164 102.157 364.408 101.969 363.731 101.593C363.063 101.209 362.533 100.679 362.14 100.002C361.756 99.326 361.564 98.5576 361.564 97.6974ZM380.087 95.0415C380.939 95.0415 381.624 95.3046 382.142 95.8308C382.668 96.3486 382.931 97.0752 382.931 98.0106V102.082H381.177V98.2486C381.177 97.7057 381.039 97.2923 380.764 97.0084C380.488 96.716 380.112 96.5699 379.636 96.5699C379.16 96.5699 378.78 96.716 378.496 97.0084C378.22 97.2923 378.083 97.7057 378.083 98.2486V102.082H376.329V98.2486C376.329 97.7057 376.191 97.2923 375.915 97.0084C375.64 96.716 375.264 96.5699 374.788 96.5699C374.303 96.5699 373.919 96.716 373.635 97.0084C373.36 97.2923 373.222 97.7057 373.222 98.2486V102.082H371.468V95.1417H373.222V95.9811C373.447 95.6888 373.736 95.4591 374.086 95.2921C374.445 95.125 374.838 95.0415 375.264 95.0415C375.807 95.0415 376.291 95.1584 376.717 95.3923C377.143 95.6178 377.473 95.9435 377.707 96.3694C377.932 95.9686 378.258 95.647 378.684 95.4048C379.118 95.1626 379.586 95.0415 380.087 95.0415ZM384.006 98.5868C384.006 97.8853 384.144 97.2631 384.42 96.7202C384.704 96.1774 385.084 95.7598 385.56 95.4675C386.044 95.1751 386.583 95.029 387.176 95.029C387.694 95.029 388.145 95.1334 388.529 95.3422C388.921 95.551 389.235 95.8141 389.468 96.1314V95.1417H391.235V102.082H389.468V101.067C389.243 101.393 388.93 101.664 388.529 101.882C388.136 102.09 387.681 102.195 387.163 102.195C386.579 102.195 386.044 102.044 385.56 101.744C385.084 101.443 384.704 101.021 384.42 100.478C384.144 99.9273 384.006 99.2967 384.006 98.5868ZM389.468 98.6119C389.468 98.1859 389.385 97.8226 389.218 97.522C389.051 97.213 388.825 96.9791 388.541 96.8204C388.257 96.6534 387.953 96.5699 387.627 96.5699C387.301 96.5699 387 96.6492 386.725 96.8079C386.449 96.9666 386.224 97.2004 386.048 97.5095C385.881 97.8101 385.798 98.1692 385.798 98.5868C385.798 99.0044 385.881 99.3719 386.048 99.6893C386.224 99.9983 386.449 100.236 386.725 100.403C387.009 100.57 387.309 100.654 387.627 100.654C387.953 100.654 388.257 100.575 388.541 100.416C388.825 100.249 389.051 100.015 389.218 99.7143C389.385 99.4053 389.468 99.0378 389.468 98.6119ZM394.564 96.1439C394.789 95.8266 395.098 95.5635 395.491 95.3547C395.892 95.1376 396.347 95.029 396.856 95.029C397.449 95.029 397.984 95.1751 398.46 95.4675C398.944 95.7598 399.324 96.1774 399.6 96.7202C399.884 97.2547 400.026 97.8769 400.026 98.5868C400.026 99.2967 399.884 99.9273 399.6 100.478C399.324 101.021 398.944 101.443 398.46 101.744C397.984 102.044 397.449 102.195 396.856 102.195C396.347 102.195 395.896 102.09 395.503 101.882C395.119 101.673 394.806 101.41 394.564 101.092V105.389H392.81V95.1417H394.564V96.1439ZM398.234 98.5868C398.234 98.1692 398.147 97.8101 397.971 97.5095C397.804 97.2004 397.579 96.9666 397.295 96.8079C397.019 96.6492 396.719 96.5699 396.393 96.5699C396.075 96.5699 395.775 96.6534 395.491 96.8204C395.215 96.9791 394.99 97.213 394.814 97.522C394.647 97.831 394.564 98.1943 394.564 98.6119C394.564 99.0295 394.647 99.3928 394.814 99.7018C394.99 100.011 395.215 100.249 395.491 100.416C395.775 100.575 396.075 100.654 396.393 100.654C396.719 100.654 397.019 100.57 397.295 100.403C397.579 100.236 397.804 99.9983 397.971 99.6893C398.147 99.3802 398.234 99.0128 398.234 98.5868ZM400.712 98.5868C400.712 97.8853 400.849 97.2631 401.125 96.7202C401.409 96.1774 401.789 95.7598 402.265 95.4675C402.749 95.1751 403.288 95.029 403.881 95.029C404.399 95.029 404.85 95.1334 405.234 95.3422C405.627 95.551 405.94 95.8141 406.174 96.1314V95.1417H407.94V102.082H406.174V101.067C405.948 101.393 405.635 101.664 405.234 101.882C404.841 102.09 404.386 102.195 403.868 102.195C403.284 102.195 402.749 102.044 402.265 101.744C401.789 101.443 401.409 101.021 401.125 100.478C400.849 99.9273 400.712 99.2967 400.712 98.5868ZM406.174 98.6119C406.174 98.1859 406.09 97.8226 405.923 97.522C405.756 97.213 405.53 96.9791 405.247 96.8204C404.963 96.6534 404.658 96.5699 404.332 96.5699C404.006 96.5699 403.706 96.6492 403.43 96.8079C403.154 96.9666 402.929 97.2004 402.754 97.5095C402.586 97.8101 402.503 98.1692 402.503 98.5868C402.503 99.0044 402.586 99.3719 402.754 99.6893C402.929 99.9983 403.154 100.236 403.43 100.403C403.714 100.57 404.015 100.654 404.332 100.654C404.658 100.654 404.963 100.575 405.247 100.416C405.53 100.249 405.756 100.015 405.923 99.7143C406.09 99.4053 406.174 99.0378 406.174 98.6119ZM410.405 94.3149C410.096 94.3149 409.837 94.2189 409.628 94.0268C409.427 93.8263 409.327 93.58 409.327 93.2877C409.327 92.9953 409.427 92.7531 409.628 92.5611C409.837 92.3606 410.096 92.2604 410.405 92.2604C410.714 92.2604 410.968 92.3606 411.169 92.5611C411.378 92.7531 411.482 92.9953 411.482 93.2877C411.482 93.58 411.378 93.8263 411.169 94.0268C410.968 94.2189 410.714 94.3149 410.405 94.3149ZM411.269 95.1417V102.082H409.515V95.1417H411.269ZM415.582 95.029C416.1 95.029 416.555 95.1334 416.948 95.3422C417.34 95.5426 417.65 95.8057 417.875 96.1314V95.1417H419.641V102.132C419.641 102.775 419.512 103.347 419.253 103.848C418.994 104.358 418.606 104.759 418.088 105.051C417.57 105.352 416.944 105.502 416.209 105.502C415.223 105.502 414.413 105.272 413.778 104.813C413.152 104.354 412.797 103.727 412.714 102.934H414.455C414.547 103.251 414.743 103.502 415.044 103.686C415.353 103.878 415.724 103.974 416.159 103.974C416.668 103.974 417.082 103.819 417.399 103.51C417.716 103.21 417.875 102.75 417.875 102.132V101.055C417.65 101.38 417.336 101.652 416.935 101.869C416.543 102.086 416.092 102.195 415.582 102.195C414.998 102.195 414.463 102.044 413.979 101.744C413.495 101.443 413.11 101.021 412.826 100.478C412.551 99.9273 412.413 99.2967 412.413 98.5868C412.413 97.8853 412.551 97.2631 412.826 96.7202C413.11 96.1774 413.49 95.7598 413.966 95.4675C414.451 95.1751 414.989 95.029 415.582 95.029ZM417.875 98.6119C417.875 98.1859 417.791 97.8226 417.624 97.522C417.457 97.213 417.232 96.9791 416.948 96.8204C416.664 96.6534 416.359 96.5699 416.033 96.5699C415.708 96.5699 415.407 96.6492 415.131 96.8079C414.856 96.9666 414.63 97.2004 414.455 97.5095C414.288 97.8101 414.204 98.1692 414.204 98.5868C414.204 99.0044 414.288 99.3719 414.455 99.6893C414.63 99.9983 414.856 100.236 415.131 100.403C415.415 100.57 415.716 100.654 416.033 100.654C416.359 100.654 416.664 100.575 416.948 100.416C417.232 100.249 417.457 100.015 417.624 99.7143C417.791 99.4053 417.875 99.0378 417.875 98.6119ZM425.063 95.0415C425.889 95.0415 426.557 95.3046 427.067 95.8308C427.576 96.3486 427.831 97.0752 427.831 98.0106V102.082H426.077V98.2486C426.077 97.6974 425.939 97.2756 425.664 96.9833C425.388 96.6826 425.012 96.5323 424.536 96.5323C424.052 96.5323 423.668 96.6826 423.384 96.9833C423.108 97.2756 422.97 97.6974 422.97 98.2486V102.082H421.217V95.1417H422.97V96.0061C423.204 95.7055 423.501 95.4716 423.86 95.3046C424.227 95.1292 424.628 95.0415 425.063 95.0415Z" fill="#F9F9F9"/>
</g>
<defs>
<filter id="filter0_d_780_19855" x="0.116271" y="0.681973" width="560.408" height="221.521" filterUnits="userSpaceOnUse" color-interpolation-filters="sRGB">
<feFlood flood-opacity="0" result="BackgroundImageFix"/>
<feColorMatrix in="SourceAlpha" type="matrix" values="0 0 0 0 0 0 0 0 0 0 0 0 0 0 0 0 0 0 127 0" result="hardAlpha"/>
<feOffset dx="-12.459" dy="17.4426"/>
<feGaussianBlur stdDeviation="36.3803"/>
<feComposite in2="hardAlpha" operator="out"/>
<feColorMatrix type="matrix" values="0 0 0 0 0.0444481 0 0 0 0 0 0 0 0 0 0.888965 0 0 0 0.07 0"/>
<feBlend mode="normal" in2="BackgroundImageFix" result="effect1_dropShadow_780_19855"/>
<feBlend mode="normal" in="SourceGraphic" in2="effect1_dropShadow_780_19855" result="shape"/>
</filter>
</defs>
</svg>
