<svg width="435" height="85" viewBox="0 0 435 85" fill="none" xmlns="http://www.w3.org/2000/svg">
<g filter="url(#filter0_d_780_20056)">
<rect x="8" y="8" width="418.917" height="69" rx="12" fill="white"/>
<rect x="8.47917" y="8.47917" width="417.958" height="68.0417" rx="11.5208" stroke="#B1B1B1" stroke-width="0.958333"/>
<path d="M44.7374 39.7226V36.0969C44.7374 34.9708 44.2263 34.5156 42.9565 34.5156H39.7301C38.4603 34.5156 37.9492 34.9708 37.9492 36.0969V39.7146C37.9492 40.8486 38.4603 41.2958 39.7301 41.2958H42.9565C44.2263 41.3038 44.7374 40.8486 44.7374 39.7226Z" fill="#1158A0"/>
<path d="M44.7374 48.7065V45.4801C44.7374 44.2103 44.2263 43.6992 42.9565 43.6992H39.7301C38.4603 43.6992 37.9492 44.2103 37.9492 45.4801V48.7065C37.9492 49.9763 38.4603 50.4874 39.7301 50.4874H42.9565C44.2263 50.4874 44.7374 49.9763 44.7374 48.7065Z" fill="#1158A0"/>
<path d="M35.5538 39.7226V36.0969C35.5538 34.9708 35.0427 34.5156 33.7729 34.5156H30.5465C29.2767 34.5156 28.7656 34.9708 28.7656 36.0969V39.7146C28.7656 40.8486 29.2767 41.2958 30.5465 41.2958H33.7729C35.0427 41.3038 35.5538 40.8486 35.5538 39.7226Z" fill="#1158A0"/>
<path d="M35.5538 48.7065V45.4801C35.5538 44.2103 35.0427 43.6992 33.7729 43.6992H30.5465C29.2767 43.6992 28.7656 44.2103 28.7656 45.4801V48.7065C28.7656 49.9763 29.2767 50.4874 30.5465 50.4874H33.7729C35.0427 50.4874 35.5538 49.9763 35.5538 48.7065Z" fill="#1158A0"/>
<path d="M54.5872 47.5V45.5162H57.1028C57.7161 45.5162 58.2528 45.3965 58.7128 45.1569C59.1728 44.9077 59.5274 44.5483 59.7766 44.0788C60.0257 43.6092 60.1503 43.0533 60.1503 42.4113C60.1503 41.7692 60.0209 41.2181 59.7622 40.7581C59.513 40.2981 59.1584 39.9435 58.6984 39.6944C58.248 39.4452 57.7161 39.3206 57.1028 39.3206H54.5153V37.3513H57.1316C57.8982 37.3513 58.6026 37.4758 59.2447 37.725C59.8964 37.9646 60.4618 38.3144 60.9409 38.7744C61.4297 39.2248 61.8034 39.7615 62.0622 40.3844C62.3305 40.9977 62.4647 41.6781 62.4647 42.4256C62.4647 43.1635 62.3305 43.844 62.0622 44.4669C61.8034 45.0898 61.4345 45.6265 60.9553 46.0769C60.4761 46.5273 59.9107 46.8771 59.2591 47.1263C58.617 47.3754 57.9174 47.5 57.1603 47.5H54.5872ZM53.0634 47.5V37.3513H55.3203V47.5H53.0634ZM67.1496 47.6581C66.3925 47.6581 65.7169 47.5048 65.1227 47.1981C64.5381 46.8819 64.0781 46.4458 63.7427 45.89C63.4073 45.3342 63.2396 44.7065 63.2396 44.0069C63.2396 43.3073 63.4025 42.6844 63.7283 42.1381C64.0638 41.5823 64.5142 41.1463 65.0796 40.83C65.645 40.5138 66.2823 40.3556 66.9915 40.3556C67.6815 40.3556 68.29 40.5042 68.8171 40.8013C69.3442 41.0983 69.7563 41.5104 70.0533 42.0375C70.36 42.5646 70.5133 43.1683 70.5133 43.8488C70.5133 43.9733 70.5038 44.1075 70.4846 44.2513C70.475 44.3854 70.451 44.5435 70.4127 44.7256L64.3896 44.74V43.2306L69.4783 43.2163L68.5296 43.8488C68.52 43.4463 68.4577 43.1156 68.3427 42.8569C68.2277 42.5885 68.0552 42.3873 67.8252 42.2531C67.6048 42.1094 67.3317 42.0375 67.0058 42.0375C66.6608 42.0375 66.359 42.119 66.1002 42.2819C65.851 42.4352 65.6546 42.6556 65.5108 42.9431C65.3767 43.2306 65.3096 43.5804 65.3096 43.9925C65.3096 44.4046 65.3815 44.7592 65.5252 45.0563C65.6785 45.3438 65.8894 45.569 66.1577 45.7319C66.4356 45.8852 66.7615 45.9619 67.1352 45.9619C67.4802 45.9619 67.7917 45.9044 68.0696 45.7894C68.3475 45.6648 68.5919 45.4827 68.8027 45.2431L70.0102 46.4506C69.6652 46.8531 69.2483 47.155 68.7596 47.3562C68.2708 47.5575 67.7342 47.6581 67.1496 47.6581ZM71.575 47.5V37.0638H73.7743V47.5H71.575ZM75.3231 47.5V40.5138H77.5225V47.5H75.3231ZM76.43 39.5506C76.085 39.5506 75.7975 39.4356 75.5675 39.2056C75.3471 38.966 75.2369 38.6785 75.2369 38.3431C75.2369 37.9981 75.3471 37.7106 75.5675 37.4806C75.7975 37.2506 76.085 37.1356 76.43 37.1356C76.775 37.1356 77.0577 37.2506 77.2781 37.4806C77.4985 37.7106 77.6087 37.9981 77.6087 38.3431C77.6087 38.6785 77.4985 38.966 77.2781 39.2056C77.0577 39.4356 76.775 39.5506 76.43 39.5506ZM81.2707 47.5L78.3094 40.5138H80.6813L82.6938 46.3356H81.6588L83.6713 40.5138H86L83.0388 47.4856L81.2707 47.5ZM90.0457 47.6581C89.2886 47.6581 88.613 47.5048 88.0188 47.1981C87.4342 46.8819 86.9742 46.4458 86.6388 45.89C86.3034 45.3342 86.1357 44.7065 86.1357 44.0069C86.1357 43.3073 86.2986 42.6844 86.6245 42.1381C86.9599 41.5823 87.4103 41.1463 87.9757 40.83C88.5411 40.5138 89.1784 40.3556 89.8876 40.3556C90.5776 40.3556 91.1861 40.5042 91.7132 40.8013C92.2403 41.0983 92.6524 41.5104 92.9495 42.0375C93.2561 42.5646 93.4095 43.1683 93.4095 43.8488C93.4095 43.9733 93.3999 44.1075 93.3807 44.2513C93.3711 44.3854 93.3472 44.5435 93.3088 44.7256L87.2857 44.74V43.2306L92.3745 43.2163L91.4257 43.8488C91.4161 43.4463 91.3538 43.1156 91.2388 42.8569C91.1238 42.5885 90.9513 42.3873 90.7213 42.2531C90.5009 42.1094 90.2278 42.0375 89.902 42.0375C89.557 42.0375 89.2551 42.119 88.9963 42.2819C88.7472 42.4352 88.5507 42.6556 88.407 42.9431C88.2728 43.2306 88.2057 43.5804 88.2057 43.9925C88.2057 44.4046 88.2776 44.7592 88.4213 45.0563C88.5747 45.3438 88.7855 45.569 89.0538 45.7319C89.3317 45.8852 89.6576 45.9619 90.0313 45.9619C90.3763 45.9619 90.6878 45.9044 90.9657 45.7894C91.2436 45.6648 91.488 45.4827 91.6988 45.2431L92.9063 46.4506C92.5613 46.8531 92.1445 47.155 91.6557 47.3562C91.167 47.5575 90.6303 47.6581 90.0457 47.6581ZM94.4711 47.5V40.5138H96.6704V47.5H94.4711ZM96.6704 43.6619L95.7504 42.9431C95.9325 42.1285 96.2392 41.496 96.6704 41.0456C97.1017 40.5952 97.7007 40.37 98.4673 40.37C98.8027 40.37 99.095 40.4227 99.3442 40.5281C99.6029 40.624 99.8282 40.7773 100.02 40.9881L98.7117 42.6412C98.6159 42.5358 98.4961 42.4544 98.3523 42.3969C98.2086 42.3394 98.0457 42.3106 97.8636 42.3106C97.4994 42.3106 97.2071 42.4256 96.9867 42.6556C96.7759 42.876 96.6704 43.2115 96.6704 43.6619ZM103.327 47.6438C102.685 47.6438 102.11 47.4856 101.602 47.1694C101.104 46.8531 100.706 46.4219 100.409 45.8756C100.122 45.3294 99.9779 44.7065 99.9779 44.0069C99.9779 43.3073 100.122 42.6844 100.409 42.1381C100.706 41.5919 101.104 41.1606 101.602 40.8444C102.11 40.5281 102.685 40.37 103.327 40.37C103.797 40.37 104.219 40.461 104.592 40.6431C104.976 40.8252 105.287 41.0792 105.527 41.405C105.766 41.7212 105.9 42.0854 105.929 42.4975V45.5162C105.9 45.9283 105.766 46.2973 105.527 46.6231C105.297 46.9394 104.99 47.1885 104.607 47.3706C104.223 47.5527 103.797 47.6438 103.327 47.6438ZM103.773 45.66C104.243 45.66 104.621 45.5067 104.909 45.2C105.196 44.8838 105.34 44.486 105.34 44.0069C105.34 43.681 105.273 43.3935 105.139 43.1444C105.014 42.8952 104.832 42.7035 104.592 42.5694C104.362 42.4256 104.094 42.3538 103.787 42.3538C103.481 42.3538 103.208 42.4256 102.968 42.5694C102.738 42.7035 102.551 42.8952 102.407 43.1444C102.273 43.3935 102.206 43.681 102.206 44.0069C102.206 44.3231 102.273 44.6058 102.407 44.855C102.541 45.1042 102.728 45.3006 102.968 45.4444C103.208 45.5881 103.476 45.66 103.773 45.66ZM105.254 47.5V45.6169L105.584 43.9206L105.254 42.2244V40.5138H107.41V47.5H105.254ZM112.983 47.6438C112.514 47.6438 112.083 47.5479 111.69 47.3562C111.297 47.155 110.976 46.8915 110.726 46.5656C110.477 46.2302 110.334 45.8565 110.295 45.4444V42.4975C110.334 42.0854 110.477 41.7212 110.726 41.405C110.976 41.0792 111.297 40.8252 111.69 40.6431C112.083 40.461 112.514 40.37 112.983 40.37C113.645 40.37 114.229 40.5281 114.737 40.8444C115.255 41.1606 115.657 41.5919 115.945 42.1381C116.242 42.6844 116.39 43.3073 116.39 44.0069C116.39 44.7065 116.242 45.3294 115.945 45.8756C115.657 46.4219 115.255 46.8531 114.737 47.1694C114.229 47.4856 113.645 47.6438 112.983 47.6438ZM112.595 45.66C112.902 45.66 113.17 45.5881 113.4 45.4444C113.64 45.3006 113.827 45.1042 113.961 44.855C114.095 44.6058 114.162 44.3231 114.162 44.0069C114.162 43.681 114.095 43.3935 113.961 43.1444C113.827 42.8952 113.64 42.7035 113.4 42.5694C113.17 42.4256 112.902 42.3538 112.595 42.3538C112.289 42.3538 112.015 42.4256 111.776 42.5694C111.536 42.7035 111.349 42.8952 111.215 43.1444C111.091 43.3935 111.028 43.681 111.028 44.0069C111.028 44.3327 111.095 44.6202 111.23 44.8694C111.364 45.1185 111.546 45.315 111.776 45.4588C112.015 45.5929 112.289 45.66 112.595 45.66ZM108.958 47.5V37.0638H111.158V42.2244L110.798 43.9206L111.129 45.6169V47.5H108.958ZM117.508 47.5V37.0638H119.707V47.5H117.508ZM124.706 47.6581C123.949 47.6581 123.273 47.5048 122.679 47.1981C122.094 46.8819 121.634 46.4458 121.299 45.89C120.963 45.3342 120.796 44.7065 120.796 44.0069C120.796 43.3073 120.959 42.6844 121.284 42.1381C121.62 41.5823 122.07 41.1463 122.636 40.83C123.201 40.5138 123.838 40.3556 124.548 40.3556C125.238 40.3556 125.846 40.5042 126.373 40.8013C126.9 41.0983 127.312 41.5104 127.609 42.0375C127.916 42.5646 128.069 43.1683 128.069 43.8488C128.069 43.9733 128.06 44.1075 128.041 44.2513C128.031 44.3854 128.007 44.5435 127.969 44.7256L121.946 44.74V43.2306L127.034 43.2163L126.086 43.8488C126.076 43.4463 126.014 43.1156 125.899 42.8569C125.784 42.5885 125.611 42.3873 125.381 42.2531C125.161 42.1094 124.888 42.0375 124.562 42.0375C124.217 42.0375 123.915 42.119 123.656 42.2819C123.407 42.4352 123.211 42.6556 123.067 42.9431C122.933 43.2306 122.866 43.5804 122.866 43.9925C122.866 44.4046 122.938 44.7592 123.081 45.0563C123.235 45.3438 123.446 45.569 123.714 45.7319C123.992 45.8852 124.318 45.9619 124.691 45.9619C125.036 45.9619 125.348 45.9044 125.626 45.7894C125.904 45.6648 126.148 45.4827 126.359 45.2431L127.566 46.4506C127.221 46.8531 126.804 47.155 126.316 47.3562C125.827 47.5575 125.29 47.6581 124.706 47.6581ZM131.675 47.6725C131.263 47.6725 130.856 47.6198 130.454 47.5144C130.061 47.409 129.692 47.2604 129.347 47.0688C129.011 46.8675 128.724 46.6375 128.484 46.3788L129.735 45.1138C129.965 45.3629 130.238 45.5594 130.554 45.7031C130.87 45.8373 131.215 45.9044 131.589 45.9044C131.848 45.9044 132.044 45.866 132.179 45.7894C132.322 45.7127 132.394 45.6073 132.394 45.4731C132.394 45.3006 132.308 45.1713 132.135 45.085C131.973 44.9892 131.762 44.9077 131.503 44.8406C131.244 44.764 130.971 44.6825 130.684 44.5963C130.396 44.51 130.123 44.3902 129.864 44.2369C129.605 44.0835 129.395 43.8727 129.232 43.6044C129.069 43.3265 128.987 42.9767 128.987 42.555C128.987 42.1046 129.102 41.7165 129.332 41.3906C129.562 41.0552 129.888 40.7917 130.31 40.6C130.732 40.4083 131.225 40.3125 131.79 40.3125C132.385 40.3125 132.931 40.4179 133.429 40.6288C133.937 40.83 134.349 41.1319 134.665 41.5344L133.415 42.7994C133.194 42.5406 132.945 42.3585 132.667 42.2531C132.399 42.1477 132.135 42.095 131.877 42.095C131.628 42.095 131.441 42.1333 131.316 42.21C131.192 42.2771 131.129 42.3777 131.129 42.5119C131.129 42.6556 131.211 42.7706 131.374 42.8569C131.537 42.9431 131.747 43.0198 132.006 43.0869C132.265 43.154 132.538 43.2354 132.825 43.3312C133.113 43.4271 133.386 43.5565 133.645 43.7194C133.904 43.8823 134.114 44.1027 134.277 44.3806C134.44 44.649 134.522 45.0035 134.522 45.4444C134.522 46.1248 134.263 46.6663 133.745 47.0688C133.238 47.4712 132.548 47.6725 131.675 47.6725Z" fill="#1158A0"/>
<rect x="146.582" y="27.168" width="35.1667" height="29.5" rx="3.83333" fill="#F7F9FB"/>
<path d="M156.432 46.918L159.572 37.258H161.591L164.731 46.918H163.275L160.384 38.1032H160.746L157.888 46.918H156.432ZM158.063 44.7378V43.4229H163.107V44.7378H158.063ZM166.068 46.918V37.0567H167.47V46.918H166.068ZM169.619 46.918V37.0567H171.021V46.918H169.619Z" fill="#1D2136"/>
<rect x="195.164" y="27.168" width="90.0833" height="30.6667" rx="3.83333" fill="#E3F0FF"/>
<g clip-path="url(#clip0_780_20056)">
<path d="M210.774 50.2495C218.006 50.2495 221.962 44.2573 221.962 39.0609C221.962 38.8906 221.962 38.7212 221.951 38.5517C222.72 37.9953 223.385 37.3064 223.913 36.5171C223.195 36.8351 222.434 37.0437 221.654 37.1358C222.475 36.6444 223.089 35.8714 223.383 34.9608C222.611 35.4189 221.767 35.7417 220.886 35.9153C220.293 35.2849 219.509 34.8674 218.655 34.7275C217.801 34.5877 216.924 34.7332 216.161 35.1415C215.398 35.5499 214.791 36.1983 214.434 36.9865C214.077 37.7747 213.989 38.6587 214.185 39.5018C212.621 39.4234 211.092 39.0171 209.695 38.3093C208.299 37.6014 207.067 36.6079 206.08 35.3931C205.577 36.2588 205.423 37.2836 205.649 38.2589C205.876 39.2341 206.465 40.0865 207.298 40.6425C206.672 40.6239 206.06 40.4551 205.513 40.1503V40.2001C205.513 41.108 205.827 41.9879 206.402 42.6905C206.977 43.3931 207.778 43.8751 208.668 44.0549C208.089 44.2128 207.481 44.2359 206.892 44.1224C207.143 44.9037 207.632 45.587 208.291 46.0767C208.95 46.5663 209.745 46.8378 210.566 46.8532C209.173 47.9476 207.453 48.5417 205.682 48.5399C205.369 48.5393 205.057 48.5203 204.746 48.4831C206.544 49.6372 208.637 50.2493 210.774 50.2465" fill="#1DA1F2"/>
</g>
<path d="M233.012 47.5V39.1615H229.798V37.84H237.627V39.1615H234.414V47.5H233.012ZM239.444 47.5L237.23 40.2483L238.619 40.255L240.135 45.2259L241.665 40.255H242.872L244.402 45.2259L245.918 40.255H247.3L245.086 47.5H243.959L242.268 42.2541L240.571 47.5H239.444ZM248.635 39.0676V37.7058H250.037V39.0676H248.635ZM248.635 47.5V40.255H250.037V47.5H248.635ZM256.197 47.5C255.741 47.5894 255.294 47.6275 254.856 47.614C254.417 47.6006 254.026 47.5157 253.682 47.3591C253.337 47.2026 253.078 46.9566 252.904 46.6212C252.747 46.3216 252.662 46.0175 252.649 45.7089C252.64 45.3958 252.635 45.0425 252.635 44.649V38.2425H254.044V44.5819C254.044 44.8726 254.046 45.1253 254.051 45.3399C254.06 45.5546 254.107 45.7357 254.192 45.8833C254.353 46.1606 254.607 46.3193 254.956 46.3596C255.31 46.3954 255.723 46.3797 256.197 46.3126V47.5ZM251.247 41.382V40.255H256.197V41.382H251.247ZM261.061 47.5C260.605 47.5894 260.157 47.6275 259.719 47.614C259.281 47.6006 258.89 47.5157 258.545 47.3591C258.201 47.2026 257.941 46.9566 257.767 46.6212C257.611 46.3216 257.526 46.0175 257.512 45.7089C257.503 45.3958 257.499 45.0425 257.499 44.649V38.2425H258.907V44.5819C258.907 44.8726 258.91 45.1253 258.914 45.3399C258.923 45.5546 258.97 45.7357 259.055 45.8833C259.216 46.1606 259.471 46.3193 259.82 46.3596C260.173 46.3954 260.587 46.3797 261.061 46.3126V47.5ZM256.11 41.382V40.255H261.061V41.382H256.11ZM265.786 47.7012C265.066 47.7012 264.433 47.5447 263.887 47.2317C263.346 46.9141 262.924 46.4736 262.62 45.9101C262.32 45.3422 262.17 44.6847 262.17 43.9379C262.17 43.1463 262.318 42.4598 262.613 41.8784C262.913 41.297 263.328 40.8476 263.861 40.53C264.393 40.2125 265.012 40.0538 265.719 40.0538C266.457 40.0538 267.085 40.2259 267.604 40.5703C268.123 40.9102 268.51 41.3954 268.764 42.026C269.024 42.6566 269.127 43.4057 269.073 44.2733H267.671V43.7635C267.662 42.9227 267.501 42.301 267.188 41.8985C266.879 41.496 266.408 41.2948 265.773 41.2948C265.07 41.2948 264.543 41.5162 264.189 41.9589C263.836 42.4017 263.659 43.0412 263.659 43.8775C263.659 44.6736 263.836 45.2907 264.189 45.729C264.543 46.1628 265.052 46.3797 265.719 46.3797C266.157 46.3797 266.535 46.2813 266.853 46.0845C267.175 45.8833 267.425 45.5971 267.604 45.2259L268.979 45.6619C268.697 46.3104 268.27 46.8135 267.698 47.1713C267.125 47.5246 266.488 47.7012 265.786 47.7012ZM263.203 44.2733V43.1798H268.375V44.2733H263.203ZM270.578 47.5V40.255H271.826V42.0126L271.651 41.7845C271.741 41.5519 271.857 41.3395 272 41.1472C272.143 40.9504 272.309 40.7894 272.497 40.6642C272.68 40.53 272.884 40.4272 273.107 40.3556C273.335 40.2796 273.568 40.2349 273.805 40.2215C274.042 40.2036 274.27 40.2147 274.489 40.255V41.5698C274.252 41.5072 273.988 41.4893 273.697 41.5162C273.411 41.543 273.147 41.6347 272.906 41.7912C272.678 41.9388 272.497 42.1177 272.362 42.3279C272.233 42.5381 272.139 42.7729 272.081 43.0323C272.023 43.2872 271.994 43.5577 271.994 43.844V47.5H270.578Z" fill="#1D2136"/>
<rect x="298.664" y="27.168" width="109.083" height="30.6667" rx="3.83333" fill="#F7F9FB"/>
<g clip-path="url(#clip1_780_20056)">
<path d="M317.832 32.9102C313.832 32.9102 312.661 32.9143 312.434 32.933C311.613 33.0015 311.102 33.1306 310.545 33.408C310.116 33.621 309.778 33.8681 309.444 34.2144C308.836 34.8455 308.468 35.6223 308.334 36.5455C308.27 36.9936 308.251 37.0853 308.247 39.3748C308.245 40.1381 308.247 41.1425 308.247 42.4897C308.247 46.4885 308.251 47.6576 308.27 47.8849C308.337 48.6841 308.462 49.1868 308.727 49.7368C309.235 50.7894 310.203 51.5797 311.344 51.8747C311.739 51.9765 312.175 52.0323 312.735 52.0589C312.973 52.0693 315.392 52.0765 317.812 52.0765C320.233 52.0765 322.653 52.0735 322.885 52.0618C323.533 52.0312 323.91 51.9806 324.326 51.8732C325.474 51.5767 326.425 50.7984 326.942 49.7308C327.203 49.194 327.334 48.6721 327.394 47.9148C327.407 47.7497 327.413 45.1166 327.413 42.4871C327.413 39.8573 327.407 37.229 327.394 37.0639C327.334 36.2943 327.202 35.7765 326.933 35.2296C326.713 34.7819 326.468 34.4472 326.113 34.1055C325.479 33.4998 324.704 33.131 323.78 32.9978C323.332 32.9334 323.242 32.9143 320.952 32.9102H317.832Z" fill="url(#paint0_radial_780_20056)"/>
<path d="M317.832 32.9102C313.832 32.9102 312.661 32.9143 312.434 32.933C311.613 33.0015 311.102 33.1306 310.545 33.408C310.116 33.621 309.778 33.8681 309.444 34.2144C308.836 34.8455 308.468 35.6223 308.334 36.5455C308.27 36.9936 308.251 37.0853 308.247 39.3748C308.245 40.1381 308.247 41.1425 308.247 42.4897C308.247 46.4885 308.251 47.6576 308.27 47.8849C308.337 48.6841 308.462 49.1868 308.727 49.7368C309.235 50.7894 310.203 51.5797 311.344 51.8747C311.739 51.9765 312.175 52.0323 312.735 52.0589C312.973 52.0693 315.392 52.0765 317.812 52.0765C320.233 52.0765 322.653 52.0735 322.885 52.0618C323.533 52.0312 323.91 51.9806 324.326 51.8732C325.474 51.5767 326.425 50.7984 326.942 49.7308C327.203 49.194 327.334 48.6721 327.394 47.9148C327.407 47.7497 327.413 45.1166 327.413 42.4871C327.413 39.8573 327.407 37.229 327.394 37.0639C327.334 36.2943 327.202 35.7765 326.933 35.2296C326.713 34.7819 326.468 34.4472 326.113 34.1055C325.479 33.4998 324.704 33.131 323.78 32.9978C323.332 32.9334 323.242 32.9143 320.952 32.9102H317.832Z" fill="url(#paint1_radial_780_20056)"/>
<path d="M317.832 32.9102C313.832 32.9102 312.661 32.9143 312.434 32.933C311.613 33.0015 311.102 33.1306 310.545 33.408C310.116 33.621 309.778 33.8681 309.444 34.2144C308.836 34.8455 308.468 35.6223 308.334 36.5455C308.27 36.9936 308.251 37.0853 308.247 39.3748C308.245 40.1381 308.247 41.1425 308.247 42.4897C308.247 46.4885 308.251 47.6576 308.27 47.8849C308.337 48.6841 308.462 49.1868 308.727 49.7368C309.235 50.7894 310.203 51.5797 311.344 51.8747C311.739 51.9765 312.175 52.0323 312.735 52.0589C312.973 52.0693 315.392 52.0765 317.812 52.0765C320.233 52.0765 322.653 52.0735 322.885 52.0618C323.533 52.0312 323.91 51.9806 324.326 51.8732C325.474 51.5767 326.425 50.7984 326.942 49.7308C327.203 49.194 327.334 48.6721 327.394 47.9148C327.407 47.7497 327.413 45.1166 327.413 42.4871C327.413 39.8573 327.407 37.229 327.394 37.0639C327.334 36.2943 327.202 35.7765 326.933 35.2296C326.713 34.7819 326.468 34.4472 326.113 34.1055C325.479 33.4998 324.704 33.131 323.78 32.9978C323.332 32.9334 323.242 32.9143 320.952 32.9102H317.832Z" fill="url(#paint2_radial_780_20056)"/>
<path d="M317.832 32.9102C313.832 32.9102 312.661 32.9143 312.434 32.933C311.613 33.0015 311.102 33.1306 310.545 33.408C310.116 33.621 309.778 33.8681 309.444 34.2144C308.836 34.8455 308.468 35.6223 308.334 36.5455C308.27 36.9936 308.251 37.0853 308.247 39.3748C308.245 40.1381 308.247 41.1425 308.247 42.4897C308.247 46.4885 308.251 47.6576 308.27 47.8849C308.337 48.6841 308.462 49.1868 308.727 49.7368C309.235 50.7894 310.203 51.5797 311.344 51.8747C311.739 51.9765 312.175 52.0323 312.735 52.0589C312.973 52.0693 315.392 52.0765 317.812 52.0765C320.233 52.0765 322.653 52.0735 322.885 52.0618C323.533 52.0312 323.91 51.9806 324.326 51.8732C325.474 51.5767 326.425 50.7984 326.942 49.7308C327.203 49.194 327.334 48.6721 327.394 47.9148C327.407 47.7497 327.413 45.1166 327.413 42.4871C327.413 39.8573 327.407 37.229 327.394 37.0639C327.334 36.2943 327.202 35.7765 326.933 35.2296C326.713 34.7819 326.468 34.4472 326.113 34.1055C325.479 33.4998 324.704 33.131 323.78 32.9978C323.332 32.9334 323.242 32.9143 320.952 32.9102H317.832Z" fill="url(#paint3_radial_780_20056)"/>
<path d="M317.834 35.3711C315.898 35.3711 315.655 35.3797 314.895 35.4141C314.136 35.449 313.619 35.5688 313.166 35.7451C312.697 35.927 312.3 36.1703 311.903 36.566C311.507 36.9617 311.264 37.3593 311.081 37.8272C310.904 38.2802 310.784 38.7979 310.75 39.5556C310.716 40.3151 310.707 40.5581 310.707 42.492C310.707 44.4258 310.716 44.668 310.75 45.4276C310.785 46.1857 310.905 46.703 311.081 47.156C311.263 47.6243 311.507 48.0215 311.903 48.4175C312.299 48.8136 312.697 49.0577 313.165 49.2396C313.618 49.4155 314.136 49.5357 314.895 49.5705C315.655 49.605 315.898 49.6136 317.833 49.6136C319.769 49.6136 320.011 49.605 320.771 49.5705C321.53 49.5357 322.048 49.4159 322.502 49.2396C322.97 49.0577 323.367 48.814 323.763 48.4179C324.16 48.0222 324.403 47.6247 324.586 47.1567C324.761 46.7038 324.881 46.186 324.917 45.4284C324.951 44.6688 324.96 44.4266 324.96 42.4927C324.96 40.5588 324.951 40.3159 324.917 39.5563C324.881 38.7983 324.761 38.2809 324.586 37.8279C324.403 37.3596 324.16 36.9625 323.763 36.5664C323.367 36.1703 322.97 35.927 322.501 35.7451C322.047 35.5691 321.529 35.449 320.77 35.4141C320.01 35.3797 319.768 35.3711 317.832 35.3711H317.834ZM317.194 36.6544C317.384 36.654 317.596 36.6544 317.834 36.6544C319.737 36.6544 319.962 36.6611 320.713 36.6952C321.408 36.727 321.785 36.843 322.036 36.9404C322.369 37.0695 322.606 37.2237 322.855 37.4731C323.105 37.7224 323.259 37.9597 323.389 38.2921C323.487 38.543 323.603 38.9195 323.634 39.614C323.668 40.3645 323.676 40.5903 323.676 42.4905C323.676 44.391 323.668 44.6164 323.634 45.367C323.603 46.0614 323.487 46.438 323.389 46.6888C323.26 47.0212 323.105 47.2578 322.855 47.5067C322.606 47.7561 322.369 47.9103 322.036 48.0394C321.786 48.1375 321.408 48.2532 320.713 48.2846C319.962 48.3187 319.736 48.3262 317.834 48.3262C315.931 48.3262 315.705 48.3187 314.954 48.2846C314.26 48.2524 313.883 48.1368 313.631 48.0391C313.299 47.9099 313.061 47.7557 312.812 47.5064C312.562 47.257 312.408 47.0205 312.278 46.688C312.18 46.4372 312.064 46.0606 312.033 45.3662C311.999 44.6156 311.992 44.3899 311.992 42.4886C311.992 40.5869 311.999 40.3627 312.033 39.6121C312.064 38.9177 312.18 38.5411 312.278 38.2899C312.407 37.9575 312.562 37.7201 312.812 37.4708C313.061 37.2215 313.299 37.0673 313.631 36.9377C313.882 36.8397 314.26 36.724 314.954 36.6922C315.612 36.6626 315.867 36.6536 317.195 36.6521L317.194 36.6544ZM321.638 37.8369C321.166 37.8369 320.783 38.2191 320.783 38.6912C320.783 39.1629 321.166 39.5458 321.638 39.5458C322.11 39.5458 322.493 39.1632 322.493 38.6912C322.493 38.2191 322.11 37.8366 321.638 37.8369ZM317.834 38.8353C315.812 38.8353 314.174 40.4727 314.174 42.4923C314.174 44.5119 315.812 46.1486 317.834 46.1486C319.855 46.1486 321.492 44.5119 321.492 42.4923C321.492 40.4727 319.855 38.8353 317.834 38.8353ZM317.834 40.1186C319.145 40.1186 320.209 41.1814 320.209 42.4923C320.209 43.8033 319.146 44.8661 317.834 44.8661C316.521 44.8661 315.458 43.8033 315.458 42.4923C315.458 41.181 316.522 40.1186 317.834 40.1186Z" fill="#F9F9F9"/>
</g>
<path d="M334.237 47.5V37.84H335.639V47.5H334.237ZM342.739 47.5V43.9379C342.739 43.6561 342.714 43.3677 342.665 43.0725C342.62 42.7729 342.531 42.4956 342.397 42.2407C342.267 41.9858 342.081 41.78 341.84 41.6235C341.603 41.467 341.292 41.3887 340.907 41.3887C340.657 41.3887 340.42 41.4312 340.196 41.5162C339.973 41.5967 339.776 41.7286 339.606 41.912C339.441 42.0953 339.309 42.3368 339.21 42.6365C339.116 42.9361 339.069 43.3006 339.069 43.7299L338.197 43.4012C338.197 42.7438 338.32 42.1646 338.566 41.6637C338.812 41.1584 339.166 40.7648 339.626 40.4831C340.087 40.2013 340.644 40.0605 341.297 40.0605C341.797 40.0605 342.218 40.141 342.558 40.302C342.898 40.463 343.173 40.6754 343.383 40.9393C343.598 41.1986 343.761 41.4826 343.873 41.7912C343.984 42.0998 344.06 42.4017 344.101 42.6968C344.141 42.992 344.161 43.2514 344.161 43.475V47.5H342.739ZM337.647 47.5V40.255H338.902V42.348H339.069V47.5H337.647ZM348.679 47.6945C347.798 47.6945 347.08 47.5 346.525 47.1109C345.971 46.7218 345.631 46.174 345.506 45.4674L346.941 45.246C347.031 45.6217 347.237 45.9191 347.559 46.1382C347.885 46.3529 348.29 46.4602 348.773 46.4602C349.211 46.4602 349.553 46.3708 349.799 46.1919C350.05 46.013 350.175 45.767 350.175 45.454C350.175 45.2706 350.13 45.123 350.041 45.0112C349.956 44.8949 349.775 44.7854 349.497 44.6825C349.22 44.5796 348.797 44.4522 348.229 44.3001C347.608 44.1391 347.114 43.9669 346.747 43.7836C346.385 43.5958 346.125 43.3788 345.969 43.1329C345.817 42.8824 345.741 42.5806 345.741 42.2273C345.741 41.789 345.857 41.4066 346.089 41.0801C346.322 40.7537 346.648 40.501 347.069 40.3221C347.494 40.1432 347.99 40.0538 348.558 40.0538C349.113 40.0538 349.607 40.141 350.041 40.3154C350.474 40.4898 350.826 40.738 351.094 41.06C351.362 41.3775 351.523 41.751 351.577 42.1803L350.141 42.4419C350.092 42.0931 349.929 41.818 349.652 41.6168C349.374 41.4155 349.014 41.306 348.572 41.2881C348.147 41.2702 347.802 41.3417 347.538 41.5027C347.275 41.6593 347.143 41.8762 347.143 42.1535C347.143 42.3145 347.192 42.4509 347.29 42.5627C347.393 42.6745 347.59 42.7818 347.881 42.8847C348.171 42.9875 348.601 43.1105 349.169 43.2536C349.777 43.4102 350.26 43.5846 350.618 43.7769C350.975 43.9647 351.23 44.1906 351.382 44.4544C351.539 44.7138 351.617 45.0291 351.617 45.4003C351.617 46.1158 351.355 46.6771 350.832 47.0841C350.313 47.4911 349.596 47.6945 348.679 47.6945ZM357.247 47.5C356.791 47.5894 356.344 47.6275 355.906 47.614C355.467 47.6006 355.076 47.5157 354.732 47.3591C354.387 47.2026 354.128 46.9566 353.953 46.6212C353.797 46.3216 353.712 46.0175 353.698 45.7089C353.69 45.3958 353.685 45.0425 353.685 44.649V38.2425H355.094V44.5819C355.094 44.8726 355.096 45.1253 355.101 45.3399C355.109 45.5546 355.156 45.7357 355.241 45.8833C355.402 46.1606 355.657 46.3193 356.006 46.3596C356.359 46.3954 356.773 46.3797 357.247 46.3126V47.5ZM352.296 41.382V40.255H357.247V41.382H352.296ZM360.821 47.7012C360.284 47.7012 359.835 47.6029 359.472 47.4061C359.11 47.2048 358.835 46.941 358.647 46.6145C358.464 46.2836 358.372 45.9213 358.372 45.5278C358.372 45.161 358.437 44.839 358.567 44.5617C358.696 44.2845 358.889 44.0497 359.144 43.8574C359.399 43.6606 359.712 43.5018 360.083 43.3811C360.405 43.2872 360.769 43.2044 361.176 43.1329C361.583 43.0613 362.01 42.9942 362.458 42.9316C362.909 42.869 363.356 42.8064 363.799 42.7438L363.289 43.0255C363.298 42.4576 363.178 42.0372 362.927 41.7644C362.681 41.4871 362.256 41.3485 361.653 41.3485C361.272 41.3485 360.924 41.4379 360.606 41.6168C360.289 41.7912 360.067 42.0819 359.942 42.4889L358.634 42.0864C358.813 41.4647 359.153 40.9706 359.653 40.6038C360.159 40.2371 360.83 40.0538 361.666 40.0538C362.314 40.0538 362.878 40.1656 363.356 40.3892C363.839 40.6083 364.193 40.9571 364.416 41.4357C364.533 41.6727 364.604 41.9231 364.631 42.187C364.658 42.4509 364.671 42.7348 364.671 43.039V47.5H363.43V45.843L363.672 46.0577C363.372 46.6123 362.99 47.0259 362.525 47.2988C362.064 47.5671 361.496 47.7012 360.821 47.7012ZM361.069 46.5541C361.467 46.5541 361.809 46.4848 362.095 46.3462C362.382 46.2031 362.612 46.0219 362.786 45.8028C362.961 45.5837 363.075 45.3556 363.128 45.1185C363.204 44.9039 363.247 44.6624 363.256 44.394C363.269 44.1257 363.276 43.911 363.276 43.75L363.732 43.9177C363.289 43.9848 362.887 44.0452 362.525 44.0989C362.162 44.1525 361.834 44.2062 361.539 44.2599C361.248 44.3091 360.988 44.3694 360.76 44.441C360.568 44.5081 360.396 44.5886 360.244 44.6825C360.096 44.7764 359.978 44.8905 359.888 45.0246C359.803 45.1588 359.761 45.322 359.761 45.5143C359.761 45.7022 359.808 45.8766 359.902 46.0376C359.996 46.1941 360.139 46.3193 360.331 46.4133C360.523 46.5072 360.769 46.5541 361.069 46.5541ZM369.398 50.9213C369.009 50.9213 368.632 50.8609 368.265 50.7401C367.903 50.6194 367.572 50.4405 367.272 50.2035C366.972 49.9709 366.724 49.6824 366.527 49.3381L367.822 48.6807C367.979 48.9892 368.202 49.2151 368.493 49.3582C368.784 49.5013 369.09 49.5729 369.412 49.5729C369.81 49.5729 370.15 49.5013 370.432 49.3582C370.713 49.2196 370.926 49.0094 371.069 48.7276C371.216 48.4459 371.288 48.097 371.284 47.6811V45.6552H371.451V40.255H372.692V47.6945C372.692 47.8868 372.686 48.0702 372.672 48.2446C372.659 48.419 372.634 48.5935 372.598 48.7679C372.496 49.2553 372.299 49.6578 372.008 49.9754C371.722 50.2929 371.355 50.5299 370.908 50.6865C370.465 50.843 369.962 50.9213 369.398 50.9213ZM369.291 47.7012C368.616 47.7012 368.032 47.5335 367.54 47.1981C367.053 46.8627 366.675 46.4065 366.407 45.8296C366.143 45.2482 366.011 44.5953 366.011 43.8708C366.011 43.1418 366.145 42.4911 366.413 41.9187C366.682 41.3418 367.062 40.8878 367.554 40.5569C368.05 40.2215 368.638 40.0538 369.318 40.0538C370.002 40.0538 370.577 40.2215 371.042 40.5569C371.512 40.8878 371.865 41.3418 372.102 41.9187C372.343 42.4956 372.464 43.1463 372.464 43.8708C372.464 44.5953 372.343 45.246 372.102 45.8229C371.86 46.3998 371.505 46.8582 371.035 47.1981C370.566 47.5335 369.984 47.7012 369.291 47.7012ZM369.486 46.4334C369.946 46.4334 370.322 46.3238 370.613 46.1047C370.903 45.8855 371.116 45.5837 371.25 45.199C371.384 44.8144 371.451 44.3717 371.451 43.8708C371.451 43.3699 371.382 42.9272 371.243 42.5425C371.109 42.1579 370.899 41.8583 370.613 41.6436C370.331 41.429 369.971 41.3216 369.533 41.3216C369.068 41.3216 368.685 41.4357 368.386 41.6637C368.086 41.8918 367.862 42.1982 367.715 42.5828C367.572 42.9674 367.5 43.3967 367.5 43.8708C367.5 44.3493 367.572 44.7831 367.715 45.1722C367.862 45.5568 368.081 45.8632 368.372 46.0913C368.667 46.3193 369.038 46.4334 369.486 46.4334ZM374.576 47.5V40.255H375.824V42.0126L375.649 41.7845C375.739 41.5519 375.855 41.3395 375.998 41.1472C376.141 40.9504 376.307 40.7894 376.495 40.6642C376.678 40.53 376.881 40.4272 377.105 40.3556C377.333 40.2796 377.566 40.2349 377.803 40.2215C378.04 40.2036 378.268 40.2147 378.487 40.255V41.5698C378.25 41.5072 377.986 41.4893 377.695 41.5162C377.409 41.543 377.145 41.6347 376.904 41.7912C376.676 41.9388 376.495 42.1177 376.36 42.3279C376.231 42.5381 376.137 42.7729 376.079 43.0323C376.02 43.2872 375.991 43.5577 375.991 43.844V47.5H374.576ZM381.601 47.7012C381.064 47.7012 380.615 47.6029 380.252 47.4061C379.89 47.2048 379.615 46.941 379.427 46.6145C379.244 46.2836 379.152 45.9213 379.152 45.5278C379.152 45.161 379.217 44.839 379.347 44.5617C379.477 44.2845 379.669 44.0497 379.924 43.8574C380.179 43.6606 380.492 43.5018 380.863 43.3811C381.185 43.2872 381.549 43.2044 381.956 43.1329C382.363 43.0613 382.79 42.9942 383.238 42.9316C383.689 42.869 384.137 42.8064 384.579 42.7438L384.07 43.0255C384.078 42.4576 383.958 42.0372 383.707 41.7644C383.461 41.4871 383.036 41.3485 382.433 41.3485C382.053 41.3485 381.704 41.4379 381.386 41.6168C381.069 41.7912 380.847 42.0819 380.722 42.4889L379.414 42.0864C379.593 41.4647 379.933 40.9706 380.434 40.6038C380.939 40.2371 381.61 40.0538 382.446 40.0538C383.095 40.0538 383.658 40.1656 384.137 40.3892C384.62 40.6083 384.973 40.9571 385.197 41.4357C385.313 41.6727 385.384 41.9231 385.411 42.187C385.438 42.4509 385.451 42.7348 385.451 43.039V47.5H384.21V45.843L384.452 46.0577C384.152 46.6123 383.77 47.0259 383.305 47.2988C382.844 47.5671 382.276 47.7012 381.601 47.7012ZM381.849 46.5541C382.247 46.5541 382.589 46.4848 382.875 46.3462C383.162 46.2031 383.392 46.0219 383.566 45.8028C383.741 45.5837 383.855 45.3556 383.909 45.1185C383.985 44.9039 384.027 44.6624 384.036 44.394C384.049 44.1257 384.056 43.911 384.056 43.75L384.512 43.9177C384.07 43.9848 383.667 44.0452 383.305 44.0989C382.943 44.1525 382.614 44.2062 382.319 44.2599C382.028 44.3091 381.769 44.3694 381.54 44.441C381.348 44.5081 381.176 44.5886 381.024 44.6825C380.876 44.7764 380.758 44.8905 380.668 45.0246C380.583 45.1588 380.541 45.322 380.541 45.5143C380.541 45.7022 380.588 45.8766 380.682 46.0376C380.776 46.1941 380.919 46.3193 381.111 46.4133C381.303 46.5072 381.549 46.5541 381.849 46.5541ZM395.874 47.5L395.881 42.9853C395.881 42.462 395.747 42.0551 395.478 41.7644C395.21 41.4692 394.857 41.3216 394.418 41.3216C394.15 41.3216 393.904 41.3842 393.68 41.5095C393.461 41.6302 393.282 41.8136 393.144 42.0595C393.01 42.301 392.942 42.6052 392.942 42.9719L392.265 42.6298C392.256 42.1199 392.363 41.6727 392.587 41.2881C392.815 40.9035 393.124 40.6061 393.513 40.3959C393.902 40.1812 394.338 40.0739 394.821 40.0739C395.603 40.0739 396.209 40.3087 396.639 40.7782C397.068 41.2478 397.283 41.8717 397.283 42.6499L397.276 47.5H395.874ZM387.187 47.5V40.255H388.434V42.348H388.595V47.5H387.187ZM391.534 47.5L391.54 43.0121C391.54 42.4844 391.406 42.0707 391.138 41.7711C390.874 41.4714 390.518 41.3216 390.071 41.3216C389.629 41.3216 389.271 41.4737 388.998 41.7778C388.73 42.0819 388.595 42.4799 388.595 42.9719L387.925 42.5425C387.925 42.0685 388.039 41.6459 388.267 41.2747C388.495 40.9035 388.803 40.6105 389.192 40.3959C389.582 40.1812 390.022 40.0739 390.514 40.0739C391.028 40.0739 391.467 40.1834 391.829 40.4026C392.191 40.6173 392.466 40.9191 392.654 41.3082C392.846 41.6973 392.942 42.149 392.942 42.6633L392.936 47.5H391.534Z" fill="#1D2136"/>
</g>
<defs>
<filter id="filter0_d_780_20056" x="0" y="0" width="434.918" height="85" filterUnits="userSpaceOnUse" color-interpolation-filters="sRGB">
<feFlood flood-opacity="0" result="BackgroundImageFix"/>
<feColorMatrix in="SourceAlpha" type="matrix" values="0 0 0 0 0 0 0 0 0 0 0 0 0 0 0 0 0 0 127 0" result="hardAlpha"/>
<feMorphology radius="8" operator="dilate" in="SourceAlpha" result="effect1_dropShadow_780_20056"/>
<feOffset/>
<feComposite in2="hardAlpha" operator="out"/>
<feColorMatrix type="matrix" values="0 0 0 0 0.350753 0 0 0 0 0 0 0 0 0 0.915007 0 0 0 0.09 0"/>
<feBlend mode="normal" in2="BackgroundImageFix" result="effect1_dropShadow_780_20056"/>
<feBlend mode="normal" in="SourceGraphic" in2="effect1_dropShadow_780_20056" result="shape"/>
</filter>
<radialGradient id="paint0_radial_780_20056" cx="0" cy="0" r="1" gradientUnits="userSpaceOnUse" gradientTransform="translate(326.794 41.8939) rotate(164.251) scale(12.2465 8.82298)">
<stop stop-color="#FF005F"/>
<stop offset="1" stop-color="#FC01D8"/>
</radialGradient>
<radialGradient id="paint1_radial_780_20056" cx="0" cy="0" r="1" gradientUnits="userSpaceOnUse" gradientTransform="translate(313.337 53.5531) rotate(-90) scale(15.2992 16.2322)">
<stop stop-color="#FFCC00"/>
<stop offset="0.1242" stop-color="#FFCC00"/>
<stop offset="0.5672" stop-color="#FE4A05"/>
<stop offset="0.6942" stop-color="#FF0F3F"/>
<stop offset="1" stop-color="#FE0657" stop-opacity="0"/>
</radialGradient>
<radialGradient id="paint2_radial_780_20056" cx="0" cy="0" r="1" gradientUnits="userSpaceOnUse" gradientTransform="translate(318.314 51.8065) rotate(-59.8697) scale(6.32635 8.23624)">
<stop stop-color="#FFCC00"/>
<stop offset="1" stop-color="#FFCC00" stop-opacity="0"/>
</radialGradient>
<radialGradient id="paint3_radial_780_20056" cx="0" cy="0" r="1" gradientUnits="userSpaceOnUse" gradientTransform="translate(310.847 33.6912) rotate(164.274) scale(12.1106 4.12609)">
<stop stop-color="#780CFF"/>
<stop offset="1" stop-color="#820BFF" stop-opacity="0"/>
</radialGradient>
<clipPath id="clip0_780_20056">
<rect width="19.1667" height="15.6478" fill="white" transform="translate(204.746 34.6758)"/>
</clipPath>
<clipPath id="clip1_780_20056">
<rect width="19.1667" height="19.1667" fill="white" transform="translate(308.246 32.918)"/>
</clipPath>
</defs>
</svg>
