<svg width="396" height="88" viewBox="0 0 396 88" fill="none" xmlns="http://www.w3.org/2000/svg">
<g filter="url(#filter0_d_780_20092)">
<rect x="8" y="8" width="379.941" height="72" rx="12" fill="white"/>
<rect x="8.52941" y="8.52941" width="378.882" height="70.9412" rx="11.4706" stroke="#B1B1B1" stroke-width="1.05882"/>
<path d="M41.3534 35.1823C41.3534 35.1717 41.3534 35.1611 41.3322 35.1505C41.0993 34.8541 40.7922 34.6952 40.4322 34.6952C39.871 34.6952 39.1934 35.0658 38.4628 35.8494C37.5946 36.7811 36.2605 36.707 35.4981 35.6905L34.4287 34.2717C34.0052 33.6999 33.444 33.4141 32.8828 33.4141C32.3216 33.4141 31.7605 33.6999 31.3369 34.2717L30.2569 35.7011C29.5052 36.707 28.1816 36.7811 27.3134 35.8599L27.3028 35.8494C26.1063 34.5682 25.0369 34.3776 24.4334 35.1505C24.4122 35.1611 24.4122 35.1717 24.4122 35.1823C24.031 35.9976 23.8828 37.1411 23.8828 38.7505V49.2541C23.8828 50.8635 24.031 52.007 24.4122 52.8223C24.4122 52.8329 24.4228 52.8541 24.4334 52.8647C25.0475 53.627 26.1063 53.4364 27.3028 52.1552L27.3134 52.1446C28.1816 51.2235 29.5052 51.2976 30.2569 52.3035L31.3369 53.7329C31.7605 54.3046 32.3216 54.5905 32.8828 54.5905C33.444 54.5905 34.0052 54.3046 34.4287 53.7329L35.4981 52.3141C36.2605 51.2976 37.5946 51.2235 38.4628 52.1552C39.1934 52.9388 39.871 53.3094 40.4322 53.3094C40.7922 53.3094 41.0993 53.1611 41.3322 52.8647C41.3428 52.8541 41.3534 52.8329 41.3534 52.8223C41.7346 52.007 41.8828 50.8635 41.8828 49.2541V38.7505C41.8828 37.1411 41.7346 35.9976 41.3534 35.1823ZM35.5299 46.6494H29.1769C28.7428 46.6494 28.3828 46.2894 28.3828 45.8552C28.3828 45.4211 28.7428 45.0611 29.1769 45.0611H35.5299C35.964 45.0611 36.324 45.4211 36.324 45.8552C36.324 46.2894 35.964 46.6494 35.5299 46.6494ZM37.6475 42.9435H29.1769C28.7428 42.9435 28.3828 42.5835 28.3828 42.1494C28.3828 41.7152 28.7428 41.3552 29.1769 41.3552H37.6475C38.0816 41.3552 38.4416 41.7152 38.4416 42.1494C38.4416 42.5835 38.0816 42.9435 37.6475 42.9435Z" fill="#101010"/>
<path d="M62.8169 41.7661C62.5797 41.3313 62.2536 41.0002 61.8385 40.7729C61.4235 40.5456 60.9393 40.432 60.3858 40.432C59.7731 40.432 59.2296 40.5704 58.7553 40.8471C58.2809 41.1238 57.9103 41.5191 57.6435 42.0329C57.3767 42.5468 57.2433 43.1398 57.2433 43.8118C57.2433 44.5035 57.3767 45.1064 57.6435 45.6202C57.9202 46.1341 58.3007 46.5294 58.7849 46.8061C59.2691 47.0828 59.8324 47.2212 60.4748 47.2212C61.2654 47.2212 61.9127 47.0136 62.4167 46.5986C62.9207 46.1736 63.2517 45.5856 63.4098 44.8346H59.8522V43.2485H65.4555V45.0569C65.3171 45.7784 65.0207 46.4454 64.5661 47.0581C64.1115 47.6708 63.5235 48.1649 62.8021 48.5405C62.0905 48.9061 61.2901 49.0889 60.4007 49.0889C59.4025 49.0889 58.4983 48.8666 57.688 48.4219C56.8875 47.9673 56.255 47.3398 55.7905 46.5393C55.336 45.7388 55.1087 44.8296 55.1087 43.8118C55.1087 42.7939 55.336 41.8847 55.7905 41.0842C56.255 40.2739 56.8875 39.6464 57.688 39.2016C58.4983 38.7471 59.3976 38.5198 60.3858 38.5198C61.552 38.5198 62.5649 38.8064 63.4247 39.3795C64.2844 39.9428 64.8774 40.7384 65.2035 41.7661H62.8169ZM74.4619 44.716C74.4619 45.0125 74.4422 45.2793 74.4026 45.5165H68.3991C68.4485 46.1094 68.6561 46.5739 69.0217 46.9099C69.3874 47.2459 69.837 47.4139 70.3706 47.4139C71.1415 47.4139 71.6899 47.0828 72.0161 46.4207H74.2544C74.0172 47.2113 73.5626 47.8635 72.8906 48.3774C72.2186 48.8814 71.3935 49.1334 70.4151 49.1334C69.6245 49.1334 68.913 48.9605 68.2805 48.6146C67.6579 48.2588 67.1688 47.7598 66.813 47.1174C66.4671 46.4751 66.2942 45.7339 66.2942 44.8939C66.2942 44.044 66.4671 43.2979 66.813 42.6555C67.1589 42.0132 67.6431 41.5191 68.2657 41.1732C68.8883 40.8273 69.6048 40.6544 70.4151 40.6544C71.1958 40.6544 71.8925 40.8224 72.5052 41.1584C73.1278 41.4944 73.6071 41.9736 73.9431 42.5962C74.289 43.2089 74.4619 43.9155 74.4619 44.716ZM72.3125 44.1231C72.3026 43.5894 72.1099 43.1645 71.7344 42.8482C71.3589 42.5221 70.8994 42.3591 70.3558 42.3591C69.8419 42.3591 69.4071 42.5172 69.0514 42.8334C68.7055 43.1398 68.493 43.5696 68.4139 44.1231H72.3125ZM80.3645 40.6692C81.3428 40.6692 82.1334 40.9805 82.7362 41.6031C83.3391 42.2158 83.6405 43.0755 83.6405 44.1824V49H81.5652V44.464C81.5652 43.8118 81.4021 43.3127 81.076 42.9668C80.7499 42.6111 80.3052 42.4332 79.7419 42.4332C79.1687 42.4332 78.7141 42.6111 78.3781 42.9668C78.052 43.3127 77.889 43.8118 77.889 44.464V49H75.8137V40.7878H77.889V41.8106C78.1657 41.4548 78.5165 41.1781 78.9414 40.9805C79.3762 40.7729 79.8506 40.6692 80.3645 40.6692ZM93.085 44.716C93.085 45.0125 93.0653 45.2793 93.0257 45.5165H87.0222C87.0716 46.1094 87.2792 46.5739 87.6448 46.9099C88.0105 47.2459 88.4601 47.4139 88.9937 47.4139C89.7646 47.4139 90.313 47.0828 90.6392 46.4207H92.8775C92.6403 47.2113 92.1857 47.8635 91.5137 48.3774C90.8417 48.8814 90.0166 49.1334 89.0382 49.1334C88.2476 49.1334 87.5361 48.9605 86.9036 48.6146C86.281 48.2588 85.7919 47.7598 85.4361 47.1174C85.0902 46.4751 84.9173 45.7339 84.9173 44.8939C84.9173 44.044 85.0902 43.2979 85.4361 42.6555C85.782 42.0132 86.2662 41.5191 86.8888 41.1732C87.5114 40.8273 88.2279 40.6544 89.0382 40.6544C89.8189 40.6544 90.5156 40.8224 91.1283 41.1584C91.7509 41.4944 92.2302 41.9736 92.5662 42.5962C92.9121 43.2089 93.085 43.9155 93.085 44.716ZM90.9356 44.1231C90.9257 43.5894 90.733 43.1645 90.3575 42.8482C89.982 42.5221 89.5225 42.3591 88.9789 42.3591C88.465 42.3591 88.0302 42.5172 87.6745 42.8334C87.3286 43.1398 87.1161 43.5696 87.037 44.1231H90.9356ZM96.5121 42.0626C96.7789 41.6278 97.1248 41.2868 97.5497 41.0398C97.9845 40.7927 98.4786 40.6692 99.0321 40.6692V42.8482H98.4836C97.8313 42.8482 97.3372 43.0014 97.0012 43.3078C96.6751 43.6141 96.5121 44.1478 96.5121 44.9087V49H94.4368V40.7878H96.5121V42.0626ZM99.7332 44.8642C99.7332 44.0341 99.8962 43.2979 100.222 42.6555C100.558 42.0132 101.008 41.5191 101.571 41.1732C102.144 40.8273 102.782 40.6544 103.484 40.6544C104.096 40.6544 104.63 40.7779 105.084 41.0249C105.549 41.272 105.92 41.5833 106.196 41.9588V40.7878H108.286V49H106.196V47.7993C105.929 48.1847 105.559 48.5059 105.084 48.7628C104.62 49.0099 104.081 49.1334 103.469 49.1334C102.777 49.1334 102.144 48.9555 101.571 48.5998C101.008 48.244 100.558 47.7449 100.222 47.1026C99.8962 46.4504 99.7332 45.7042 99.7332 44.8642ZM106.196 44.8939C106.196 44.3899 106.097 43.96 105.9 43.6042C105.702 43.2386 105.435 42.9619 105.099 42.7741C104.763 42.5765 104.403 42.4776 104.017 42.4776C103.632 42.4776 103.276 42.5715 102.95 42.7593C102.624 42.9471 102.357 43.2238 102.149 43.5894C101.952 43.9452 101.853 44.3701 101.853 44.8642C101.853 45.3584 101.952 45.7932 102.149 46.1687C102.357 46.5344 102.624 46.816 102.95 47.0136C103.286 47.2113 103.642 47.3101 104.017 47.3101C104.403 47.3101 104.763 47.2162 105.099 47.0285C105.435 46.8308 105.702 46.5541 105.9 46.1984C106.097 45.8327 106.196 45.3979 106.196 44.8939ZM112.566 42.4925V46.4652C112.566 46.7419 112.631 46.9445 112.759 47.0729C112.897 47.1915 113.125 47.2508 113.441 47.2508H114.405V49H113.1C111.351 49 110.476 48.1501 110.476 46.4504V42.4925H109.498V40.7878H110.476V38.7569H112.566V40.7878H114.405V42.4925H112.566ZM123.368 44.716C123.368 45.0125 123.348 45.2793 123.309 45.5165H117.305C117.355 46.1094 117.562 46.5739 117.928 46.9099C118.294 47.2459 118.743 47.4139 119.277 47.4139C120.048 47.4139 120.596 47.0828 120.922 46.4207H123.161C122.924 47.2113 122.469 47.8635 121.797 48.3774C121.125 48.8814 120.3 49.1334 119.321 49.1334C118.531 49.1334 117.819 48.9605 117.187 48.6146C116.564 48.2588 116.075 47.7598 115.719 47.1174C115.373 46.4751 115.2 45.7339 115.2 44.8939C115.2 44.044 115.373 43.2979 115.719 42.6555C116.065 42.0132 116.549 41.5191 117.172 41.1732C117.795 40.8273 118.511 40.6544 119.321 40.6544C120.102 40.6544 120.799 40.8224 121.412 41.1584C122.034 41.4944 122.513 41.9736 122.849 42.5962C123.195 43.2089 123.368 43.9155 123.368 44.716ZM121.219 44.1231C121.209 43.5894 121.016 43.1645 120.641 42.8482C120.265 42.5221 119.806 42.3591 119.262 42.3591C118.748 42.3591 118.313 42.5172 117.958 42.8334C117.612 43.1398 117.399 43.5696 117.32 44.1231H121.219ZM133.426 49L131.143 44.968H130.164V49H128.089V38.6532H131.973C132.773 38.6532 133.455 38.7965 134.018 39.0831C134.582 39.3598 135.002 39.7402 135.278 40.2245C135.565 40.6988 135.708 41.2325 135.708 41.8254C135.708 42.5073 135.511 43.1249 135.115 43.6784C134.72 44.2219 134.132 44.5974 133.351 44.8049L135.827 49H133.426ZM130.164 43.4115H131.899C132.462 43.4115 132.882 43.2781 133.159 43.0113C133.435 42.7346 133.574 42.3541 133.574 41.8699C133.574 41.3955 133.435 41.0299 133.159 40.7729C132.882 40.5061 132.462 40.3727 131.899 40.3727H130.164V43.4115ZM145.056 44.716C145.056 45.0125 145.037 45.2793 144.997 45.5165H138.994C139.043 46.1094 139.251 46.5739 139.616 46.9099C139.982 47.2459 140.432 47.4139 140.965 47.4139C141.736 47.4139 142.284 47.0828 142.611 46.4207H144.849C144.612 47.2113 144.157 47.8635 143.485 48.3774C142.813 48.8814 141.988 49.1334 141.01 49.1334C140.219 49.1334 139.508 48.9605 138.875 48.6146C138.252 48.2588 137.763 47.7598 137.408 47.1174C137.062 46.4751 136.889 45.7339 136.889 44.8939C136.889 44.044 137.062 43.2979 137.408 42.6555C137.753 42.0132 138.238 41.5191 138.86 41.1732C139.483 40.8273 140.199 40.6544 141.01 40.6544C141.79 40.6544 142.487 40.8224 143.1 41.1584C143.722 41.4944 144.202 41.9736 144.538 42.5962C144.884 43.2089 145.056 43.9155 145.056 44.716ZM142.907 44.1231C142.897 43.5894 142.704 43.1645 142.329 42.8482C141.953 42.5221 141.494 42.3591 140.95 42.3591C140.436 42.3591 140.002 42.5172 139.646 42.8334C139.3 43.1398 139.088 43.5696 139.008 44.1231H142.907ZM148.483 41.9736C148.75 41.5981 149.116 41.2868 149.58 41.0398C150.055 40.7828 150.593 40.6544 151.196 40.6544C151.898 40.6544 152.53 40.8273 153.094 41.1732C153.667 41.5191 154.116 42.0132 154.443 42.6555C154.779 43.288 154.947 44.0242 154.947 44.8642C154.947 45.7042 154.779 46.4504 154.443 47.1026C154.116 47.7449 153.667 48.244 153.094 48.5998C152.53 48.9555 151.898 49.1334 151.196 49.1334C150.593 49.1334 150.06 49.0099 149.595 48.7628C149.141 48.5158 148.77 48.2045 148.483 47.8289V52.9134H146.408V40.7878H148.483V41.9736ZM152.827 44.8642C152.827 44.3701 152.723 43.9452 152.515 43.5894C152.318 43.2238 152.051 42.9471 151.715 42.7593C151.389 42.5715 151.033 42.4776 150.648 42.4776C150.272 42.4776 149.916 42.5765 149.58 42.7741C149.254 42.9619 148.987 43.2386 148.78 43.6042C148.582 43.9699 148.483 44.3998 148.483 44.8939C148.483 45.388 148.582 45.8179 148.78 46.1835C148.987 46.5492 149.254 46.8308 149.58 47.0285C149.916 47.2162 150.272 47.3101 150.648 47.3101C151.033 47.3101 151.389 47.2113 151.715 47.0136C152.051 46.816 152.318 46.5344 152.515 46.1687C152.723 45.8031 152.827 45.3682 152.827 44.8642ZM159.938 49.1334C159.148 49.1334 158.436 48.9605 157.804 48.6146C157.171 48.2588 156.672 47.7598 156.306 47.1174C155.951 46.4751 155.773 45.7339 155.773 44.8939C155.773 44.0539 155.956 43.3127 156.321 42.6704C156.697 42.028 157.206 41.5339 157.848 41.188C158.49 40.8322 159.207 40.6544 159.997 40.6544C160.788 40.6544 161.504 40.8322 162.147 41.188C162.789 41.5339 163.293 42.028 163.659 42.6704C164.034 43.3127 164.222 44.0539 164.222 44.8939C164.222 45.7339 164.029 46.4751 163.644 47.1174C163.268 47.7598 162.755 48.2588 162.102 48.6146C161.46 48.9605 160.739 49.1334 159.938 49.1334ZM159.938 47.3249C160.314 47.3249 160.664 47.236 160.991 47.0581C161.327 46.8704 161.593 46.5936 161.791 46.228C161.989 45.8624 162.088 45.4176 162.088 44.8939C162.088 44.1132 161.88 43.5153 161.465 43.1002C161.06 42.6753 160.561 42.4628 159.968 42.4628C159.375 42.4628 158.876 42.6753 158.471 43.1002C158.075 43.5153 157.878 44.1132 157.878 44.8939C157.878 45.6746 158.07 46.2774 158.456 46.7024C158.851 47.1174 159.345 47.3249 159.938 47.3249ZM167.657 42.0626C167.923 41.6278 168.269 41.2868 168.694 41.0398C169.129 40.7927 169.623 40.6692 170.177 40.6692V42.8482H169.628C168.976 42.8482 168.482 43.0014 168.146 43.3078C167.82 43.6141 167.657 44.1478 167.657 44.9087V49H165.581V40.7878H167.657V42.0626ZM173.828 42.4925V46.4652C173.828 46.7419 173.892 46.9445 174.02 47.0729C174.159 47.1915 174.386 47.2508 174.702 47.2508H175.666V49H174.361C172.612 49 171.738 48.1501 171.738 46.4504V42.4925H170.759V40.7878H171.738V38.7569H173.828V40.7878H175.666V42.4925H173.828Z" fill="#101010"/>
<rect x="198.824" y="21.7659" width="175.353" height="44.4706" rx="7.41176" fill="black"/>
<rect x="198.824" y="21.7659" width="175.353" height="44.4706" rx="7.41176" stroke="black" stroke-width="2.11765"/>
<path d="M225.363 42.2227L229.532 46.3918L233.702 42.2227" stroke="#F9F9F9" stroke-width="2.11765" stroke-linecap="round" stroke-linejoin="round"/>
<path d="M229.527 35.2656V46.3833" stroke="#F9F9F9" stroke-width="2.11765" stroke-linecap="round" stroke-linejoin="round"/>
<path d="M238.264 46.3867V51.9455C238.264 52.1562 238.18 52.3581 238.031 52.5071C237.882 52.656 237.68 52.7397 237.469 52.7397H221.587C221.376 52.7397 221.174 52.656 221.026 52.5071C220.877 52.3581 220.793 52.1562 220.793 51.9455V46.3867" stroke="#F9F9F9" stroke-width="2.11765" stroke-linecap="round" stroke-linejoin="round"/>
<path d="M255.347 38.6532C256.434 38.6532 257.388 38.8656 258.208 39.2906C259.038 39.7155 259.675 40.3233 260.12 41.1139C260.575 41.8946 260.802 42.8038 260.802 43.8414C260.802 44.8791 260.575 45.7882 260.12 46.5689C259.675 47.3398 259.038 47.9376 258.208 48.3626C257.388 48.7875 256.434 49 255.347 49H251.73V38.6532H255.347ZM255.273 47.236C256.36 47.236 257.2 46.9395 257.793 46.3466C258.386 45.7536 258.682 44.9186 258.682 43.8414C258.682 42.7642 258.386 41.9242 257.793 41.3214C257.2 40.7087 256.36 40.4024 255.273 40.4024H253.805V47.236H255.273ZM265.839 49.1334C265.048 49.1334 264.337 48.9605 263.704 48.6146C263.072 48.2588 262.573 47.7598 262.207 47.1174C261.851 46.4751 261.673 45.7339 261.673 44.8939C261.673 44.0539 261.856 43.3127 262.222 42.6704C262.597 42.028 263.106 41.5339 263.749 41.188C264.391 40.8322 265.108 40.6544 265.898 40.6544C266.689 40.6544 267.405 40.8322 268.048 41.188C268.69 41.5339 269.194 42.028 269.56 42.6704C269.935 43.3127 270.123 44.0539 270.123 44.8939C270.123 45.7339 269.93 46.4751 269.545 47.1174C269.169 47.7598 268.655 48.2588 268.003 48.6146C267.361 48.9605 266.639 49.1334 265.839 49.1334ZM265.839 47.3249C266.214 47.3249 266.565 47.236 266.891 47.0581C267.227 46.8704 267.494 46.5936 267.692 46.228C267.889 45.8624 267.988 45.4176 267.988 44.8939C267.988 44.1132 267.781 43.5153 267.366 43.1002C266.96 42.6753 266.461 42.4628 265.868 42.4628C265.276 42.4628 264.776 42.6753 264.371 43.1002C263.976 43.5153 263.778 44.1132 263.778 44.8939C263.778 45.6746 263.971 46.2774 264.356 46.7024C264.752 47.1174 265.246 47.3249 265.839 47.3249ZM282.867 40.7878L280.465 49H278.227L276.73 43.2633L275.232 49H272.979L270.563 40.7878H272.668L274.121 47.0433L275.692 40.7878H277.886L279.428 47.0285L280.88 40.7878H282.867ZM288.377 40.6692C289.356 40.6692 290.146 40.9805 290.749 41.6031C291.352 42.2158 291.653 43.0755 291.653 44.1824V49H289.578V44.464C289.578 43.8118 289.415 43.3127 289.089 42.9668C288.763 42.6111 288.318 42.4332 287.755 42.4332C287.181 42.4332 286.727 42.6111 286.391 42.9668C286.065 43.3127 285.902 43.8118 285.902 44.464V49H283.826V40.7878H285.902V41.8106C286.178 41.4548 286.529 41.1781 286.954 40.9805C287.389 40.7729 287.863 40.6692 288.377 40.6692ZM295.539 38.0306V49H293.464V38.0306H295.539ZM301.073 49.1334C300.282 49.1334 299.571 48.9605 298.938 48.6146C298.306 48.2588 297.807 47.7598 297.441 47.1174C297.085 46.4751 296.907 45.7339 296.907 44.8939C296.907 44.0539 297.09 43.3127 297.456 42.6704C297.831 42.028 298.34 41.5339 298.983 41.188C299.625 40.8322 300.342 40.6544 301.132 40.6544C301.923 40.6544 302.639 40.8322 303.282 41.188C303.924 41.5339 304.428 42.028 304.794 42.6704C305.169 43.3127 305.357 44.0539 305.357 44.8939C305.357 45.7339 305.164 46.4751 304.779 47.1174C304.403 47.7598 303.889 48.2588 303.237 48.6146C302.595 48.9605 301.873 49.1334 301.073 49.1334ZM301.073 47.3249C301.448 47.3249 301.799 47.236 302.125 47.0581C302.461 46.8704 302.728 46.5936 302.926 46.228C303.123 45.8624 303.222 45.4176 303.222 44.8939C303.222 44.1132 303.015 43.5153 302.6 43.1002C302.195 42.6753 301.695 42.4628 301.103 42.4628C300.51 42.4628 300.011 42.6753 299.605 43.1002C299.21 43.5153 299.012 44.1132 299.012 44.8939C299.012 45.6746 299.205 46.2774 299.591 46.7024C299.986 47.1174 300.48 47.3249 301.073 47.3249ZM306.182 44.8642C306.182 44.0341 306.346 43.2979 306.672 42.6555C307.008 42.0132 307.457 41.5191 308.021 41.1732C308.594 40.8273 309.231 40.6544 309.933 40.6544C310.546 40.6544 311.079 40.7779 311.534 41.0249C311.998 41.272 312.369 41.5833 312.646 41.9588V40.7878H314.736V49H312.646V47.7993C312.379 48.1847 312.008 48.5059 311.534 48.7628C311.069 49.0099 310.531 49.1334 309.918 49.1334C309.226 49.1334 308.594 48.9555 308.021 48.5998C307.457 48.244 307.008 47.7449 306.672 47.1026C306.346 46.4504 306.182 45.7042 306.182 44.8642ZM312.646 44.8939C312.646 44.3899 312.547 43.96 312.349 43.6042C312.151 43.2386 311.885 42.9619 311.549 42.7741C311.213 42.5765 310.852 42.4776 310.466 42.4776C310.081 42.4776 309.725 42.5715 309.399 42.7593C309.073 42.9471 308.806 43.2238 308.599 43.5894C308.401 43.9452 308.302 44.3701 308.302 44.8642C308.302 45.3584 308.401 45.7932 308.599 46.1687C308.806 46.5344 309.073 46.816 309.399 47.0136C309.735 47.2113 310.091 47.3101 310.466 47.3101C310.852 47.3101 311.213 47.2162 311.549 47.0285C311.885 46.8308 312.151 46.5541 312.349 46.1984C312.547 45.8327 312.646 45.3979 312.646 44.8939ZM316.066 44.8642C316.066 44.0341 316.229 43.2979 316.555 42.6555C316.891 42.0132 317.346 41.5191 317.919 41.1732C318.492 40.8273 319.129 40.6544 319.831 40.6544C320.365 40.6544 320.874 40.7729 321.358 41.0101C321.842 41.2374 322.227 41.5438 322.514 41.9292V38.0306H324.619V49H322.514V47.7845C322.257 48.1896 321.896 48.5158 321.432 48.7628C320.967 49.0099 320.429 49.1334 319.816 49.1334C319.124 49.1334 318.492 48.9555 317.919 48.5998C317.346 48.244 316.891 47.7449 316.555 47.1026C316.229 46.4504 316.066 45.7042 316.066 44.8642ZM322.529 44.8939C322.529 44.3899 322.43 43.96 322.232 43.6042C322.035 43.2386 321.768 42.9619 321.432 42.7741C321.096 42.5765 320.735 42.4776 320.35 42.4776C319.964 42.4776 319.609 42.5715 319.283 42.7593C318.956 42.9471 318.69 43.2238 318.482 43.5894C318.284 43.9452 318.186 44.3701 318.186 44.8642C318.186 45.3584 318.284 45.7932 318.482 46.1687C318.69 46.5344 318.956 46.816 319.283 47.0136C319.619 47.2113 319.974 47.3101 320.35 47.3101C320.735 47.3101 321.096 47.2162 321.432 47.0285C321.768 46.8308 322.035 46.5541 322.232 46.1984C322.43 45.8327 322.529 45.3979 322.529 44.8939ZM329.318 44.8642C329.318 44.0341 329.481 43.2979 329.807 42.6555C330.143 42.0132 330.593 41.5191 331.156 41.1732C331.73 40.8273 332.367 40.6544 333.069 40.6544C333.681 40.6544 334.215 40.7779 334.67 41.0249C335.134 41.272 335.505 41.5833 335.781 41.9588V40.7878H337.871V49H335.781V47.7993C335.515 48.1847 335.144 48.5059 334.67 48.7628C334.205 49.0099 333.667 49.1334 333.054 49.1334C332.362 49.1334 331.73 48.9555 331.156 48.5998C330.593 48.244 330.143 47.7449 329.807 47.1026C329.481 46.4504 329.318 45.7042 329.318 44.8642ZM335.781 44.8939C335.781 44.3899 335.683 43.96 335.485 43.6042C335.287 43.2386 335.02 42.9619 334.684 42.7741C334.348 42.5765 333.988 42.4776 333.602 42.4776C333.217 42.4776 332.861 42.5715 332.535 42.7593C332.209 42.9471 331.942 43.2238 331.735 43.5894C331.537 43.9452 331.438 44.3701 331.438 44.8642C331.438 45.3584 331.537 45.7932 331.735 46.1687C331.942 46.5344 332.209 46.816 332.535 47.0136C332.871 47.2113 333.227 47.3101 333.602 47.3101C333.988 47.3101 334.348 47.2162 334.684 47.0285C335.02 46.8308 335.287 46.5541 335.485 46.1984C335.683 45.8327 335.781 45.3979 335.781 44.8939ZM341.811 38.0306V49H339.735V38.0306H341.811ZM345.773 38.0306V49H343.698V38.0306H345.773Z" fill="#F9F9F9"/>
</g>
<defs>
<filter id="filter0_d_780_20092" x="0" y="0" width="395.941" height="88" filterUnits="userSpaceOnUse" color-interpolation-filters="sRGB">
<feFlood flood-opacity="0" result="BackgroundImageFix"/>
<feColorMatrix in="SourceAlpha" type="matrix" values="0 0 0 0 0 0 0 0 0 0 0 0 0 0 0 0 0 0 127 0" result="hardAlpha"/>
<feMorphology radius="8" operator="dilate" in="SourceAlpha" result="effect1_dropShadow_780_20092"/>
<feOffset/>
<feComposite in2="hardAlpha" operator="out"/>
<feColorMatrix type="matrix" values="0 0 0 0 0.350753 0 0 0 0 0 0 0 0 0 0.915007 0 0 0 0.09 0"/>
<feBlend mode="normal" in2="BackgroundImageFix" result="effect1_dropShadow_780_20092"/>
<feBlend mode="normal" in="SourceGraphic" in2="effect1_dropShadow_780_20092" result="shape"/>
</filter>
</defs>
</svg>
