<svg width="364" height="223" viewBox="0 0 364 223" fill="none" xmlns="http://www.w3.org/2000/svg">
<g filter="url(#filter0_dd_780_20136)">
<mask id="path-1-inside-1_780_20136" fill="white">
<path d="M86 66C86 60.4772 90.4772 56 96 56H293.471C298.993 56 303.471 60.4772 303.471 66V122C303.471 127.523 298.993 132 293.471 132H96C90.4771 132 86 127.523 86 122V66Z"/>
</mask>
<path d="M86 66C86 60.4772 90.4772 56 96 56H293.471C298.993 56 303.471 60.4772 303.471 66V122C303.471 127.523 298.993 132 293.471 132H96C90.4771 132 86 127.523 86 122V66Z" fill="white" shape-rendering="crispEdges"/>
<path d="M86 56H303.471H86ZM303.471 122C303.471 128.017 298.593 132.895 292.576 132.895H96.8948C90.8778 132.895 86 128.017 86 122C86 127.029 90.4772 131.105 96 131.105H293.471C298.993 131.105 303.471 127.029 303.471 122ZM86 132V56V132ZM303.471 56V132V56Z" fill="black" mask="url(#path-1-inside-1_780_20136)"/>
<rect x="107.059" y="75.344" width="175.353" height="44.4706" rx="7.41176" fill="black"/>
<rect x="107.059" y="75.344" width="175.353" height="44.4706" rx="7.41176" stroke="black" stroke-width="2.11765"/>
<path d="M133.598 95.8008L137.767 99.9699L141.936 95.8008" stroke="#F9F9F9" stroke-width="2.11765" stroke-linecap="round" stroke-linejoin="round"/>
<path d="M137.762 88.8438V99.9614" stroke="#F9F9F9" stroke-width="2.11765" stroke-linecap="round" stroke-linejoin="round"/>
<path d="M146.498 99.9648V105.524C146.498 105.734 146.414 105.936 146.265 106.085C146.116 106.234 145.914 106.318 145.704 106.318H129.821C129.611 106.318 129.409 106.234 129.26 106.085C129.111 105.936 129.027 105.734 129.027 105.524V99.9648" stroke="#F9F9F9" stroke-width="2.11765" stroke-linecap="round" stroke-linejoin="round"/>
<path d="M163.581 92.2313C164.668 92.2313 165.622 92.4438 166.442 92.8687C167.272 93.2937 167.91 93.9014 168.354 94.692C168.809 95.4727 169.036 96.3819 169.036 97.4195C169.036 98.4572 168.809 99.3664 168.354 100.147C167.91 100.918 167.272 101.516 166.442 101.941C165.622 102.366 164.668 102.578 163.581 102.578H159.964V92.2313H163.581ZM163.507 100.814C164.594 100.814 165.434 100.518 166.027 99.9247C166.62 99.3318 166.916 98.4967 166.916 97.4195C166.916 96.3424 166.62 95.5024 166.027 94.8995C165.434 94.2868 164.594 93.9805 163.507 93.9805H162.04V100.814H163.507ZM174.073 102.712C173.283 102.712 172.571 102.539 171.939 102.193C171.306 101.837 170.807 101.338 170.441 100.696C170.086 100.053 169.908 99.312 169.908 98.472C169.908 97.632 170.091 96.8908 170.456 96.2485C170.832 95.6061 171.341 95.112 171.983 94.7661C172.625 94.4104 173.342 94.2325 174.133 94.2325C174.923 94.2325 175.64 94.4104 176.282 94.7661C176.924 95.112 177.428 95.6061 177.794 96.2485C178.169 96.8908 178.357 97.632 178.357 98.472C178.357 99.312 178.165 100.053 177.779 100.696C177.404 101.338 176.89 101.837 176.237 102.193C175.595 102.539 174.874 102.712 174.073 102.712ZM174.073 100.903C174.449 100.903 174.8 100.814 175.126 100.636C175.462 100.448 175.729 100.172 175.926 99.8061C176.124 99.4405 176.223 98.9958 176.223 98.472C176.223 97.6913 176.015 97.0934 175.6 96.6784C175.195 96.2534 174.696 96.0409 174.103 96.0409C173.51 96.0409 173.011 96.2534 172.606 96.6784C172.21 97.0934 172.013 97.6913 172.013 98.472C172.013 99.2527 172.205 99.8555 172.591 100.28C172.986 100.696 173.48 100.903 174.073 100.903ZM191.101 94.3659L188.7 102.578H186.461L184.964 96.8414L183.467 102.578H181.214L178.797 94.3659H180.902L182.355 100.621L183.926 94.3659H186.12L187.662 100.607L189.115 94.3659H191.101ZM196.612 94.2473C197.59 94.2473 198.381 94.5586 198.983 95.1812C199.586 95.7939 199.888 96.6537 199.888 97.7605V102.578H197.812V98.0421C197.812 97.3899 197.649 96.8908 197.323 96.5449C196.997 96.1892 196.552 96.0113 195.989 96.0113C195.416 96.0113 194.961 96.1892 194.625 96.5449C194.299 96.8908 194.136 97.3899 194.136 98.0421V102.578H192.061V94.3659H194.136V95.3887C194.413 95.0329 194.764 94.7562 195.189 94.5586C195.623 94.3511 196.098 94.2473 196.612 94.2473ZM203.773 91.6087V102.578H201.698V91.6087H203.773ZM209.307 102.712C208.517 102.712 207.805 102.539 207.173 102.193C206.54 101.837 206.041 101.338 205.675 100.696C205.32 100.053 205.142 99.312 205.142 98.472C205.142 97.632 205.325 96.8908 205.69 96.2485C206.066 95.6061 206.575 95.112 207.217 94.7661C207.859 94.4104 208.576 94.2325 209.367 94.2325C210.157 94.2325 210.874 94.4104 211.516 94.7661C212.158 95.112 212.662 95.6061 213.028 96.2485C213.403 96.8908 213.591 97.632 213.591 98.472C213.591 99.312 213.399 100.053 213.013 100.696C212.638 101.338 212.124 101.837 211.471 102.193C210.829 102.539 210.108 102.712 209.307 102.712ZM209.307 100.903C209.683 100.903 210.034 100.814 210.36 100.636C210.696 100.448 210.963 100.172 211.16 99.8061C211.358 99.4405 211.457 98.9958 211.457 98.472C211.457 97.6913 211.249 97.0934 210.834 96.6784C210.429 96.2534 209.93 96.0409 209.337 96.0409C208.744 96.0409 208.245 96.2534 207.84 96.6784C207.444 97.0934 207.247 97.6913 207.247 98.472C207.247 99.2527 207.439 99.8555 207.825 100.28C208.22 100.696 208.714 100.903 209.307 100.903ZM214.417 98.4424C214.417 97.6122 214.58 96.876 214.906 96.2337C215.242 95.5913 215.692 95.0972 216.255 94.7513C216.828 94.4054 217.466 94.2325 218.167 94.2325C218.78 94.2325 219.314 94.356 219.768 94.6031C220.233 94.8501 220.603 95.1614 220.88 95.5369V94.3659H222.97V102.578H220.88V101.377C220.613 101.763 220.242 102.084 219.768 102.341C219.304 102.588 218.765 102.712 218.152 102.712C217.461 102.712 216.828 102.534 216.255 102.178C215.692 101.822 215.242 101.323 214.906 100.681C214.58 100.028 214.417 99.2824 214.417 98.4424ZM220.88 98.472C220.88 97.968 220.781 97.5381 220.583 97.1824C220.386 96.8167 220.119 96.54 219.783 96.3522C219.447 96.1546 219.086 96.0558 218.701 96.0558C218.315 96.0558 217.96 96.1497 217.634 96.3374C217.307 96.5252 217.041 96.8019 216.833 97.1675C216.635 97.5233 216.537 97.9482 216.537 98.4424C216.537 98.9365 216.635 99.3713 216.833 99.7468C217.041 100.112 217.307 100.394 217.634 100.592C217.97 100.789 218.325 100.888 218.701 100.888C219.086 100.888 219.447 100.794 219.783 100.607C220.119 100.409 220.386 100.132 220.583 99.7765C220.781 99.4108 220.88 98.976 220.88 98.472ZM224.3 98.4424C224.3 97.6122 224.463 96.876 224.789 96.2337C225.125 95.5913 225.58 95.0972 226.153 94.7513C226.726 94.4054 227.364 94.2325 228.065 94.2325C228.599 94.2325 229.108 94.3511 229.592 94.5882C230.076 94.8155 230.462 95.1219 230.748 95.5073V91.6087H232.853V102.578H230.748V101.363C230.491 101.768 230.131 102.094 229.666 102.341C229.202 102.588 228.663 102.712 228.051 102.712C227.359 102.712 226.726 102.534 226.153 102.178C225.58 101.822 225.125 101.323 224.789 100.681C224.463 100.028 224.3 99.2824 224.3 98.4424ZM230.763 98.472C230.763 97.968 230.664 97.5381 230.467 97.1824C230.269 96.8167 230.002 96.54 229.666 96.3522C229.33 96.1546 228.97 96.0558 228.584 96.0558C228.199 96.0558 227.843 96.1497 227.517 96.3374C227.191 96.5252 226.924 96.8019 226.716 97.1675C226.519 97.5233 226.42 97.9482 226.42 98.4424C226.42 98.9365 226.519 99.3713 226.716 99.7468C226.924 100.112 227.191 100.394 227.517 100.592C227.853 100.789 228.209 100.888 228.584 100.888C228.97 100.888 229.33 100.794 229.666 100.607C230.002 100.409 230.269 100.132 230.467 99.7765C230.664 99.4108 230.763 98.976 230.763 98.472ZM237.553 98.4424C237.553 97.6122 237.716 96.876 238.042 96.2337C238.378 95.5913 238.827 95.0972 239.391 94.7513C239.964 94.4054 240.601 94.2325 241.303 94.2325C241.916 94.2325 242.449 94.356 242.904 94.6031C243.368 94.8501 243.739 95.1614 244.016 95.5369V94.3659H246.106V102.578H244.016V101.377C243.749 101.763 243.378 102.084 242.904 102.341C242.439 102.588 241.901 102.712 241.288 102.712C240.596 102.712 239.964 102.534 239.391 102.178C238.827 101.822 238.378 101.323 238.042 100.681C237.716 100.028 237.553 99.2824 237.553 98.4424ZM244.016 98.472C244.016 97.968 243.917 97.5381 243.719 97.1824C243.522 96.8167 243.255 96.54 242.919 96.3522C242.583 96.1546 242.222 96.0558 241.837 96.0558C241.451 96.0558 241.095 96.1497 240.769 96.3374C240.443 96.5252 240.176 96.8019 239.969 97.1675C239.771 97.5233 239.672 97.9482 239.672 98.4424C239.672 98.9365 239.771 99.3713 239.969 99.7468C240.176 100.112 240.443 100.394 240.769 100.592C241.105 100.789 241.461 100.888 241.837 100.888C242.222 100.888 242.583 100.794 242.919 100.607C243.255 100.409 243.522 100.132 243.719 99.7765C243.917 99.4108 244.016 98.976 244.016 98.472ZM250.045 91.6087V102.578H247.97V91.6087H250.045ZM254.008 91.6087V102.578H251.932V91.6087H254.008Z" fill="#F9F9F9"/>
</g>
<defs>
<filter id="filter0_dd_780_20136" x="0.780334" y="0.681973" width="362.99" height="221.521" filterUnits="userSpaceOnUse" color-interpolation-filters="sRGB">
<feFlood flood-opacity="0" result="BackgroundImageFix"/>
<feColorMatrix in="SourceAlpha" type="matrix" values="0 0 0 0 0 0 0 0 0 0 0 0 0 0 0 0 0 0 127 0" result="hardAlpha"/>
<feOffset dx="-12.459" dy="17.4426"/>
<feGaussianBlur stdDeviation="36.3803"/>
<feComposite in2="hardAlpha" operator="out"/>
<feColorMatrix type="matrix" values="0 0 0 0 0.0444481 0 0 0 0 0 0 0 0 0 0.888965 0 0 0 0.07 0"/>
<feBlend mode="normal" in2="BackgroundImageFix" result="effect1_dropShadow_780_20136"/>
<feColorMatrix in="SourceAlpha" type="matrix" values="0 0 0 0 0 0 0 0 0 0 0 0 0 0 0 0 0 0 127 0" result="hardAlpha"/>
<feOffset dx="-12.459" dy="17.4426"/>
<feGaussianBlur stdDeviation="36.3803"/>
<feComposite in2="hardAlpha" operator="out"/>
<feColorMatrix type="matrix" values="0 0 0 0 0.0444481 0 0 0 0 0 0 0 0 0 0.888965 0 0 0 0.07 0"/>
<feBlend mode="normal" in2="effect1_dropShadow_780_20136" result="effect2_dropShadow_780_20136"/>
<feBlend mode="normal" in="SourceGraphic" in2="effect2_dropShadow_780_20136" result="shape"/>
</filter>
</defs>
</svg>
