<svg width="533" height="185" viewBox="0 0 533 185" fill="none" xmlns="http://www.w3.org/2000/svg">
<g filter="url(#filter0_d_780_19869)">
<rect x="12" y="12" width="741.201" height="161.599" rx="21" fill="white"/>
<rect x="12.3591" y="12.3591" width="740.483" height="160.881" rx="20.6409" stroke="#B1B1B1" stroke-width="0.718218"/>
<path d="M54.4341 119.083H45.7724V124.229C46.1343 123.746 46.6687 123.341 47.3754 123.013C48.0994 122.686 48.8664 122.522 49.6766 122.522C51.1245 122.522 52.2966 122.832 53.193 123.453C54.1066 124.074 54.753 124.858 55.1322 125.806C55.5286 126.754 55.7269 127.754 55.7269 128.805C55.7269 130.081 55.4769 131.218 54.977 132.218C54.4944 133.201 53.7618 133.976 52.7793 134.545C51.814 135.114 50.6246 135.398 49.2112 135.398C47.3323 135.398 45.8241 134.933 44.6864 134.002C43.5488 133.071 42.8679 131.839 42.6438 130.305H45.5138C45.7034 131.115 46.1257 131.761 46.7807 132.244C47.4358 132.709 48.2545 132.942 49.237 132.942C50.4609 132.942 51.3745 132.572 51.9778 131.83C52.5983 131.089 52.9086 130.107 52.9086 128.883C52.9086 127.642 52.5983 126.694 51.9778 126.039C51.3572 125.366 50.4436 125.03 49.237 125.03C48.3924 125.03 47.6771 125.246 47.091 125.677C46.5222 126.09 46.1085 126.659 45.8499 127.383H43.0575V116.498H54.4341V119.083ZM58.1488 131.468V129.245L66.8364 116.782H70.4045V128.909H72.8091V131.468H70.4045V135.398H67.5086V131.468H58.1488ZM67.6379 119.782L61.5359 128.909H67.6379V119.782ZM78.5869 131.856L75.4583 138.992H73.545L75.3807 131.856H78.5869ZM80.4901 125.728C80.4901 122.746 80.99 120.419 81.9897 118.747C83.0067 117.058 84.7477 116.213 87.2126 116.213C89.6775 116.213 91.4099 117.058 92.4096 118.747C93.4266 120.419 93.9351 122.746 93.9351 125.728C93.9351 128.745 93.4266 131.106 92.4096 132.813C91.4099 134.502 89.6775 135.347 87.2126 135.347C84.7477 135.347 83.0067 134.502 81.9897 132.813C80.99 131.106 80.4901 128.745 80.4901 125.728ZM91.0393 125.728C91.0393 124.332 90.9445 123.151 90.7549 122.186C90.5825 121.221 90.2205 120.437 89.6689 119.833C89.1173 119.213 88.2986 118.902 87.2126 118.902C86.1267 118.902 85.3079 119.213 84.7563 119.833C84.2047 120.437 83.8341 121.221 83.6445 122.186C83.4721 123.151 83.3859 124.332 83.3859 125.728C83.3859 127.176 83.4721 128.392 83.6445 129.374C83.8169 130.357 84.1789 131.149 84.7304 131.753C85.2993 132.356 86.1267 132.658 87.2126 132.658C88.2986 132.658 89.1173 132.356 89.6689 131.753C90.2377 131.149 90.6083 130.357 90.7807 129.374C90.9531 128.392 91.0393 127.176 91.0393 125.728ZM96.7696 125.728C96.7696 122.746 97.2694 120.419 98.2692 118.747C99.2862 117.058 101.027 116.213 103.492 116.213C105.957 116.213 107.689 117.058 108.689 118.747C109.706 120.419 110.215 122.746 110.215 125.728C110.215 128.745 109.706 131.106 108.689 132.813C107.689 134.502 105.957 135.347 103.492 135.347C101.027 135.347 99.2862 134.502 98.2692 132.813C97.2694 131.106 96.7696 128.745 96.7696 125.728ZM107.319 125.728C107.319 124.332 107.224 123.151 107.034 122.186C106.862 121.221 106.5 120.437 105.948 119.833C105.397 119.213 104.578 118.902 103.492 118.902C102.406 118.902 101.587 119.213 101.036 119.833C100.484 120.437 100.114 121.221 99.924 122.186C99.7516 123.151 99.6654 124.332 99.6654 125.728C99.6654 127.176 99.7516 128.392 99.924 129.374C100.096 130.357 100.458 131.149 101.01 131.753C101.579 132.356 102.406 132.658 103.492 132.658C104.578 132.658 105.397 132.356 105.948 131.753C106.517 131.149 106.888 130.357 107.06 129.374C107.233 128.392 107.319 127.176 107.319 125.728ZM113.049 125.728C113.049 122.746 113.549 120.419 114.549 118.747C115.566 117.058 117.307 116.213 119.772 116.213C122.236 116.213 123.969 117.058 124.969 118.747C125.986 120.419 126.494 122.746 126.494 125.728C126.494 128.745 125.986 131.106 124.969 132.813C123.969 134.502 122.236 135.347 119.772 135.347C117.307 135.347 115.566 134.502 114.549 132.813C113.549 131.106 113.049 128.745 113.049 125.728ZM123.598 125.728C123.598 124.332 123.503 123.151 123.314 122.186C123.141 121.221 122.779 120.437 122.228 119.833C121.676 119.213 120.858 118.902 119.772 118.902C118.686 118.902 117.867 119.213 117.315 119.833C116.764 120.437 116.393 121.221 116.203 122.186C116.031 123.151 115.945 124.332 115.945 125.728C115.945 127.176 116.031 128.392 116.203 129.374C116.376 130.357 116.738 131.149 117.289 131.753C117.858 132.356 118.686 132.658 119.772 132.658C120.858 132.658 121.676 132.356 122.228 131.753C122.797 131.149 123.167 130.357 123.34 129.374C123.512 128.392 123.598 127.176 123.598 125.728Z" fill="#686897"/>
<path d="M67.2466 146.409V147.21H65.6522V152.398H64.6697V147.21H63.0666V146.409H67.2466ZM70.2067 152.476C69.7585 152.476 69.3535 152.375 68.9915 152.174C68.6295 151.968 68.3451 151.68 68.1382 151.312C67.9314 150.939 67.828 150.508 67.828 150.02C67.828 149.537 67.9343 149.109 68.1469 148.736C68.3595 148.362 68.6496 148.075 69.0173 147.874C69.3851 147.673 69.7959 147.572 70.2498 147.572C70.7037 147.572 71.1145 147.673 71.4823 147.874C71.85 148.075 72.1402 148.362 72.3527 148.736C72.5653 149.109 72.6716 149.537 72.6716 150.02C72.6716 150.502 72.5625 150.93 72.3441 151.304C72.1258 151.677 71.827 151.968 71.4478 152.174C71.0743 152.375 70.6606 152.476 70.2067 152.476ZM70.2067 151.623C70.4595 151.623 70.6951 151.562 70.9134 151.442C71.1375 151.321 71.3185 151.14 71.4564 150.899C71.5943 150.657 71.6633 150.364 71.6633 150.02C71.6633 149.675 71.5972 149.385 71.465 149.149C71.3329 148.908 71.1576 148.727 70.9393 148.606C70.721 148.486 70.4854 148.425 70.2326 148.425C69.9798 148.425 69.7442 148.486 69.5258 148.606C69.3132 148.727 69.1437 148.908 69.0173 149.149C68.8909 149.385 68.8277 149.675 68.8277 150.02C68.8277 150.531 68.957 150.928 69.2156 151.209C69.4799 151.485 69.8103 151.623 70.2067 151.623ZM74.6944 148.451V151.08C74.6944 151.258 74.7346 151.387 74.815 151.468C74.9012 151.542 75.0449 151.58 75.246 151.58H75.8493V152.398H75.0736C74.6312 152.398 74.2922 152.295 74.0566 152.088C73.821 151.881 73.7032 151.545 73.7032 151.08V148.451H73.143V147.65H73.7032V146.469H74.6944V147.65H75.8493V148.451H74.6944ZM76.3325 150.002C76.3325 149.526 76.4302 149.103 76.6256 148.736C76.8267 148.368 77.0967 148.083 77.4357 147.882C77.7805 147.675 78.1597 147.572 78.5734 147.572C78.9468 147.572 79.2715 147.647 79.5473 147.796C79.8288 147.94 80.0529 148.121 80.2195 148.339V147.65H81.2107V152.398H80.2195V151.692C80.0529 151.916 79.8259 152.103 79.5387 152.252C79.2514 152.401 78.9239 152.476 78.5561 152.476C78.1482 152.476 77.7747 152.373 77.4357 152.166C77.0967 151.953 76.8267 151.66 76.6256 151.287C76.4302 150.907 76.3325 150.479 76.3325 150.002ZM80.2195 150.02C80.2195 149.692 80.1506 149.408 80.0127 149.166C79.8805 148.925 79.7053 148.741 79.4869 148.615C79.2686 148.488 79.033 148.425 78.7802 148.425C78.5274 148.425 78.2918 148.488 78.0735 148.615C77.8551 148.736 77.677 148.917 77.5391 149.158C77.407 149.393 77.3409 149.675 77.3409 150.002C77.3409 150.33 77.407 150.617 77.5391 150.864C77.677 151.111 77.8551 151.301 78.0735 151.433C78.2976 151.56 78.5331 151.623 78.7802 151.623C79.033 151.623 79.2686 151.56 79.4869 151.433C79.7053 151.307 79.8805 151.123 80.0127 150.882C80.1506 150.634 80.2195 150.347 80.2195 150.02ZM83.3889 146.021V152.398H82.4064V146.021H83.3889ZM87.7106 151.606H89.736V152.398H86.7281V146.409H87.7106V151.606ZM90.9627 147.02C90.7846 147.02 90.6352 146.96 90.5145 146.839C90.3939 146.719 90.3335 146.569 90.3335 146.391C90.3335 146.213 90.3939 146.064 90.5145 145.943C90.6352 145.822 90.7846 145.762 90.9627 145.762C91.1351 145.762 91.2816 145.822 91.4022 145.943C91.5229 146.064 91.5832 146.213 91.5832 146.391C91.5832 146.569 91.5229 146.719 91.4022 146.839C91.2816 146.96 91.1351 147.02 90.9627 147.02ZM91.4453 147.65V152.398H90.4628V147.65H91.4453ZM94.5193 150.028L96.7085 152.398H95.3812L93.623 150.356V152.398H92.6405V146.021H93.623V149.727L95.3467 147.65H96.7085L94.5193 150.028ZM101.67 149.908C101.67 150.086 101.659 150.247 101.636 150.39H98.0074C98.0361 150.77 98.1769 151.074 98.4297 151.304C98.6825 151.534 98.9928 151.649 99.3605 151.649C99.8891 151.649 100.263 151.427 100.481 150.985H101.541C101.397 151.422 101.136 151.781 100.757 152.062C100.383 152.338 99.9179 152.476 99.3605 152.476C98.9066 152.476 98.4987 152.375 98.1367 152.174C97.7804 151.968 97.4989 151.68 97.292 151.312C97.0909 150.939 96.9904 150.508 96.9904 150.02C96.9904 149.531 97.0881 149.103 97.2834 148.736C97.4845 148.362 97.7632 148.075 98.1194 147.874C98.4814 147.673 98.8951 147.572 99.3605 147.572C99.8087 147.572 100.208 147.67 100.559 147.865C100.909 148.06 101.182 148.336 101.377 148.692C101.573 149.043 101.67 149.448 101.67 149.908ZM100.645 149.597C100.639 149.235 100.51 148.945 100.257 148.727C100.004 148.509 99.6909 148.399 99.3174 148.399C98.9784 148.399 98.6883 148.509 98.4469 148.727C98.2056 148.94 98.062 149.23 98.016 149.597H100.645ZM104.266 152.476C103.893 152.476 103.557 152.41 103.258 152.278C102.965 152.14 102.732 151.956 102.56 151.726C102.387 151.491 102.295 151.229 102.284 150.942H103.301C103.318 151.143 103.413 151.312 103.585 151.45C103.763 151.583 103.985 151.649 104.249 151.649C104.525 151.649 104.737 151.597 104.887 151.493C105.042 151.384 105.119 151.246 105.119 151.08C105.119 150.902 105.033 150.77 104.861 150.683C104.694 150.597 104.427 150.502 104.059 150.399C103.703 150.301 103.413 150.206 103.189 150.115C102.965 150.023 102.769 149.882 102.603 149.692C102.442 149.503 102.361 149.253 102.361 148.942C102.361 148.69 102.436 148.46 102.585 148.253C102.735 148.04 102.947 147.874 103.223 147.753C103.505 147.632 103.827 147.572 104.189 147.572C104.729 147.572 105.162 147.71 105.49 147.986C105.823 148.256 106.001 148.626 106.024 149.098H105.042C105.025 148.885 104.938 148.715 104.783 148.589C104.628 148.463 104.418 148.399 104.154 148.399C103.896 148.399 103.697 148.448 103.559 148.546C103.422 148.644 103.353 148.773 103.353 148.934C103.353 149.06 103.399 149.166 103.49 149.253C103.582 149.339 103.694 149.408 103.827 149.459C103.959 149.505 104.154 149.566 104.413 149.64C104.757 149.732 105.039 149.827 105.257 149.925C105.481 150.017 105.674 150.155 105.835 150.339C105.996 150.522 106.079 150.767 106.085 151.071C106.085 151.341 106.01 151.583 105.861 151.795C105.711 152.008 105.499 152.174 105.223 152.295C104.953 152.416 104.634 152.476 104.266 152.476Z" fill="#686897"/>
<path d="M46.5558 89.5026L45.7578 87.5358V130.509H117.58V102.389L116.782 103.119C115.984 103.849 114.388 105.31 112.791 102.963C111.195 100.616 109.599 94.4601 108.003 91.2146C106.407 87.969 104.811 87.6335 103.215 89.0583C101.619 90.483 100.023 93.668 98.4271 95.4107C96.8311 97.1534 95.235 97.4537 93.639 98.7428C92.043 100.032 90.4469 102.31 88.8509 100.854C87.2548 99.3981 85.6588 94.2088 84.0628 91.3796C82.4667 88.5504 80.8707 88.0815 79.2746 89.4761C77.6786 90.8708 76.0826 94.1292 74.4865 93.9414C72.8905 93.7536 71.2944 90.1197 69.6984 87.7111C68.1024 85.3026 66.5063 84.1195 64.9103 84.6806C63.3142 85.2417 61.7182 87.547 60.1222 88.0371C58.5261 88.5272 56.9301 87.202 55.3341 88.7827C53.738 90.3634 52.142 94.8499 50.5459 95.1264C48.9499 95.4028 47.3539 91.4693 46.5558 89.5026Z" fill="url(#paint0_linear_780_19869)"/>
<path d="M45.7578 87.489L46.5558 89.4251C47.3539 91.3611 48.9499 95.2332 50.5459 94.961C52.142 94.6888 53.738 90.2724 55.334 88.7165C56.9301 87.1605 58.5261 88.4649 60.1222 87.9825C61.7182 87.5001 63.3142 85.2308 64.9103 84.6784C66.5063 84.1261 68.1024 85.2907 69.6984 87.6616C71.2944 90.0325 72.8905 93.6097 74.4865 93.7946C76.0826 93.9794 77.6786 90.772 79.2746 89.3991C80.8707 88.0262 82.4667 88.4878 84.0628 91.2728C85.6588 94.0577 87.2548 99.166 88.8509 100.599C90.4469 102.032 92.043 99.7899 93.639 98.521C95.235 97.252 96.8311 96.9563 98.4271 95.2409C100.023 93.5254 101.619 90.3902 103.215 88.9877C104.811 87.5852 106.407 87.9155 108.003 91.1103C109.599 94.3052 111.195 100.365 112.791 102.675C114.388 104.986 115.984 103.548 116.782 102.829L117.58 102.11" stroke="#18A0FB" stroke-width="1.07733" stroke-linecap="round" stroke-linejoin="round"/>
<path d="M70.0967 71.1696H68.3557V72.9536H67.4422V71.1696H65.7012V70.3422H67.4422V68.5581H68.3557V70.3422H70.0967V71.1696ZM71.9399 72.5313C72.4915 72.0544 72.9253 71.6637 73.2413 71.3592C73.5631 71.0489 73.8303 70.7271 74.0429 70.3939C74.2555 70.0606 74.3618 69.7274 74.3618 69.3941C74.3618 69.0494 74.2785 68.7793 74.1118 68.584C73.9509 68.3886 73.6953 68.2909 73.3448 68.2909C73.0058 68.2909 72.7415 68.4001 72.5519 68.6185C72.368 68.831 72.2703 69.1183 72.2588 69.4803H71.3108C71.328 68.8253 71.5234 68.3254 71.8968 67.9807C72.2761 67.6302 72.7558 67.4549 73.3362 67.4549C73.9624 67.4549 74.4508 67.6273 74.8013 67.9721C75.1576 68.3168 75.3357 68.7765 75.3357 69.351C75.3357 69.7647 75.2294 70.1641 75.0168 70.549C74.8099 70.9282 74.56 71.2701 74.267 71.5746C73.9797 71.8734 73.6119 72.221 73.1638 72.6175L72.7759 72.9622H75.508V73.781H71.3194V73.0657L71.9399 72.5313ZM76.8021 73.9275C76.624 73.9275 76.4746 73.8672 76.3539 73.7465C76.2333 73.6259 76.173 73.4765 76.173 73.2984C76.173 73.1202 76.2333 72.9709 76.3539 72.8502C76.4746 72.7295 76.624 72.6692 76.8021 72.6692C76.9745 72.6692 77.121 72.7295 77.2417 72.8502C77.3623 72.9709 77.4227 73.1202 77.4227 73.2984C77.4227 73.4765 77.3623 73.6259 77.2417 73.7465C77.121 73.8672 76.9745 73.9275 76.8021 73.9275ZM82.3112 68.4288H79.424V70.1439C79.5446 69.9831 79.7228 69.848 79.9583 69.7389C80.1997 69.6297 80.4554 69.5751 80.7254 69.5751C81.208 69.5751 81.5988 69.6785 81.8975 69.8854C82.2021 70.0922 82.4175 70.3537 82.5439 70.6697C82.6761 70.9857 82.7422 71.319 82.7422 71.6694C82.7422 72.0946 82.6588 72.4738 82.4922 72.8071C82.3313 73.1346 82.0871 73.3932 81.7596 73.5828C81.4379 73.7724 81.0414 73.8672 80.5703 73.8672C79.944 73.8672 79.4412 73.7121 79.062 73.4018C78.6828 73.0915 78.4558 72.6807 78.3811 72.1693H79.3378C79.401 72.4394 79.5418 72.6548 79.7601 72.8157C79.9785 72.9709 80.2514 73.0484 80.5789 73.0484C80.9868 73.0484 81.2914 72.9249 81.4925 72.6778C81.6993 72.4308 81.8027 72.1032 81.8027 71.6953C81.8027 71.2816 81.6993 70.9656 81.4925 70.7472C81.2856 70.5232 80.9811 70.4111 80.5789 70.4111C80.2973 70.4111 80.0589 70.4829 79.8635 70.6266C79.6739 70.7645 79.536 70.9541 79.4498 71.1954H78.519V67.567H82.3112V68.4288ZM83.515 69.1011C83.515 68.6817 83.6357 68.3541 83.877 68.1186C84.1241 67.8773 84.4401 67.7566 84.825 67.7566C85.21 67.7566 85.5231 67.8773 85.7645 68.1186C86.0115 68.3541 86.1351 68.6817 86.1351 69.1011C86.1351 69.5205 86.0115 69.8509 85.7645 70.0922C85.5231 70.3336 85.21 70.4542 84.825 70.4542C84.4401 70.4542 84.1241 70.3336 83.877 70.0922C83.6357 69.8509 83.515 69.5205 83.515 69.1011ZM88.7724 67.8686L85.3335 73.8672H84.3682L87.8071 67.8686H88.7724ZM84.825 68.3513C84.4631 68.3513 84.2821 68.6012 84.2821 69.1011C84.2821 69.6067 84.4631 69.8595 84.825 69.8595C84.9974 69.8595 85.1296 69.7992 85.2215 69.6785C85.3192 69.5521 85.368 69.3597 85.368 69.1011C85.368 68.6012 85.187 68.3513 84.825 68.3513ZM87.0228 72.6261C87.0228 72.2067 87.1434 71.8792 87.3848 71.6436C87.6318 71.4023 87.9478 71.2816 88.3328 71.2816C88.712 71.2816 89.0223 71.4023 89.2636 71.6436C89.5107 71.8792 89.6342 72.2067 89.6342 72.6261C89.6342 73.0455 89.5107 73.3759 89.2636 73.6172C89.0223 73.8586 88.712 73.9792 88.3328 73.9792C87.9478 73.9792 87.6318 73.8586 87.3848 73.6172C87.1434 73.3759 87.0228 73.0455 87.0228 72.6261ZM88.3242 71.8763C87.9622 71.8763 87.7812 72.1262 87.7812 72.6261C87.7812 73.126 87.9622 73.3759 88.3242 73.3759C88.6862 73.3759 88.8672 73.126 88.8672 72.6261C88.8672 72.1262 88.6862 71.8763 88.3242 71.8763Z" fill="#00DB30"/>
<path d="M95.8456 68.3671L98.0676 72.0005C98.0864 72.0311 98.0968 72.0662 98.0976 72.1021C98.0984 72.1381 98.0896 72.1735 98.0721 72.2049C98.0546 72.2363 98.029 72.2625 97.9981 72.2807C97.9671 72.2989 97.9318 72.3086 97.8959 72.3086L93.4519 72.3086C93.416 72.3086 93.3807 72.2989 93.3497 72.2807C93.3187 72.2625 93.2932 72.2363 93.2757 72.2049C93.2582 72.1735 93.2494 72.1381 93.2502 72.1021C93.251 72.0662 93.2613 72.0311 93.2802 72.0005L95.5022 68.3671C95.5198 68.3373 95.545 68.3125 95.5751 68.2954C95.6052 68.2782 95.6392 68.2692 95.6739 68.2692C95.7086 68.2692 95.7426 68.2782 95.7727 68.2954C95.8028 68.3125 95.8279 68.3373 95.8456 68.3671Z" fill="#00ED34" stroke="#00ED34" stroke-width="1.07733" stroke-linecap="round" stroke-linejoin="round"/>
<path d="M244.422 119.083H235.761V124.229C236.123 123.746 236.657 123.341 237.364 123.013C238.088 122.686 238.855 122.522 239.665 122.522C241.113 122.522 242.285 122.832 243.181 123.453C244.095 124.074 244.741 124.858 245.12 125.806C245.517 126.754 245.715 127.754 245.715 128.805C245.715 130.081 245.465 131.218 244.965 132.218C244.483 133.201 243.75 133.976 242.768 134.545C241.802 135.114 240.613 135.398 239.199 135.398C237.321 135.398 235.812 134.933 234.675 134.002C233.537 133.071 232.856 131.839 232.632 130.305H235.502C235.692 131.115 236.114 131.761 236.769 132.244C237.424 132.709 238.243 132.942 239.225 132.942C240.449 132.942 241.363 132.572 241.966 131.83C242.587 131.089 242.897 130.107 242.897 128.883C242.897 127.642 242.587 126.694 241.966 126.039C241.346 125.366 240.432 125.03 239.225 125.03C238.381 125.03 237.665 125.246 237.079 125.677C236.51 126.09 236.097 126.659 235.838 127.383H233.046V116.498H244.422V119.083ZM248.137 131.468V129.245L256.825 116.782H260.393V128.909H262.797V131.468H260.393V135.398H257.497V131.468H248.137ZM257.626 119.782L251.524 128.909H257.626V119.782ZM268.575 131.856L265.447 138.992H263.533L265.369 131.856H268.575ZM270.478 125.728C270.478 122.746 270.978 120.419 271.978 118.747C272.995 117.058 274.736 116.213 277.201 116.213C279.666 116.213 281.398 117.058 282.398 118.747C283.415 120.419 283.923 122.746 283.923 125.728C283.923 128.745 283.415 131.106 282.398 132.813C281.398 134.502 279.666 135.347 277.201 135.347C274.736 135.347 272.995 134.502 271.978 132.813C270.978 131.106 270.478 128.745 270.478 125.728ZM281.028 125.728C281.028 124.332 280.933 123.151 280.743 122.186C280.571 121.221 280.209 120.437 279.657 119.833C279.106 119.213 278.287 118.902 277.201 118.902C276.115 118.902 275.296 119.213 274.745 119.833C274.193 120.437 273.822 121.221 273.633 122.186C273.46 123.151 273.374 124.332 273.374 125.728C273.374 127.176 273.46 128.392 273.633 129.374C273.805 130.357 274.167 131.149 274.719 131.753C275.288 132.356 276.115 132.658 277.201 132.658C278.287 132.658 279.106 132.356 279.657 131.753C280.226 131.149 280.597 130.357 280.769 129.374C280.941 128.392 281.028 127.176 281.028 125.728ZM286.758 125.728C286.758 122.746 287.258 120.419 288.257 118.747C289.274 117.058 291.015 116.213 293.48 116.213C295.945 116.213 297.678 117.058 298.677 118.747C299.694 120.419 300.203 122.746 300.203 125.728C300.203 128.745 299.694 131.106 298.677 132.813C297.678 134.502 295.945 135.347 293.48 135.347C291.015 135.347 289.274 134.502 288.257 132.813C287.258 131.106 286.758 128.745 286.758 125.728ZM297.307 125.728C297.307 124.332 297.212 123.151 297.023 122.186C296.85 121.221 296.488 120.437 295.937 119.833C295.385 119.213 294.566 118.902 293.48 118.902C292.394 118.902 291.576 119.213 291.024 119.833C290.472 120.437 290.102 121.221 289.912 122.186C289.74 123.151 289.654 124.332 289.654 125.728C289.654 127.176 289.74 128.392 289.912 129.374C290.085 130.357 290.447 131.149 290.998 131.753C291.567 132.356 292.394 132.658 293.48 132.658C294.566 132.658 295.385 132.356 295.937 131.753C296.506 131.149 296.876 130.357 297.048 129.374C297.221 128.392 297.307 127.176 297.307 125.728ZM303.037 125.728C303.037 122.746 303.537 120.419 304.537 118.747C305.554 117.058 307.295 116.213 309.76 116.213C312.225 116.213 313.957 117.058 314.957 118.747C315.974 120.419 316.482 122.746 316.482 125.728C316.482 128.745 315.974 131.106 314.957 132.813C313.957 134.502 312.225 135.347 309.76 135.347C307.295 135.347 305.554 134.502 304.537 132.813C303.537 131.106 303.037 128.745 303.037 125.728ZM313.587 125.728C313.587 124.332 313.492 123.151 313.302 122.186C313.13 121.221 312.768 120.437 312.216 119.833C311.665 119.213 310.846 118.902 309.76 118.902C308.674 118.902 307.855 119.213 307.304 119.833C306.752 120.437 306.381 121.221 306.192 122.186C306.019 123.151 305.933 124.332 305.933 125.728C305.933 127.176 306.019 128.392 306.192 129.374C306.364 130.357 306.726 131.149 307.278 131.753C307.847 132.356 308.674 132.658 309.76 132.658C310.846 132.658 311.665 132.356 312.216 131.753C312.785 131.149 313.156 130.357 313.328 129.374C313.5 128.392 313.587 127.176 313.587 125.728Z" fill="#686897"/>
<path d="M250.235 146.409V147.21H248.64V152.398H247.658V147.21H246.055V146.409H250.235ZM253.195 152.476C252.747 152.476 252.342 152.375 251.98 152.174C251.618 151.968 251.333 151.68 251.127 151.312C250.92 150.939 250.816 150.508 250.816 150.02C250.816 149.537 250.923 149.109 251.135 148.736C251.348 148.362 251.638 148.075 252.006 147.874C252.373 147.673 252.784 147.572 253.238 147.572C253.692 147.572 254.103 147.673 254.471 147.874C254.838 148.075 255.128 148.362 255.341 148.736C255.554 149.109 255.66 149.537 255.66 150.02C255.66 150.502 255.551 150.93 255.332 151.304C255.114 151.677 254.815 151.968 254.436 152.174C254.063 152.375 253.649 152.476 253.195 152.476ZM253.195 151.623C253.448 151.623 253.683 151.562 253.902 151.442C254.126 151.321 254.307 151.14 254.445 150.899C254.583 150.657 254.652 150.364 254.652 150.02C254.652 149.675 254.585 149.385 254.453 149.149C254.321 148.908 254.146 148.727 253.928 148.606C253.709 148.486 253.474 148.425 253.221 148.425C252.968 148.425 252.732 148.486 252.514 148.606C252.302 148.727 252.132 148.908 252.006 149.149C251.879 149.385 251.816 149.675 251.816 150.02C251.816 150.531 251.945 150.928 252.204 151.209C252.468 151.485 252.799 151.623 253.195 151.623ZM257.683 148.451V151.08C257.683 151.258 257.723 151.387 257.803 151.468C257.89 151.542 258.033 151.58 258.234 151.58H258.838V152.398H258.062C257.619 152.398 257.28 152.295 257.045 152.088C256.809 151.881 256.692 151.545 256.692 151.08V148.451H256.131V147.65H256.692V146.469H257.683V147.65H258.838V148.451H257.683ZM259.321 150.002C259.321 149.526 259.418 149.103 259.614 148.736C259.815 148.368 260.085 148.083 260.424 147.882C260.769 147.675 261.148 147.572 261.562 147.572C261.935 147.572 262.26 147.647 262.536 147.796C262.817 147.94 263.041 148.121 263.208 148.339V147.65H264.199V152.398H263.208V151.692C263.041 151.916 262.814 152.103 262.527 152.252C262.24 152.401 261.912 152.476 261.544 152.476C261.136 152.476 260.763 152.373 260.424 152.166C260.085 151.953 259.815 151.66 259.614 151.287C259.418 150.907 259.321 150.479 259.321 150.002ZM263.208 150.02C263.208 149.692 263.139 149.408 263.001 149.166C262.869 148.925 262.694 148.741 262.475 148.615C262.257 148.488 262.021 148.425 261.768 148.425C261.516 148.425 261.28 148.488 261.062 148.615C260.843 148.736 260.665 148.917 260.527 149.158C260.395 149.393 260.329 149.675 260.329 150.002C260.329 150.33 260.395 150.617 260.527 150.864C260.665 151.111 260.843 151.301 261.062 151.433C261.286 151.56 261.521 151.623 261.768 151.623C262.021 151.623 262.257 151.56 262.475 151.433C262.694 151.307 262.869 151.123 263.001 150.882C263.139 150.634 263.208 150.347 263.208 150.02ZM266.377 146.021V152.398H265.395V146.021H266.377ZM272.828 152.398L271.449 150.002H270.699V152.398H269.716V146.409H271.785C272.244 146.409 272.632 146.489 272.948 146.65C273.27 146.811 273.509 147.026 273.664 147.296C273.825 147.566 273.905 147.868 273.905 148.201C273.905 148.592 273.79 148.948 273.56 149.27C273.336 149.586 272.989 149.801 272.517 149.916L274 152.398H272.828ZM270.699 149.218H271.785C272.153 149.218 272.428 149.126 272.612 148.942C272.802 148.759 272.897 148.511 272.897 148.201C272.897 147.891 272.805 147.65 272.621 147.477C272.437 147.299 272.158 147.21 271.785 147.21H270.699V149.218ZM279.419 149.908C279.419 150.086 279.408 150.247 279.385 150.39H275.757C275.785 150.77 275.926 151.074 276.179 151.304C276.432 151.534 276.742 151.649 277.11 151.649C277.638 151.649 278.012 151.427 278.23 150.985H279.29C279.147 151.422 278.885 151.781 278.506 152.062C278.132 152.338 277.667 152.476 277.11 152.476C276.656 152.476 276.248 152.375 275.886 152.174C275.53 151.968 275.248 151.68 275.041 151.312C274.84 150.939 274.74 150.508 274.74 150.02C274.74 149.531 274.837 149.103 275.033 148.736C275.234 148.362 275.512 148.075 275.869 147.874C276.231 147.673 276.644 147.572 277.11 147.572C277.558 147.572 277.957 147.67 278.308 147.865C278.658 148.06 278.931 148.336 279.126 148.692C279.322 149.043 279.419 149.448 279.419 149.908ZM278.394 149.597C278.388 149.235 278.259 148.945 278.006 148.727C277.753 148.509 277.44 148.399 277.067 148.399C276.728 148.399 276.437 148.509 276.196 148.727C275.955 148.94 275.811 149.23 275.765 149.597H278.394ZM281.438 148.451V151.08C281.438 151.258 281.478 151.387 281.559 151.468C281.645 151.542 281.788 151.58 281.989 151.58H282.593V152.398H281.817C281.375 152.398 281.036 152.295 280.8 152.088C280.564 151.881 280.447 151.545 280.447 151.08V148.451H279.887V147.65H280.447V146.469H281.438V147.65H282.593V148.451H281.438ZM289.781 147.65L288.307 152.398H287.273L286.317 148.891L285.36 152.398H284.326L282.843 147.65H283.843L284.834 151.468L285.843 147.65H286.868L287.833 151.45L288.816 147.65H289.781ZM294.773 149.908C294.773 150.086 294.762 150.247 294.739 150.39H291.11C291.139 150.77 291.28 151.074 291.533 151.304C291.785 151.534 292.096 151.649 292.463 151.649C292.992 151.649 293.365 151.427 293.584 150.985H294.644C294.5 151.422 294.239 151.781 293.86 152.062C293.486 152.338 293.021 152.476 292.463 152.476C292.009 152.476 291.601 152.375 291.24 152.174C290.883 151.968 290.602 151.68 290.395 151.312C290.194 150.939 290.093 150.508 290.093 150.02C290.093 149.531 290.191 149.103 290.386 148.736C290.587 148.362 290.866 148.075 291.222 147.874C291.584 147.673 291.998 147.572 292.463 147.572C292.912 147.572 293.311 147.67 293.661 147.865C294.012 148.06 294.285 148.336 294.48 148.692C294.675 149.043 294.773 149.448 294.773 149.908ZM293.748 149.597C293.742 149.235 293.612 148.945 293.36 148.727C293.107 148.509 292.794 148.399 292.42 148.399C292.081 148.399 291.791 148.509 291.55 148.727C291.308 148.94 291.165 149.23 291.119 149.597H293.748ZM299.998 149.908C299.998 150.086 299.986 150.247 299.963 150.39H296.335C296.363 150.77 296.504 151.074 296.757 151.304C297.01 151.534 297.32 151.649 297.688 151.649C298.216 151.649 298.59 151.427 298.808 150.985H299.868C299.725 151.422 299.463 151.781 299.084 152.062C298.711 152.338 298.245 152.476 297.688 152.476C297.234 152.476 296.826 152.375 296.464 152.174C296.108 151.968 295.826 151.68 295.619 151.312C295.418 150.939 295.318 150.508 295.318 150.02C295.318 149.531 295.415 149.103 295.611 148.736C295.812 148.362 296.091 148.075 296.447 147.874C296.809 147.673 297.222 147.572 297.688 147.572C298.136 147.572 298.535 147.67 298.886 147.865C299.236 148.06 299.509 148.336 299.705 148.692C299.9 149.043 299.998 149.448 299.998 149.908ZM298.972 149.597C298.966 149.235 298.837 148.945 298.584 148.727C298.331 148.509 298.018 148.399 297.645 148.399C297.306 148.399 297.016 148.509 296.774 148.727C296.533 148.94 296.389 149.23 296.343 149.597H298.972ZM302.016 148.451V151.08C302.016 151.258 302.056 151.387 302.137 151.468C302.223 151.542 302.366 151.58 302.568 151.58H303.171V152.398H302.395C301.953 152.398 301.614 152.295 301.378 152.088C301.143 151.881 301.025 151.545 301.025 151.08V148.451H300.465V147.65H301.025V146.469H302.016V147.65H303.171V148.451H302.016Z" fill="#686897"/>
<path d="M234.07 93.5496L234.868 93.7385C235.666 93.9274 237.262 94.3052 238.858 92.5168C240.454 90.7284 242.051 86.7738 243.647 86.8553C245.243 86.9368 246.839 91.0544 248.435 90.6144C250.031 90.1745 251.627 85.1769 253.223 84.6012C254.819 84.0254 256.415 87.8715 258.011 89.5654C259.607 91.2592 261.203 90.8009 262.799 88.9842C264.395 87.1676 265.991 83.9927 267.587 84.9125C269.183 85.8323 270.779 90.8467 272.375 94.0621C273.971 97.2774 275.567 98.6937 277.163 98.3483C278.759 98.0029 280.355 95.8959 281.951 95.0595C283.548 94.223 285.144 94.6572 286.74 95.471C288.336 96.2848 289.932 97.4783 291.528 96.2481C293.124 95.0179 294.72 91.364 296.316 88.8495C297.912 86.335 299.508 84.9598 301.104 86.826C302.7 88.6922 304.296 93.7998 305.094 96.3535L305.892 98.9073" stroke="#18A0FB" stroke-width="1.43644"/>
<path d="M234.868 93.7385L234.07 93.5496V136.255H305.892V98.9073L305.094 96.3535C304.296 93.7998 302.7 88.6922 301.104 86.826C299.508 84.9598 297.912 86.335 296.316 88.8495C294.72 91.364 293.124 95.0179 291.528 96.2481C289.932 97.4783 288.336 96.2848 286.74 95.471C285.144 94.6572 283.548 94.223 281.951 95.0595C280.355 95.8959 278.759 98.0029 277.163 98.3483C275.567 98.6937 273.971 97.2774 272.375 94.0621C270.779 90.8467 269.183 85.8323 267.587 84.9125C265.991 83.9927 264.395 87.1676 262.799 88.9842C261.203 90.8009 259.607 91.2592 258.011 89.5654C256.415 87.8715 254.819 84.0254 253.223 84.6012C251.627 85.1769 250.031 90.1745 248.435 90.6144C246.839 91.0544 245.243 86.9368 243.647 86.8553C242.051 86.7738 240.454 90.7284 238.858 92.5168C237.262 94.3052 235.666 93.9274 234.868 93.7385Z" fill="url(#paint1_linear_780_19869)"/>
<path d="M258.409 71.1696H256.668V72.9536H255.755V71.1696H254.014V70.3422H255.755V68.5581H256.668V70.3422H258.409V71.1696ZM260.252 72.5313C260.804 72.0544 261.238 71.6637 261.554 71.3592C261.876 71.0489 262.143 70.7271 262.355 70.3939C262.568 70.0606 262.674 69.7274 262.674 69.3941C262.674 69.0494 262.591 68.7793 262.424 68.584C262.263 68.3886 262.008 68.2909 261.657 68.2909C261.318 68.2909 261.054 68.4001 260.864 68.6185C260.68 68.831 260.583 69.1183 260.571 69.4803H259.623C259.641 68.8253 259.836 68.3254 260.209 67.9807C260.589 67.6302 261.068 67.4549 261.649 67.4549C262.275 67.4549 262.763 67.6273 263.114 67.9721C263.47 68.3168 263.648 68.7765 263.648 69.351C263.648 69.7647 263.542 70.1641 263.329 70.549C263.122 70.9282 262.872 71.2701 262.579 71.5746C262.292 71.8734 261.924 72.221 261.476 72.6175L261.088 72.9622H263.821V73.781H259.632V73.0657L260.252 72.5313ZM265.115 73.9275C264.936 73.9275 264.787 73.8672 264.666 73.7465C264.546 73.6259 264.485 73.4765 264.485 73.2984C264.485 73.1202 264.546 72.9709 264.666 72.8502C264.787 72.7295 264.936 72.6692 265.115 72.6692C265.287 72.6692 265.434 72.7295 265.554 72.8502C265.675 72.9709 265.735 73.1202 265.735 73.2984C265.735 73.4765 265.675 73.6259 265.554 73.7465C265.434 73.8672 265.287 73.9275 265.115 73.9275ZM270.624 68.4288H267.736V70.1439C267.857 69.9831 268.035 69.848 268.271 69.7389C268.512 69.6297 268.768 69.5751 269.038 69.5751C269.521 69.5751 269.911 69.6785 270.21 69.8854C270.515 70.0922 270.73 70.3537 270.856 70.6697C270.989 70.9857 271.055 71.319 271.055 71.6694C271.055 72.0946 270.971 72.4738 270.805 72.8071C270.644 73.1346 270.4 73.3932 270.072 73.5828C269.75 73.7724 269.354 73.8672 268.883 73.8672C268.256 73.8672 267.754 73.7121 267.375 73.4018C266.995 73.0915 266.768 72.6807 266.694 72.1693H267.65C267.714 72.4394 267.854 72.6548 268.073 72.8157C268.291 72.9709 268.564 73.0484 268.891 73.0484C269.299 73.0484 269.604 72.9249 269.805 72.6778C270.012 72.4308 270.115 72.1032 270.115 71.6953C270.115 71.2816 270.012 70.9656 269.805 70.7472C269.598 70.5232 269.294 70.4111 268.891 70.4111C268.61 70.4111 268.371 70.4829 268.176 70.6266C267.986 70.7645 267.849 70.9541 267.762 71.1954H266.832V67.567H270.624V68.4288ZM271.828 69.1011C271.828 68.6817 271.948 68.3541 272.189 68.1186C272.437 67.8773 272.753 67.7566 273.138 67.7566C273.522 67.7566 273.836 67.8773 274.077 68.1186C274.324 68.3541 274.448 68.6817 274.448 69.1011C274.448 69.5205 274.324 69.8509 274.077 70.0922C273.836 70.3336 273.522 70.4542 273.138 70.4542C272.753 70.4542 272.437 70.3336 272.189 70.0922C271.948 69.8509 271.828 69.5205 271.828 69.1011ZM277.085 67.8686L273.646 73.8672H272.681L276.12 67.8686H277.085ZM273.138 68.3513C272.776 68.3513 272.595 68.6012 272.595 69.1011C272.595 69.6067 272.776 69.8595 273.138 69.8595C273.31 69.8595 273.442 69.7992 273.534 69.6785C273.632 69.5521 273.681 69.3597 273.681 69.1011C273.681 68.6012 273.5 68.3513 273.138 68.3513ZM275.335 72.6261C275.335 72.2067 275.456 71.8792 275.697 71.6436C275.944 71.4023 276.26 71.2816 276.645 71.2816C277.025 71.2816 277.335 71.4023 277.576 71.6436C277.823 71.8792 277.947 72.2067 277.947 72.6261C277.947 73.0455 277.823 73.3759 277.576 73.6172C277.335 73.8586 277.025 73.9792 276.645 73.9792C276.26 73.9792 275.944 73.8586 275.697 73.6172C275.456 73.3759 275.335 73.0455 275.335 72.6261ZM276.637 71.8763C276.275 71.8763 276.094 72.1262 276.094 72.6261C276.094 73.126 276.275 73.3759 276.637 73.3759C276.999 73.3759 277.18 73.126 277.18 72.6261C277.18 72.1262 276.999 71.8763 276.637 71.8763Z" fill="#00DB30"/>
<path d="M284.158 68.3671L286.38 72.0005C286.399 72.0311 286.409 72.0662 286.41 72.1021C286.411 72.1381 286.402 72.1735 286.385 72.2049C286.367 72.2363 286.342 72.2625 286.311 72.2807C286.28 72.2989 286.244 72.3086 286.208 72.3086L281.764 72.3086C281.728 72.3086 281.693 72.2989 281.662 72.2807C281.631 72.2625 281.606 72.2363 281.588 72.2049C281.571 72.1735 281.562 72.1381 281.563 72.1021C281.563 72.0662 281.574 72.0311 281.593 72.0005L283.815 68.3671C283.832 68.3373 283.857 68.3125 283.888 68.2954C283.918 68.2782 283.952 68.2692 283.986 68.2692C284.021 68.2692 284.055 68.2782 284.085 68.2954C284.115 68.3125 284.14 68.3373 284.158 68.3671Z" fill="#00ED34" stroke="#00ED34" stroke-width="1.07733" stroke-linecap="round" stroke-linejoin="round"/>
<path d="M434.407 119.083H425.745V124.229C426.107 123.746 426.641 123.341 427.348 123.013C428.072 122.686 428.839 122.522 429.649 122.522C431.097 122.522 432.269 122.832 433.166 123.453C434.079 124.074 434.726 124.858 435.105 125.806C435.501 126.754 435.7 127.754 435.7 128.805C435.7 130.081 435.45 131.218 434.95 132.218C434.467 133.201 433.734 133.976 432.752 134.545C431.787 135.114 430.597 135.398 429.184 135.398C427.305 135.398 425.797 134.933 424.659 134.002C423.521 133.071 422.841 131.839 422.616 130.305H425.486C425.676 131.115 426.098 131.761 426.753 132.244C427.408 132.709 428.227 132.942 429.21 132.942C430.434 132.942 431.347 132.572 431.95 131.83C432.571 131.089 432.881 130.107 432.881 128.883C432.881 127.642 432.571 126.694 431.95 126.039C431.33 125.366 430.416 125.03 429.21 125.03C428.365 125.03 427.65 125.246 427.064 125.677C426.495 126.09 426.081 126.659 425.823 127.383H423.03V116.498H434.407V119.083ZM438.121 131.468V129.245L446.809 116.782H450.377V128.909H452.782V131.468H450.377V135.398H447.481V131.468H438.121ZM447.611 119.782L441.509 128.909H447.611V119.782ZM458.56 131.856L455.431 138.992H453.518L455.353 131.856H458.56ZM460.463 125.728C460.463 122.746 460.963 120.419 461.962 118.747C462.979 117.058 464.72 116.213 467.185 116.213C469.65 116.213 471.383 117.058 472.382 118.747C473.399 120.419 473.908 122.746 473.908 125.728C473.908 128.745 473.399 131.106 472.382 132.813C471.383 134.502 469.65 135.347 467.185 135.347C464.72 135.347 462.979 134.502 461.962 132.813C460.963 131.106 460.463 128.745 460.463 125.728ZM471.012 125.728C471.012 124.332 470.917 123.151 470.728 122.186C470.555 121.221 470.193 120.437 469.642 119.833C469.09 119.213 468.271 118.902 467.185 118.902C466.099 118.902 465.281 119.213 464.729 119.833C464.177 120.437 463.807 121.221 463.617 122.186C463.445 123.151 463.359 124.332 463.359 125.728C463.359 127.176 463.445 128.392 463.617 129.374C463.79 130.357 464.152 131.149 464.703 131.753C465.272 132.356 466.099 132.658 467.185 132.658C468.271 132.658 469.09 132.356 469.642 131.753C470.21 131.149 470.581 130.357 470.753 129.374C470.926 128.392 471.012 127.176 471.012 125.728ZM476.742 125.728C476.742 122.746 477.242 120.419 478.242 118.747C479.259 117.058 481 116.213 483.465 116.213C485.93 116.213 487.662 117.058 488.662 118.747C489.679 120.419 490.187 122.746 490.187 125.728C490.187 128.745 489.679 131.106 488.662 132.813C487.662 134.502 485.93 135.347 483.465 135.347C481 135.347 479.259 134.502 478.242 132.813C477.242 131.106 476.742 128.745 476.742 125.728ZM487.291 125.728C487.291 124.332 487.197 123.151 487.007 122.186C486.835 121.221 486.473 120.437 485.921 119.833C485.369 119.213 484.551 118.902 483.465 118.902C482.379 118.902 481.56 119.213 481.008 119.833C480.457 120.437 480.086 121.221 479.897 122.186C479.724 123.151 479.638 124.332 479.638 125.728C479.638 127.176 479.724 128.392 479.897 129.374C480.069 130.357 480.431 131.149 480.983 131.753C481.551 132.356 482.379 132.658 483.465 132.658C484.551 132.658 485.369 132.356 485.921 131.753C486.49 131.149 486.86 130.357 487.033 129.374C487.205 128.392 487.291 127.176 487.291 125.728ZM493.022 125.728C493.022 122.746 493.522 120.419 494.521 118.747C495.538 117.058 497.279 116.213 499.744 116.213C502.209 116.213 503.941 117.058 504.941 118.747C505.958 120.419 506.467 122.746 506.467 125.728C506.467 128.745 505.958 131.106 504.941 132.813C503.941 134.502 502.209 135.347 499.744 135.347C497.279 135.347 495.538 134.502 494.521 132.813C493.522 131.106 493.022 128.745 493.022 125.728ZM503.571 125.728C503.571 124.332 503.476 123.151 503.286 122.186C503.114 121.221 502.752 120.437 502.201 119.833C501.649 119.213 500.83 118.902 499.744 118.902C498.658 118.902 497.84 119.213 497.288 119.833C496.736 120.437 496.366 121.221 496.176 122.186C496.004 123.151 495.918 124.332 495.918 125.728C495.918 127.176 496.004 128.392 496.176 129.374C496.348 130.357 496.71 131.149 497.262 131.753C497.831 132.356 498.658 132.658 499.744 132.658C500.83 132.658 501.649 132.356 502.201 131.753C502.769 131.149 503.14 130.357 503.312 129.374C503.485 128.392 503.571 127.176 503.571 125.728Z" fill="#686897"/>
<path d="M426.219 146.409V147.21H424.625V152.398H423.642V147.21H422.039V146.409H426.219ZM429.179 152.476C428.731 152.476 428.326 152.375 427.964 152.174C427.602 151.968 427.318 151.68 427.111 151.312C426.904 150.939 426.801 150.508 426.801 150.02C426.801 149.537 426.907 149.109 427.12 148.736C427.332 148.362 427.622 148.075 427.99 147.874C428.358 147.673 428.769 147.572 429.222 147.572C429.676 147.572 430.087 147.673 430.455 147.874C430.823 148.075 431.113 148.362 431.325 148.736C431.538 149.109 431.644 149.537 431.644 150.02C431.644 150.502 431.535 150.93 431.317 151.304C431.098 151.677 430.8 151.968 430.42 152.174C430.047 152.375 429.633 152.476 429.179 152.476ZM429.179 151.623C429.432 151.623 429.668 151.562 429.886 151.442C430.11 151.321 430.291 151.14 430.429 150.899C430.567 150.657 430.636 150.364 430.636 150.02C430.636 149.675 430.57 149.385 430.438 149.149C430.306 148.908 430.13 148.727 429.912 148.606C429.694 148.486 429.458 148.425 429.205 148.425C428.952 148.425 428.717 148.486 428.498 148.606C428.286 148.727 428.116 148.908 427.99 149.149C427.864 149.385 427.8 149.675 427.8 150.02C427.8 150.531 427.93 150.928 428.188 151.209C428.453 151.485 428.783 151.623 429.179 151.623ZM433.667 148.451V151.08C433.667 151.258 433.707 151.387 433.788 151.468C433.874 151.542 434.018 151.58 434.219 151.58H434.822V152.398H434.046C433.604 152.398 433.265 152.295 433.029 152.088C432.794 151.881 432.676 151.545 432.676 151.08V148.451H432.116V147.65H432.676V146.469H433.667V147.65H434.822V148.451H433.667ZM435.305 150.002C435.305 149.526 435.403 149.103 435.598 148.736C435.799 148.368 436.069 148.083 436.408 147.882C436.753 147.675 437.132 147.572 437.546 147.572C437.919 147.572 438.244 147.647 438.52 147.796C438.801 147.94 439.026 148.121 439.192 148.339V147.65H440.183V152.398H439.192V151.692C439.026 151.916 438.799 152.103 438.511 152.252C438.224 152.401 437.897 152.476 437.529 152.476C437.121 152.476 436.747 152.373 436.408 152.166C436.069 151.953 435.799 151.66 435.598 151.287C435.403 150.907 435.305 150.479 435.305 150.002ZM439.192 150.02C439.192 149.692 439.123 149.408 438.985 149.166C438.853 148.925 438.678 148.741 438.46 148.615C438.241 148.488 438.006 148.425 437.753 148.425C437.5 148.425 437.264 148.488 437.046 148.615C436.828 148.736 436.65 148.917 436.512 149.158C436.38 149.393 436.314 149.675 436.314 150.002C436.314 150.33 436.38 150.617 436.512 150.864C436.65 151.111 436.828 151.301 437.046 151.433C437.27 151.56 437.506 151.623 437.753 151.623C438.006 151.623 438.241 151.56 438.46 151.433C438.678 151.307 438.853 151.123 438.985 150.882C439.123 150.634 439.192 150.347 439.192 150.02ZM442.362 146.021V152.398H441.379V146.021H442.362ZM450.338 153.484L449.286 152.347C449.027 152.421 448.743 152.459 448.433 152.459C447.875 152.459 447.361 152.329 446.89 152.071C446.425 151.807 446.054 151.442 445.778 150.976C445.508 150.505 445.373 149.977 445.373 149.391C445.373 148.804 445.508 148.279 445.778 147.813C446.054 147.348 446.425 146.986 446.89 146.727C447.361 146.463 447.875 146.331 448.433 146.331C448.996 146.331 449.51 146.463 449.976 146.727C450.447 146.986 450.817 147.348 451.087 147.813C451.357 148.279 451.492 148.804 451.492 149.391C451.492 149.942 451.372 150.442 451.13 150.89C450.895 151.333 450.567 151.689 450.148 151.959L451.587 153.484H450.338ZM446.382 149.391C446.382 149.833 446.468 150.224 446.64 150.563C446.818 150.896 447.062 151.154 447.373 151.338C447.683 151.516 448.036 151.606 448.433 151.606C448.829 151.606 449.183 151.516 449.493 151.338C449.803 151.154 450.044 150.896 450.217 150.563C450.395 150.224 450.484 149.833 450.484 149.391C450.484 148.948 450.395 148.56 450.217 148.227C450.044 147.894 449.803 147.638 449.493 147.46C449.183 147.282 448.829 147.193 448.433 147.193C448.036 147.193 447.683 147.282 447.373 147.46C447.062 147.638 446.818 147.894 446.64 148.227C446.468 148.56 446.382 148.948 446.382 149.391ZM456.69 147.65V152.398H455.708V151.838C455.553 152.034 455.349 152.189 455.096 152.304C454.849 152.413 454.585 152.467 454.303 152.467C453.93 152.467 453.593 152.39 453.295 152.235C453.002 152.08 452.769 151.85 452.597 151.545C452.43 151.241 452.347 150.873 452.347 150.442V147.65H453.321V150.295C453.321 150.721 453.427 151.048 453.639 151.278C453.852 151.502 454.142 151.614 454.51 151.614C454.878 151.614 455.168 151.502 455.38 151.278C455.599 151.048 455.708 150.721 455.708 150.295V147.65H456.69ZM459.952 152.476C459.504 152.476 459.099 152.375 458.737 152.174C458.375 151.968 458.09 151.68 457.883 151.312C457.676 150.939 457.573 150.508 457.573 150.02C457.573 149.537 457.679 149.109 457.892 148.736C458.105 148.362 458.395 148.075 458.762 147.874C459.13 147.673 459.541 147.572 459.995 147.572C460.449 147.572 460.86 147.673 461.227 147.874C461.595 148.075 461.885 148.362 462.098 148.736C462.31 149.109 462.417 149.537 462.417 150.02C462.417 150.502 462.308 150.93 462.089 151.304C461.871 151.677 461.572 151.968 461.193 152.174C460.819 152.375 460.406 152.476 459.952 152.476ZM459.952 151.623C460.205 151.623 460.44 151.562 460.659 151.442C460.883 151.321 461.064 151.14 461.201 150.899C461.339 150.657 461.408 150.364 461.408 150.02C461.408 149.675 461.342 149.385 461.21 149.149C461.078 148.908 460.903 148.727 460.684 148.606C460.466 148.486 460.23 148.425 459.978 148.425C459.725 148.425 459.489 148.486 459.271 148.606C459.058 148.727 458.889 148.908 458.762 149.149C458.636 149.385 458.573 149.675 458.573 150.02C458.573 150.531 458.702 150.928 458.961 151.209C459.225 151.485 459.555 151.623 459.952 151.623ZM464.439 148.451V151.08C464.439 151.258 464.48 151.387 464.56 151.468C464.646 151.542 464.79 151.58 464.991 151.58H465.594V152.398H464.819C464.376 152.398 464.037 152.295 463.802 152.088C463.566 151.881 463.448 151.545 463.448 151.08V148.451H462.888V147.65H463.448V146.469H464.439V147.65H465.594V148.451H464.439ZM470.758 149.908C470.758 150.086 470.746 150.247 470.723 150.39H467.095C467.123 150.77 467.264 151.074 467.517 151.304C467.77 151.534 468.08 151.649 468.448 151.649C468.976 151.649 469.35 151.427 469.568 150.985H470.628C470.485 151.422 470.223 151.781 469.844 152.062C469.47 152.338 469.005 152.476 468.448 152.476C467.994 152.476 467.586 152.375 467.224 152.174C466.868 151.968 466.586 151.68 466.379 151.312C466.178 150.939 466.078 150.508 466.078 150.02C466.078 149.531 466.175 149.103 466.371 148.736C466.572 148.362 466.85 148.075 467.207 147.874C467.569 147.673 467.982 147.572 468.448 147.572C468.896 147.572 469.295 147.67 469.646 147.865C469.996 148.06 470.269 148.336 470.464 148.692C470.66 149.043 470.758 149.448 470.758 149.908ZM469.732 149.597C469.726 149.235 469.597 148.945 469.344 148.727C469.091 148.509 468.778 148.399 468.405 148.399C468.066 148.399 467.775 148.509 467.534 148.727C467.293 148.94 467.149 149.23 467.103 149.597H469.732ZM476.885 152.398L475.506 150.002H474.756V152.398H473.774V146.409H475.842C476.302 146.409 476.69 146.489 477.006 146.65C477.327 146.811 477.566 147.026 477.721 147.296C477.882 147.566 477.962 147.868 477.962 148.201C477.962 148.592 477.847 148.948 477.618 149.27C477.393 149.586 477.046 149.801 476.575 149.916L478.057 152.398H476.885ZM474.756 149.218H475.842C476.21 149.218 476.486 149.126 476.669 148.942C476.859 148.759 476.954 148.511 476.954 148.201C476.954 147.891 476.862 147.65 476.678 147.477C476.494 147.299 476.216 147.21 475.842 147.21H474.756V149.218ZM483.477 149.908C483.477 150.086 483.465 150.247 483.442 150.39H479.814C479.843 150.77 479.983 151.074 480.236 151.304C480.489 151.534 480.799 151.649 481.167 151.649C481.696 151.649 482.069 151.427 482.287 150.985H483.347C483.204 151.422 482.942 151.781 482.563 152.062C482.19 152.338 481.724 152.476 481.167 152.476C480.713 152.476 480.305 152.375 479.943 152.174C479.587 151.968 479.305 151.68 479.099 151.312C478.897 150.939 478.797 150.508 478.797 150.02C478.797 149.531 478.895 149.103 479.09 148.736C479.291 148.362 479.57 148.075 479.926 147.874C480.288 147.673 480.702 147.572 481.167 147.572C481.615 147.572 482.014 147.67 482.365 147.865C482.715 148.06 482.988 148.336 483.184 148.692C483.379 149.043 483.477 149.448 483.477 149.908ZM482.451 149.597C482.445 149.235 482.316 148.945 482.063 148.727C481.811 148.509 481.497 148.399 481.124 148.399C480.785 148.399 480.495 148.509 480.253 148.727C480.012 148.94 479.868 149.23 479.822 149.597H482.451ZM485.495 148.451V151.08C485.495 151.258 485.535 151.387 485.616 151.468C485.702 151.542 485.846 151.58 486.047 151.58H486.65V152.398H485.874C485.432 152.398 485.093 152.295 484.857 152.088C484.622 151.881 484.504 151.545 484.504 151.08V148.451H483.944V147.65H484.504V146.469H485.495V147.65H486.65V148.451H485.495ZM493.839 147.65L492.365 152.398H491.331L490.374 148.891L489.417 152.398H488.383L486.901 147.65H487.9L488.891 151.468L489.9 147.65H490.925L491.891 151.45L492.873 147.65H493.839ZM498.83 149.908C498.83 150.086 498.819 150.247 498.796 150.39H495.168C495.196 150.77 495.337 151.074 495.59 151.304C495.843 151.534 496.153 151.649 496.521 151.649C497.049 151.649 497.423 151.427 497.641 150.985H498.701C498.557 151.422 498.296 151.781 497.917 152.062C497.543 152.338 497.078 152.476 496.521 152.476C496.067 152.476 495.659 152.375 495.297 152.174C494.941 151.968 494.659 151.68 494.452 151.312C494.251 150.939 494.151 150.508 494.151 150.02C494.151 149.531 494.248 149.103 494.444 148.736C494.645 148.362 494.923 148.075 495.28 147.874C495.642 147.673 496.055 147.572 496.521 147.572C496.969 147.572 497.368 147.67 497.719 147.865C498.069 148.06 498.342 148.336 498.537 148.692C498.733 149.043 498.83 149.448 498.83 149.908ZM497.805 149.597C497.799 149.235 497.67 148.945 497.417 148.727C497.164 148.509 496.851 148.399 496.478 148.399C496.139 148.399 495.848 148.509 495.607 148.727C495.366 148.94 495.222 149.23 495.176 149.597H497.805ZM504.055 149.908C504.055 150.086 504.043 150.247 504.02 150.39H500.392C500.421 150.77 500.562 151.074 500.814 151.304C501.067 151.534 501.377 151.649 501.745 151.649C502.274 151.649 502.647 151.427 502.866 150.985H503.926C503.782 151.422 503.521 151.781 503.141 152.062C502.768 152.338 502.302 152.476 501.745 152.476C501.291 152.476 500.883 152.375 500.521 152.174C500.165 151.968 499.884 151.68 499.677 151.312C499.476 150.939 499.375 150.508 499.375 150.02C499.375 149.531 499.473 149.103 499.668 148.736C499.869 148.362 500.148 148.075 500.504 147.874C500.866 147.673 501.28 147.572 501.745 147.572C502.193 147.572 502.593 147.67 502.943 147.865C503.294 148.06 503.567 148.336 503.762 148.692C503.957 149.043 504.055 149.448 504.055 149.908ZM503.029 149.597C503.024 149.235 502.894 148.945 502.641 148.727C502.389 148.509 502.076 148.399 501.702 148.399C501.363 148.399 501.073 148.509 500.832 148.727C500.59 148.94 500.447 149.23 500.401 149.597H503.029ZM506.073 148.451V151.08C506.073 151.258 506.114 151.387 506.194 151.468C506.28 151.542 506.424 151.58 506.625 151.58H507.228V152.398H506.453C506.01 152.398 505.671 152.295 505.436 152.088C505.2 151.881 505.082 151.545 505.082 151.08V148.451H504.522V147.65H505.082V146.469H506.073V147.65H507.228V148.451H506.073Z" fill="#686897"/>
<path d="M428.125 96.2649L428.923 94.8385C429.721 93.4121 431.317 90.5593 432.913 88.4106C434.509 86.262 436.105 84.8174 437.701 84.5786C439.297 84.3398 440.893 85.3067 442.489 87.2975C444.085 89.2884 445.681 92.3032 447.277 92.9139C448.874 93.5246 450.47 91.7314 452.066 90.2779C453.662 88.8244 455.258 87.7108 456.854 87.1081C458.45 86.5054 460.046 86.4137 461.642 88.8075C463.238 91.2012 464.834 96.0804 466.43 97.6128C468.026 99.1451 469.622 97.3306 471.218 95.5657C472.814 93.8007 474.41 92.0852 476.006 91.185C477.602 90.2847 479.198 90.1997 480.794 89.9105C482.39 89.6214 483.986 89.128 485.582 90.0263C487.178 90.9245 488.775 93.2142 490.371 92.563C491.967 91.9118 493.563 88.3197 495.159 87.3175C496.755 86.3152 498.351 87.9028 499.149 88.6967L499.947 89.4905" stroke="#DB0000" stroke-width="1.43644"/>
<path d="M428.923 94.8385L428.125 96.2649V130.509H499.947V89.4905L499.149 88.6967C498.351 87.9028 496.755 86.3152 495.159 87.3175C493.563 88.3197 491.967 91.9118 490.371 92.563C488.775 93.2142 487.178 90.9245 485.582 90.0263C483.986 89.128 482.39 89.6214 480.794 89.9105C479.198 90.1997 477.602 90.2847 476.006 91.185C474.41 92.0852 472.814 93.8007 471.218 95.5657L471.148 95.6429C469.575 97.3828 468.003 99.1228 466.43 97.6128C464.834 96.0804 463.238 91.2012 461.642 88.8075C460.046 86.4137 458.45 86.5054 456.854 87.1081C455.258 87.7108 453.662 88.8244 452.066 90.2779C450.47 91.7314 448.874 93.5246 447.277 92.9139C445.681 92.3032 444.085 89.2884 442.489 87.2975C440.893 85.3067 439.297 84.3398 437.701 84.5786C436.105 84.8174 434.509 86.262 432.913 88.4106C431.317 90.5593 429.721 93.4121 428.923 94.8385Z" fill="url(#paint2_linear_780_19869)"/>
<path d="M451.827 70.3766V71.0403H448.388V70.3766H451.827ZM453.6 72.5313C454.152 72.0544 454.586 71.6637 454.902 71.3592C455.224 71.0489 455.491 70.7271 455.703 70.3939C455.916 70.0606 456.022 69.7274 456.022 69.3941C456.022 69.0494 455.939 68.7793 455.772 68.584C455.611 68.3886 455.356 68.2909 455.005 68.2909C454.666 68.2909 454.402 68.4001 454.212 68.6185C454.028 68.831 453.931 69.1183 453.919 69.4803H452.971C452.989 68.8253 453.184 68.3254 453.557 67.9807C453.937 67.6302 454.416 67.4549 454.997 67.4549C455.623 67.4549 456.111 67.6273 456.462 67.9721C456.818 68.3168 456.996 68.7765 456.996 69.351C456.996 69.7647 456.89 70.1641 456.677 70.549C456.47 70.9282 456.22 71.2701 455.927 71.5746C455.64 71.8734 455.272 72.221 454.824 72.6175L454.436 72.9622H457.169V73.781H452.98V73.0657L453.6 72.5313ZM458.463 73.9275C458.284 73.9275 458.135 73.8672 458.014 73.7465C457.894 73.6259 457.833 73.4765 457.833 73.2984C457.833 73.1202 457.894 72.9709 458.014 72.8502C458.135 72.7295 458.284 72.6692 458.463 72.6692C458.635 72.6692 458.781 72.7295 458.902 72.8502C459.023 72.9709 459.083 73.1202 459.083 73.2984C459.083 73.4765 459.023 73.6259 458.902 73.7465C458.781 73.8672 458.635 73.9275 458.463 73.9275ZM463.972 68.4288H461.084V70.1439C461.205 69.9831 461.383 69.848 461.619 69.7389C461.86 69.6297 462.116 69.5751 462.386 69.5751C462.869 69.5751 463.259 69.6785 463.558 69.8854C463.863 70.0922 464.078 70.3537 464.204 70.6697C464.337 70.9857 464.403 71.319 464.403 71.6694C464.403 72.0946 464.319 72.4738 464.153 72.8071C463.992 73.1346 463.748 73.3932 463.42 73.5828C463.098 73.7724 462.702 73.8672 462.231 73.8672C461.604 73.8672 461.102 73.7121 460.723 73.4018C460.343 73.0915 460.116 72.6807 460.042 72.1693H460.998C461.061 72.4394 461.202 72.6548 461.421 72.8157C461.639 72.9709 461.912 73.0484 462.239 73.0484C462.647 73.0484 462.952 72.9249 463.153 72.6778C463.36 72.4308 463.463 72.1032 463.463 71.6953C463.463 71.2816 463.36 70.9656 463.153 70.7472C462.946 70.5232 462.642 70.4111 462.239 70.4111C461.958 70.4111 461.719 70.4829 461.524 70.6266C461.334 70.7645 461.197 70.9541 461.11 71.1954H460.18V67.567H463.972V68.4288ZM465.175 69.1011C465.175 68.6817 465.296 68.3541 465.537 68.1186C465.785 67.8773 466.101 67.7566 466.486 67.7566C466.87 67.7566 467.184 67.8773 467.425 68.1186C467.672 68.3541 467.796 68.6817 467.796 69.1011C467.796 69.5205 467.672 69.8509 467.425 70.0922C467.184 70.3336 466.87 70.4542 466.486 70.4542C466.101 70.4542 465.785 70.3336 465.537 70.0922C465.296 69.8509 465.175 69.5205 465.175 69.1011ZM470.433 67.8686L466.994 73.8672H466.029L469.468 67.8686H470.433ZM466.486 68.3513C466.124 68.3513 465.943 68.6012 465.943 69.1011C465.943 69.6067 466.124 69.8595 466.486 69.8595C466.658 69.8595 466.79 69.7992 466.882 69.6785C466.98 69.5521 467.028 69.3597 467.028 69.1011C467.028 68.6012 466.848 68.3513 466.486 68.3513ZM468.683 72.6261C468.683 72.2067 468.804 71.8792 469.045 71.6436C469.292 71.4023 469.608 71.2816 469.993 71.2816C470.373 71.2816 470.683 71.4023 470.924 71.6436C471.171 71.8792 471.295 72.2067 471.295 72.6261C471.295 73.0455 471.171 73.3759 470.924 73.6172C470.683 73.8586 470.373 73.9792 469.993 73.9792C469.608 73.9792 469.292 73.8586 469.045 73.6172C468.804 73.3759 468.683 73.0455 468.683 72.6261ZM469.985 71.8763C469.623 71.8763 469.442 72.1262 469.442 72.6261C469.442 73.126 469.623 73.3759 469.985 73.3759C470.347 73.3759 470.528 73.126 470.528 72.6261C470.528 72.1262 470.347 71.8763 469.985 71.8763Z" fill="#DB0000"/>
<path d="M478.209 73.422L480.431 69.7885C480.45 69.7579 480.46 69.7229 480.461 69.6869C480.462 69.651 480.453 69.6155 480.435 69.5841C480.418 69.5527 480.392 69.5266 480.361 69.5084C480.33 69.4901 480.295 69.4805 480.259 69.4805L475.815 69.4805C475.779 69.4805 475.744 69.4901 475.713 69.5084C475.682 69.5266 475.656 69.5527 475.639 69.5841C475.621 69.6155 475.613 69.651 475.613 69.6869C475.614 69.7229 475.625 69.7579 475.643 69.7885L477.865 73.422C477.883 73.4518 477.908 73.4765 477.938 73.4937C477.968 73.5109 478.003 73.5199 478.037 73.5199C478.072 73.5199 478.106 73.5109 478.136 73.4937C478.166 73.4765 478.191 73.4518 478.209 73.422Z" fill="#DB0000" stroke="#DB0000" stroke-width="1.07733" stroke-linecap="round" stroke-linejoin="round"/>
<path d="M41.0824 35.2815C41.0824 34.5911 41.2366 33.9744 41.5449 33.4314C41.86 32.8817 42.2856 32.456 42.8219 32.1544C43.3649 31.846 43.9715 31.6919 44.6419 31.6919C45.4262 31.6919 46.1133 31.893 46.7032 32.2952C47.2931 32.6974 47.7053 33.2537 47.9399 33.9643H46.3211C46.1602 33.6291 45.9323 33.3778 45.6373 33.2102C45.3491 33.0426 45.0139 32.9588 44.6318 32.9588C44.2229 32.9588 43.8576 33.056 43.5358 33.2504C43.2208 33.4381 42.9727 33.7062 42.7918 34.0548C42.6175 34.4034 42.5303 34.8123 42.5303 35.2815C42.5303 35.744 42.6175 36.153 42.7918 36.5082C42.9727 36.8568 43.2208 37.1283 43.5358 37.3227C43.8576 37.5104 44.2229 37.6042 44.6318 37.6042C45.0139 37.6042 45.3491 37.5204 45.6373 37.3529C45.9323 37.1786 46.1602 36.9238 46.3211 36.5887H47.9399C47.7053 37.3059 47.2931 37.8657 46.7032 38.2679C46.12 38.6634 45.4329 38.8611 44.6419 38.8611C43.9715 38.8611 43.3649 38.7103 42.8219 38.4086C42.2856 38.1003 41.86 37.6746 41.5449 37.1316C41.2366 36.5887 41.0824 35.972 41.0824 35.2815ZM48.6697 35.9954C48.6697 35.4323 48.7803 34.9329 49.0015 34.4972C49.2294 34.0615 49.5344 33.7263 49.9165 33.4917C50.3053 33.2571 50.7377 33.1398 51.2136 33.1398C51.6293 33.1398 51.9912 33.2236 52.2996 33.3912C52.6146 33.5587 52.866 33.7699 53.0537 34.0246V33.2303H54.4715V38.8008H53.0537V37.9863C52.8727 38.2478 52.6213 38.4656 52.2996 38.6399C51.9845 38.8075 51.6192 38.8913 51.2036 38.8913C50.7344 38.8913 50.3053 38.7706 49.9165 38.5293C49.5344 38.288 49.2294 37.9495 49.0015 37.5137C48.7803 37.0713 48.6697 36.5652 48.6697 35.9954ZM53.0537 36.0155C53.0537 35.6737 52.9867 35.3821 52.8526 35.1407C52.7185 34.8927 52.5376 34.705 52.3096 34.5777C52.0817 34.4436 51.8371 34.3766 51.5756 34.3766C51.3142 34.3766 51.0729 34.4402 50.8517 34.5676C50.6304 34.695 50.4495 34.8827 50.3087 35.1307C50.1746 35.372 50.1076 35.6603 50.1076 35.9954C50.1076 36.3306 50.1746 36.6255 50.3087 36.8803C50.4495 37.1283 50.6304 37.3193 50.8517 37.4534C51.0796 37.5875 51.3209 37.6545 51.5756 37.6545C51.8371 37.6545 52.0817 37.5908 52.3096 37.4635C52.5376 37.3294 52.7185 37.1417 52.8526 36.9004C52.9867 36.6524 53.0537 36.3574 53.0537 36.0155ZM62.6536 33.1498C63.3374 33.1498 63.887 33.361 64.3026 33.7833C64.725 34.1989 64.9361 34.7821 64.9361 35.5329V38.8008H63.5284V35.7239C63.5284 35.2882 63.4178 34.9564 63.1966 34.7285C62.9754 34.4939 62.6737 34.3766 62.2916 34.3766C61.9095 34.3766 61.6045 34.4939 61.3766 34.7285C61.1554 34.9564 61.0448 35.2882 61.0448 35.7239V38.8008H59.6371V35.7239C59.6371 35.2882 59.5265 34.9564 59.3053 34.7285C59.0841 34.4939 58.7824 34.3766 58.4003 34.3766C58.0115 34.3766 57.7032 34.4939 57.4753 34.7285C57.2541 34.9564 57.1435 35.2882 57.1435 35.7239V38.8008H55.7357V33.2303H57.1435V33.904C57.3244 33.6694 57.5557 33.485 57.8372 33.3509C58.1255 33.2169 58.4406 33.1498 58.7824 33.1498C59.2181 33.1498 59.6069 33.2437 59.9488 33.4314C60.2907 33.6124 60.5555 33.8738 60.7432 34.2157C60.9241 33.8939 61.1856 33.6358 61.5275 33.4414C61.876 33.247 62.2514 33.1498 62.6536 33.1498ZM67.569 34.0347C67.75 33.78 67.9981 33.5688 68.3131 33.4012C68.6349 33.2269 69.0002 33.1398 69.4091 33.1398C69.8851 33.1398 70.3141 33.2571 70.6962 33.4917C71.085 33.7263 71.39 34.0615 71.6112 34.4972C71.8391 34.9262 71.953 35.4256 71.953 35.9954C71.953 36.5652 71.8391 37.0713 71.6112 37.5137C71.39 37.9495 71.085 38.288 70.6962 38.5293C70.3141 38.7706 69.8851 38.8913 69.4091 38.8913C69.0002 38.8913 68.6382 38.8075 68.3232 38.6399C68.0148 38.4723 67.7634 38.2612 67.569 38.0064V41.4553H66.1613V33.2303H67.569V34.0347ZM70.5152 35.9954C70.5152 35.6603 70.4448 35.372 70.304 35.1307C70.17 34.8827 69.989 34.695 69.761 34.5676C69.5398 34.4402 69.2985 34.3766 69.0371 34.3766C68.7824 34.3766 68.541 34.4436 68.3131 34.5777C68.0919 34.705 67.9109 34.8927 67.7701 35.1407C67.6361 35.3888 67.569 35.6804 67.569 36.0155C67.569 36.3507 67.6361 36.6423 67.7701 36.8903C67.9109 37.1383 68.0919 37.3294 68.3131 37.4635C68.541 37.5908 68.7824 37.6545 69.0371 37.6545C69.2985 37.6545 69.5398 37.5875 69.761 37.4534C69.989 37.3193 70.17 37.1283 70.304 36.8803C70.4448 36.6322 70.5152 36.3373 70.5152 35.9954ZM72.5034 35.9954C72.5034 35.4323 72.614 34.9329 72.8352 34.4972C73.0631 34.0615 73.3681 33.7263 73.7502 33.4917C74.139 33.2571 74.5714 33.1398 75.0473 33.1398C75.4629 33.1398 75.8249 33.2236 76.1333 33.3912C76.4483 33.5587 76.6997 33.7699 76.8874 34.0246V33.2303H78.3052V38.8008H76.8874V37.9863C76.7064 38.2478 76.455 38.4656 76.1333 38.6399C75.8182 38.8075 75.4529 38.8913 75.0373 38.8913C74.568 38.8913 74.139 38.7706 73.7502 38.5293C73.3681 38.288 73.0631 37.9495 72.8352 37.5137C72.614 37.0713 72.5034 36.5652 72.5034 35.9954ZM76.8874 36.0155C76.8874 35.6737 76.8204 35.3821 76.6863 35.1407C76.5522 34.8927 76.3712 34.705 76.1433 34.5777C75.9154 34.4436 75.6707 34.3766 75.4093 34.3766C75.1479 34.3766 74.9066 34.4402 74.6853 34.5676C74.4641 34.695 74.2831 34.8827 74.1424 35.1307C74.0083 35.372 73.9413 35.6603 73.9413 35.9954C73.9413 36.3306 74.0083 36.6255 74.1424 36.8803C74.2831 37.1283 74.4641 37.3193 74.6853 37.4534C74.9133 37.5875 75.1546 37.6545 75.4093 37.6545C75.6707 37.6545 75.9154 37.5908 76.1433 37.4635C76.3712 37.3294 76.5522 37.1417 76.6863 36.9004C76.8204 36.6524 76.8874 36.3574 76.8874 36.0155ZM80.2833 32.5667C80.0353 32.5667 79.8275 32.4896 79.6599 32.3354C79.499 32.1745 79.4186 31.9768 79.4186 31.7421C79.4186 31.5075 79.499 31.3131 79.6599 31.1589C79.8275 30.9981 80.0353 30.9176 80.2833 30.9176C80.5314 30.9176 80.7358 30.9981 80.8967 31.1589C81.0643 31.3131 81.1481 31.5075 81.1481 31.7421C81.1481 31.9768 81.0643 32.1745 80.8967 32.3354C80.7358 32.4896 80.5314 32.5667 80.2833 32.5667ZM80.9771 33.2303V38.8008H79.5694V33.2303H80.9771ZM84.4393 33.1398C84.8549 33.1398 85.2202 33.2236 85.5353 33.3912C85.8504 33.552 86.0984 33.7632 86.2794 34.0246V33.2303H87.6971V38.841C87.6971 39.3572 87.5932 39.8163 87.3854 40.2185C87.1776 40.6274 86.8659 40.9492 86.4503 41.1838C86.0347 41.4251 85.5319 41.5458 84.942 41.5458C84.1511 41.5458 83.5008 41.3615 82.9914 40.9928C82.4886 40.6241 82.2037 40.1213 82.1367 39.4845H83.5343C83.6081 39.7393 83.7656 39.9404 84.0069 40.0878C84.255 40.242 84.5533 40.3191 84.9018 40.3191C85.3107 40.3191 85.6426 40.1951 85.8973 39.9471C86.152 39.7057 86.2794 39.3371 86.2794 38.841V37.9763C86.0984 38.2377 85.847 38.4556 85.5252 38.6298C85.2102 38.8041 84.8482 38.8913 84.4393 38.8913C83.9701 38.8913 83.541 38.7706 83.1523 38.5293C82.7635 38.288 82.4551 37.9495 82.2272 37.5137C82.006 37.0713 81.8954 36.5652 81.8954 35.9954C81.8954 35.4323 82.006 34.9329 82.2272 34.4972C82.4551 34.0615 82.7601 33.7263 83.1422 33.4917C83.531 33.2571 83.9634 33.1398 84.4393 33.1398ZM86.2794 36.0155C86.2794 35.6737 86.2123 35.3821 86.0783 35.1407C85.9442 34.8927 85.7632 34.705 85.5353 34.5777C85.3074 34.4436 85.0627 34.3766 84.8013 34.3766C84.5398 34.3766 84.2985 34.4402 84.0773 34.5676C83.8561 34.695 83.6751 34.8827 83.5343 35.1307C83.4003 35.372 83.3332 35.6603 83.3332 35.9954C83.3332 36.3306 83.4003 36.6255 83.5343 36.8803C83.6751 37.1283 83.8561 37.3193 84.0773 37.4534C84.3052 37.5875 84.5466 37.6545 84.8013 37.6545C85.0627 37.6545 85.3074 37.5908 85.5353 37.4635C85.7632 37.3294 85.9442 37.1417 86.0783 36.9004C86.2123 36.6524 86.2794 36.3574 86.2794 36.0155ZM92.0483 33.1498C92.7119 33.1498 93.2482 33.361 93.6571 33.7833C94.066 34.1989 94.2705 34.7821 94.2705 35.5329V38.8008H92.8628V35.7239C92.8628 35.2815 92.7521 34.943 92.5309 34.7084C92.3097 34.4671 92.0081 34.3464 91.626 34.3464C91.2372 34.3464 90.9288 34.4671 90.7009 34.7084C90.4797 34.943 90.3691 35.2815 90.3691 35.7239V38.8008H88.9614V33.2303H90.3691V33.9241C90.5568 33.6828 90.7948 33.4951 91.083 33.361C91.378 33.2202 91.6997 33.1498 92.0483 33.1498ZM99.1915 37.6847H101.504V38.8008H97.7838V31.7824H99.1915V37.6847ZM103.696 31.7824V38.8008H102.288V31.7824H103.696ZM111.281 31.7824L108.707 38.8008H106.997L104.423 31.7824H105.931L107.862 37.3629L109.783 31.7824H111.281ZM113.422 32.9186V34.6782H115.785V35.7943H113.422V37.6545H116.086V38.8008H112.014V31.7723H116.086V32.9186H113.422ZM123.16 38.8008L121.612 36.0658H120.948V38.8008H119.54V31.7824H122.175C122.718 31.7824 123.18 31.8796 123.562 32.074C123.945 32.2616 124.229 32.5197 124.417 32.8482C124.612 33.17 124.709 33.5319 124.709 33.9341C124.709 34.3967 124.575 34.8156 124.307 35.191C124.038 35.5597 123.64 35.8144 123.11 35.9552L124.789 38.8008H123.16ZM120.948 35.01H122.125C122.507 35.01 122.792 34.9195 122.979 34.7385C123.167 34.5508 123.261 34.2928 123.261 33.9643C123.261 33.6425 123.167 33.3945 122.979 33.2202C122.792 33.0392 122.507 32.9487 122.125 32.9487H120.948V35.01ZM131.05 35.8949C131.05 36.096 131.036 36.277 131.009 36.4378H126.937C126.971 36.84 127.111 37.1551 127.36 37.383C127.608 37.6109 127.913 37.7249 128.275 37.7249C128.797 37.7249 129.169 37.5003 129.391 37.0512H130.909C130.748 37.5875 130.44 38.0299 129.984 38.3785C129.528 38.7203 128.968 38.8913 128.305 38.8913C127.768 38.8913 127.286 38.774 126.857 38.5393C126.434 38.298 126.103 37.9595 125.861 37.5238C125.627 37.0881 125.509 36.5853 125.509 36.0155C125.509 35.439 125.627 34.9329 125.861 34.4972C126.096 34.0615 126.424 33.7263 126.847 33.4917C127.269 33.2571 127.755 33.1398 128.305 33.1398C128.834 33.1398 129.307 33.2537 129.722 33.4817C130.145 33.7096 130.47 34.0347 130.698 34.457C130.932 34.8726 131.05 35.3519 131.05 35.8949ZM129.592 35.4927C129.585 35.1307 129.454 34.8424 129.2 34.6279C128.945 34.4067 128.633 34.2961 128.264 34.2961C127.916 34.2961 127.621 34.4034 127.38 34.6179C127.145 34.8257 127.001 35.1173 126.947 35.4927H129.592ZM133.374 34.0347C133.555 33.78 133.803 33.5688 134.118 33.4012C134.44 33.2269 134.805 33.1398 135.214 33.1398C135.69 33.1398 136.119 33.2571 136.501 33.4917C136.89 33.7263 137.195 34.0615 137.416 34.4972C137.644 34.9262 137.758 35.4256 137.758 35.9954C137.758 36.5652 137.644 37.0713 137.416 37.5137C137.195 37.9495 136.89 38.288 136.501 38.5293C136.119 38.7706 135.69 38.8913 135.214 38.8913C134.805 38.8913 134.443 38.8075 134.128 38.6399C133.82 38.4723 133.569 38.2612 133.374 38.0064V41.4553H131.967V33.2303H133.374V34.0347ZM136.32 35.9954C136.32 35.6603 136.25 35.372 136.109 35.1307C135.975 34.8827 135.794 34.695 135.566 34.5676C135.345 34.4402 135.104 34.3766 134.842 34.3766C134.588 34.3766 134.346 34.4436 134.118 34.5777C133.897 34.705 133.716 34.8927 133.575 35.1407C133.441 35.3888 133.374 35.6804 133.374 36.0155C133.374 36.3507 133.441 36.6423 133.575 36.8903C133.716 37.1383 133.897 37.3294 134.118 37.4635C134.346 37.5908 134.588 37.6545 134.842 37.6545C135.104 37.6545 135.345 37.5875 135.566 37.4534C135.794 37.3193 135.975 37.1283 136.109 36.8803C136.25 36.6322 136.32 36.3373 136.32 35.9954ZM141.144 38.8913C140.608 38.8913 140.125 38.774 139.696 38.5393C139.267 38.298 138.929 37.9595 138.681 37.5238C138.439 37.0881 138.319 36.5853 138.319 36.0155C138.319 35.4457 138.443 34.943 138.691 34.5073C138.945 34.0716 139.291 33.7364 139.726 33.5018C140.162 33.2604 140.648 33.1398 141.184 33.1398C141.721 33.1398 142.207 33.2604 142.642 33.5018C143.078 33.7364 143.42 34.0716 143.668 34.5073C143.923 34.943 144.05 35.4457 144.05 36.0155C144.05 36.5853 143.919 37.0881 143.658 37.5238C143.403 37.9595 143.055 38.298 142.612 38.5393C142.177 38.774 141.687 38.8913 141.144 38.8913ZM141.144 37.6646C141.399 37.6646 141.637 37.6042 141.858 37.4836C142.086 37.3562 142.267 37.1685 142.401 36.9205C142.535 36.6725 142.602 36.3708 142.602 36.0155C142.602 35.486 142.461 35.0804 142.18 34.7989C141.905 34.5106 141.567 34.3665 141.164 34.3665C140.762 34.3665 140.424 34.5106 140.149 34.7989C139.881 35.0804 139.747 35.486 139.747 36.0155C139.747 36.5451 139.877 36.954 140.139 37.2422C140.407 37.5238 140.742 37.6646 141.144 37.6646ZM146.38 34.095C146.561 33.8001 146.795 33.5688 147.084 33.4012C147.379 33.2336 147.714 33.1498 148.089 33.1498V34.6279H147.717C147.275 34.6279 146.94 34.7318 146.712 34.9396C146.49 35.1474 146.38 35.5094 146.38 36.0256V38.8008H144.972V33.2303H146.38V34.095ZM150.566 34.3866V37.0814C150.566 37.2691 150.609 37.4065 150.696 37.4936C150.79 37.5741 150.944 37.6143 151.159 37.6143H151.813V38.8008H150.928C149.741 38.8008 149.148 38.2243 149.148 37.0713V34.3866H148.484V33.2303H149.148V31.8527H150.566V33.2303H151.813V34.3866H150.566ZM153.428 32.5667C153.18 32.5667 152.972 32.4896 152.805 32.3354C152.644 32.1745 152.564 31.9768 152.564 31.7421C152.564 31.5075 152.644 31.3131 152.805 31.1589C152.972 30.9981 153.18 30.9176 153.428 30.9176C153.676 30.9176 153.881 30.9981 154.042 31.1589C154.209 31.3131 154.293 31.5075 154.293 31.7421C154.293 31.9768 154.209 32.1745 154.042 32.3354C153.881 32.4896 153.676 32.5667 153.428 32.5667ZM154.122 33.2303V38.8008H152.714V33.2303H154.122ZM158.489 33.1498C159.153 33.1498 159.689 33.361 160.098 33.7833C160.507 34.1989 160.711 34.7821 160.711 35.5329V38.8008H159.304V35.7239C159.304 35.2815 159.193 34.943 158.972 34.7084C158.751 34.4671 158.449 34.3464 158.067 34.3464C157.678 34.3464 157.37 34.4671 157.142 34.7084C156.921 34.943 156.81 35.2815 156.81 35.7239V38.8008H155.402V33.2303H156.81V33.9241C156.998 33.6828 157.236 33.4951 157.524 33.361C157.819 33.2202 158.141 33.1498 158.489 33.1498ZM164.121 33.1398C164.537 33.1398 164.902 33.2236 165.217 33.3912C165.532 33.552 165.78 33.7632 165.961 34.0246V33.2303H167.379V38.841C167.379 39.3572 167.275 39.8163 167.068 40.2185C166.86 40.6274 166.548 40.9492 166.132 41.1838C165.717 41.4251 165.214 41.5458 164.624 41.5458C163.833 41.5458 163.183 41.3615 162.673 40.9928C162.171 40.6241 161.886 40.1213 161.819 39.4845H163.216C163.29 39.7393 163.448 39.9404 163.689 40.0878C163.937 40.242 164.235 40.3191 164.584 40.3191C164.993 40.3191 165.325 40.1951 165.579 39.9471C165.834 39.7057 165.961 39.3371 165.961 38.841V37.9763C165.78 38.2377 165.529 38.4556 165.207 38.6298C164.892 38.8041 164.53 38.8913 164.121 38.8913C163.652 38.8913 163.223 38.7706 162.834 38.5293C162.446 38.288 162.137 37.9495 161.909 37.5137C161.688 37.0713 161.577 36.5652 161.577 35.9954C161.577 35.4323 161.688 34.9329 161.909 34.4972C162.137 34.0615 162.442 33.7263 162.824 33.4917C163.213 33.2571 163.645 33.1398 164.121 33.1398ZM165.961 36.0155C165.961 35.6737 165.894 35.3821 165.76 35.1407C165.626 34.8927 165.445 34.705 165.217 34.5777C164.989 34.4436 164.745 34.3766 164.483 34.3766C164.222 34.3766 163.981 34.4402 163.759 34.5676C163.538 34.695 163.357 34.8827 163.216 35.1307C163.082 35.372 163.015 35.6603 163.015 35.9954C163.015 36.3306 163.082 36.6255 163.216 36.8803C163.357 37.1283 163.538 37.3193 163.759 37.4534C163.987 37.5875 164.229 37.6545 164.483 37.6545C164.745 37.6545 164.989 37.5908 165.217 37.4635C165.445 37.3294 165.626 37.1417 165.76 36.9004C165.894 36.6524 165.961 36.3574 165.961 36.0155Z" fill="#444444"/>
</g>
<defs>
<filter id="filter0_d_780_19869" x="0.861318" y="0.861318" width="763.477" height="183.875" filterUnits="userSpaceOnUse" color-interpolation-filters="sRGB">
<feFlood flood-opacity="0" result="BackgroundImageFix"/>
<feColorMatrix in="SourceAlpha" type="matrix" values="0 0 0 0 0 0 0 0 0 0 0 0 0 0 0 0 0 0 127 0" result="hardAlpha"/>
<feMorphology radius="11.1387" operator="dilate" in="SourceAlpha" result="effect1_dropShadow_780_19869"/>
<feOffset/>
<feComposite in2="hardAlpha" operator="out"/>
<feColorMatrix type="matrix" values="0 0 0 0 0.350753 0 0 0 0 0 0 0 0 0 0.915007 0 0 0 0.09 0"/>
<feBlend mode="normal" in2="BackgroundImageFix" result="effect1_dropShadow_780_19869"/>
<feBlend mode="normal" in="SourceGraphic" in2="effect1_dropShadow_780_19869" result="shape"/>
</filter>
<linearGradient id="paint0_linear_780_19869" x1="81.6687" y1="84.543" x2="81.6687" y2="130.509" gradientUnits="userSpaceOnUse">
<stop stop-color="#94D4FF"/>
<stop offset="0.541667" stop-color="white" stop-opacity="0"/>
</linearGradient>
<linearGradient id="paint1_linear_780_19869" x1="269.981" y1="84.543" x2="269.981" y2="136.255" gradientUnits="userSpaceOnUse">
<stop stop-color="#94D4FF"/>
<stop offset="0.541667" stop-color="white" stop-opacity="0"/>
</linearGradient>
<linearGradient id="paint2_linear_780_19869" x1="464.036" y1="84.543" x2="464.036" y2="130.509" gradientUnits="userSpaceOnUse">
<stop stop-color="#FFAFAF"/>
<stop offset="0.541667" stop-color="white" stop-opacity="0"/>
</linearGradient>
</defs>
</svg>
