<svg width="339" height="301" viewBox="0 0 339 301" fill="none" xmlns="http://www.w3.org/2000/svg">
<g filter="url(#filter0_dd_780_19870)">
<mask id="path-1-inside-1_780_19870" fill="white">
<path d="M98 73.1812C98 68.1106 102.111 64 107.181 64H259.819C264.889 64 269 68.1106 269 73.1812V187.946C269 193.017 264.889 197.128 259.819 197.128H107.181C102.111 197.128 98 193.017 98 187.946V73.1812Z"/>
</mask>
<path d="M98 73.1812C98 68.1106 102.111 64 107.181 64H259.819C264.889 64 269 68.1106 269 73.1812V187.946C269 193.017 264.889 197.128 259.819 197.128H107.181C102.111 197.128 98 193.017 98 187.946V73.1812Z" fill="white" shape-rendering="crispEdges"/>
<path d="M98 64H269H98ZM269 187.946C269 193.472 264.52 197.952 258.995 197.952H108.005C102.48 197.952 98 193.472 98 187.946C98 192.562 102.111 196.303 107.181 196.303H259.819C264.889 196.303 269 192.562 269 187.946ZM98 197.128V64V197.128ZM269 64V197.128V64Z" fill="black" mask="url(#path-1-inside-1_780_19870)"/>
<path d="M148.727 140.393H138.786V146.298C139.202 145.744 139.815 145.279 140.626 144.904C141.457 144.528 142.337 144.34 143.267 144.34C144.929 144.34 146.274 144.696 147.303 145.408C148.351 146.12 149.093 147.02 149.528 148.108C149.983 149.196 150.211 150.344 150.211 151.55C150.211 153.014 149.924 154.32 149.35 155.467C148.796 156.595 147.955 157.485 146.828 158.138C145.72 158.791 144.355 159.117 142.733 159.117C140.577 159.117 138.846 158.583 137.54 157.515C136.234 156.447 135.453 155.032 135.196 153.272H138.49C138.707 154.201 139.192 154.943 139.944 155.497C140.695 156.031 141.635 156.298 142.763 156.298C144.167 156.298 145.216 155.873 145.908 155.022C146.62 154.172 146.976 153.044 146.976 151.639C146.976 150.215 146.62 149.127 145.908 148.375C145.196 147.604 144.147 147.218 142.763 147.218C141.793 147.218 140.972 147.465 140.3 147.96C139.647 148.435 139.172 149.088 138.875 149.918H135.671V137.426H148.727V140.393ZM152.99 154.607V152.055L162.96 137.752H167.055V151.669H169.815V154.607H167.055V159.117H163.732V154.607H152.99ZM163.88 141.194L156.877 151.669H163.88V141.194ZM176.446 155.052L172.855 163.242H170.66L172.766 155.052H176.446ZM178.63 148.019C178.63 144.597 179.204 141.926 180.351 140.007C181.518 138.069 183.516 137.099 186.345 137.099C189.174 137.099 191.162 138.069 192.31 140.007C193.477 141.926 194.06 144.597 194.06 148.019C194.06 151.481 193.477 154.191 192.31 156.15C191.162 158.089 189.174 159.058 186.345 159.058C183.516 159.058 181.518 158.089 180.351 156.15C179.204 154.191 178.63 151.481 178.63 148.019ZM190.737 148.019C190.737 146.417 190.628 145.062 190.411 143.954C190.213 142.846 189.797 141.946 189.164 141.254C188.531 140.542 187.592 140.186 186.345 140.186C185.099 140.186 184.159 140.542 183.526 141.254C182.893 141.946 182.468 142.846 182.25 143.954C182.053 145.062 181.954 146.417 181.954 148.019C181.954 149.681 182.053 151.076 182.25 152.203C182.448 153.331 182.864 154.241 183.497 154.933C184.149 155.626 185.099 155.972 186.345 155.972C187.592 155.972 188.531 155.626 189.164 154.933C189.817 154.241 190.242 153.331 190.44 152.203C190.638 151.076 190.737 149.681 190.737 148.019ZM197.313 148.019C197.313 144.597 197.887 141.926 199.034 140.007C200.202 138.069 202.2 137.099 205.028 137.099C207.857 137.099 209.845 138.069 210.993 140.007C212.16 141.926 212.744 144.597 212.744 148.019C212.744 151.481 212.16 154.191 210.993 156.15C209.845 158.089 207.857 159.058 205.028 159.058C202.2 159.058 200.202 158.089 199.034 156.15C197.887 154.191 197.313 151.481 197.313 148.019ZM209.42 148.019C209.42 146.417 209.311 145.062 209.094 143.954C208.896 142.846 208.48 141.946 207.847 141.254C207.214 140.542 206.275 140.186 205.028 140.186C203.782 140.186 202.842 140.542 202.209 141.254C201.576 141.946 201.151 142.846 200.933 143.954C200.736 145.062 200.637 146.417 200.637 148.019C200.637 149.681 200.736 151.076 200.933 152.203C201.131 153.331 201.547 154.241 202.18 154.933C202.833 155.626 203.782 155.972 205.028 155.972C206.275 155.972 207.214 155.626 207.847 154.933C208.5 154.241 208.926 153.331 209.123 152.203C209.321 151.076 209.42 149.681 209.42 148.019ZM215.996 148.019C215.996 144.597 216.57 141.926 217.718 140.007C218.885 138.069 220.883 137.099 223.712 137.099C226.54 137.099 228.529 138.069 229.676 140.007C230.843 141.926 231.427 144.597 231.427 148.019C231.427 151.481 230.843 154.191 229.676 156.15C228.529 158.089 226.54 159.058 223.712 159.058C220.883 159.058 218.885 158.089 217.718 156.15C216.57 154.191 215.996 151.481 215.996 148.019ZM228.103 148.019C228.103 146.417 227.994 145.062 227.777 143.954C227.579 142.846 227.164 141.946 226.531 141.254C225.898 140.542 224.958 140.186 223.712 140.186C222.465 140.186 221.526 140.542 220.893 141.254C220.26 141.946 219.834 142.846 219.617 143.954C219.419 145.062 219.32 146.417 219.32 148.019C219.32 149.681 219.419 151.076 219.617 152.203C219.814 153.331 220.23 154.241 220.863 154.933C221.516 155.626 222.465 155.972 223.712 155.972C224.958 155.972 225.898 155.626 226.531 154.933C227.183 154.241 227.609 153.331 227.807 152.203C228.004 151.076 228.103 149.681 228.103 148.019Z" fill="#686897"/>
<path d="M163.183 171.243V172.163H161.353V178.117H160.226V172.163H158.386V171.243H163.183ZM166.58 178.206C166.066 178.206 165.601 178.091 165.185 177.86C164.77 177.623 164.444 177.293 164.206 176.871C163.969 176.442 163.85 175.948 163.85 175.387C163.85 174.833 163.972 174.342 164.216 173.913C164.46 173.485 164.793 173.155 165.215 172.924C165.637 172.694 166.109 172.578 166.63 172.578C167.151 172.578 167.622 172.694 168.044 172.924C168.466 173.155 168.799 173.485 169.043 173.913C169.287 174.342 169.409 174.833 169.409 175.387C169.409 175.941 169.284 176.432 169.033 176.861C168.783 177.29 168.44 177.623 168.004 177.86C167.576 178.091 167.101 178.206 166.58 178.206ZM166.58 177.227C166.87 177.227 167.141 177.158 167.391 177.019C167.648 176.881 167.856 176.673 168.014 176.396C168.173 176.119 168.252 175.783 168.252 175.387C168.252 174.992 168.176 174.659 168.024 174.388C167.873 174.111 167.671 173.904 167.421 173.765C167.17 173.627 166.9 173.557 166.61 173.557C166.32 173.557 166.049 173.627 165.799 173.765C165.555 173.904 165.36 174.111 165.215 174.388C165.07 174.659 164.998 174.992 164.998 175.387C164.998 175.974 165.146 176.429 165.443 176.752C165.746 177.069 166.125 177.227 166.58 177.227ZM171.73 173.587V176.604C171.73 176.808 171.777 176.957 171.869 177.049C171.968 177.135 172.133 177.178 172.363 177.178H173.056V178.117H172.166C171.658 178.117 171.269 177.998 170.998 177.761C170.728 177.524 170.593 177.138 170.593 176.604V173.587H169.95V172.667H170.593V171.312H171.73V172.667H173.056V173.587H171.73ZM173.61 175.367C173.61 174.82 173.723 174.335 173.947 173.913C174.178 173.491 174.487 173.165 174.876 172.934C175.272 172.697 175.707 172.578 176.182 172.578C176.611 172.578 176.983 172.664 177.3 172.835C177.623 173 177.88 173.208 178.071 173.458V172.667H179.209V178.117H178.071V177.306C177.88 177.563 177.62 177.778 177.29 177.949C176.96 178.12 176.584 178.206 176.162 178.206C175.694 178.206 175.266 178.088 174.876 177.85C174.487 177.606 174.178 177.27 173.947 176.841C173.723 176.406 173.61 175.915 173.61 175.367ZM178.071 175.387C178.071 175.011 177.992 174.685 177.834 174.408C177.682 174.131 177.481 173.92 177.231 173.775C176.98 173.63 176.71 173.557 176.42 173.557C176.129 173.557 175.859 173.63 175.608 173.775C175.358 173.913 175.153 174.121 174.995 174.398C174.844 174.668 174.768 174.992 174.768 175.367C174.768 175.743 174.844 176.073 174.995 176.357C175.153 176.64 175.358 176.858 175.608 177.009C175.866 177.154 176.136 177.227 176.42 177.227C176.71 177.227 176.98 177.154 177.231 177.009C177.481 176.864 177.682 176.653 177.834 176.376C177.992 176.093 178.071 175.763 178.071 175.387ZM181.709 170.798V178.117H180.581V170.798H181.709ZM186.668 177.207H188.993V178.117H185.541V171.243H186.668V177.207ZM190.401 171.945C190.196 171.945 190.025 171.876 189.886 171.737C189.748 171.599 189.679 171.427 189.679 171.223C189.679 171.019 189.748 170.847 189.886 170.709C190.025 170.57 190.196 170.501 190.401 170.501C190.599 170.501 190.767 170.57 190.905 170.709C191.044 170.847 191.113 171.019 191.113 171.223C191.113 171.427 191.044 171.599 190.905 171.737C190.767 171.876 190.599 171.945 190.401 171.945ZM190.955 172.667V178.117H189.827V172.667H190.955ZM194.483 175.397L196.995 178.117H195.472L193.454 175.773V178.117H192.326V170.798H193.454V175.051L195.432 172.667H196.995L194.483 175.397ZM202.689 175.259C202.689 175.463 202.676 175.648 202.65 175.813H198.486C198.519 176.248 198.68 176.597 198.97 176.861C199.26 177.125 199.616 177.257 200.039 177.257C200.645 177.257 201.074 177.003 201.324 176.495H202.541C202.376 176.996 202.076 177.408 201.641 177.731C201.212 178.048 200.678 178.206 200.039 178.206C199.518 178.206 199.049 178.091 198.634 177.86C198.225 177.623 197.902 177.293 197.665 176.871C197.434 176.442 197.318 175.948 197.318 175.387C197.318 174.827 197.431 174.335 197.655 173.913C197.886 173.485 198.205 173.155 198.614 172.924C199.03 172.694 199.504 172.578 200.039 172.578C200.553 172.578 201.011 172.69 201.413 172.914C201.816 173.139 202.129 173.455 202.353 173.864C202.577 174.266 202.689 174.731 202.689 175.259ZM201.512 174.903C201.506 174.487 201.357 174.154 201.067 173.904C200.777 173.653 200.418 173.528 199.989 173.528C199.6 173.528 199.267 173.653 198.99 173.904C198.713 174.148 198.548 174.481 198.495 174.903H201.512ZM205.668 178.206C205.24 178.206 204.854 178.13 204.511 177.979C204.175 177.82 203.908 177.609 203.71 177.346C203.512 177.075 203.407 176.775 203.393 176.446H204.561C204.58 176.676 204.689 176.871 204.887 177.029C205.091 177.181 205.345 177.257 205.649 177.257C205.965 177.257 206.209 177.197 206.381 177.079C206.559 176.953 206.648 176.795 206.648 176.604C206.648 176.399 206.549 176.248 206.351 176.149C206.16 176.05 205.853 175.941 205.431 175.822C205.022 175.71 204.689 175.602 204.432 175.496C204.175 175.391 203.951 175.229 203.759 175.011C203.575 174.794 203.482 174.507 203.482 174.151C203.482 173.861 203.568 173.597 203.74 173.36C203.911 173.116 204.155 172.924 204.472 172.786C204.795 172.647 205.164 172.578 205.579 172.578C206.199 172.578 206.697 172.736 207.073 173.053C207.455 173.363 207.66 173.788 207.686 174.329H206.559C206.539 174.085 206.44 173.89 206.262 173.745C206.084 173.6 205.843 173.528 205.54 173.528C205.243 173.528 205.016 173.584 204.857 173.696C204.699 173.808 204.62 173.956 204.62 174.141C204.62 174.286 204.673 174.408 204.778 174.507C204.884 174.606 205.012 174.685 205.164 174.744C205.316 174.797 205.54 174.866 205.837 174.952C206.232 175.058 206.555 175.166 206.806 175.278C207.063 175.384 207.284 175.542 207.469 175.753C207.653 175.964 207.749 176.244 207.755 176.594C207.755 176.904 207.67 177.181 207.498 177.425C207.327 177.669 207.083 177.86 206.766 177.998C206.456 178.137 206.09 178.206 205.668 178.206Z" fill="#686897"/>
<path d="M139.685 106.137L138.77 103.88V153.198H221.196V120.926L220.28 121.764C219.364 122.602 217.532 124.279 215.701 121.585C213.869 118.891 212.037 111.827 210.206 108.102C208.374 104.377 206.542 103.992 204.711 105.627C202.879 107.262 201.047 110.918 199.216 112.918C197.384 114.918 195.552 115.262 193.72 116.742C191.889 118.221 190.057 120.835 188.225 119.165C186.394 117.494 184.562 111.538 182.73 108.291C180.899 105.044 179.067 104.506 177.235 106.107C175.403 107.707 173.572 111.447 171.74 111.231C169.908 111.016 168.077 106.845 166.245 104.081C164.413 101.317 162.582 99.9593 160.75 100.603C158.918 101.247 157.086 103.893 155.255 104.455C153.423 105.018 151.591 103.497 149.76 105.311C147.928 107.125 146.096 112.274 144.265 112.591C142.433 112.909 140.601 108.394 139.685 106.137Z" fill="url(#paint0_linear_780_19870)"/>
<path d="M138.77 103.826L139.685 106.048C140.601 108.27 142.433 112.714 144.265 112.402C146.096 112.089 147.928 107.021 149.76 105.235C151.591 103.449 153.423 104.946 155.255 104.393C157.086 103.839 158.918 101.235 160.75 100.601C162.582 99.9669 164.413 101.303 166.245 104.024C168.077 106.745 169.908 110.851 171.74 111.063C173.572 111.275 175.403 107.594 177.235 106.018C179.067 104.443 180.899 104.973 182.73 108.169C184.562 111.365 186.394 117.227 188.225 118.872C190.057 120.517 191.889 117.943 193.72 116.487C195.552 115.031 197.384 114.692 199.216 112.723C201.047 110.754 202.879 107.156 204.711 105.546C206.542 103.937 208.374 104.316 210.206 107.982C212.037 111.649 213.869 118.603 215.701 121.255C217.532 123.907 219.364 122.256 220.28 121.431L221.196 120.606" stroke="#18A0FB" stroke-width="1.2364" stroke-linecap="round" stroke-linejoin="round"/>
<path d="M166.702 84.9158H164.704V86.9633H163.656V84.9158H161.658V83.9662H163.656V81.9188H164.704V83.9662H166.702V84.9158ZM168.818 86.4786C169.451 85.9313 169.949 85.4829 170.311 85.1334C170.681 84.7773 170.987 84.408 171.231 84.0256C171.475 83.6431 171.597 83.2607 171.597 82.8782C171.597 82.4826 171.502 82.1726 171.31 81.9484C171.126 81.7242 170.832 81.6121 170.43 81.6121C170.041 81.6121 169.738 81.7374 169.52 81.988C169.309 82.232 169.197 82.5617 169.184 82.9771H168.096C168.116 82.2254 168.34 81.6517 168.768 81.2561C169.204 80.8538 169.754 80.6527 170.42 80.6527C171.139 80.6527 171.699 80.8505 172.102 81.2462C172.51 81.6418 172.715 82.1693 172.715 82.8288C172.715 83.3035 172.593 83.7618 172.349 84.2036C172.112 84.6388 171.825 85.0312 171.488 85.3807C171.159 85.7236 170.737 86.1225 170.222 86.5775L169.777 86.9731H172.913V87.9128H168.106V87.0918L168.818 86.4786ZM174.398 88.081C174.193 88.081 174.022 88.0117 173.884 87.8732C173.745 87.7348 173.676 87.5633 173.676 87.3589C173.676 87.1545 173.745 86.983 173.884 86.8446C174.022 86.7061 174.193 86.6368 174.398 86.6368C174.596 86.6368 174.764 86.7061 174.902 86.8446C175.041 86.983 175.11 87.1545 175.11 87.3589C175.11 87.5633 175.041 87.7348 174.902 87.8732C174.764 88.0117 174.596 88.081 174.398 88.081ZM180.72 81.7704H177.407V83.7387C177.545 83.5541 177.75 83.3991 178.02 83.2739C178.297 83.1486 178.591 83.0859 178.9 83.0859C179.454 83.0859 179.903 83.2046 180.246 83.442C180.595 83.6794 180.842 83.9794 180.987 84.3421C181.139 84.7048 181.215 85.0872 181.215 85.4895C181.215 85.9774 181.119 86.4126 180.928 86.7951C180.743 87.171 180.463 87.4677 180.087 87.6853C179.718 87.9029 179.263 88.0117 178.722 88.0117C178.004 88.0117 177.427 87.8337 176.991 87.4776C176.556 87.1215 176.296 86.65 176.21 86.0632H177.308C177.38 86.3731 177.542 86.6204 177.793 86.805C178.043 86.983 178.356 87.0721 178.732 87.0721C179.2 87.0721 179.55 86.9303 179.781 86.6467C180.018 86.3632 180.137 85.9873 180.137 85.5191C180.137 85.0444 180.018 84.6817 179.781 84.4311C179.543 84.1739 179.194 84.0454 178.732 84.0454C178.409 84.0454 178.136 84.1278 177.911 84.2926C177.694 84.4509 177.535 84.6685 177.437 84.9455H176.368V80.7813H180.72V81.7704ZM182.102 82.5419C182.102 82.0605 182.24 81.6847 182.517 81.4143C182.801 81.1374 183.164 80.9989 183.605 80.9989C184.047 80.9989 184.407 81.1374 184.684 81.4143C184.967 81.6847 185.109 82.0605 185.109 82.5419C185.109 83.0233 184.967 83.4024 184.684 83.6794C184.407 83.9563 184.047 84.0948 183.605 84.0948C183.164 84.0948 182.801 83.9563 182.517 83.6794C182.24 83.4024 182.102 83.0233 182.102 82.5419ZM188.136 81.1275L184.189 88.0117H183.081L187.028 81.1275H188.136ZM183.605 81.6814C183.19 81.6814 182.982 81.9682 182.982 82.5419C182.982 83.1222 183.19 83.4123 183.605 83.4123C183.803 83.4123 183.955 83.3431 184.06 83.2046C184.172 83.0595 184.229 82.8386 184.229 82.5419C184.229 81.9682 184.021 81.6814 183.605 81.6814ZM186.128 86.5874C186.128 86.106 186.266 85.7302 186.543 85.4598C186.827 85.1828 187.189 85.0444 187.631 85.0444C188.066 85.0444 188.422 85.1828 188.699 85.4598C188.983 85.7302 189.125 86.106 189.125 86.5874C189.125 87.0688 188.983 87.4479 188.699 87.7249C188.422 88.0018 188.066 88.1403 187.631 88.1403C187.189 88.1403 186.827 88.0018 186.543 87.7249C186.266 87.4479 186.128 87.0688 186.128 86.5874ZM187.621 85.7269C187.206 85.7269 186.998 86.0137 186.998 86.5874C186.998 87.1611 187.206 87.4479 187.621 87.4479C188.037 87.4479 188.244 87.1611 188.244 86.5874C188.244 86.0137 188.037 85.7269 187.621 85.7269Z" fill="#00DB30"/>
<path d="M196.263 81.8828L198.813 86.0527C198.835 86.0878 198.847 86.1281 198.848 86.1693C198.849 86.2105 198.838 86.2513 198.818 86.2873C198.798 86.3233 198.769 86.3533 198.733 86.3742C198.698 86.3952 198.657 86.4062 198.616 86.4063L193.516 86.4063C193.475 86.4062 193.434 86.3952 193.399 86.3742C193.363 86.3533 193.334 86.3233 193.314 86.2873C193.294 86.2513 193.284 86.2105 193.284 86.1693C193.285 86.1281 193.297 86.0878 193.319 86.0527L195.869 81.8828C195.889 81.8485 195.918 81.8202 195.953 81.8005C195.987 81.7807 196.026 81.7704 196.066 81.7704C196.106 81.7704 196.145 81.7807 196.179 81.8005C196.214 81.8202 196.243 81.8485 196.263 81.8828Z" fill="#00ED34" stroke="#00ED34" stroke-width="1.2364" stroke-linecap="round" stroke-linejoin="round"/>
</g>
<defs>
<filter id="filter0_dd_780_19870" x="0.197569" y="0.514214" width="338.008" height="300.137" filterUnits="userSpaceOnUse" color-interpolation-filters="sRGB">
<feFlood flood-opacity="0" result="BackgroundImageFix"/>
<feColorMatrix in="SourceAlpha" type="matrix" values="0 0 0 0 0 0 0 0 0 0 0 0 0 0 0 0 0 0 127 0" result="hardAlpha"/>
<feOffset dx="-11.4765" dy="16.0671"/>
<feGaussianBlur stdDeviation="33.5114"/>
<feComposite in2="hardAlpha" operator="out"/>
<feColorMatrix type="matrix" values="0 0 0 0 0.0444481 0 0 0 0 0 0 0 0 0 0.888965 0 0 0 0.07 0"/>
<feBlend mode="normal" in2="BackgroundImageFix" result="effect1_dropShadow_780_19870"/>
<feColorMatrix in="SourceAlpha" type="matrix" values="0 0 0 0 0 0 0 0 0 0 0 0 0 0 0 0 0 0 127 0" result="hardAlpha"/>
<feOffset dx="-14.2986" dy="20.018"/>
<feGaussianBlur stdDeviation="41.7519"/>
<feComposite in2="hardAlpha" operator="out"/>
<feColorMatrix type="matrix" values="0 0 0 0 0.0444481 0 0 0 0 0 0 0 0 0 0.888965 0 0 0 0.07 0"/>
<feBlend mode="normal" in2="effect1_dropShadow_780_19870" result="effect2_dropShadow_780_19870"/>
<feBlend mode="normal" in="SourceGraphic" in2="effect2_dropShadow_780_19870" result="shape"/>
</filter>
<linearGradient id="paint0_linear_780_19870" x1="179.983" y1="100.445" x2="179.983" y2="153.198" gradientUnits="userSpaceOnUse">
<stop stop-color="#94D4FF"/>
<stop offset="0.541667" stop-color="white" stop-opacity="0"/>
</linearGradient>
</defs>
</svg>
