<svg width="271" height="539" viewBox="0 0 271 539" fill="none" xmlns="http://www.w3.org/2000/svg">
<g filter="url(#filter0_d_780_19925)">
<rect x="8" y="8" width="254.554" height="900.925" rx="8.14574" fill="white"/>
<rect x="8.50911" y="8.50911" width="253.536" height="899.907" rx="7.63663" stroke="#B1B1B1" stroke-width="1.01822"/>
<path d="M34.4751 57.5161V59.8173H28.5491V63.4625H33.0904V65.723H28.5491V71.7305H25.6981V57.5161H34.4751ZM37.7186 59.1046C37.2163 59.1046 36.7955 58.9484 36.4561 58.6362C36.1302 58.3104 35.9673 57.9099 35.9673 57.4347C35.9673 56.9595 36.1302 56.5658 36.4561 56.2536C36.7955 55.9277 37.2163 55.7648 37.7186 55.7648C38.221 55.7648 38.635 55.9277 38.9609 56.2536C39.3003 56.5658 39.47 56.9595 39.47 57.4347C39.47 57.9099 39.3003 58.3104 38.9609 58.6362C38.635 58.9484 38.221 59.1046 37.7186 59.1046ZM39.1238 60.4486V71.7305H36.2728V60.4486H39.1238ZM44.5676 56.6608V71.7305H41.7166V56.6608H44.5676ZM50.4798 62.7905V68.2482C50.4798 68.6283 50.568 68.9066 50.7445 69.0831C50.9346 69.246 51.2468 69.3275 51.6813 69.3275H53.005V71.7305H51.2129C48.8099 71.7305 47.6084 70.5629 47.6084 68.2278V62.7905H46.2644V60.4486H47.6084V57.6587H50.4798V60.4486H53.005V62.7905H50.4798ZM65.3192 65.8452C65.3192 66.2525 65.292 66.619 65.2377 66.9448H56.9902C57.0581 67.7594 57.3432 68.3975 57.8455 68.8591C58.3478 69.3207 58.9655 69.5515 59.6986 69.5515C60.7576 69.5515 61.5111 69.0967 61.9591 68.1871H65.0341C64.7083 69.2732 64.0838 70.1692 63.1606 70.8752C62.2374 71.5676 61.1038 71.9137 59.7597 71.9137C58.6736 71.9137 57.6961 71.6762 56.8273 71.201C55.972 70.7123 55.2999 70.0267 54.8112 69.1442C54.336 68.2617 54.0984 67.2435 54.0984 66.0895C54.0984 64.922 54.336 63.897 54.8112 63.0145C55.2864 62.1321 55.9516 61.4533 56.8069 60.9781C57.6622 60.5029 58.6465 60.2653 59.7597 60.2653C60.8322 60.2653 61.7894 60.4961 62.6311 60.9577C63.4864 61.4193 64.1448 62.0778 64.6064 62.9331C65.0816 63.7748 65.3192 64.7455 65.3192 65.8452ZM62.3664 65.0306C62.3528 64.2975 62.088 63.7137 61.5721 63.2793C61.0563 62.8312 60.425 62.6072 59.6783 62.6072C58.9723 62.6072 58.3749 62.8245 57.8862 63.2589C57.411 63.6798 57.1191 64.2703 57.0105 65.0306H62.3664ZM70.0272 62.2C70.3937 61.6026 70.8689 61.1342 71.4527 60.7948C72.05 60.4554 72.7288 60.2857 73.4891 60.2857V63.2793H72.7356C71.8396 63.2793 71.1608 63.4897 70.6992 63.9106C70.2512 64.3314 70.0272 65.0645 70.0272 66.1099V71.7305H67.1762V60.4486H70.0272V62.2ZM79.5026 71.9137C78.5795 71.9137 77.7513 71.7508 77.0182 71.425C76.2851 71.0856 75.7013 70.6308 75.2669 70.0606C74.846 69.4904 74.6152 68.8591 74.5745 68.1667H77.4458C77.5002 68.6011 77.7106 68.9609 78.0771 69.246C78.4573 69.5311 78.9257 69.6737 79.4823 69.6737C80.0253 69.6737 80.4462 69.5651 80.7449 69.3478C81.0571 69.1306 81.2133 68.8523 81.2133 68.5129C81.2133 68.1463 81.0232 67.8748 80.643 67.6983C80.2765 67.5083 79.6859 67.3046 78.8714 67.0874C78.0296 66.8838 77.3372 66.6733 76.7942 66.4561C76.2647 66.2389 75.8031 65.9063 75.4094 65.4582C75.0293 65.0102 74.8392 64.4061 74.8392 63.6458C74.8392 63.0213 75.0157 62.4511 75.3687 61.9352C75.7352 61.4193 76.2511 61.012 76.9164 60.7134C77.5952 60.4147 78.3894 60.2653 79.299 60.2653C80.643 60.2653 81.7156 60.6047 82.5166 61.2836C83.3176 61.9488 83.7588 62.8516 83.8403 63.992H81.1114C81.0707 63.544 80.8806 63.191 80.5412 62.9331C80.2154 62.6615 79.7742 62.5258 79.2175 62.5258C78.7016 62.5258 78.3011 62.6208 78.016 62.8109C77.7445 63.0009 77.6088 63.2657 77.6088 63.6051C77.6088 63.9852 77.7988 64.2771 78.179 64.4808C78.5591 64.6708 79.1497 64.8677 79.9507 65.0713C80.7652 65.275 81.4373 65.4854 81.9667 65.7026C82.4962 65.9198 82.951 66.2592 83.3311 66.7208C83.7249 67.1689 83.9285 67.7662 83.9421 68.5129C83.9421 69.1646 83.7588 69.7483 83.3922 70.2642C83.0393 70.7801 82.5234 71.1874 81.8445 71.4861C81.1793 71.7712 80.3987 71.9137 79.5026 71.9137Z" fill="black"/>
<path d="M28.598 109.257C29.6529 109.257 30.5747 109.461 31.3635 109.87C32.1618 110.269 32.7747 110.849 33.2024 111.609C33.6395 112.36 33.8581 113.239 33.8581 114.246C33.8581 115.253 33.6395 116.128 33.2024 116.869C32.7747 117.61 32.1618 118.18 31.3635 118.58C30.5747 118.969 29.6529 119.164 28.598 119.164H25.3621V109.257H28.598ZM28.598 117.838C29.7574 117.838 30.646 117.525 31.2637 116.898C31.8814 116.27 32.1903 115.386 32.1903 114.246C32.1903 113.096 31.8814 112.198 31.2637 111.552C30.646 110.906 29.7574 110.583 28.598 110.583H26.9872V117.838H28.598ZM35.0696 115.201C35.0696 114.412 35.2311 113.714 35.5542 113.106C35.8869 112.497 36.3335 112.027 36.8942 111.694C37.4644 111.352 38.0916 111.181 38.7759 111.181C39.3936 111.181 39.9305 111.305 40.3867 111.552C40.8524 111.789 41.223 112.089 41.4986 112.45V111.31H43.1379V119.164H41.4986V117.995C41.223 118.366 40.8476 118.675 40.3724 118.922C39.8973 119.169 39.3556 119.292 38.7474 119.292C38.0726 119.292 37.4549 119.121 36.8942 118.779C36.3335 118.428 35.8869 117.943 35.5542 117.325C35.2311 116.698 35.0696 115.99 35.0696 115.201ZM41.4986 115.23C41.4986 114.688 41.3845 114.218 41.1565 113.818C40.9379 113.419 40.648 113.115 40.2869 112.906C39.9258 112.697 39.5361 112.592 39.118 112.592C38.6998 112.592 38.3102 112.697 37.9491 112.906C37.588 113.106 37.2933 113.405 37.0653 113.804C36.8467 114.194 36.7374 114.659 36.7374 115.201C36.7374 115.743 36.8467 116.218 37.0653 116.627C37.2933 117.035 37.588 117.349 37.9491 117.567C38.3197 117.777 38.7094 117.881 39.118 117.881C39.5361 117.881 39.9258 117.777 40.2869 117.567C40.648 117.358 40.9379 117.054 41.1565 116.655C41.3845 116.247 41.4986 115.771 41.4986 115.23ZM47.3109 112.635V116.983C47.3109 117.278 47.3774 117.491 47.5104 117.625C47.653 117.748 47.8906 117.81 48.2232 117.81H49.221V119.164H47.9381C47.2063 119.164 46.6456 118.993 46.256 118.651C45.8664 118.309 45.6715 117.753 45.6715 116.983V112.635H44.745V111.31H45.6715V109.357H47.3109V111.31H49.221V112.635H47.3109ZM58.0602 115.044C58.0602 115.339 58.0412 115.605 58.0032 115.843H52.0018C52.0493 116.47 52.2821 116.974 52.7003 117.354C53.1184 117.734 53.6316 117.924 54.2398 117.924C55.1141 117.924 55.7318 117.558 56.093 116.826H57.8463C57.6088 117.548 57.1764 118.142 56.5491 118.608C55.9314 119.064 55.1616 119.292 54.2398 119.292C53.4891 119.292 52.8143 119.126 52.2156 118.793C51.6264 118.451 51.1607 117.976 50.8186 117.368C50.486 116.75 50.3197 116.037 50.3197 115.23C50.3197 114.422 50.4812 113.714 50.8044 113.106C51.137 112.488 51.5979 112.013 52.1871 111.68C52.7858 111.348 53.47 111.181 54.2398 111.181C54.9811 111.181 55.6416 111.343 56.2213 111.666C56.801 111.989 57.2524 112.445 57.5755 113.034C57.8986 113.614 58.0602 114.284 58.0602 115.044ZM56.3638 114.531C56.3543 113.932 56.1405 113.453 55.7223 113.091C55.3042 112.73 54.7863 112.55 54.1685 112.55C53.6078 112.55 53.1279 112.73 52.7288 113.091C52.3296 113.443 52.0921 113.923 52.016 114.531H56.3638Z" fill="black"/>
<path d="M232.474 116.614L237.017 112.308C237.554 111.8 238.409 111.823 238.917 112.359L243.223 116.902" stroke="black" stroke-width="1.52733" stroke-miterlimit="10" stroke-linecap="round" stroke-linejoin="round"/>
<mask id="path-6-inside-1_780_19925" fill="white">
<path d="M24.293 142.473H246.264V160.473H24.293V142.473Z"/>
</mask>
<path d="M246.264 159.454H24.293V161.491H246.264V159.454Z" fill="#EAEAEA" mask="url(#path-6-inside-1_780_19925)"/>
<mask id="mask0_780_19925" style="mask-type:alpha" maskUnits="userSpaceOnUse" x="24" y="143" width="17" height="17">
<rect x="24.293" y="143.328" width="16.2915" height="16.2915" fill="#D9D9D9"/>
</mask>
<g mask="url(#mask0_780_19925)">
<path d="M31.4832 154.32L36.2688 149.534L35.3185 148.584L31.4832 152.419L29.5486 150.484L28.5982 151.435L31.4832 154.32ZM27.6818 157.578C27.3085 157.578 26.9889 157.445 26.723 157.179C26.4572 156.913 26.3242 156.594 26.3242 156.22V146.717C26.3242 146.344 26.4572 146.024 26.723 145.758C26.9889 145.492 27.3085 145.359 27.6818 145.359H37.1852C37.5586 145.359 37.8782 145.492 38.144 145.758C38.4099 146.024 38.5428 146.344 38.5428 146.717V156.22C38.5428 156.594 38.4099 156.913 38.144 157.179C37.8782 157.445 37.5586 157.578 37.1852 157.578H27.6818Z" fill="#303030"/>
</g>
<path d="M54.7665 153.738H51.2108L50.5999 155.473H49.1459L52.1883 146.969H53.8012L56.8436 155.473H55.3774L54.7665 153.738ZM54.3755 152.601L52.9948 148.655L51.6018 152.601H54.3755ZM59.425 146.431V155.473H58.0321V146.431H59.425ZM62.5123 146.431V155.473H61.1194V146.431H62.5123Z" fill="#505050"/>
<mask id="mask1_780_19925" style="mask-type:alpha" maskUnits="userSpaceOnUse" x="24" y="171" width="17" height="17">
<rect x="24.293" y="171.512" width="16.2915" height="16.2915" fill="#D9D9D9"/>
</mask>
<g mask="url(#mask1_780_19925)">
<path d="M27.6818 185.762C27.3085 185.762 26.9889 185.629 26.723 185.363C26.4572 185.097 26.3242 184.777 26.3242 184.404V174.901C26.3242 174.527 26.4572 174.208 26.723 173.942C26.9889 173.676 27.3085 173.543 27.6818 173.543H37.1852C37.5586 173.543 37.8782 173.676 38.144 173.942C38.4099 174.208 38.5428 174.527 38.5428 174.901V184.404C38.5428 184.777 38.4099 185.097 38.144 185.363C37.8782 185.629 37.5586 185.762 37.1852 185.762H27.6818ZM27.6818 184.404H37.1852V174.901H27.6818V184.404Z" fill="#7B7B7B"/>
</g>
<path d="M49.2803 176.02V174.749H51.8218V183.656H50.4166V176.02H49.2803ZM59.3437 175.946H55.2504V178.378C55.4215 178.15 55.674 177.958 56.008 177.804C56.3501 177.649 56.7126 177.571 57.0954 177.571C57.7797 177.571 58.3336 177.718 58.7572 178.011C59.1889 178.304 59.4944 178.675 59.6736 179.123C59.8609 179.571 59.9546 180.044 59.9546 180.541C59.9546 181.143 59.8365 181.681 59.6003 182.153C59.3722 182.618 59.026 182.984 58.5617 183.253C58.1055 183.522 57.5435 183.656 56.8755 183.656C55.9876 183.656 55.2749 183.436 54.7373 182.996C54.1996 182.557 53.8779 181.974 53.772 181.249H55.1282C55.2179 181.632 55.4174 181.937 55.727 182.166C56.0365 182.386 56.4234 182.495 56.8877 182.495C57.4661 182.495 57.8978 182.32 58.1829 181.97C58.4761 181.62 58.6228 181.156 58.6228 180.577C58.6228 179.991 58.4761 179.543 58.1829 179.233C57.8897 178.915 57.4579 178.757 56.8877 178.757C56.4886 178.757 56.1505 178.858 55.8736 179.062C55.6048 179.258 55.4093 179.526 55.2871 179.868H53.9675V174.724H59.3437V175.946ZM66.1181 178.06V181.787C66.1181 182.039 66.1751 182.223 66.2892 182.337C66.4114 182.443 66.615 182.495 66.9001 182.495H67.7554V183.656H66.6557C66.0285 183.656 65.5479 183.51 65.214 183.216C64.88 182.923 64.713 182.447 64.713 181.787V178.06H63.9188V176.924H64.713V175.25H66.1181V176.924H67.7554V178.06H66.1181ZM72.3871 176.814C72.9003 176.814 73.3565 176.924 73.7556 177.144C74.1629 177.364 74.4806 177.689 74.7087 178.121C74.9449 178.553 75.063 179.074 75.063 179.685V183.656H73.6823V179.893C73.6823 179.29 73.5316 178.83 73.2302 178.512C72.9288 178.186 72.5175 178.023 71.9961 178.023C71.4748 178.023 71.0594 178.186 70.7498 178.512C70.4485 178.83 70.2978 179.29 70.2978 179.893V183.656H68.9048V174.614H70.2978V177.706C70.534 177.421 70.8313 177.201 71.1897 177.046C71.5563 176.891 71.9554 176.814 72.3871 176.814ZM88.689 175.164V183.656H87.296V177.84L84.7057 183.656H83.7404L81.1379 177.84V183.656H79.7449V175.164H81.2478L84.2292 181.823L87.1983 175.164H88.689ZM89.921 180.259C89.921 179.583 90.0595 178.985 90.3365 178.463C90.6216 177.942 91.0044 177.539 91.485 177.254C91.9738 176.96 92.5114 176.814 93.0979 176.814C93.6274 176.814 94.0876 176.92 94.4786 177.132C94.8777 177.335 95.1954 177.592 95.4316 177.901V176.924H96.8368V183.656H95.4316V182.654C95.1954 182.972 94.8736 183.237 94.4664 183.449C94.0591 183.66 93.5948 183.766 93.0734 183.766C92.4951 183.766 91.9656 183.62 91.485 183.326C91.0044 183.025 90.6216 182.61 90.3365 182.08C90.0595 181.542 89.921 180.936 89.921 180.259ZM95.4316 180.284C95.4316 179.82 95.3339 179.416 95.1384 179.074C94.951 178.732 94.7026 178.471 94.393 178.292C94.0835 178.113 93.7495 178.023 93.3911 178.023C93.0327 178.023 92.6987 178.113 92.3892 178.292C92.0797 178.463 91.8271 178.72 91.6316 179.062C91.4443 179.396 91.3506 179.795 91.3506 180.259C91.3506 180.724 91.4443 181.131 91.6316 181.481C91.8271 181.832 92.0797 182.1 92.3892 182.288C92.7069 182.467 93.0409 182.557 93.3911 182.557C93.7495 182.557 94.0835 182.467 94.393 182.288C94.7026 182.109 94.951 181.848 95.1384 181.506C95.3339 181.156 95.4316 180.748 95.4316 180.284ZM104.592 176.924L100.462 186.821H99.0207L100.389 183.546L97.7377 176.924H99.2895L101.183 182.056L103.151 176.924H104.592ZM107.036 181.982L105.558 185.355H104.654L105.521 181.982H107.036ZM111.745 181.762C112.527 181.086 113.142 180.532 113.59 180.101C114.046 179.661 114.425 179.205 114.727 178.732C115.028 178.26 115.179 177.787 115.179 177.315C115.179 176.826 115.061 176.443 114.824 176.166C114.596 175.889 114.234 175.751 113.737 175.751C113.256 175.751 112.882 175.906 112.613 176.215C112.352 176.517 112.214 176.924 112.197 177.437H110.853C110.878 176.508 111.155 175.8 111.684 175.311C112.222 174.814 112.902 174.566 113.725 174.566C114.613 174.566 115.305 174.81 115.802 175.299C116.307 175.787 116.559 176.439 116.559 177.254C116.559 177.84 116.409 178.406 116.107 178.952C115.814 179.49 115.46 179.974 115.044 180.406C114.637 180.83 114.116 181.322 113.48 181.885L112.93 182.373H116.804V183.534H110.865V182.52L111.745 181.762ZM117.893 179.086C117.893 177.677 118.129 176.578 118.602 175.787C119.082 174.989 119.905 174.59 121.07 174.59C122.235 174.59 123.053 174.989 123.526 175.787C124.006 176.578 124.247 177.677 124.247 179.086C124.247 180.512 124.006 181.628 123.526 182.434C123.053 183.233 122.235 183.632 121.07 183.632C119.905 183.632 119.082 183.233 118.602 182.434C118.129 181.628 117.893 180.512 117.893 179.086ZM122.878 179.086C122.878 178.427 122.833 177.869 122.744 177.413C122.662 176.956 122.491 176.586 122.231 176.301C121.97 176.007 121.583 175.861 121.07 175.861C120.557 175.861 120.17 176.007 119.909 176.301C119.648 176.586 119.473 176.956 119.384 177.413C119.302 177.869 119.261 178.427 119.261 179.086C119.261 179.771 119.302 180.345 119.384 180.809C119.465 181.274 119.636 181.648 119.897 181.933C120.166 182.219 120.557 182.361 121.07 182.361C121.583 182.361 121.97 182.219 122.231 181.933C122.499 181.648 122.675 181.274 122.756 180.809C122.837 180.345 122.878 179.771 122.878 179.086ZM126.356 181.762C127.138 181.086 127.753 180.532 128.201 180.101C128.657 179.661 129.036 179.205 129.337 178.732C129.639 178.26 129.789 177.787 129.789 177.315C129.789 176.826 129.671 176.443 129.435 176.166C129.207 175.889 128.844 175.751 128.348 175.751C127.867 175.751 127.492 175.906 127.223 176.215C126.963 176.517 126.824 176.924 126.808 177.437H125.464C125.488 176.508 125.765 175.8 126.295 175.311C126.832 174.814 127.513 174.566 128.335 174.566C129.223 174.566 129.916 174.81 130.412 175.299C130.918 175.787 131.17 176.439 131.17 177.254C131.17 177.84 131.019 178.406 130.718 178.952C130.425 179.49 130.07 179.974 129.655 180.406C129.248 180.83 128.726 181.322 128.091 181.885L127.541 182.373H131.414V183.534H125.476V182.52L126.356 181.762ZM132.479 176.948C132.528 176.191 132.817 175.6 133.347 175.177C133.884 174.753 134.569 174.541 135.399 174.541C135.97 174.541 136.463 174.643 136.878 174.847C137.293 175.05 137.607 175.327 137.819 175.677C138.031 176.028 138.136 176.423 138.136 176.863C138.136 177.368 138.002 177.799 137.733 178.158C137.464 178.516 137.143 178.757 136.768 178.879V178.928C137.249 179.074 137.623 179.343 137.892 179.734C138.161 180.117 138.295 180.61 138.295 181.213C138.295 181.693 138.185 182.121 137.965 182.495C137.745 182.87 137.42 183.168 136.988 183.387C136.556 183.599 136.039 183.705 135.436 183.705C134.556 183.705 133.831 183.481 133.261 183.033C132.699 182.577 132.398 181.925 132.357 181.078H133.701C133.734 181.51 133.901 181.864 134.202 182.141C134.503 182.41 134.911 182.544 135.424 182.544C135.921 182.544 136.304 182.41 136.572 182.141C136.841 181.864 136.976 181.51 136.976 181.078C136.976 180.508 136.792 180.105 136.426 179.868C136.067 179.624 135.514 179.502 134.764 179.502H134.446V178.353H134.776C135.436 178.345 135.937 178.235 136.279 178.023C136.629 177.812 136.805 177.478 136.805 177.022C136.805 176.631 136.678 176.321 136.426 176.093C136.173 175.857 135.815 175.739 135.351 175.739C134.894 175.739 134.54 175.857 134.288 176.093C134.035 176.321 133.884 176.606 133.835 176.948H132.479Z" fill="#505050"/>
<mask id="mask2_780_19925" style="mask-type:alpha" maskUnits="userSpaceOnUse" x="24" y="199" width="17" height="17">
<rect x="24.293" y="199.691" width="16.2915" height="16.2915" fill="#D9D9D9"/>
</mask>
<g mask="url(#mask2_780_19925)">
<path d="M27.6818 213.941C27.3085 213.941 26.9889 213.808 26.723 213.542C26.4572 213.277 26.3242 212.957 26.3242 212.584V203.08C26.3242 202.707 26.4572 202.387 26.723 202.121C26.9889 201.856 27.3085 201.723 27.6818 201.723H37.1852C37.5586 201.723 37.8782 201.856 38.144 202.121C38.4099 202.387 38.5428 202.707 38.5428 203.08V212.584C38.5428 212.957 38.4099 213.277 38.144 213.542C37.8782 213.808 37.5586 213.941 37.1852 213.941H27.6818ZM27.6818 212.584H37.1852V203.08H27.6818V212.584Z" fill="#7B7B7B"/>
</g>
<path d="M50.2334 209.942C51.0153 209.266 51.6304 208.712 52.0784 208.28C52.5345 207.84 52.9133 207.384 53.2147 206.912C53.5161 206.439 53.6668 205.967 53.6668 205.494C53.6668 205.006 53.5487 204.623 53.3124 204.346C53.0844 204.069 52.7219 203.93 52.225 203.93C51.7444 203.93 51.3697 204.085 51.1009 204.395C50.8402 204.696 50.7017 205.103 50.6854 205.617H49.3414C49.3658 204.688 49.6428 203.979 50.1723 203.491C50.7099 202.994 51.3901 202.745 52.2128 202.745C53.1007 202.745 53.793 202.99 54.2899 203.478C54.795 203.967 55.0475 204.619 55.0475 205.433C55.0475 206.02 54.8968 206.586 54.5954 207.132C54.3022 207.669 53.9478 208.154 53.5324 208.586C53.1251 209.009 52.6038 209.502 51.9684 210.064L51.4186 210.553H55.2919V211.714H49.3536V210.7L50.2334 209.942ZM56.1979 204.199V202.929H58.7393V211.836H57.3342V204.199H56.1979ZM66.185 211.946C65.6556 211.946 65.179 211.852 64.7555 211.665C64.34 211.469 64.0101 211.209 63.7658 210.883C63.5214 210.549 63.3911 210.178 63.3748 209.771H64.8166C64.841 210.056 64.9754 210.296 65.2198 210.492C65.4723 210.679 65.7859 210.773 66.1606 210.773C66.5516 210.773 66.853 210.7 67.0648 210.553C67.2847 210.398 67.3947 210.203 67.3947 209.966C67.3947 209.714 67.2725 209.527 67.0281 209.404C66.7919 209.282 66.4131 209.148 65.8918 209.001C65.3868 208.863 64.9754 208.728 64.6577 208.598C64.34 208.468 64.0631 208.268 63.8269 207.999C63.5988 207.73 63.4847 207.376 63.4847 206.936C63.4847 206.578 63.5906 206.252 63.8024 205.959C64.0142 205.657 64.3156 205.421 64.7066 205.25C65.1057 205.079 65.5619 204.994 66.0751 204.994C66.8408 204.994 67.4558 205.189 67.9201 205.58C68.3925 205.963 68.6451 206.488 68.6776 207.156H67.2847C67.2603 206.855 67.1381 206.615 66.9182 206.435C66.6982 206.256 66.4009 206.167 66.0262 206.167C65.6596 206.167 65.3786 206.236 65.1831 206.374C64.9876 206.513 64.8899 206.696 64.8899 206.924C64.8899 207.103 64.955 207.254 65.0854 207.376C65.2157 207.498 65.3745 207.596 65.5619 207.669C65.7492 207.735 66.0262 207.82 66.3928 207.926C66.8815 208.056 67.2806 208.191 67.5902 208.329C67.9079 208.46 68.1808 208.655 68.4088 208.916C68.6369 209.176 68.755 209.523 68.7632 209.954C68.7632 210.337 68.6573 210.679 68.4455 210.981C68.2337 211.282 67.9323 211.518 67.5413 211.689C67.1585 211.86 66.7064 211.946 66.185 211.946ZM71.7589 206.24V209.966C71.7589 210.219 71.8159 210.402 71.93 210.516C72.0522 210.622 72.2558 210.675 72.5409 210.675H73.3962V211.836H72.2965C71.6693 211.836 71.1887 211.689 70.8548 211.396C70.5208 211.103 70.3538 210.626 70.3538 209.966V206.24H69.5596V205.103H70.3538V203.43H71.7589V205.103H73.3962V206.24H71.7589ZM82.2161 203.344V209.466C82.2161 210.223 81.9839 210.822 81.5196 211.262C81.0634 211.702 80.4606 211.921 79.7112 211.921C78.9618 211.921 78.355 211.702 77.8907 211.262C77.4345 210.822 77.2064 210.223 77.2064 209.466H78.6116C78.6197 209.84 78.7134 210.138 78.8926 210.357C79.0799 210.577 79.3528 210.687 79.7112 210.687C80.0697 210.687 80.3425 210.577 80.5299 210.357C80.7172 210.129 80.8109 209.832 80.8109 209.466V203.344H82.2161ZM90.4447 205.103V211.836H89.0518V211.042C88.8319 211.319 88.5427 211.539 88.1843 211.702C87.834 211.856 87.4593 211.934 87.0602 211.934C86.5307 211.934 86.0542 211.824 85.6306 211.604C85.2152 211.384 84.8853 211.058 84.6409 210.626C84.4047 210.195 84.2865 209.673 84.2865 209.062V205.103H85.6672V208.855C85.6672 209.457 85.8179 209.922 86.1193 210.248C86.4207 210.565 86.8321 210.724 87.3534 210.724C87.8747 210.724 88.2861 210.565 88.5875 210.248C88.897 209.922 89.0518 209.457 89.0518 208.855V205.103H90.4447ZM95.5449 204.994C96.0744 204.994 96.5469 205.103 96.9623 205.323C97.3859 205.543 97.7158 205.869 97.952 206.301C98.1882 206.733 98.3063 207.254 98.3063 207.865V211.836H96.9256V208.073C96.9256 207.47 96.7749 207.01 96.4736 206.692C96.1722 206.366 95.7608 206.203 95.2395 206.203C94.7181 206.203 94.3027 206.366 93.9932 206.692C93.6918 207.01 93.5411 207.47 93.5411 208.073V211.836H92.1482V205.103H93.5411V205.873C93.7692 205.596 94.0583 205.38 94.4086 205.226C94.767 205.071 95.1458 204.994 95.5449 204.994ZM106.119 208.305C106.119 208.557 106.103 208.785 106.07 208.989H100.926C100.967 209.527 101.166 209.958 101.525 210.284C101.883 210.61 102.323 210.773 102.845 210.773C103.594 210.773 104.123 210.459 104.433 209.832H105.936C105.732 210.451 105.362 210.96 104.824 211.359C104.294 211.75 103.635 211.946 102.845 211.946C102.201 211.946 101.623 211.803 101.109 211.518C100.604 211.225 100.205 210.818 99.912 210.296C99.6269 209.767 99.4844 209.156 99.4844 208.464C99.4844 207.771 99.6229 207.164 99.8998 206.643C100.185 206.114 100.58 205.706 101.085 205.421C101.598 205.136 102.185 204.994 102.845 204.994C103.48 204.994 104.046 205.132 104.543 205.409C105.04 205.686 105.427 206.077 105.704 206.582C105.981 207.079 106.119 207.653 106.119 208.305ZM104.665 207.865C104.657 207.352 104.474 206.94 104.115 206.631C103.757 206.321 103.313 206.167 102.783 206.167C102.303 206.167 101.891 206.321 101.549 206.631C101.207 206.932 101.004 207.344 100.938 207.865H104.665ZM108.883 210.162L107.404 213.534H106.5L107.368 210.162H108.883ZM113.592 209.942C114.374 209.266 114.989 208.712 115.437 208.28C115.893 207.84 116.271 207.384 116.573 206.912C116.874 206.439 117.025 205.967 117.025 205.494C117.025 205.006 116.907 204.623 116.671 204.346C116.443 204.069 116.08 203.93 115.583 203.93C115.103 203.93 114.728 204.085 114.459 204.395C114.198 204.696 114.06 205.103 114.044 205.617H112.7C112.724 204.688 113.001 203.979 113.53 203.491C114.068 202.994 114.748 202.745 115.571 202.745C116.459 202.745 117.151 202.99 117.648 203.478C118.153 203.967 118.406 204.619 118.406 205.433C118.406 206.02 118.255 206.586 117.954 207.132C117.66 207.669 117.306 208.154 116.891 208.586C116.483 209.009 115.962 209.502 115.327 210.064L114.777 210.553H118.65V211.714H112.712V210.7L113.592 209.942ZM119.739 207.266C119.739 205.857 119.976 204.757 120.448 203.967C120.929 203.169 121.751 202.77 122.916 202.77C124.081 202.77 124.9 203.169 125.372 203.967C125.853 204.757 126.093 205.857 126.093 207.266C126.093 208.692 125.853 209.808 125.372 210.614C124.9 211.412 124.081 211.812 122.916 211.812C121.751 211.812 120.929 211.412 120.448 210.614C119.976 209.808 119.739 208.692 119.739 207.266ZM124.725 207.266C124.725 206.606 124.68 206.048 124.59 205.592C124.509 205.136 124.338 204.765 124.077 204.48C123.816 204.187 123.429 204.04 122.916 204.04C122.403 204.04 122.016 204.187 121.755 204.48C121.495 204.765 121.32 205.136 121.23 205.592C121.149 206.048 121.108 206.606 121.108 207.266C121.108 207.95 121.149 208.525 121.23 208.989C121.311 209.453 121.483 209.828 121.743 210.113C122.012 210.398 122.403 210.541 122.916 210.541C123.429 210.541 123.816 210.398 124.077 210.113C124.346 209.828 124.521 209.453 124.602 208.989C124.684 208.525 124.725 207.95 124.725 207.266ZM128.202 209.942C128.984 209.266 129.599 208.712 130.047 208.28C130.503 207.84 130.882 207.384 131.184 206.912C131.485 206.439 131.636 205.967 131.636 205.494C131.636 205.006 131.518 204.623 131.281 204.346C131.053 204.069 130.691 203.93 130.194 203.93C129.713 203.93 129.339 204.085 129.07 204.395C128.809 204.696 128.671 205.103 128.654 205.617H127.31C127.335 204.688 127.612 203.979 128.141 203.491C128.679 202.994 129.359 202.745 130.182 202.745C131.07 202.745 131.762 202.99 132.259 203.478C132.764 203.967 133.016 204.619 133.016 205.433C133.016 206.02 132.866 206.586 132.564 207.132C132.271 207.669 131.917 208.154 131.501 208.586C131.094 209.009 130.573 209.502 129.937 210.064L129.387 210.553H133.261V211.714H127.322V210.7L128.202 209.942ZM134.326 205.128C134.374 204.37 134.664 203.78 135.193 203.356C135.731 202.933 136.415 202.721 137.246 202.721C137.816 202.721 138.309 202.823 138.724 203.026C139.14 203.23 139.453 203.507 139.665 203.857C139.877 204.207 139.983 204.603 139.983 205.042C139.983 205.547 139.848 205.979 139.58 206.338C139.311 206.696 138.989 206.936 138.614 207.058V207.107C139.095 207.254 139.47 207.523 139.738 207.914C140.007 208.297 140.142 208.789 140.142 209.392C140.142 209.873 140.032 210.3 139.812 210.675C139.592 211.05 139.266 211.347 138.834 211.567C138.403 211.779 137.885 211.885 137.282 211.885C136.403 211.885 135.678 211.661 135.108 211.213C134.546 210.757 134.244 210.105 134.203 209.258H135.547C135.58 209.69 135.747 210.044 136.048 210.321C136.35 210.59 136.757 210.724 137.27 210.724C137.767 210.724 138.15 210.59 138.419 210.321C138.688 210.044 138.822 209.69 138.822 209.258C138.822 208.688 138.639 208.284 138.272 208.048C137.914 207.804 137.36 207.682 136.61 207.682H136.293V206.533H136.623C137.282 206.525 137.783 206.415 138.126 206.203C138.476 205.991 138.651 205.657 138.651 205.201C138.651 204.81 138.525 204.501 138.272 204.273C138.02 204.036 137.661 203.918 137.197 203.918C136.741 203.918 136.386 204.036 136.134 204.273C135.881 204.501 135.731 204.786 135.682 205.128H134.326Z" fill="#505050"/>
<mask id="mask3_780_19925" style="mask-type:alpha" maskUnits="userSpaceOnUse" x="24" y="227" width="17" height="18">
<rect x="24.293" y="227.875" width="16.2915" height="16.2915" fill="#D9D9D9"/>
</mask>
<g mask="url(#mask3_780_19925)">
<path d="M27.6818 242.125C27.3085 242.125 26.9889 241.992 26.723 241.726C26.4572 241.46 26.3242 241.141 26.3242 240.767V231.264C26.3242 230.891 26.4572 230.571 26.723 230.305C26.9889 230.039 27.3085 229.906 27.6818 229.906H37.1852C37.5586 229.906 37.8782 230.039 38.144 230.305C38.4099 230.571 38.5428 230.891 38.5428 231.264V240.767C38.5428 241.141 38.4099 241.46 38.144 241.726C37.8782 241.992 37.5586 242.125 37.1852 242.125H27.6818ZM27.6818 240.767H37.1852V231.264H27.6818V240.767Z" fill="#7B7B7B"/>
</g>
<path d="M49.4391 233.312C49.488 232.554 49.7772 231.963 50.3067 231.54C50.8443 231.116 51.5285 230.904 52.3594 230.904C52.9296 230.904 53.4224 231.006 53.8378 231.21C54.2533 231.414 54.5669 231.691 54.7787 232.041C54.9905 232.391 55.0964 232.786 55.0964 233.226C55.0964 233.731 54.962 234.163 54.6932 234.521C54.4243 234.88 54.1026 235.12 53.7279 235.242V235.291C54.2085 235.438 54.5832 235.706 54.852 236.097C55.1208 236.48 55.2552 236.973 55.2552 237.576C55.2552 238.056 55.1452 238.484 54.9253 238.859C54.7054 239.233 54.3795 239.531 53.9478 239.751C53.5161 239.963 52.9988 240.068 52.3961 240.068C51.5163 240.068 50.7913 239.844 50.2211 239.396C49.6591 238.94 49.3577 238.289 49.317 237.441H50.661C50.6936 237.873 50.8606 238.227 51.162 238.504C51.4634 238.773 51.8707 238.908 52.3838 238.908C52.8807 238.908 53.2636 238.773 53.5324 238.504C53.8012 238.227 53.9356 237.873 53.9356 237.441C53.9356 236.871 53.7523 236.468 53.3858 236.232C53.0273 235.987 52.4734 235.865 51.724 235.865H51.4063V234.717H51.7362C52.3961 234.709 52.897 234.599 53.2391 234.387C53.5894 234.175 53.7645 233.841 53.7645 233.385C53.7645 232.994 53.6383 232.684 53.3858 232.456C53.1332 232.22 52.7748 232.102 52.3105 232.102C51.8544 232.102 51.5 232.22 51.2475 232.456C50.995 232.684 50.8443 232.969 50.7954 233.312H49.4391ZM56.584 235.45C56.584 234.041 56.8202 232.941 57.2927 232.151C57.7733 231.352 58.596 230.953 59.7608 230.953C60.9257 230.953 61.7443 231.352 62.2168 232.151C62.6974 232.941 62.9377 234.041 62.9377 235.45C62.9377 236.875 62.6974 237.991 62.2168 238.798C61.7443 239.596 60.9257 239.995 59.7608 239.995C58.596 239.995 57.7733 239.596 57.2927 238.798C56.8202 237.991 56.584 236.875 56.584 235.45ZM61.5692 235.45C61.5692 234.79 61.5244 234.232 61.4348 233.776C61.3533 233.32 61.1823 232.949 60.9216 232.664C60.6609 232.371 60.274 232.224 59.7608 232.224C59.2476 232.224 58.8607 232.371 58.6001 232.664C58.3394 232.949 58.1643 233.32 58.0747 233.776C57.9932 234.232 57.9525 234.79 57.9525 235.45C57.9525 236.134 57.9932 236.708 58.0747 237.173C58.1561 237.637 58.3272 238.012 58.5878 238.297C58.8566 238.582 59.2476 238.724 59.7608 238.724C60.274 238.724 60.6609 238.582 60.9216 238.297C61.1904 238.012 61.3655 237.637 61.447 237.173C61.5284 236.708 61.5692 236.134 61.5692 235.45ZM69.1251 234.423V238.15C69.1251 238.403 69.1821 238.586 69.2961 238.7C69.4183 238.806 69.6219 238.859 69.907 238.859H70.7623V240.02H69.6627C69.0355 240.02 68.5549 239.873 68.2209 239.58C67.8869 239.286 67.7199 238.81 67.7199 238.15V234.423H66.9257V233.287H67.7199V231.613H69.1251V233.287H70.7623V234.423H69.1251ZM75.3941 233.177C75.9072 233.177 76.3634 233.287 76.7625 233.507C77.1698 233.727 77.4875 234.053 77.7156 234.484C77.9518 234.916 78.0699 235.438 78.0699 236.048V240.02H76.6892V236.256C76.6892 235.653 76.5385 235.193 76.2371 234.875C75.9358 234.55 75.5244 234.387 75.0031 234.387C74.4817 234.387 74.0663 234.55 73.7568 234.875C73.4554 235.193 73.3047 235.653 73.3047 236.256V240.02H71.9118V230.978H73.3047V234.069C73.5409 233.784 73.8382 233.564 74.1966 233.409C74.5632 233.254 74.9623 233.177 75.3941 233.177ZM87.3827 231.528V237.649C87.3827 238.407 87.1506 239.005 86.6863 239.445C86.2301 239.885 85.6273 240.105 84.8779 240.105C84.1285 240.105 83.5216 239.885 83.0573 239.445C82.6012 239.005 82.3731 238.407 82.3731 237.649H83.7782C83.7864 238.024 83.88 238.321 84.0593 238.541C84.2466 238.761 84.5195 238.871 84.8779 238.871C85.2363 238.871 85.5092 238.761 85.6965 238.541C85.8839 238.313 85.9776 238.016 85.9776 237.649V231.528H87.3827ZM95.6114 233.287V240.02H94.2185V239.225C93.9985 239.502 93.7094 239.722 93.3509 239.885C93.0007 240.04 92.626 240.117 92.2268 240.117C91.6974 240.117 91.2208 240.007 90.7972 239.787C90.3818 239.567 90.0519 239.242 89.8075 238.81C89.5713 238.378 89.4532 237.857 89.4532 237.246V233.287H90.8339V237.038C90.8339 237.641 90.9846 238.105 91.286 238.431C91.5874 238.749 91.9987 238.908 92.5201 238.908C93.0414 238.908 93.4528 238.749 93.7542 238.431C94.0637 238.105 94.2185 237.641 94.2185 237.038V233.287H95.6114ZM98.7077 230.978V240.02H97.3148V230.978H98.7077ZM106.463 233.287L102.333 243.184H100.891L102.259 239.91L99.6079 233.287H101.16L103.054 238.419L105.021 233.287H106.463ZM108.907 238.346L107.428 241.718H106.524L107.392 238.346H108.907ZM113.615 238.126C114.397 237.45 115.012 236.896 115.46 236.464C115.917 236.024 116.295 235.568 116.597 235.095C116.898 234.623 117.049 234.151 117.049 233.678C117.049 233.189 116.931 232.806 116.695 232.53C116.466 232.253 116.104 232.114 115.607 232.114C115.126 232.114 114.752 232.269 114.483 232.578C114.222 232.88 114.084 233.287 114.068 233.8H112.723C112.748 232.872 113.025 232.163 113.554 231.674C114.092 231.177 114.772 230.929 115.595 230.929C116.483 230.929 117.175 231.173 117.672 231.662C118.177 232.151 118.43 232.802 118.43 233.617C118.43 234.203 118.279 234.77 117.977 235.315C117.684 235.853 117.33 236.338 116.914 236.769C116.507 237.193 115.986 237.686 115.35 238.248L114.801 238.737H118.674V239.897H112.736V238.883L113.615 238.126ZM119.763 235.45C119.763 234.041 119.999 232.941 120.472 232.151C120.952 231.352 121.775 230.953 122.94 230.953C124.105 230.953 124.924 231.352 125.396 232.151C125.877 232.941 126.117 234.041 126.117 235.45C126.117 236.875 125.877 237.991 125.396 238.798C124.924 239.596 124.105 239.995 122.94 239.995C121.775 239.995 120.952 239.596 120.472 238.798C119.999 237.991 119.763 236.875 119.763 235.45ZM124.748 235.45C124.748 234.79 124.704 234.232 124.614 233.776C124.533 233.32 124.361 232.949 124.101 232.664C123.84 232.371 123.453 232.224 122.94 232.224C122.427 232.224 122.04 232.371 121.779 232.664C121.519 232.949 121.343 233.32 121.254 233.776C121.172 234.232 121.132 234.79 121.132 235.45C121.132 236.134 121.172 236.708 121.254 237.173C121.335 237.637 121.506 238.012 121.767 238.297C122.036 238.582 122.427 238.724 122.94 238.724C123.453 238.724 123.84 238.582 124.101 238.297C124.37 238.012 124.545 237.637 124.626 237.173C124.708 236.708 124.748 236.134 124.748 235.45ZM128.226 238.126C129.008 237.45 129.623 236.896 130.071 236.464C130.527 236.024 130.906 235.568 131.207 235.095C131.509 234.623 131.66 234.151 131.66 233.678C131.66 233.189 131.541 232.806 131.305 232.53C131.077 232.253 130.715 232.114 130.218 232.114C129.737 232.114 129.362 232.269 129.094 232.578C128.833 232.88 128.694 233.287 128.678 233.8H127.334C127.359 232.872 127.636 232.163 128.165 231.674C128.703 231.177 129.383 230.929 130.206 230.929C131.093 230.929 131.786 231.173 132.283 231.662C132.788 232.151 133.04 232.802 133.04 233.617C133.04 234.203 132.89 234.77 132.588 235.315C132.295 235.853 131.941 236.338 131.525 236.769C131.118 237.193 130.597 237.686 129.961 238.248L129.411 238.737H133.285V239.897H127.346V238.883L128.226 238.126ZM134.349 233.312C134.398 232.554 134.687 231.963 135.217 231.54C135.755 231.116 136.439 230.904 137.27 230.904C137.84 230.904 138.333 231.006 138.748 231.21C139.164 231.414 139.477 231.691 139.689 232.041C139.901 232.391 140.007 232.786 140.007 233.226C140.007 233.731 139.872 234.163 139.603 234.521C139.335 234.88 139.013 235.12 138.638 235.242V235.291C139.119 235.438 139.493 235.706 139.762 236.097C140.031 236.48 140.166 236.973 140.166 237.576C140.166 238.056 140.056 238.484 139.836 238.859C139.616 239.233 139.29 239.531 138.858 239.751C138.426 239.963 137.909 240.068 137.306 240.068C136.427 240.068 135.702 239.844 135.131 239.396C134.569 238.94 134.268 238.289 134.227 237.441H135.571C135.604 237.873 135.771 238.227 136.072 238.504C136.374 238.773 136.781 238.908 137.294 238.908C137.791 238.908 138.174 238.773 138.443 238.504C138.711 238.227 138.846 237.873 138.846 237.441C138.846 236.871 138.663 236.468 138.296 236.232C137.938 235.987 137.384 235.865 136.634 235.865H136.317V234.717H136.647C137.306 234.709 137.807 234.599 138.149 234.387C138.5 234.175 138.675 233.841 138.675 233.385C138.675 232.994 138.549 232.684 138.296 232.456C138.044 232.22 137.685 232.102 137.221 232.102C136.765 232.102 136.41 232.22 136.158 232.456C135.905 232.684 135.755 232.969 135.706 233.312H134.349Z" fill="#505050"/>
<line x1="24.293" y1="264.874" x2="246.264" y2="264.874" stroke="#E6E6E6" stroke-width="1.01822"/>
<path d="M32.2901 293.794C32.2901 294.297 32.1713 294.772 31.9337 295.219C31.6961 295.666 31.316 296.032 30.7933 296.317C30.2706 296.592 29.6006 296.73 28.7833 296.73H26.9872V300.75H25.3621V290.843H28.7833C29.5436 290.843 30.1851 290.976 30.7077 291.242C31.2399 291.498 31.6343 291.85 31.8909 292.297C32.157 292.743 32.2901 293.242 32.2901 293.794ZM28.7833 295.404C29.401 295.404 29.8619 295.267 30.166 294.991C30.4702 294.706 30.6222 294.307 30.6222 293.794C30.6222 292.71 30.0092 292.168 28.7833 292.168H26.9872V295.404H28.7833ZM35.6076 290.201V300.75H33.9825V290.201H35.6076ZM37.342 296.787C37.342 295.998 37.5036 295.3 37.8267 294.692C38.1593 294.083 38.606 293.613 39.1667 293.28C39.7369 292.938 40.3641 292.767 41.0483 292.767C41.666 292.767 42.203 292.891 42.6592 293.138C43.1248 293.375 43.4954 293.675 43.771 294.036V292.895H45.4104V300.75H43.771V299.581C43.4954 299.952 43.1201 300.261 42.6449 300.508C42.1697 300.755 41.628 300.878 41.0198 300.878C40.3451 300.878 39.7274 300.707 39.1667 300.365C38.606 300.013 38.1593 299.529 37.8267 298.911C37.5036 298.284 37.342 297.576 37.342 296.787ZM43.771 296.816C43.771 296.274 43.657 295.803 43.4289 295.404C43.2103 295.005 42.9205 294.701 42.5594 294.492C42.1982 294.283 41.8086 294.178 41.3905 294.178C40.9723 294.178 40.5827 294.283 40.2215 294.492C39.8604 294.692 39.5658 294.991 39.3377 295.39C39.1191 295.78 39.0099 296.245 39.0099 296.787C39.0099 297.329 39.1191 297.804 39.3377 298.213C39.5658 298.621 39.8604 298.935 40.2215 299.153C40.5922 299.363 40.9818 299.467 41.3905 299.467C41.8086 299.467 42.1982 299.363 42.5594 299.153C42.9205 298.944 43.2103 298.64 43.4289 298.241C43.657 297.832 43.771 297.357 43.771 296.816ZM49.5833 294.221V298.569C49.5833 298.864 49.6498 299.077 49.7829 299.21C49.9254 299.334 50.163 299.396 50.4956 299.396H51.4935V300.75H50.2105C49.4788 300.75 48.9181 300.579 48.5284 300.237C48.1388 299.895 47.944 299.339 47.944 298.569V294.221H47.0174V292.895H47.944V290.943H49.5833V292.895H51.4935V294.221H49.5833ZM56.4267 294.221H54.9727V300.75H53.3334V294.221H52.4068V292.895H53.3334V292.34C53.3334 291.437 53.571 290.781 54.0461 290.372C54.5308 289.954 55.2863 289.745 56.3127 289.745V291.099C55.8185 291.099 55.4717 291.194 55.2721 291.384C55.0725 291.565 54.9727 291.883 54.9727 292.34V292.895H56.4267V294.221ZM61.4165 300.878C60.6752 300.878 60.0052 300.712 59.4065 300.379C58.8078 300.037 58.3374 299.562 57.9952 298.954C57.6531 298.336 57.4821 297.623 57.4821 296.816C57.4821 296.017 57.6579 295.309 58.0095 294.692C58.3611 294.074 58.841 293.599 59.4493 293.266C60.0575 292.933 60.737 292.767 61.4877 292.767C62.2385 292.767 62.918 292.933 63.5262 293.266C64.1344 293.599 64.6143 294.074 64.966 294.692C65.3176 295.309 65.4934 296.017 65.4934 296.816C65.4934 297.614 65.3128 298.322 64.9517 298.94C64.5906 299.557 64.0964 300.037 63.4692 300.379C62.8515 300.712 62.1672 300.878 61.4165 300.878ZM61.4165 299.467C61.8346 299.467 62.2242 299.367 62.5854 299.168C62.956 298.968 63.2554 298.669 63.4834 298.27C63.7115 297.87 63.8256 297.386 63.8256 296.816C63.8256 296.245 63.7163 295.765 63.4977 295.376C63.2791 294.977 62.9893 294.677 62.6281 294.478C62.267 294.278 61.8774 294.178 61.4592 294.178C61.0411 294.178 60.6514 294.278 60.2903 294.478C59.9387 294.677 59.6583 294.977 59.4493 295.376C59.2402 295.765 59.1356 296.245 59.1356 296.816C59.1356 297.661 59.3495 298.317 59.7771 298.783C60.2143 299.239 60.7607 299.467 61.4165 299.467ZM68.8675 294.036C69.1051 293.637 69.4187 293.328 69.8083 293.109C70.2075 292.881 70.6779 292.767 71.2196 292.767V294.449H70.8062C70.1695 294.449 69.6848 294.611 69.3522 294.934C69.0291 295.257 68.8675 295.818 68.8675 296.616V300.75H67.2424V292.895H68.8675V294.036ZM82.364 292.767C82.9817 292.767 83.5329 292.895 84.0176 293.152C84.5118 293.409 84.8967 293.789 85.1723 294.292C85.4574 294.796 85.5999 295.404 85.5999 296.117V300.75H83.9891V296.359C83.9891 295.656 83.8133 295.119 83.4617 294.749C83.11 294.368 82.6301 294.178 82.0219 294.178C81.4137 294.178 80.929 294.368 80.5679 294.749C80.2163 295.119 80.0405 295.656 80.0405 296.359V300.75H78.4296V296.359C78.4296 295.656 78.2538 295.119 77.9022 294.749C77.5506 294.368 77.0706 294.178 76.4624 294.178C75.8542 294.178 75.3695 294.368 75.0084 294.749C74.6568 295.119 74.481 295.656 74.481 296.359V300.75H72.8559V292.895H74.481V293.794C74.7471 293.47 75.0844 293.219 75.4931 293.038C75.9017 292.857 76.3389 292.767 76.8046 292.767C77.4318 292.767 77.9925 292.9 78.4867 293.166C78.9808 293.432 79.361 293.817 79.6271 294.321C79.8646 293.846 80.2353 293.47 80.7389 293.195C81.2426 292.91 81.7843 292.767 82.364 292.767Z" fill="black"/>
<path d="M232.474 298.2L237.017 293.894C237.554 293.386 238.409 293.409 238.917 293.945L243.223 298.488" stroke="black" stroke-width="1.52733" stroke-miterlimit="10" stroke-linecap="round" stroke-linejoin="round"/>
<mask id="mask4_780_19925" style="mask-type:alpha" maskUnits="userSpaceOnUse" x="24" y="324" width="17" height="18">
<rect x="24.293" y="324.914" width="16.2915" height="16.2915" fill="#D9D9D9"/>
</mask>
<g mask="url(#mask4_780_19925)">
<path d="M32.4327 339.842C31.4936 339.842 30.6112 339.664 29.7853 339.307C28.9594 338.951 28.241 338.467 27.6301 337.856C27.0191 337.245 26.5355 336.527 26.1791 335.701C25.8227 334.875 25.6445 333.993 25.6445 333.054C25.6445 332.115 25.8227 331.232 26.1791 330.406C26.5355 329.58 27.0191 328.862 27.6301 328.251C28.241 327.64 28.9594 327.157 29.7853 326.8C30.6112 326.444 31.4936 326.266 32.4327 326.266C33.3717 326.266 34.2541 326.444 35.08 326.8C35.9059 327.157 36.6243 327.64 37.2352 328.251C37.8462 328.862 38.3298 329.58 38.6862 330.406C39.0426 331.232 39.2208 332.115 39.2208 333.054C39.2208 333.993 39.0426 334.875 38.6862 335.701C38.3298 336.527 37.8462 337.245 37.2352 337.856C36.6243 338.467 35.9059 338.951 35.08 339.307C34.2541 339.664 33.3717 339.842 32.4327 339.842ZM32.4327 338.484C33.9487 338.484 35.2327 337.958 36.2849 336.906C37.3371 335.854 37.8631 334.57 37.8631 333.054C37.8631 331.538 37.3371 330.254 36.2849 329.201C35.2327 328.149 33.9487 327.623 32.4327 327.623C30.9166 327.623 29.6326 328.149 28.5804 329.201C27.5282 330.254 27.0022 331.538 27.0022 333.054C27.0022 334.57 27.5282 335.854 28.5804 336.906C29.6326 337.958 30.9166 338.484 32.4327 338.484Z" fill="#7B7B7B"/>
</g>
<path d="M51.0398 328.567V337.059H49.6469V328.567H51.0398ZM56.1309 330.216C56.6604 330.216 57.1329 330.326 57.5483 330.546C57.9719 330.766 58.3018 331.092 58.538 331.524C58.7742 331.955 58.8923 332.477 58.8923 333.088V337.059H57.5116V333.295C57.5116 332.692 57.3609 332.232 57.0596 331.915C56.7582 331.589 56.3468 331.426 55.8255 331.426C55.3041 331.426 54.8887 331.589 54.5792 331.915C54.2778 332.232 54.1271 332.692 54.1271 333.295V337.059H52.7342V330.326H54.1271V331.096C54.3552 330.819 54.6443 330.603 54.9946 330.448C55.353 330.294 55.7318 330.216 56.1309 330.216ZM62.9784 337.169C62.4489 337.169 61.9724 337.075 61.5488 336.888C61.1334 336.692 60.8035 336.431 60.5591 336.106C60.3148 335.772 60.1844 335.401 60.1681 334.994H61.6099C61.6344 335.279 61.7688 335.519 62.0132 335.715C62.2657 335.902 62.5793 335.996 62.954 335.996C63.345 335.996 63.6464 335.922 63.8582 335.776C64.0781 335.621 64.1881 335.425 64.1881 335.189C64.1881 334.937 64.0659 334.749 63.8215 334.627C63.5853 334.505 63.2065 334.37 62.6852 334.224C62.1801 334.085 61.7688 333.951 61.4511 333.821C61.1334 333.69 60.8565 333.491 60.6202 333.222C60.3921 332.953 60.2781 332.599 60.2781 332.159C60.2781 331.801 60.384 331.475 60.5958 331.181C60.8076 330.88 61.109 330.644 61.5 330.473C61.8991 330.302 62.3553 330.216 62.8685 330.216C63.6342 330.216 64.2492 330.412 64.7135 330.803C65.1859 331.186 65.4384 331.711 65.471 332.379H64.0781C64.0537 332.077 63.9315 331.837 63.7115 331.658C63.4916 331.479 63.1943 331.389 62.8196 331.389C62.453 331.389 62.172 331.458 61.9765 331.597C61.781 331.735 61.6832 331.919 61.6832 332.147C61.6832 332.326 61.7484 332.477 61.8787 332.599C62.0091 332.721 62.1679 332.819 62.3553 332.892C62.5426 332.957 62.8196 333.043 63.1861 333.149C63.6749 333.279 64.074 333.413 64.3836 333.552C64.7012 333.682 64.9741 333.878 65.2022 334.138C65.4303 334.399 65.5484 334.745 65.5565 335.177C65.5565 335.56 65.4507 335.902 65.2389 336.203C65.0271 336.505 64.7257 336.741 64.3347 336.912C63.9518 337.083 63.4997 337.169 62.9784 337.169ZM68.5523 331.462V335.189C68.5523 335.442 68.6093 335.625 68.7234 335.739C68.8456 335.845 69.0492 335.898 69.3343 335.898H70.1896V337.059H69.0899C68.4627 337.059 67.9821 336.912 67.6481 336.619C67.3142 336.325 67.1472 335.849 67.1472 335.189V331.462H66.353V330.326H67.1472V328.652H68.5523V330.326H70.1896V331.462H68.5523ZM70.8747 333.662C70.8747 332.986 71.0132 332.387 71.2901 331.866C71.5752 331.344 71.9581 330.941 72.4387 330.656C72.9274 330.363 73.465 330.216 74.0515 330.216C74.581 330.216 75.0412 330.322 75.4322 330.534C75.8314 330.737 76.1491 330.994 76.3853 331.304V330.326H77.7904V337.059H76.3853V336.057C76.1491 336.374 75.8273 336.639 75.42 336.851C75.0127 337.063 74.5484 337.169 74.0271 337.169C73.4488 337.169 72.9193 337.022 72.4387 336.729C71.9581 336.427 71.5752 336.012 71.2901 335.482C71.0132 334.945 70.8747 334.338 70.8747 333.662ZM76.3853 333.686C76.3853 333.222 76.2875 332.819 76.0921 332.477C75.9047 332.134 75.6563 331.874 75.3467 331.695C75.0372 331.515 74.7032 331.426 74.3448 331.426C73.9864 331.426 73.6524 331.515 73.3429 331.695C73.0333 331.866 72.7808 332.122 72.5853 332.464C72.398 332.798 72.3043 333.198 72.3043 333.662C72.3043 334.126 72.398 334.533 72.5853 334.884C72.7808 335.234 73.0333 335.503 73.3429 335.69C73.6605 335.869 73.9945 335.959 74.3448 335.959C74.7032 335.959 75.0372 335.869 75.3467 335.69C75.6563 335.511 75.9047 335.25 76.0921 334.908C76.2875 334.558 76.3853 334.151 76.3853 333.686ZM82.1981 330.216C82.7194 330.216 83.1797 330.322 83.5788 330.534C83.9861 330.737 84.3038 330.994 84.5319 331.304V330.326H85.937V337.169C85.937 337.788 85.8067 338.337 85.546 338.818C85.2853 339.307 84.9066 339.69 84.4097 339.967C83.9209 340.244 83.3344 340.382 82.6502 340.382C81.7379 340.382 80.9803 340.166 80.3775 339.734C79.7748 339.311 79.4326 338.733 79.3512 337.999H80.7319C80.8378 338.35 81.0618 338.631 81.4039 338.843C81.7542 339.062 82.1696 339.172 82.6502 339.172C83.2123 339.172 83.6643 339.001 84.0065 338.659C84.3567 338.317 84.5319 337.82 84.5319 337.169V336.044C84.2956 336.362 83.9739 336.631 83.5666 336.851C83.1675 337.063 82.7113 337.169 82.1981 337.169C81.6116 337.169 81.074 337.022 80.5853 336.729C80.1047 336.427 79.7218 336.012 79.4367 335.482C79.1597 334.945 79.0213 334.338 79.0213 333.662C79.0213 332.986 79.1597 332.387 79.4367 331.866C79.7218 331.344 80.1047 330.941 80.5853 330.656C81.074 330.363 81.6116 330.216 82.1981 330.216ZM84.5319 333.686C84.5319 333.222 84.4341 332.819 84.2386 332.477C84.0513 332.134 83.8028 331.874 83.4933 331.695C83.1837 331.515 82.8498 331.426 82.4914 331.426C82.1329 331.426 81.799 331.515 81.4894 331.695C81.1799 331.866 80.9274 332.122 80.7319 332.464C80.5445 332.798 80.4508 333.198 80.4508 333.662C80.4508 334.126 80.5445 334.533 80.7319 334.884C80.9274 335.234 81.1799 335.503 81.4894 335.69C81.8071 335.869 82.1411 335.959 82.4914 335.959C82.8498 335.959 83.1837 335.869 83.4933 335.69C83.8028 335.511 84.0513 335.25 84.2386 334.908C84.4341 334.558 84.5319 334.151 84.5319 333.686ZM89.0251 331.304C89.2287 330.962 89.4975 330.697 89.8315 330.509C90.1736 330.314 90.5768 330.216 91.0411 330.216V331.658H90.6868C90.141 331.658 89.7256 331.796 89.4405 332.073C89.1635 332.35 89.0251 332.831 89.0251 333.515V337.059H87.6321V330.326H89.0251V331.304ZM91.7228 333.662C91.7228 332.986 91.8613 332.387 92.1382 331.866C92.4233 331.344 92.8062 330.941 93.2868 330.656C93.7755 330.363 94.3132 330.216 94.8996 330.216C95.4291 330.216 95.8894 330.322 96.2803 330.534C96.6795 330.737 96.9972 330.994 97.2334 331.304V330.326H98.6385V337.059H97.2334V336.057C96.9972 336.374 96.6754 336.639 96.2681 336.851C95.8608 337.063 95.3965 337.169 94.8752 337.169C94.2969 337.169 93.7674 337.022 93.2868 336.729C92.8062 336.427 92.4233 336.012 92.1382 335.482C91.8613 334.945 91.7228 334.338 91.7228 333.662ZM97.2334 333.686C97.2334 333.222 97.1357 332.819 96.9402 332.477C96.7528 332.134 96.5044 331.874 96.1948 331.695C95.8853 331.515 95.5513 331.426 95.1929 331.426C94.8345 331.426 94.5005 331.515 94.191 331.695C93.8814 331.866 93.6289 332.122 93.4334 332.464C93.2461 332.798 93.1524 333.198 93.1524 333.662C93.1524 334.126 93.2461 334.533 93.4334 334.884C93.6289 335.234 93.8814 335.503 94.191 335.69C94.5087 335.869 94.8426 335.959 95.1929 335.959C95.5513 335.959 95.8853 335.869 96.1948 335.69C96.5044 335.511 96.7528 335.25 96.9402 334.908C97.1357 334.558 97.2334 334.151 97.2334 333.686ZM108.483 330.216C109.013 330.216 109.485 330.326 109.901 330.546C110.324 330.766 110.654 331.092 110.891 331.524C111.135 331.955 111.257 332.477 111.257 333.088V337.059H109.876V333.295C109.876 332.692 109.726 332.232 109.424 331.915C109.123 331.589 108.712 331.426 108.19 331.426C107.669 331.426 107.253 331.589 106.944 331.915C106.643 332.232 106.492 332.692 106.492 333.295V337.059H105.111V333.295C105.111 332.692 104.96 332.232 104.659 331.915C104.358 331.589 103.946 331.426 103.425 331.426C102.904 331.426 102.488 331.589 102.179 331.915C101.877 332.232 101.727 332.692 101.727 333.295V337.059H100.334V330.326H101.727V331.096C101.955 330.819 102.244 330.603 102.594 330.448C102.944 330.294 103.319 330.216 103.718 330.216C104.256 330.216 104.736 330.33 105.16 330.558C105.584 330.786 105.909 331.116 106.138 331.548C106.341 331.141 106.659 330.819 107.091 330.583C107.522 330.338 107.987 330.216 108.483 330.216Z" fill="#505050"/>
<mask id="mask5_780_19925" style="mask-type:alpha" maskUnits="userSpaceOnUse" x="24" y="353" width="17" height="17">
<rect x="24.293" y="353.098" width="16.2915" height="16.2915" fill="#D9D9D9"/>
</mask>
<g mask="url(#mask5_780_19925)">
<path d="M32.4327 364.631C33.3717 364.631 34.1721 364.3 34.8339 363.639C35.4958 362.977 35.8267 362.176 35.8267 361.237C35.8267 360.298 35.4958 359.498 34.8339 358.836C34.1721 358.174 33.3717 357.843 32.4327 357.843C31.4936 357.843 30.6932 358.174 30.0314 358.836C29.3695 359.498 29.0386 360.298 29.0386 361.237C29.0386 362.176 29.3695 362.977 30.0314 363.639C30.6932 364.3 31.4936 364.631 32.4327 364.631ZM32.4327 368.025C31.4936 368.025 30.6112 367.847 29.7853 367.491C28.9594 367.135 28.241 366.651 27.6301 366.04C27.0191 365.429 26.5355 364.711 26.1791 363.885C25.8227 363.059 25.6445 362.176 25.6445 361.237C25.6445 360.298 25.8227 359.416 26.1791 358.59C26.5355 357.764 27.0191 357.046 27.6301 356.435C28.241 355.824 28.9594 355.34 29.7853 354.984C30.6112 354.627 31.4936 354.449 32.4327 354.449C33.3717 354.449 34.2541 354.627 35.08 354.984C35.9059 355.34 36.6243 355.824 37.2352 356.435C37.8462 357.046 38.3298 357.764 38.6862 358.59C39.0426 359.416 39.2208 360.298 39.2208 361.237C39.2208 362.176 39.0426 363.059 38.6862 363.885C38.3298 364.711 37.8462 365.429 37.2352 366.04C36.6243 366.651 35.9059 367.135 35.08 367.491C34.2541 367.847 33.3717 368.025 32.4327 368.025ZM32.4327 366.668C33.9487 366.668 35.2327 366.142 36.2849 365.09C37.3371 364.037 37.8631 362.753 37.8631 361.237C37.8631 359.721 37.3371 358.437 36.2849 357.385C35.2327 356.333 33.9487 355.807 32.4327 355.807C30.9166 355.807 29.6326 356.333 28.5804 357.385C27.5282 358.437 27.0022 359.721 27.0022 361.237C27.0022 362.753 27.5282 364.037 28.5804 365.09C29.6326 366.142 30.9166 366.668 32.4327 366.668Z" fill="#7B7B7B"/>
</g>
<path d="M54.6443 356.75V357.887H51.0398V360.391H53.8501V361.528H51.0398V365.242H49.6469V356.75H54.6443ZM55.3364 361.845C55.3364 361.169 55.4749 360.571 55.7519 360.049C56.037 359.528 56.4198 359.125 56.9004 358.84C57.3892 358.546 57.9268 358.4 58.5133 358.4C59.0428 358.4 59.503 358.506 59.894 358.717C60.2931 358.921 60.6108 359.178 60.847 359.487V358.51H62.2522V365.242H60.847V364.24C60.6108 364.558 60.2891 364.823 59.8818 365.034C59.4745 365.246 59.0102 365.352 58.4888 365.352C57.9105 365.352 57.381 365.206 56.9004 364.912C56.4198 364.611 56.037 364.195 55.7519 363.666C55.4749 363.128 55.3364 362.522 55.3364 361.845ZM60.847 361.87C60.847 361.406 60.7493 361.002 60.5538 360.66C60.3664 360.318 60.118 360.057 59.8085 359.878C59.4989 359.699 59.1649 359.609 58.8065 359.609C58.4481 359.609 58.1141 359.699 57.8046 359.878C57.4951 360.049 57.2425 360.306 57.047 360.648C56.8597 360.982 56.766 361.381 56.766 361.845C56.766 362.31 56.8597 362.717 57.047 363.067C57.2425 363.418 57.4951 363.686 57.8046 363.874C58.1223 364.053 58.4563 364.143 58.8065 364.143C59.1649 364.143 59.4989 364.053 59.8085 363.874C60.118 363.694 60.3664 363.434 60.5538 363.092C60.7493 362.741 60.847 362.334 60.847 361.87ZM63.483 361.87C63.483 361.177 63.6215 360.571 63.8984 360.049C64.1835 359.52 64.5745 359.113 65.0714 358.827C65.5683 358.542 66.1385 358.4 66.782 358.4C67.5966 358.4 68.2686 358.595 68.7981 358.986C69.3357 359.369 69.6982 359.919 69.8856 360.636H68.3827C68.2605 360.302 68.065 360.041 67.7962 359.854C67.5274 359.666 67.1893 359.573 66.782 359.573C66.2118 359.573 65.7557 359.776 65.4136 360.184C65.0796 360.583 64.9126 361.145 64.9126 361.87C64.9126 362.595 65.0796 363.161 65.4136 363.568C65.7557 363.976 66.2118 364.179 66.782 364.179C67.5885 364.179 68.122 363.825 68.3827 363.116H69.8856C69.6901 363.8 69.3235 364.346 68.7859 364.753C68.2483 365.153 67.5803 365.352 66.782 365.352C66.1385 365.352 65.5683 365.21 65.0714 364.925C64.5745 364.631 64.1835 364.224 63.8984 363.703C63.6215 363.173 63.483 362.562 63.483 361.87ZM77.3097 361.711C77.3097 361.964 77.2934 362.192 77.2608 362.395H72.1168C72.1575 362.933 72.3571 363.365 72.7155 363.69C73.0739 364.016 73.5138 364.179 74.0351 364.179C74.7845 364.179 75.314 363.866 75.6235 363.238H77.1264C76.9228 363.857 76.5522 364.367 76.0145 364.766C75.4851 365.157 74.8253 365.352 74.0351 365.352C73.3916 365.352 72.8133 365.21 72.3001 364.925C71.795 364.631 71.3959 364.224 71.1027 363.703C70.8176 363.173 70.675 362.562 70.675 361.87C70.675 361.177 70.8135 360.571 71.0904 360.049C71.3755 359.52 71.7706 359.113 72.2756 358.827C72.7888 358.542 73.3753 358.4 74.0351 358.4C74.6705 358.4 75.2366 358.538 75.7335 358.815C76.2304 359.092 76.6173 359.483 76.8943 359.988C77.1712 360.485 77.3097 361.059 77.3097 361.711ZM75.8557 361.271C75.8476 360.758 75.6643 360.347 75.3059 360.037C74.9474 359.728 74.5035 359.573 73.974 359.573C73.4934 359.573 73.0821 359.728 72.74 360.037C72.3978 360.338 72.1942 360.75 72.129 361.271H75.8557ZM79.939 359.512C80.1752 359.186 80.497 358.921 80.9043 358.717C81.3197 358.506 81.7799 358.4 82.285 358.4C82.8796 358.4 83.4172 358.542 83.8978 358.827C84.3784 359.113 84.7572 359.52 85.0342 360.049C85.3111 360.571 85.4496 361.169 85.4496 361.845C85.4496 362.522 85.3111 363.128 85.0342 363.666C84.7572 364.195 84.3744 364.611 83.8856 364.912C83.405 365.206 82.8715 365.352 82.285 365.352C81.7637 365.352 81.2993 365.25 80.8921 365.047C80.4929 364.843 80.1752 364.582 79.939 364.265V365.242H78.5461V356.2H79.939V359.512ZM84.0322 361.845C84.0322 361.381 83.9345 360.982 83.739 360.648C83.5516 360.306 83.2991 360.049 82.9814 359.878C82.6719 359.699 82.3379 359.609 81.9795 359.609C81.6292 359.609 81.2953 359.699 80.9776 359.878C80.668 360.057 80.4155 360.318 80.22 360.66C80.0327 361.002 79.939 361.406 79.939 361.87C79.939 362.334 80.0327 362.741 80.22 363.092C80.4155 363.434 80.668 363.694 80.9776 363.874C81.2953 364.053 81.6292 364.143 81.9795 364.143C82.3379 364.143 82.6719 364.053 82.9814 363.874C83.2991 363.686 83.5516 363.418 83.739 363.067C83.9345 362.717 84.0322 362.31 84.0322 361.845ZM89.6129 365.352C88.9775 365.352 88.4033 365.21 87.8901 364.925C87.3769 364.631 86.9737 364.224 86.6804 363.703C86.3872 363.173 86.2406 362.562 86.2406 361.87C86.2406 361.186 86.3913 360.579 86.6927 360.049C86.994 359.52 87.4054 359.113 87.9267 358.827C88.4481 358.542 89.0305 358.4 89.674 358.4C90.3175 358.4 90.8999 358.542 91.4213 358.827C91.9426 359.113 92.3539 359.52 92.6553 360.049C92.9567 360.579 93.1074 361.186 93.1074 361.87C93.1074 362.554 92.9527 363.161 92.6431 363.69C92.3336 364.22 91.91 364.631 91.3724 364.925C90.8429 365.21 90.2564 365.352 89.6129 365.352ZM89.6129 364.143C89.9713 364.143 90.3053 364.057 90.6148 363.886C90.9325 363.715 91.1891 363.458 91.3846 363.116C91.5801 362.774 91.6778 362.359 91.6778 361.87C91.6778 361.381 91.5842 360.97 91.3968 360.636C91.2095 360.294 90.961 360.037 90.6515 359.866C90.3419 359.695 90.008 359.609 89.6496 359.609C89.2911 359.609 88.9572 359.695 88.6476 359.866C88.3462 360.037 88.1059 360.294 87.9267 360.636C87.7475 360.97 87.6579 361.381 87.6579 361.87C87.6579 362.595 87.8412 363.157 88.2078 363.556C88.5825 363.947 89.0508 364.143 89.6129 364.143ZM97.2702 365.352C96.6349 365.352 96.0606 365.21 95.5474 364.925C95.0342 364.631 94.631 364.224 94.3378 363.703C94.0445 363.173 93.8979 362.562 93.8979 361.87C93.8979 361.186 94.0486 360.579 94.35 360.049C94.6514 359.52 95.0627 359.113 95.5841 358.827C96.1054 358.542 96.6878 358.4 97.3313 358.4C97.9749 358.4 98.5573 358.542 99.0786 358.827C99.5999 359.113 100.011 359.52 100.313 360.049C100.614 360.579 100.765 361.186 100.765 361.87C100.765 362.554 100.61 363.161 100.3 363.69C99.9909 364.22 99.5673 364.631 99.0297 364.925C98.5003 365.21 97.9138 365.352 97.2702 365.352ZM97.2702 364.143C97.6287 364.143 97.9626 364.057 98.2722 363.886C98.5899 363.715 98.8464 363.458 99.0419 363.116C99.2374 362.774 99.3352 362.359 99.3352 361.87C99.3352 361.381 99.2415 360.97 99.0542 360.636C98.8668 360.294 98.6184 360.037 98.3088 359.866C97.9993 359.695 97.6653 359.609 97.3069 359.609C96.9485 359.609 96.6145 359.695 96.305 359.866C96.0036 360.037 95.7633 360.294 95.5841 360.636C95.4049 360.97 95.3153 361.381 95.3153 361.87C95.3153 362.595 95.4985 363.157 95.8651 363.556C96.2398 363.947 96.7082 364.143 97.2702 364.143ZM104.671 361.882L107.775 365.242H105.893L103.4 362.346V365.242H102.007V356.2H103.4V361.454L105.844 358.51H107.775L104.671 361.882Z" fill="#505050"/>
<mask id="mask6_780_19925" style="mask-type:alpha" maskUnits="userSpaceOnUse" x="24" y="381" width="17" height="17">
<rect x="24.293" y="381.277" width="16.2915" height="16.2915" fill="#D9D9D9"/>
</mask>
<g mask="url(#mask6_780_19925)">
<path d="M32.4327 396.205C31.4936 396.205 30.6112 396.027 29.7853 395.671C28.9594 395.314 28.241 394.831 27.6301 394.22C27.0191 393.609 26.5355 392.89 26.1791 392.064C25.8227 391.239 25.6445 390.356 25.6445 389.417C25.6445 388.478 25.8227 387.596 26.1791 386.77C26.5355 385.944 27.0191 385.225 27.6301 384.614C28.241 384.004 28.9594 383.52 29.7853 383.163C30.6112 382.807 31.4936 382.629 32.4327 382.629C33.3717 382.629 34.2541 382.807 35.08 383.163C35.9059 383.52 36.6243 384.004 37.2352 384.614C37.8462 385.225 38.3298 385.944 38.6862 386.77C39.0426 387.596 39.2208 388.478 39.2208 389.417C39.2208 390.356 39.0426 391.239 38.6862 392.064C38.3298 392.89 37.8462 393.609 37.2352 394.22C36.6243 394.831 35.9059 395.314 35.08 395.671C34.2541 396.027 33.3717 396.205 32.4327 396.205ZM32.4327 394.848C33.9487 394.848 35.2327 394.321 36.2849 393.269C37.3371 392.217 37.8631 390.933 37.8631 389.417C37.8631 387.901 37.3371 386.617 36.2849 385.565C35.2327 384.513 33.9487 383.987 32.4327 383.987C30.9166 383.987 29.6326 384.513 28.5804 385.565C27.5282 386.617 27.0022 387.901 27.0022 389.417C27.0022 390.933 27.5282 392.217 28.5804 393.269C29.6326 394.321 30.9166 394.848 32.4327 394.848Z" fill="#7B7B7B"/>
</g>
<path d="M55.133 384.93V386.066H52.8726V393.422H51.4797V386.066H49.207V384.93H55.133ZM65.4511 386.689L63.3617 393.422H61.8955L60.5392 388.449L59.1829 393.422H57.7167L55.6151 386.689H57.0324L58.4376 392.102L59.8672 386.689H61.3212L62.6897 392.078L64.0826 386.689H65.4511ZM67.0663 385.797C66.8138 385.797 66.602 385.712 66.4309 385.541C66.2599 385.37 66.1744 385.158 66.1744 384.906C66.1744 384.653 66.2599 384.441 66.4309 384.27C66.602 384.099 66.8138 384.014 67.0663 384.014C67.3107 384.014 67.5184 384.099 67.6895 384.27C67.8605 384.441 67.9461 384.653 67.9461 384.906C67.9461 385.158 67.8605 385.37 67.6895 385.541C67.5184 385.712 67.3107 385.797 67.0663 385.797ZM67.7506 386.689V393.422H66.3576V386.689H67.7506ZM71.07 387.826V391.552C71.07 391.805 71.127 391.988 71.2411 392.102C71.3633 392.208 71.5669 392.261 71.852 392.261H72.7073V393.422H71.6076C70.9804 393.422 70.4998 393.275 70.1658 392.982C69.8319 392.689 69.6649 392.212 69.6649 391.552V387.826H68.8707V386.689H69.6649V385.015H71.07V386.689H72.7073V387.826H71.07ZM75.4818 387.826V391.552C75.4818 391.805 75.5388 391.988 75.6528 392.102C75.775 392.208 75.9787 392.261 76.2638 392.261H77.1191V393.422H76.0194C75.3922 393.422 74.9116 393.275 74.5776 392.982C74.2436 392.689 74.0766 392.212 74.0766 391.552V387.826H73.2824V386.689H74.0766V385.015H75.4818V386.689H77.1191V387.826H75.4818ZM84.4389 389.891C84.4389 390.143 84.4226 390.371 84.39 390.575H79.246C79.2867 391.113 79.4863 391.544 79.8447 391.87C80.2031 392.196 80.643 392.359 81.1643 392.359C81.9137 392.359 82.4432 392.045 82.7527 391.418H84.2556C84.052 392.037 83.6813 392.546 83.1437 392.945C82.6142 393.336 81.9544 393.532 81.1643 393.532C80.5208 393.532 79.9424 393.389 79.4293 393.104C78.9242 392.811 78.5251 392.404 78.2318 391.882C77.9467 391.353 77.8042 390.742 77.8042 390.05C77.8042 389.357 77.9427 388.75 78.2196 388.229C78.5047 387.699 78.8998 387.292 79.4048 387.007C79.918 386.722 80.5045 386.579 81.1643 386.579C81.7997 386.579 82.3658 386.718 82.8627 386.995C83.3596 387.272 83.7465 387.663 84.0235 388.168C84.3004 388.665 84.4389 389.239 84.4389 389.891ZM82.9849 389.451C82.9767 388.938 82.7935 388.526 82.435 388.217C82.0766 387.907 81.6327 387.752 81.1032 387.752C80.6226 387.752 80.2113 387.907 79.8691 388.217C79.527 388.518 79.3234 388.929 79.2582 389.451H82.9849ZM87.0682 387.667C87.2718 387.325 87.5406 387.06 87.8746 386.873C88.2167 386.677 88.6199 386.579 89.0843 386.579V388.021H88.7299C88.1842 388.021 87.7687 388.16 87.4836 388.437C87.2067 388.714 87.0682 389.194 87.0682 389.878V393.422H85.6753V386.689H87.0682V387.667Z" fill="#505050"/>
<line x1="24.293" y1="418.28" x2="246.264" y2="418.28" stroke="#E6E6E6" stroke-width="1.01822"/>
<path d="M31.7626 444.245V445.571H29.1254V454.152H27.5004V445.571H24.8489V444.245H31.7626ZM40.6215 446.298L35.8033 457.844H34.1212L35.7177 454.024L32.6244 446.298H34.4348L36.6443 452.285L38.9394 446.298H40.6215ZM43.6155 447.452C43.8911 447.091 44.2664 446.787 44.7416 446.54C45.2168 446.293 45.7537 446.17 46.3524 446.17C47.0367 446.17 47.6591 446.341 48.2198 446.683C48.79 447.015 49.2367 447.486 49.5598 448.094C49.8829 448.702 50.0445 449.401 50.0445 450.189C50.0445 450.978 49.8829 451.686 49.5598 452.313C49.2367 452.931 48.79 453.416 48.2198 453.767C47.6591 454.11 47.0367 454.281 46.3524 454.281C45.7537 454.281 45.2215 454.162 44.7559 453.924C44.2902 453.677 43.9101 453.373 43.6155 453.012V457.887H41.9904V446.298H43.6155V447.452ZM48.3909 450.189C48.3909 449.648 48.2769 449.182 48.0488 448.792C47.8302 448.393 47.5356 448.094 47.165 447.894C46.8038 447.685 46.4142 447.581 45.9961 447.581C45.5874 447.581 45.1978 447.685 44.8271 447.894C44.466 448.103 44.1714 448.408 43.9433 448.807C43.7248 449.206 43.6155 449.676 43.6155 450.218C43.6155 450.76 43.7248 451.235 43.9433 451.643C44.1714 452.043 44.466 452.347 44.8271 452.556C45.1978 452.765 45.5874 452.869 45.9961 452.869C46.4142 452.869 46.8038 452.765 47.165 452.556C47.5356 452.337 47.8302 452.024 48.0488 451.615C48.2769 451.206 48.3909 450.731 48.3909 450.189ZM58.9929 450.033C58.9929 450.327 58.9739 450.593 58.9359 450.831H52.9345C52.982 451.458 53.2148 451.962 53.633 452.342C54.0511 452.722 54.5643 452.912 55.1725 452.912C56.0468 452.912 56.6646 452.546 57.0257 451.815H58.779C58.5415 452.537 58.1091 453.131 57.4818 453.596C56.8641 454.053 56.0943 454.281 55.1725 454.281C54.4218 454.281 53.747 454.114 53.1483 453.782C52.5591 453.44 52.0934 452.964 51.7513 452.356C51.4187 451.738 51.2524 451.026 51.2524 450.218C51.2524 449.41 51.4139 448.702 51.7371 448.094C52.0697 447.476 52.5306 447.001 53.1198 446.668C53.7185 446.336 54.4027 446.17 55.1725 446.17C55.9138 446.17 56.5743 446.331 57.154 446.654C57.7337 446.977 58.1851 447.433 58.5082 448.023C58.8313 448.602 58.9929 449.272 58.9929 450.033ZM57.2965 449.519C57.287 448.921 57.0732 448.441 56.655 448.08C56.2369 447.719 55.719 447.538 55.1012 447.538C54.5405 447.538 54.0606 447.719 53.6615 448.08C53.2623 448.431 53.0248 448.911 52.9487 449.519H57.2965Z" fill="black"/>
<path d="M232.474 451.602L237.017 447.297C237.554 446.788 238.409 446.811 238.917 447.348L243.223 451.891" stroke="black" stroke-width="1.52733" stroke-miterlimit="10" stroke-linecap="round" stroke-linejoin="round"/>
<mask id="mask7_780_19925" style="mask-type:alpha" maskUnits="userSpaceOnUse" x="24" y="478" width="17" height="17">
<rect x="24.293" y="478.316" width="16.2915" height="16.2915" fill="#D9D9D9"/>
</mask>
<g mask="url(#mask7_780_19925)">
<path d="M31.4832 489.308L36.2688 484.522L35.3185 483.572L31.4832 487.407L29.5486 485.473L28.5982 486.423L31.4832 489.308ZM27.6818 492.566C27.3085 492.566 26.9889 492.433 26.723 492.167C26.4572 491.902 26.3242 491.582 26.3242 491.209V481.705C26.3242 481.332 26.4572 481.012 26.723 480.746C26.9889 480.481 27.3085 480.348 27.6818 480.348H37.1852C37.5586 480.348 37.8782 480.481 38.144 480.746C38.4099 481.012 38.5428 481.332 38.5428 481.705V491.209C38.5428 491.582 38.4099 491.902 38.144 492.167C37.8782 492.433 37.5586 492.566 37.1852 492.566H27.6818Z" fill="#303030"/>
</g>
<path d="M54.7665 488.726H51.2108L50.5999 490.461H49.1459L52.1883 481.957H53.8012L56.8436 490.461H55.3774L54.7665 488.726ZM54.3755 487.59L52.9948 483.643L51.6018 487.59H54.3755ZM59.425 481.419V490.461H58.0321V481.419H59.425ZM62.5123 481.419V490.461H61.1194V481.419H62.5123Z" fill="#505050"/>
<mask id="mask8_780_19925" style="mask-type:alpha" maskUnits="userSpaceOnUse" x="24" y="506" width="17" height="17">
<rect x="24.293" y="506.5" width="16.2915" height="16.2915" fill="#D9D9D9"/>
</mask>
<g mask="url(#mask8_780_19925)">
<path d="M27.6818 520.75C27.3085 520.75 26.9889 520.617 26.723 520.351C26.4572 520.085 26.3242 519.766 26.3242 519.392V509.889C26.3242 509.516 26.4572 509.196 26.723 508.93C26.9889 508.664 27.3085 508.531 27.6818 508.531H37.1852C37.5586 508.531 37.8782 508.664 38.144 508.93C38.4099 509.196 38.5428 509.516 38.5428 509.889V519.392C38.5428 519.766 38.4099 520.085 38.144 520.351C37.8782 520.617 37.5586 520.75 37.1852 520.75H27.6818ZM27.6818 519.392H37.1852V509.889H27.6818V519.392Z" fill="#7B7B7B"/>
</g>
<path d="M50.2334 516.751C51.0153 516.075 51.6304 515.521 52.0784 515.089C52.5345 514.649 52.9133 514.193 53.2147 513.72C53.5161 513.248 53.6668 512.776 53.6668 512.303C53.6668 511.814 53.5487 511.431 53.3124 511.155C53.0844 510.878 52.7219 510.739 52.225 510.739C51.7444 510.739 51.3697 510.894 51.1009 511.203C50.8402 511.505 50.7017 511.912 50.6854 512.425H49.3414C49.3658 511.497 49.6428 510.788 50.1723 510.299C50.7099 509.802 51.3901 509.554 52.2128 509.554C53.1007 509.554 53.793 509.798 54.2899 510.287C54.795 510.776 55.0475 511.427 55.0475 512.242C55.0475 512.828 54.8968 513.395 54.5954 513.94C54.3022 514.478 53.9478 514.963 53.5324 515.394C53.1251 515.818 52.6038 516.311 51.9684 516.873L51.4186 517.362H55.2919V518.522H49.3536V517.508L50.2334 516.751ZM56.1979 511.008V509.737H58.7393V518.645H57.3342V511.008H56.1979ZM66.185 518.754C65.6556 518.754 65.179 518.661 64.7555 518.473C64.34 518.278 64.0101 518.017 63.7658 517.691C63.5214 517.358 63.3911 516.987 63.3748 516.58H64.8166C64.841 516.865 64.9754 517.105 65.2198 517.3C65.4723 517.488 65.7859 517.582 66.1606 517.582C66.5516 517.582 66.853 517.508 67.0648 517.362C67.2847 517.207 67.3947 517.011 67.3947 516.775C67.3947 516.523 67.2725 516.335 67.0281 516.213C66.7919 516.091 66.4131 515.956 65.8918 515.81C65.3868 515.671 64.9754 515.537 64.6577 515.407C64.34 515.276 64.0631 515.077 63.8269 514.808C63.5988 514.539 63.4847 514.185 63.4847 513.745C63.4847 513.386 63.5906 513.061 63.8024 512.767C64.0142 512.466 64.3156 512.23 64.7066 512.059C65.1057 511.888 65.5619 511.802 66.0751 511.802C66.8408 511.802 67.4558 511.998 67.9201 512.389C68.3925 512.771 68.6451 513.297 68.6776 513.965H67.2847C67.2603 513.663 67.1381 513.423 66.9182 513.244C66.6982 513.065 66.4009 512.975 66.0262 512.975C65.6596 512.975 65.3786 513.044 65.1831 513.183C64.9876 513.321 64.8899 513.505 64.8899 513.733C64.8899 513.912 64.955 514.063 65.0854 514.185C65.2157 514.307 65.3745 514.405 65.5619 514.478C65.7492 514.543 66.0262 514.629 66.3928 514.735C66.8815 514.865 67.2806 514.999 67.5902 515.138C67.9079 515.268 68.1808 515.464 68.4088 515.724C68.6369 515.985 68.755 516.331 68.7632 516.763C68.7632 517.146 68.6573 517.488 68.4455 517.789C68.2337 518.091 67.9323 518.327 67.5413 518.498C67.1585 518.669 66.7064 518.754 66.185 518.754ZM71.7589 513.048V516.775C71.7589 517.028 71.8159 517.211 71.93 517.325C72.0522 517.431 72.2558 517.484 72.5409 517.484H73.3962V518.645H72.2965C71.6693 518.645 71.1887 518.498 70.8548 518.205C70.5208 517.911 70.3538 517.435 70.3538 516.775V513.048H69.5596V511.912H70.3538V510.238H71.7589V511.912H73.3962V513.048H71.7589ZM82.2161 510.153V516.274C82.2161 517.032 81.9839 517.63 81.5196 518.07C81.0634 518.51 80.4606 518.73 79.7112 518.73C78.9618 518.73 78.355 518.51 77.8907 518.07C77.4345 517.63 77.2064 517.032 77.2064 516.274H78.6116C78.6197 516.649 78.7134 516.946 78.8926 517.166C79.0799 517.386 79.3528 517.496 79.7112 517.496C80.0697 517.496 80.3425 517.386 80.5299 517.166C80.7172 516.938 80.8109 516.641 80.8109 516.274V510.153H82.2161ZM90.4447 511.912V518.645H89.0518V517.85C88.8319 518.127 88.5427 518.347 88.1843 518.51C87.834 518.665 87.4593 518.742 87.0602 518.742C86.5307 518.742 86.0542 518.632 85.6306 518.412C85.2152 518.192 84.8853 517.867 84.6409 517.435C84.4047 517.003 84.2865 516.482 84.2865 515.871V511.912H85.6672V515.663C85.6672 516.266 85.8179 516.73 86.1193 517.056C86.4207 517.374 86.8321 517.533 87.3534 517.533C87.8747 517.533 88.2861 517.374 88.5875 517.056C88.897 516.73 89.0518 516.266 89.0518 515.663V511.912H90.4447ZM95.5449 511.802C96.0744 511.802 96.5469 511.912 96.9623 512.132C97.3859 512.352 97.7158 512.678 97.952 513.109C98.1882 513.541 98.3063 514.063 98.3063 514.673V518.645H96.9256V514.881C96.9256 514.278 96.7749 513.818 96.4736 513.5C96.1722 513.175 95.7608 513.012 95.2395 513.012C94.7181 513.012 94.3027 513.175 93.9932 513.5C93.6918 513.818 93.5411 514.278 93.5411 514.881V518.645H92.1482V511.912H93.5411V512.682C93.7692 512.405 94.0583 512.189 94.4086 512.034C94.767 511.879 95.1458 511.802 95.5449 511.802ZM106.119 515.113C106.119 515.366 106.103 515.594 106.07 515.798H100.926C100.967 516.335 101.166 516.767 101.525 517.093C101.883 517.419 102.323 517.582 102.845 517.582C103.594 517.582 104.123 517.268 104.433 516.641H105.936C105.732 517.26 105.362 517.769 104.824 518.168C104.294 518.559 103.635 518.754 102.845 518.754C102.201 518.754 101.623 518.612 101.109 518.327C100.604 518.034 100.205 517.626 99.912 517.105C99.6269 516.576 99.4844 515.965 99.4844 515.272C99.4844 514.58 99.6229 513.973 99.8998 513.452C100.185 512.922 100.58 512.515 101.085 512.23C101.598 511.945 102.185 511.802 102.845 511.802C103.48 511.802 104.046 511.941 104.543 512.218C105.04 512.494 105.427 512.885 105.704 513.391C105.981 513.887 106.119 514.462 106.119 515.113ZM104.665 514.673C104.657 514.16 104.474 513.749 104.115 513.439C103.757 513.13 103.313 512.975 102.783 512.975C102.303 512.975 101.891 513.13 101.549 513.439C101.207 513.741 101.004 514.152 100.938 514.673H104.665ZM108.883 516.971L107.404 520.343H106.5L107.368 516.971H108.883ZM113.592 516.751C114.374 516.075 114.989 515.521 115.437 515.089C115.893 514.649 116.271 514.193 116.573 513.72C116.874 513.248 117.025 512.776 117.025 512.303C117.025 511.814 116.907 511.431 116.671 511.155C116.443 510.878 116.08 510.739 115.583 510.739C115.103 510.739 114.728 510.894 114.459 511.203C114.198 511.505 114.06 511.912 114.044 512.425H112.7C112.724 511.497 113.001 510.788 113.53 510.299C114.068 509.802 114.748 509.554 115.571 509.554C116.459 509.554 117.151 509.798 117.648 510.287C118.153 510.776 118.406 511.427 118.406 512.242C118.406 512.828 118.255 513.395 117.954 513.94C117.66 514.478 117.306 514.963 116.891 515.394C116.483 515.818 115.962 516.311 115.327 516.873L114.777 517.362H118.65V518.522H112.712V517.508L113.592 516.751ZM119.739 514.075C119.739 512.666 119.976 511.566 120.448 510.776C120.929 509.977 121.751 509.578 122.916 509.578C124.081 509.578 124.9 509.977 125.372 510.776C125.853 511.566 126.093 512.666 126.093 514.075C126.093 515.5 125.853 516.616 125.372 517.423C124.9 518.221 124.081 518.62 122.916 518.62C121.751 518.62 120.929 518.221 120.448 517.423C119.976 516.616 119.739 515.5 119.739 514.075ZM124.725 514.075C124.725 513.415 124.68 512.857 124.59 512.401C124.509 511.945 124.338 511.574 124.077 511.289C123.816 510.996 123.429 510.849 122.916 510.849C122.403 510.849 122.016 510.996 121.755 511.289C121.495 511.574 121.32 511.945 121.23 512.401C121.149 512.857 121.108 513.415 121.108 514.075C121.108 514.759 121.149 515.333 121.23 515.798C121.311 516.262 121.483 516.637 121.743 516.922C122.012 517.207 122.403 517.349 122.916 517.349C123.429 517.349 123.816 517.207 124.077 516.922C124.346 516.637 124.521 516.262 124.602 515.798C124.684 515.333 124.725 514.759 124.725 514.075ZM128.202 516.751C128.984 516.075 129.599 515.521 130.047 515.089C130.503 514.649 130.882 514.193 131.184 513.72C131.485 513.248 131.636 512.776 131.636 512.303C131.636 511.814 131.518 511.431 131.281 511.155C131.053 510.878 130.691 510.739 130.194 510.739C129.713 510.739 129.339 510.894 129.07 511.203C128.809 511.505 128.671 511.912 128.654 512.425H127.31C127.335 511.497 127.612 510.788 128.141 510.299C128.679 509.802 129.359 509.554 130.182 509.554C131.07 509.554 131.762 509.798 132.259 510.287C132.764 510.776 133.016 511.427 133.016 512.242C133.016 512.828 132.866 513.395 132.564 513.94C132.271 514.478 131.917 514.963 131.501 515.394C131.094 515.818 130.573 516.311 129.937 516.873L129.387 517.362H133.261V518.522H127.322V517.508L128.202 516.751ZM134.326 511.937C134.374 511.179 134.664 510.588 135.193 510.165C135.731 509.741 136.415 509.529 137.246 509.529C137.816 509.529 138.309 509.631 138.724 509.835C139.14 510.039 139.453 510.316 139.665 510.666C139.877 511.016 139.983 511.411 139.983 511.851C139.983 512.356 139.848 512.788 139.58 513.146C139.311 513.505 138.989 513.745 138.614 513.867V513.916C139.095 514.063 139.47 514.331 139.738 514.722C140.007 515.105 140.142 515.598 140.142 516.201C140.142 516.681 140.032 517.109 139.812 517.484C139.592 517.858 139.266 518.156 138.834 518.376C138.403 518.588 137.885 518.693 137.282 518.693C136.403 518.693 135.678 518.469 135.108 518.021C134.546 517.565 134.244 516.914 134.203 516.066H135.547C135.58 516.498 135.747 516.852 136.048 517.129C136.35 517.398 136.757 517.533 137.27 517.533C137.767 517.533 138.15 517.398 138.419 517.129C138.688 516.852 138.822 516.498 138.822 516.066C138.822 515.496 138.639 515.093 138.272 514.857C137.914 514.612 137.36 514.49 136.61 514.49H136.293V513.342H136.623C137.282 513.334 137.783 513.224 138.126 513.012C138.476 512.8 138.651 512.466 138.651 512.01C138.651 511.619 138.525 511.309 138.272 511.081C138.02 510.845 137.661 510.727 137.197 510.727C136.741 510.727 136.386 510.845 136.134 511.081C135.881 511.309 135.731 511.594 135.682 511.937H134.326Z" fill="#505050"/>
<mask id="mask9_780_19925" style="mask-type:alpha" maskUnits="userSpaceOnUse" x="24" y="534" width="17" height="17">
<rect x="24.293" y="534.68" width="16.2915" height="16.2915" fill="#D9D9D9"/>
</mask>
<g mask="url(#mask9_780_19925)">
<path d="M27.6818 548.93C27.3085 548.93 26.9889 548.797 26.723 548.531C26.4572 548.265 26.3242 547.945 26.3242 547.572V538.069C26.3242 537.695 26.4572 537.376 26.723 537.11C26.9889 536.844 27.3085 536.711 27.6818 536.711H37.1852C37.5586 536.711 37.8782 536.844 38.144 537.11C38.4099 537.376 38.5428 537.695 38.5428 538.069V547.572C38.5428 547.945 38.4099 548.265 38.144 548.531C37.8782 548.797 37.5586 548.93 37.1852 548.93H27.6818ZM27.6818 547.572H37.1852V538.069H27.6818V547.572Z" fill="#7B7B7B"/>
</g>
<path d="M49.4391 540.116C49.488 539.359 49.7772 538.768 50.3067 538.345C50.8443 537.921 51.5285 537.709 52.3594 537.709C52.9296 537.709 53.4224 537.811 53.8378 538.015C54.2533 538.218 54.5669 538.495 54.7787 538.845C54.9905 539.196 55.0964 539.591 55.0964 540.031C55.0964 540.536 54.962 540.967 54.6932 541.326C54.4243 541.684 54.1026 541.925 53.7279 542.047V542.096C54.2085 542.242 54.5832 542.511 54.852 542.902C55.1208 543.285 55.2552 543.778 55.2552 544.38C55.2552 544.861 55.1452 545.289 54.9253 545.663C54.7054 546.038 54.3795 546.335 53.9478 546.555C53.5161 546.767 52.9988 546.873 52.3961 546.873C51.5163 546.873 50.7913 546.649 50.2211 546.201C49.6591 545.745 49.3577 545.093 49.317 544.246H50.661C50.6936 544.678 50.8606 545.032 51.162 545.309C51.4634 545.578 51.8707 545.712 52.3838 545.712C52.8807 545.712 53.2636 545.578 53.5324 545.309C53.8012 545.032 53.9356 544.678 53.9356 544.246C53.9356 543.676 53.7523 543.273 53.3858 543.036C53.0273 542.792 52.4734 542.67 51.724 542.67H51.4063V541.521H51.7362C52.3961 541.513 52.897 541.403 53.2391 541.191C53.5894 540.98 53.7645 540.646 53.7645 540.19C53.7645 539.799 53.6383 539.489 53.3858 539.261C53.1332 539.025 52.7748 538.907 52.3105 538.907C51.8544 538.907 51.5 539.025 51.2475 539.261C50.995 539.489 50.8443 539.774 50.7954 540.116H49.4391ZM56.584 542.254C56.584 540.845 56.8202 539.746 57.2927 538.955C57.7733 538.157 58.596 537.758 59.7608 537.758C60.9257 537.758 61.7443 538.157 62.2168 538.955C62.6974 539.746 62.9377 540.845 62.9377 542.254C62.9377 543.68 62.6974 544.796 62.2168 545.602C61.7443 546.401 60.9257 546.8 59.7608 546.8C58.596 546.8 57.7733 546.401 57.2927 545.602C56.8202 544.796 56.584 543.68 56.584 542.254ZM61.5692 542.254C61.5692 541.595 61.5244 541.037 61.4348 540.581C61.3533 540.124 61.1823 539.754 60.9216 539.469C60.6609 539.175 60.274 539.029 59.7608 539.029C59.2476 539.029 58.8607 539.175 58.6001 539.469C58.3394 539.754 58.1643 540.124 58.0747 540.581C57.9932 541.037 57.9525 541.595 57.9525 542.254C57.9525 542.939 57.9932 543.513 58.0747 543.977C58.1561 544.442 58.3272 544.816 58.5878 545.101C58.8566 545.386 59.2476 545.529 59.7608 545.529C60.274 545.529 60.6609 545.386 60.9216 545.101C61.1904 544.816 61.3655 544.442 61.447 543.977C61.5284 543.513 61.5692 542.939 61.5692 542.254ZM69.1251 541.228V544.955C69.1251 545.207 69.1821 545.391 69.2961 545.505C69.4183 545.611 69.6219 545.663 69.907 545.663H70.7623V546.824H69.6627C69.0355 546.824 68.5549 546.678 68.2209 546.384C67.8869 546.091 67.7199 545.615 67.7199 544.955V541.228H66.9257V540.092H67.7199V538.418H69.1251V540.092H70.7623V541.228H69.1251ZM75.3941 539.982C75.9072 539.982 76.3634 540.092 76.7625 540.312C77.1698 540.532 77.4875 540.857 77.7156 541.289C77.9518 541.721 78.0699 542.242 78.0699 542.853V546.824H76.6892V543.061C76.6892 542.458 76.5385 541.998 76.2371 541.68C75.9358 541.354 75.5244 541.191 75.0031 541.191C74.4817 541.191 74.0663 541.354 73.7568 541.68C73.4554 541.998 73.3047 542.458 73.3047 543.061V546.824H71.9118V537.782H73.3047V540.874C73.5409 540.589 73.8382 540.369 74.1966 540.214C74.5632 540.059 74.9623 539.982 75.3941 539.982ZM87.3827 538.332V544.454C87.3827 545.211 87.1506 545.81 86.6863 546.25C86.2301 546.69 85.6273 546.91 84.8779 546.91C84.1285 546.91 83.5216 546.69 83.0573 546.25C82.6012 545.81 82.3731 545.211 82.3731 544.454H83.7782C83.7864 544.829 83.88 545.126 84.0593 545.346C84.2466 545.566 84.5195 545.676 84.8779 545.676C85.2363 545.676 85.5092 545.566 85.6965 545.346C85.8839 545.118 85.9776 544.82 85.9776 544.454V538.332H87.3827ZM95.6114 540.092V546.824H94.2185V546.03C93.9985 546.307 93.7094 546.527 93.3509 546.69C93.0007 546.845 92.626 546.922 92.2268 546.922C91.6974 546.922 91.2208 546.812 90.7972 546.592C90.3818 546.372 90.0519 546.046 89.8075 545.615C89.5713 545.183 89.4532 544.662 89.4532 544.051V540.092H90.8339V543.843C90.8339 544.446 90.9846 544.91 91.286 545.236C91.5874 545.553 91.9987 545.712 92.5201 545.712C93.0414 545.712 93.4528 545.553 93.7542 545.236C94.0637 544.91 94.2185 544.446 94.2185 543.843V540.092H95.6114ZM98.7077 537.782V546.824H97.3148V537.782H98.7077ZM106.463 540.092L102.333 549.989H100.891L102.259 546.714L99.6079 540.092H101.16L103.054 545.224L105.021 540.092H106.463ZM108.907 545.15L107.428 548.523H106.524L107.392 545.15H108.907ZM113.615 544.93C114.397 544.254 115.012 543.7 115.46 543.269C115.917 542.829 116.295 542.373 116.597 541.9C116.898 541.428 117.049 540.955 117.049 540.483C117.049 539.994 116.931 539.611 116.695 539.334C116.466 539.057 116.104 538.919 115.607 538.919C115.126 538.919 114.752 539.074 114.483 539.383C114.222 539.684 114.084 540.092 114.068 540.605H112.723C112.748 539.676 113.025 538.968 113.554 538.479C114.092 537.982 114.772 537.734 115.595 537.734C116.483 537.734 117.175 537.978 117.672 538.467C118.177 538.955 118.43 539.607 118.43 540.422C118.43 541.008 118.279 541.574 117.977 542.12C117.684 542.658 117.33 543.142 116.914 543.574C116.507 543.998 115.986 544.49 115.35 545.053L114.801 545.541H118.674V546.702H112.736V545.688L113.615 544.93ZM119.763 542.254C119.763 540.845 119.999 539.746 120.472 538.955C120.952 538.157 121.775 537.758 122.94 537.758C124.105 537.758 124.924 538.157 125.396 538.955C125.877 539.746 126.117 540.845 126.117 542.254C126.117 543.68 125.877 544.796 125.396 545.602C124.924 546.401 124.105 546.8 122.94 546.8C121.775 546.8 120.952 546.401 120.472 545.602C119.999 544.796 119.763 543.68 119.763 542.254ZM124.748 542.254C124.748 541.595 124.704 541.037 124.614 540.581C124.533 540.124 124.361 539.754 124.101 539.469C123.84 539.175 123.453 539.029 122.94 539.029C122.427 539.029 122.04 539.175 121.779 539.469C121.519 539.754 121.343 540.124 121.254 540.581C121.172 541.037 121.132 541.595 121.132 542.254C121.132 542.939 121.172 543.513 121.254 543.977C121.335 544.442 121.506 544.816 121.767 545.101C122.036 545.386 122.427 545.529 122.94 545.529C123.453 545.529 123.84 545.386 124.101 545.101C124.37 544.816 124.545 544.442 124.626 543.977C124.708 543.513 124.748 542.939 124.748 542.254ZM128.226 544.93C129.008 544.254 129.623 543.7 130.071 543.269C130.527 542.829 130.906 542.373 131.207 541.9C131.509 541.428 131.66 540.955 131.66 540.483C131.66 539.994 131.541 539.611 131.305 539.334C131.077 539.057 130.715 538.919 130.218 538.919C129.737 538.919 129.362 539.074 129.094 539.383C128.833 539.684 128.694 540.092 128.678 540.605H127.334C127.359 539.676 127.636 538.968 128.165 538.479C128.703 537.982 129.383 537.734 130.206 537.734C131.093 537.734 131.786 537.978 132.283 538.467C132.788 538.955 133.04 539.607 133.04 540.422C133.04 541.008 132.89 541.574 132.588 542.12C132.295 542.658 131.941 543.142 131.525 543.574C131.118 543.998 130.597 544.49 129.961 545.053L129.411 545.541H133.285V546.702H127.346V545.688L128.226 544.93ZM134.349 540.116C134.398 539.359 134.687 538.768 135.217 538.345C135.755 537.921 136.439 537.709 137.27 537.709C137.84 537.709 138.333 537.811 138.748 538.015C139.164 538.218 139.477 538.495 139.689 538.845C139.901 539.196 140.007 539.591 140.007 540.031C140.007 540.536 139.872 540.967 139.603 541.326C139.335 541.684 139.013 541.925 138.638 542.047V542.096C139.119 542.242 139.493 542.511 139.762 542.902C140.031 543.285 140.166 543.778 140.166 544.38C140.166 544.861 140.056 545.289 139.836 545.663C139.616 546.038 139.29 546.335 138.858 546.555C138.426 546.767 137.909 546.873 137.306 546.873C136.427 546.873 135.702 546.649 135.131 546.201C134.569 545.745 134.268 545.093 134.227 544.246H135.571C135.604 544.678 135.771 545.032 136.072 545.309C136.374 545.578 136.781 545.712 137.294 545.712C137.791 545.712 138.174 545.578 138.443 545.309C138.711 545.032 138.846 544.678 138.846 544.246C138.846 543.676 138.663 543.273 138.296 543.036C137.938 542.792 137.384 542.67 136.634 542.67H136.317V541.521H136.647C137.306 541.513 137.807 541.403 138.149 541.191C138.5 540.98 138.675 540.646 138.675 540.19C138.675 539.799 138.549 539.489 138.296 539.261C138.044 539.025 137.685 538.907 137.221 538.907C136.765 538.907 136.41 539.025 136.158 539.261C135.905 539.489 135.755 539.774 135.706 540.116H134.349Z" fill="#505050"/>
</g>
<defs>
<filter id="filter0_d_780_19925" x="0" y="0" width="270.555" height="916.926" filterUnits="userSpaceOnUse" color-interpolation-filters="sRGB">
<feFlood flood-opacity="0" result="BackgroundImageFix"/>
<feColorMatrix in="SourceAlpha" type="matrix" values="0 0 0 0 0 0 0 0 0 0 0 0 0 0 0 0 0 0 127 0" result="hardAlpha"/>
<feMorphology radius="8" operator="dilate" in="SourceAlpha" result="effect1_dropShadow_780_19925"/>
<feOffset/>
<feComposite in2="hardAlpha" operator="out"/>
<feColorMatrix type="matrix" values="0 0 0 0 0.350753 0 0 0 0 0 0 0 0 0 0.915007 0 0 0 0.09 0"/>
<feBlend mode="normal" in2="BackgroundImageFix" result="effect1_dropShadow_780_19925"/>
<feBlend mode="normal" in="SourceGraphic" in2="effect1_dropShadow_780_19925" result="shape"/>
</filter>
</defs>
</svg>
