<svg width="478" height="204" viewBox="0 0 478 204" fill="none" xmlns="http://www.w3.org/2000/svg">
<g filter="url(#filter0_dd_780_20144)">
<mask id="path-1-inside-1_780_20144" fill="white">
<path d="M86 64.2869C86 61.367 88.367 59 91.2869 59H408.713C411.633 59 414 61.367 414 64.2869V102.174C414 105.094 411.633 107.461 408.713 107.461H91.2869C88.367 107.461 86 105.093 86 102.174V64.2869Z"/>
</mask>
<path d="M86 64.2869C86 61.367 88.367 59 91.2869 59H408.713C411.633 59 414 61.367 414 64.2869V102.174C414 105.094 411.633 107.461 408.713 107.461H91.2869C88.367 107.461 86 105.093 86 102.174V64.2869Z" fill="white" shape-rendering="crispEdges"/>
<path d="M86 59H414H86ZM414 102.174C414 105.618 411.208 108.41 407.764 108.41H92.2362C88.792 108.41 86 105.618 86 102.174C86 104.569 88.367 106.511 91.2869 106.511H408.713C411.633 106.511 414 104.569 414 102.174ZM86 107.461V59V107.461ZM414 59V107.461V59Z" fill="black" mask="url(#path-1-inside-1_780_20144)"/>
<path d="M132.864 78.2203C133.983 78.2203 134.961 78.4371 135.798 78.8706C136.645 79.294 137.295 79.909 137.748 80.7155C138.212 81.512 138.444 82.4445 138.444 83.5132C138.444 84.5819 138.212 85.5094 137.748 86.2957C137.295 87.0821 136.645 87.687 135.798 88.1104C134.961 88.5238 133.983 88.7305 132.864 88.7305H129.431V78.2203H132.864ZM132.864 87.3241C134.094 87.3241 135.036 86.9914 135.692 86.326C136.347 85.6606 136.675 84.723 136.675 83.5132C136.675 82.2933 136.347 81.3406 135.692 80.655C135.036 79.9695 134.094 79.6267 132.864 79.6267H131.155V87.3241H132.864ZM139.729 84.5264C139.729 83.6896 139.901 82.9486 140.243 82.3034C140.596 81.6582 141.07 81.1591 141.665 80.8063C142.27 80.4433 142.935 80.2618 143.661 80.2618C144.316 80.2618 144.886 80.3929 145.37 80.655C145.864 80.9071 146.257 81.2246 146.55 81.6078V80.398H148.289V88.7305H146.55V87.4904C146.257 87.8836 145.859 88.2113 145.355 88.4734C144.851 88.7355 144.276 88.8666 143.631 88.8666C142.915 88.8666 142.26 88.6851 141.665 88.3222C141.07 87.9491 140.596 87.435 140.243 86.7797C139.901 86.1143 139.729 85.3632 139.729 84.5264ZM146.55 84.5566C146.55 83.982 146.429 83.4829 146.187 83.0595C145.955 82.6361 145.647 82.3135 145.264 82.0917C144.881 81.8699 144.468 81.759 144.024 81.759C143.58 81.759 143.167 81.8699 142.784 82.0917C142.401 82.3034 142.088 82.621 141.846 83.0444C141.615 83.4577 141.499 83.9517 141.499 84.5264C141.499 85.1011 141.615 85.6051 141.846 86.0387C142.088 86.4722 142.401 86.8049 142.784 87.0367C143.177 87.2585 143.591 87.3694 144.024 87.3694C144.468 87.3694 144.881 87.2585 145.264 87.0367C145.647 86.8149 145.955 86.4923 146.187 86.0689C146.429 85.6354 146.55 85.1313 146.55 84.5566ZM152.716 81.8043V86.4167C152.716 86.7293 152.786 86.9561 152.927 87.0972C153.078 87.2283 153.331 87.2938 153.683 87.2938H154.742V88.7305H153.381C152.605 88.7305 152.01 88.549 151.596 88.1861C151.183 87.8231 150.976 87.2333 150.976 86.4167V81.8043H149.993V80.398H150.976V78.3262H152.716V80.398H154.742V81.8043H152.716ZM164.119 84.3601C164.119 84.6726 164.099 84.9549 164.058 85.2069H157.692C157.742 85.8723 157.989 86.4066 158.433 86.8099C158.876 87.2132 159.421 87.4148 160.066 87.4148C160.994 87.4148 161.649 87.0267 162.032 86.2504H163.892C163.64 87.0166 163.181 87.6467 162.516 88.1407C161.861 88.6246 161.044 88.8666 160.066 88.8666C159.27 88.8666 158.554 88.6901 157.919 88.3373C157.294 87.9743 156.8 87.4703 156.437 86.825C156.084 86.1697 155.907 85.4136 155.907 84.5566C155.907 83.6997 156.079 82.9486 156.422 82.3034C156.774 81.6481 157.263 81.144 157.888 80.7911C158.524 80.4383 159.25 80.2618 160.066 80.2618C160.853 80.2618 161.553 80.4332 162.168 80.776C162.783 81.1188 163.262 81.6027 163.605 82.2278C163.948 82.8428 164.119 83.5535 164.119 84.3601ZM162.319 83.8156C162.309 83.1805 162.082 82.6714 161.639 82.2883C161.195 81.9052 160.646 81.7136 159.991 81.7136C159.396 81.7136 158.887 81.9052 158.463 82.2883C158.04 82.6613 157.788 83.1704 157.707 83.8156H162.319Z" fill="black"/>
<path d="M349.148 85.3032L353.968 80.7357C354.537 80.1963 355.444 80.2207 355.983 80.7898L360.551 85.6094" stroke="black" stroke-width="1.62027" stroke-miterlimit="10" stroke-linecap="round" stroke-linejoin="round"/>
</g>
<defs>
<filter id="filter0_dd_780_20144" x="-4.4057" y="0.315601" width="482.377" height="202.838" filterUnits="userSpaceOnUse" color-interpolation-filters="sRGB">
<feFlood flood-opacity="0" result="BackgroundImageFix"/>
<feColorMatrix in="SourceAlpha" type="matrix" values="0 0 0 0 0 0 0 0 0 0 0 0 0 0 0 0 0 0 127 0" result="hardAlpha"/>
<feOffset dx="-13.2172" dy="18.5041"/>
<feGaussianBlur stdDeviation="38.5942"/>
<feComposite in2="hardAlpha" operator="out"/>
<feColorMatrix type="matrix" values="0 0 0 0 0.0444481 0 0 0 0 0 0 0 0 0 0.888965 0 0 0 0.07 0"/>
<feBlend mode="normal" in2="BackgroundImageFix" result="effect1_dropShadow_780_20144"/>
<feColorMatrix in="SourceAlpha" type="matrix" values="0 0 0 0 0 0 0 0 0 0 0 0 0 0 0 0 0 0 127 0" result="hardAlpha"/>
<feOffset dx="-13.2172" dy="18.5041"/>
<feGaussianBlur stdDeviation="38.5942"/>
<feComposite in2="hardAlpha" operator="out"/>
<feColorMatrix type="matrix" values="0 0 0 0 0.0444481 0 0 0 0 0 0 0 0 0 0.888965 0 0 0 0.07 0"/>
<feBlend mode="normal" in2="effect1_dropShadow_780_20144" result="effect2_dropShadow_780_20144"/>
<feBlend mode="normal" in="SourceGraphic" in2="effect2_dropShadow_780_20144" result="shape"/>
</filter>
</defs>
</svg>
