<svg width="442" height="186" viewBox="0 0 442 186" fill="none" xmlns="http://www.w3.org/2000/svg">
<g filter="url(#filter0_dd_780_20148)">
<mask id="path-1-inside-1_780_20148" fill="white">
<path d="M83 58.8356C83 56.165 85.165 54 87.8356 54H378.164C380.835 54 383 56.165 383 58.8356V93.4515C383 96.1221 380.835 98.2871 378.164 98.2871H87.8356C85.165 98.2871 83 96.1221 83 93.4515V58.8356Z"/>
</mask>
<path d="M83 58.8356C83 56.165 85.165 54 87.8356 54H378.164C380.835 54 383 56.165 383 58.8356V93.4515C383 96.1221 380.835 98.2871 378.164 98.2871H87.8356C85.165 98.2871 83 96.1221 83 93.4515V58.8356Z" fill="white" shape-rendering="crispEdges"/>
<path d="M83 54H383H83ZM383 93.4515C383 96.6016 380.446 99.1553 377.296 99.1553H88.7038C85.5537 99.1553 83 96.6016 83 93.4515C83 95.6426 85.165 97.4188 87.8356 97.4188H378.164C380.835 97.4188 383 95.6426 383 93.4515ZM83 98.2871V54V98.2871ZM383 54V98.2871V54Z" fill="black" mask="url(#path-1-inside-1_780_20148)"/>
<path d="M129.443 73.8947C129.443 74.3834 129.328 74.8445 129.097 75.2779C128.867 75.7113 128.498 76.0663 127.991 76.3429C127.484 76.6103 126.834 76.744 126.041 76.744H124.298V80.6445H122.721V71.0316H126.041C126.778 71.0316 127.401 71.1607 127.908 71.4189C128.424 71.6678 128.807 72.009 129.056 72.4424C129.314 72.8758 129.443 73.3599 129.443 73.8947ZM126.041 75.4577C126.64 75.4577 127.087 75.324 127.382 75.0566C127.677 74.7799 127.825 74.3927 127.825 73.8947C127.825 72.8435 127.23 72.3179 126.041 72.3179H124.298V75.4577H126.041ZM132.662 70.4092V80.6445H131.085V70.4092H132.662ZM134.345 76.7993C134.345 76.034 134.502 75.3563 134.815 74.7661C135.138 74.176 135.571 73.7195 136.115 73.3968C136.669 73.0648 137.277 72.8988 137.941 72.8988C138.541 72.8988 139.062 73.0187 139.504 73.2585C139.956 73.489 140.316 73.7795 140.583 74.1299V73.0233H142.174V80.6445H140.583V79.5103C140.316 79.87 139.951 80.1696 139.49 80.4094C139.029 80.6491 138.504 80.769 137.914 80.769C137.259 80.769 136.659 80.603 136.115 80.2711C135.571 79.9299 135.138 79.4596 134.815 78.8603C134.502 78.2517 134.345 77.5647 134.345 76.7993ZM140.583 76.827C140.583 76.3014 140.472 75.845 140.251 75.4577C140.039 75.0704 139.758 74.7753 139.407 74.5725C139.057 74.3696 138.679 74.2682 138.273 74.2682C137.867 74.2682 137.489 74.3696 137.139 74.5725C136.789 74.7661 136.503 75.0566 136.281 75.4439C136.069 75.8219 135.963 76.2737 135.963 76.7993C135.963 77.3249 136.069 77.786 136.281 78.1825C136.503 78.579 136.789 78.8833 137.139 79.0954C137.499 79.2983 137.877 79.3997 138.273 79.3997C138.679 79.3997 139.057 79.2983 139.407 79.0954C139.758 78.8925 140.039 78.5975 140.251 78.2102C140.472 77.8137 140.583 77.3526 140.583 76.827ZM146.223 74.3097V78.5283C146.223 78.8142 146.287 79.0216 146.416 79.1507C146.555 79.2706 146.785 79.3305 147.108 79.3305H148.076V80.6445H146.831C146.121 80.6445 145.577 80.4786 145.199 80.1466C144.821 79.8146 144.632 79.2752 144.632 78.5283V74.3097H143.733V73.0233H144.632V71.1284H146.223V73.0233H148.076V74.3097H146.223ZM152.863 74.3097H151.452V80.6445H149.861V74.3097H148.962V73.0233H149.861V72.4839C149.861 71.6079 150.092 70.9716 150.553 70.5751C151.023 70.1694 151.756 69.9665 152.752 69.9665V71.2805C152.273 71.2805 151.936 71.3728 151.742 71.5572C151.549 71.7324 151.452 72.0413 151.452 72.4839V73.0233H152.863V74.3097ZM157.704 80.769C156.985 80.769 156.335 80.6076 155.754 80.2849C155.173 79.953 154.717 79.4919 154.385 78.9018C154.053 78.3024 153.887 77.6108 153.887 76.827C153.887 76.0524 154.057 75.3655 154.399 74.7661C154.74 74.1667 155.205 73.7057 155.796 73.3829C156.386 73.0602 157.045 72.8988 157.773 72.8988C158.502 72.8988 159.161 73.0602 159.751 73.3829C160.342 73.7057 160.807 74.1667 161.148 74.7661C161.49 75.3655 161.66 76.0524 161.66 76.827C161.66 77.6016 161.485 78.2886 161.135 78.8879C160.784 79.4873 160.305 79.953 159.696 80.2849C159.097 80.6076 158.433 80.769 157.704 80.769ZM157.704 79.3997C158.11 79.3997 158.488 79.3029 158.838 79.1092C159.198 78.9156 159.489 78.6251 159.71 78.2378C159.931 77.8506 160.042 77.3803 160.042 76.827C160.042 76.2737 159.936 75.8081 159.724 75.43C159.512 75.0427 159.23 74.7523 158.88 74.5586C158.53 74.365 158.152 74.2682 157.746 74.2682C157.34 74.2682 156.962 74.365 156.612 74.5586C156.27 74.7523 155.998 75.0427 155.796 75.43C155.593 75.8081 155.491 76.2737 155.491 76.827C155.491 77.6477 155.699 78.2839 156.114 78.7358C156.538 79.1784 157.068 79.3997 157.704 79.3997ZM164.934 74.1299C165.165 73.7426 165.469 73.4429 165.847 73.2308C166.234 73.0095 166.691 72.8988 167.216 72.8988V74.531H166.815C166.197 74.531 165.727 74.6877 165.404 75.0012C165.091 75.3148 164.934 75.8588 164.934 76.6334V80.6445H163.357V73.0233H164.934V74.1299ZM178.03 72.8988C178.629 72.8988 179.164 73.0233 179.634 73.2723C180.114 73.5213 180.487 73.8901 180.754 74.3788C181.031 74.8675 181.169 75.4577 181.169 76.1493V80.6445H179.606V76.3844C179.606 75.702 179.436 75.1811 179.095 74.8214C178.753 74.4526 178.288 74.2682 177.698 74.2682C177.107 74.2682 176.637 74.4526 176.287 74.8214C175.946 75.1811 175.775 75.702 175.775 76.3844V80.6445H174.212V76.3844C174.212 75.702 174.041 75.1811 173.7 74.8214C173.359 74.4526 172.893 74.2682 172.303 74.2682C171.713 74.2682 171.243 74.4526 170.892 74.8214C170.551 75.1811 170.381 75.702 170.381 76.3844V80.6445H168.804V73.0233H170.381V73.8947C170.639 73.5812 170.966 73.3368 171.363 73.1616C171.759 72.9864 172.183 72.8988 172.635 72.8988C173.244 72.8988 173.788 73.0279 174.267 73.2861C174.747 73.5443 175.116 73.9178 175.374 74.4065C175.604 73.9454 175.964 73.5812 176.453 73.3138C176.942 73.0372 177.467 72.8988 178.03 72.8988Z" fill="black"/>
<path d="M323.68 78.0364L328.088 73.8588C328.609 73.3654 329.438 73.3877 329.932 73.9083L334.109 78.3164" stroke="black" stroke-width="1.48196" stroke-miterlimit="10" stroke-linecap="round" stroke-linejoin="round"/>
</g>
<defs>
<filter id="filter0_dd_780_20148" x="0.311862" y="0.325247" width="441.198" height="185.484" filterUnits="userSpaceOnUse" color-interpolation-filters="sRGB">
<feFlood flood-opacity="0" result="BackgroundImageFix"/>
<feColorMatrix in="SourceAlpha" type="matrix" values="0 0 0 0 0 0 0 0 0 0 0 0 0 0 0 0 0 0 127 0" result="hardAlpha"/>
<feOffset dx="-12.0889" dy="16.9245"/>
<feGaussianBlur stdDeviation="35.2996"/>
<feComposite in2="hardAlpha" operator="out"/>
<feColorMatrix type="matrix" values="0 0 0 0 0.0444481 0 0 0 0 0 0 0 0 0 0.888965 0 0 0 0.07 0"/>
<feBlend mode="normal" in2="BackgroundImageFix" result="effect1_dropShadow_780_20148"/>
<feColorMatrix in="SourceAlpha" type="matrix" values="0 0 0 0 0 0 0 0 0 0 0 0 0 0 0 0 0 0 127 0" result="hardAlpha"/>
<feOffset dx="-12.0889" dy="16.9245"/>
<feGaussianBlur stdDeviation="35.2996"/>
<feComposite in2="hardAlpha" operator="out"/>
<feColorMatrix type="matrix" values="0 0 0 0 0.0444481 0 0 0 0 0 0 0 0 0 0.888965 0 0 0 0.07 0"/>
<feBlend mode="normal" in2="effect1_dropShadow_780_20148" result="effect2_dropShadow_780_20148"/>
<feBlend mode="normal" in="SourceGraphic" in2="effect2_dropShadow_780_20148" result="shape"/>
</filter>
</defs>
</svg>
