<svg width="453" height="80" viewBox="0 0 453 80" fill="none" xmlns="http://www.w3.org/2000/svg">
<g filter="url(#filter0_d_780_20110)">
<rect x="-161" y="6" width="608.875" height="68.6358" rx="16" fill="white"/>
<rect x="-159.44" y="7.5599" width="605.756" height="65.516" rx="14.4401" stroke="#B1B1B1" stroke-width="3.11981"/>
<path d="M-86.485 37.1591C-86.8344 36.5185 -87.3149 36.0308 -87.9264 35.6959C-88.5378 35.3611 -89.2512 35.1937 -90.0666 35.1937C-90.9692 35.1937 -91.77 35.3975 -92.4688 35.8051C-93.1676 36.2128 -93.7136 36.7952 -94.1067 37.5522C-94.4998 38.3093 -94.6963 39.1829 -94.6963 40.1729C-94.6963 41.192 -94.4998 42.0801 -94.1067 42.8372C-93.699 43.5943 -93.1385 44.1766 -92.4251 44.5843C-91.7117 44.9919 -90.8819 45.1958 -89.9355 45.1958C-88.7708 45.1958 -87.8172 44.89 -87.0747 44.2785C-86.3321 43.6525 -85.8444 42.7862 -85.6115 41.6797H-90.8527V39.343H-82.5977V42.0073C-82.8016 43.0701 -83.2383 44.0529 -83.908 44.9555C-84.5778 45.8582 -85.444 46.5862 -86.5068 47.1394C-87.5551 47.6781 -88.7344 47.9474 -90.0447 47.9474C-91.5152 47.9474 -92.8473 47.6199 -94.0412 46.9647C-95.2205 46.295 -96.1523 45.3705 -96.8365 44.1912C-97.5063 43.0119 -97.8411 41.6725 -97.8411 40.1729C-97.8411 38.6733 -97.5063 37.3338 -96.8365 36.1546C-96.1523 34.9607 -95.2205 34.0362 -94.0412 33.381C-92.8473 32.7113 -91.5225 32.3765 -90.0666 32.3765C-88.3486 32.3765 -86.8563 32.7987 -85.5896 33.6431C-84.323 34.473 -83.4494 35.645 -82.969 37.1591H-86.485ZM-69.329 41.505C-69.329 41.9418 -69.3581 42.3349 -69.4164 42.6843H-78.261C-78.1882 43.5579 -77.8825 44.2421 -77.3438 44.7372C-76.8051 45.2322 -76.1427 45.4797 -75.3565 45.4797C-74.2209 45.4797 -73.4129 44.9919 -72.9324 44.0165H-69.6348C-69.9842 45.1812 -70.6539 46.1421 -71.6439 46.8992C-72.6339 47.6417 -73.8496 48.013 -75.291 48.013C-76.4557 48.013 -77.504 47.7582 -78.4358 47.2486C-79.353 46.7245 -80.0737 45.9892 -80.5978 45.0429C-81.1074 44.0966 -81.3621 43.0046 -81.3621 41.7671C-81.3621 40.515 -81.1074 39.4158 -80.5978 38.4695C-80.0882 37.5231 -79.3748 36.7952 -78.4576 36.2856C-77.5404 35.776 -76.4848 35.5212 -75.291 35.5212C-74.1408 35.5212 -73.1144 35.7687 -72.2117 36.2638C-71.2945 36.7588 -70.5884 37.4649 -70.0934 38.3821C-69.5838 39.2848 -69.329 40.3257 -69.329 41.505ZM-72.4956 40.6315C-72.5102 39.8453 -72.7941 39.2193 -73.3473 38.7534C-73.9006 38.2729 -74.5776 38.0327 -75.3783 38.0327C-76.1354 38.0327 -76.776 38.2656 -77.3001 38.7315C-77.8097 39.1829 -78.1227 39.8162 -78.2392 40.6315H-72.4956ZM-60.6331 35.5431C-59.1918 35.5431 -58.0271 36.0017 -57.139 36.9189C-56.2509 37.8216 -55.8068 39.0882 -55.8068 40.7188V47.8164H-58.8642V41.1338C-58.8642 40.1729 -59.1044 39.4376 -59.5849 38.9281C-60.0653 38.4039 -60.7205 38.1419 -61.5504 38.1419C-62.3948 38.1419 -63.0645 38.4039 -63.5595 38.9281C-64.04 39.4376 -64.2802 40.1729 -64.2802 41.1338V47.8164H-67.3376V35.7178H-64.2802V37.2247C-63.8725 36.7005 -63.3557 36.2929 -62.7297 36.0017C-62.0891 35.6959 -61.3902 35.5431 -60.6331 35.5431ZM-41.8927 41.505C-41.8927 41.9418 -41.9218 42.3349 -41.98 42.6843H-50.8247C-50.7519 43.5579 -50.4462 44.2421 -49.9075 44.7372C-49.3688 45.2322 -48.7063 45.4797 -47.9201 45.4797C-46.7845 45.4797 -45.9765 44.9919 -45.4961 44.0165H-42.1984C-42.5478 45.1812 -43.2176 46.1421 -44.2076 46.8992C-45.1976 47.6417 -46.4133 48.013 -47.8546 48.013C-49.0194 48.013 -50.0676 47.7582 -50.9994 47.2486C-51.9166 46.7245 -52.6373 45.9892 -53.1614 45.0429C-53.671 44.0966 -53.9258 43.0046 -53.9258 41.7671C-53.9258 40.515 -53.671 39.4158 -53.1614 38.4695C-52.6519 37.5231 -51.9385 36.7952 -51.0212 36.2856C-50.104 35.776 -49.0485 35.5212 -47.8546 35.5212C-46.7045 35.5212 -45.678 35.7687 -44.7754 36.2638C-43.8582 36.7588 -43.152 37.4649 -42.657 38.3821C-42.1475 39.2848 -41.8927 40.3257 -41.8927 41.505ZM-45.0593 40.6315C-45.0738 39.8453 -45.3577 39.2193 -45.911 38.7534C-46.4642 38.2729 -47.1412 38.0327 -47.942 38.0327C-48.6991 38.0327 -49.3397 38.2656 -49.8638 38.7315C-50.3734 39.1829 -50.6864 39.8162 -50.8028 40.6315H-45.0593ZM-36.8438 37.5959C-36.4507 36.9553 -35.9412 36.453 -35.3151 36.089C-34.6745 35.7251 -33.9466 35.5431 -33.1313 35.5431V38.7534H-33.9393C-34.9002 38.7534 -35.6282 38.979 -36.1232 39.4304C-36.6036 39.8817 -36.8438 40.6679 -36.8438 41.7889V47.8164H-39.9013V35.7178H-36.8438V37.5959ZM-32.0984 41.7234C-32.0984 40.5005 -31.8581 39.4158 -31.3777 38.4695C-30.8827 37.5231 -30.2202 36.7952 -29.3904 36.2856C-28.5459 35.776 -27.6069 35.5212 -26.5732 35.5212C-25.6705 35.5212 -24.8843 35.7032 -24.2146 36.0672C-23.5303 36.4312 -22.9844 36.8898 -22.5767 37.443V35.7178H-19.4975V47.8164H-22.5767V46.0475C-22.9698 46.6153 -23.5158 47.0885 -24.2146 47.467C-24.8989 47.831 -25.6924 48.013 -26.595 48.013C-27.6142 48.013 -28.5459 47.7509 -29.3904 47.2268C-30.2202 46.7026 -30.8827 45.9674 -31.3777 45.0211C-31.8581 44.0602 -32.0984 42.9609 -32.0984 41.7234ZM-22.5767 41.7671C-22.5767 41.0246 -22.7223 40.3913 -23.0135 39.8671C-23.3047 39.3284 -23.6978 38.9208 -24.1928 38.6442C-24.6878 38.353 -25.2192 38.2074 -25.787 38.2074C-26.3548 38.2074 -26.8789 38.3457 -27.3594 38.6223C-27.8398 38.899 -28.2329 39.3066 -28.5387 39.8453C-28.8298 40.3694 -28.9754 40.9955 -28.9754 41.7234C-28.9754 42.4514 -28.8298 43.092 -28.5387 43.6452C-28.2329 44.1839 -27.8398 44.5988 -27.3594 44.89C-26.8644 45.1812 -26.3402 45.3268 -25.787 45.3268C-25.2192 45.3268 -24.6878 45.1885 -24.1928 44.9119C-23.6978 44.6207 -23.3047 44.213 -23.0135 43.6889C-22.7223 43.1502 -22.5767 42.5096 -22.5767 41.7671ZM-13.1919 38.2292V44.082C-13.1919 44.4896 -13.0973 44.7881 -12.908 44.9774C-12.7042 45.1521 -12.3693 45.2394 -11.9034 45.2394H-10.4839V47.8164H-12.4057C-14.9827 47.8164 -16.2711 46.5643 -16.2711 44.0602V38.2292H-17.7125V35.7178H-16.2711V32.7259H-13.1919V35.7178H-10.4839V38.2292H-13.1919ZM-6.97452 34.2764C-7.51321 34.2764 -7.96454 34.109 -8.32852 33.7741C-8.67794 33.4247 -8.85265 32.9952 -8.85265 32.4857C-8.85265 31.9761 -8.67794 31.5539 -8.32852 31.219C-7.96454 30.8696 -7.51321 30.6949 -6.97452 30.6949C-6.43584 30.6949 -5.99178 30.8696 -5.64236 31.219C-5.27839 31.5539 -5.0964 31.9761 -5.0964 32.4857C-5.0964 32.9952 -5.27839 33.4247 -5.64236 33.7741C-5.99178 34.109 -6.43584 34.2764 -6.97452 34.2764ZM-5.46766 35.7178V47.8164H-8.52507V35.7178H-5.46766ZM4.01732 35.5431C5.45867 35.5431 6.6234 36.0017 7.51151 36.9189C8.39961 37.8216 8.84367 39.0882 8.84367 40.7188V47.8164H5.78625V41.1338C5.78625 40.1729 5.54603 39.4376 5.06558 38.9281C4.58513 38.4039 3.92997 38.1419 3.1001 38.1419C2.25567 38.1419 1.58595 38.4039 1.09094 38.9281C0.610491 39.4376 0.370266 40.1729 0.370266 41.1338V47.8164H-2.68715V35.7178H0.370266V37.2247C0.777921 36.7005 1.29477 36.2929 1.92081 36.0017C2.56141 35.6959 3.26025 35.5431 4.01732 35.5431ZM16.2499 35.5212C17.1525 35.5212 17.946 35.7032 18.6303 36.0672C19.3146 36.4166 19.8533 36.8752 20.2463 37.443V35.7178H23.3256V47.9038C23.3256 49.0248 23.0999 50.0221 22.6486 50.8957C22.1973 51.7838 21.5203 52.4826 20.6176 52.9922C19.7149 53.5163 18.623 53.7784 17.3418 53.7784C15.6238 53.7784 14.2116 53.378 13.1051 52.5772C12.0132 51.7765 11.3944 50.6846 11.2488 49.3014H14.2844C14.4445 49.8547 14.7867 50.2915 15.3108 50.6118C15.8495 50.9466 16.4974 51.114 17.2545 51.114C18.1426 51.114 18.8632 50.8447 19.4165 50.306C19.9697 49.7819 20.2463 48.9811 20.2463 47.9038V46.0256C19.8533 46.5934 19.3073 47.0666 18.6084 47.4451C17.9242 47.8237 17.138 48.013 16.2499 48.013C15.2307 48.013 14.299 47.7509 13.4545 47.2268C12.6101 46.7026 11.9404 45.9674 11.4454 45.0211C10.9649 44.0602 10.7247 42.9609 10.7247 41.7234C10.7247 40.5005 10.9649 39.4158 11.4454 38.4695C11.9404 37.5231 12.6028 36.7952 13.4327 36.2856C14.2771 35.776 15.2162 35.5212 16.2499 35.5212ZM20.2463 41.7671C20.2463 41.0246 20.1008 40.3913 19.8096 39.8671C19.5184 39.3284 19.1253 38.9208 18.6303 38.6442C18.1353 38.353 17.6039 38.2074 17.0361 38.2074C16.4683 38.2074 15.9441 38.3457 15.4637 38.6223C14.9832 38.899 14.5901 39.3066 14.2844 39.8453C13.9932 40.3694 13.8476 40.9955 13.8476 41.7234C13.8476 42.4514 13.9932 43.092 14.2844 43.6452C14.5901 44.1839 14.9832 44.5988 15.4637 44.89C15.9587 45.1812 16.4828 45.3268 17.0361 45.3268C17.6039 45.3268 18.1353 45.1885 18.6303 44.9119C19.1253 44.6207 19.5184 44.213 19.8096 43.6889C20.1008 43.1502 20.2463 42.5096 20.2463 41.7671ZM38.8969 47.8164L35.5338 41.8763H34.0924V47.8164H31.035V32.573H36.7567C37.936 32.573 38.9406 32.7841 39.7705 33.2063C40.6003 33.614 41.2191 34.1745 41.6267 34.8879C42.049 35.5868 42.2601 36.3729 42.2601 37.2465C42.2601 38.2511 41.9689 39.161 41.3865 39.9763C40.8042 40.7771 39.9379 41.3303 38.7877 41.6361L42.4348 47.8164H38.8969ZM34.0924 39.5832H36.6475C37.4774 39.5832 38.0962 39.3867 38.5038 38.9936C38.9115 38.5859 39.1153 38.0254 39.1153 37.312C39.1153 36.6132 38.9115 36.0745 38.5038 35.6959C38.0962 35.3029 37.4774 35.1063 36.6475 35.1063H34.0924V39.5832ZM56.0321 41.505C56.0321 41.9418 56.003 42.3349 55.9447 42.6843H47.1001C47.1729 43.5579 47.4786 44.2421 48.0173 44.7372C48.556 45.2322 49.2184 45.4797 50.0046 45.4797C51.1402 45.4797 51.9482 44.9919 52.4287 44.0165H55.7263C55.3769 45.1812 54.7072 46.1421 53.7172 46.8992C52.7272 47.6417 51.5115 48.013 50.0701 48.013C48.9054 48.013 47.8571 47.7582 46.9253 47.2486C46.0081 46.7245 45.2874 45.9892 44.7633 45.0429C44.2538 44.0966 43.999 43.0046 43.999 41.7671C43.999 40.515 44.2538 39.4158 44.7633 38.4695C45.2729 37.5231 45.9863 36.7952 46.9035 36.2856C47.8207 35.776 48.8763 35.5212 50.0701 35.5212C51.2203 35.5212 52.2467 35.7687 53.1494 36.2638C54.0666 36.7588 54.7727 37.4649 55.2677 38.3821C55.7773 39.2848 56.0321 40.3257 56.0321 41.505ZM52.8655 40.6315C52.8509 39.8453 52.567 39.2193 52.0138 38.7534C51.4605 38.2729 50.7835 38.0327 49.9828 38.0327C49.2257 38.0327 48.5851 38.2656 48.061 38.7315C47.5514 39.1829 47.2384 39.8162 47.1219 40.6315H52.8655ZM61.0809 37.4649C61.474 36.9116 62.0127 36.453 62.697 36.089C63.3958 35.7105 64.1893 35.5212 65.0774 35.5212C66.1111 35.5212 67.0429 35.776 67.8727 36.2856C68.7172 36.7952 69.3796 37.5231 69.86 38.4695C70.3551 39.4012 70.6026 40.4859 70.6026 41.7234C70.6026 42.9609 70.3551 44.0602 69.86 45.0211C69.3796 45.9674 68.7172 46.7026 67.8727 47.2268C67.0429 47.7509 66.1111 48.013 65.0774 48.013C64.1893 48.013 63.4031 47.831 62.7188 47.467C62.0491 47.103 61.5031 46.6444 61.0809 46.0912V53.5818H58.0235V35.7178H61.0809V37.4649ZM67.4796 41.7234C67.4796 40.9955 67.3268 40.3694 67.021 39.8453C66.7298 39.3066 66.3367 38.899 65.8417 38.6223C65.3613 38.3457 64.8371 38.2074 64.2693 38.2074C63.7161 38.2074 63.192 38.353 62.697 38.6442C62.2165 38.9208 61.8234 39.3284 61.5177 39.8671C61.2265 40.4058 61.0809 41.0391 61.0809 41.7671C61.0809 42.4951 61.2265 43.1284 61.5177 43.6671C61.8234 44.2057 62.2165 44.6207 62.697 44.9119C63.192 45.1885 63.7161 45.3268 64.2693 45.3268C64.8371 45.3268 65.3613 45.1812 65.8417 44.89C66.3367 44.5988 66.7298 44.1839 67.021 43.6452C67.3268 43.1065 67.4796 42.4659 67.4796 41.7234ZM77.9564 48.013C76.7917 48.013 75.7434 47.7582 74.8116 47.2486C73.8798 46.7245 73.1446 45.9892 72.6059 45.0429C72.0818 44.0966 71.8197 43.0046 71.8197 41.7671C71.8197 40.5296 72.0891 39.4376 72.6278 38.4913C73.181 37.545 73.9308 36.817 74.8771 36.3074C75.8235 35.7833 76.879 35.5212 78.0437 35.5212C79.2085 35.5212 80.264 35.7833 81.2104 36.3074C82.1567 36.817 82.8992 37.545 83.4379 38.4913C83.9911 39.4376 84.2678 40.5296 84.2678 41.7671C84.2678 43.0046 83.9839 44.0966 83.4161 45.0429C82.8628 45.9892 82.1057 46.7245 81.1448 47.2486C80.1985 47.7582 79.1357 48.013 77.9564 48.013ZM77.9564 45.3486C78.5096 45.3486 79.0265 45.2176 79.5069 44.9555C80.0019 44.6789 80.395 44.2713 80.6862 43.7326C80.9774 43.1939 81.123 42.5387 81.123 41.7671C81.123 40.6169 80.8173 39.7361 80.2058 39.1246C79.6088 38.4986 78.8736 38.1856 78.0001 38.1856C77.1265 38.1856 76.3913 38.4986 75.7944 39.1246C75.212 39.7361 74.9208 40.6169 74.9208 41.7671C74.9208 42.9173 75.2047 43.8054 75.7725 44.4314C76.3549 45.0429 77.0828 45.3486 77.9564 45.3486ZM89.3277 37.5959C89.7208 36.9553 90.2303 36.453 90.8564 36.089C91.497 35.7251 92.2249 35.5431 93.0403 35.5431V38.7534H92.2322C91.2713 38.7534 90.5434 38.979 90.0484 39.4304C89.5679 39.8817 89.3277 40.6679 89.3277 41.7889V47.8164H86.2703V35.7178H89.3277V37.5959ZM98.419 38.2292V44.082C98.419 44.4896 98.5137 44.7881 98.703 44.9774C98.9068 45.1521 99.2416 45.2394 99.7075 45.2394H101.127V47.8164H99.2052C96.6283 47.8164 95.3398 46.5643 95.3398 44.0602V38.2292H93.8984V35.7178H95.3398V32.7259H98.419V35.7178H101.127V38.2292H98.419ZM104.44 47.9693C103.887 47.9693 103.428 47.8018 103.064 47.467C102.715 47.1176 102.54 46.6881 102.54 46.1785C102.54 45.6689 102.715 45.2467 103.064 44.9119C103.428 44.5624 103.887 44.3877 104.44 44.3877C104.979 44.3877 105.423 44.5624 105.772 44.9119C106.121 45.2467 106.296 45.6689 106.296 46.1785C106.296 46.6881 106.121 47.1176 105.772 47.467C105.423 47.8018 104.979 47.9693 104.44 47.9693ZM109.873 47.9693C109.319 47.9693 108.861 47.8018 108.497 47.467C108.147 47.1176 107.973 46.6881 107.973 46.1785C107.973 45.6689 108.147 45.2467 108.497 44.9119C108.861 44.5624 109.319 44.3877 109.873 44.3877C110.411 44.3877 110.855 44.5624 111.205 44.9119C111.554 45.2467 111.729 45.6689 111.729 46.1785C111.729 46.6881 111.554 47.1176 111.205 47.467C110.855 47.8018 110.411 47.9693 109.873 47.9693ZM115.305 47.9693C114.752 47.9693 114.293 47.8018 113.929 47.467C113.58 47.1176 113.405 46.6881 113.405 46.1785C113.405 45.6689 113.58 45.2467 113.929 44.9119C114.293 44.5624 114.752 44.3877 115.305 44.3877C115.844 44.3877 116.288 44.5624 116.637 44.9119C116.987 45.2467 117.162 45.6689 117.162 46.1785C117.162 46.6881 116.987 47.1176 116.637 47.467C116.288 47.8018 115.844 47.9693 115.305 47.9693ZM120.738 47.9693C120.185 47.9693 119.726 47.8018 119.362 47.467C119.013 47.1176 118.838 46.6881 118.838 46.1785C118.838 45.6689 119.013 45.2467 119.362 44.9119C119.726 44.5624 120.185 44.3877 120.738 44.3877C121.277 44.3877 121.721 44.5624 122.07 44.9119C122.42 45.2467 122.594 45.6689 122.594 46.1785C122.594 46.6881 122.42 47.1176 122.07 47.467C121.721 47.8018 121.277 47.9693 120.738 47.9693ZM135.19 32.573V35.0408H131.128V47.8164H128.071V35.0408H124.009V32.573H135.19ZM143.994 35.5431C144.912 35.5431 145.727 35.7469 146.44 36.1546C147.154 36.5477 147.707 37.1373 148.1 37.9235C148.508 38.6951 148.711 39.6269 148.711 40.7188V47.8164H145.654V41.1338C145.654 40.1729 145.414 39.4376 144.933 38.9281C144.453 38.4039 143.798 38.1419 142.968 38.1419C142.123 38.1419 141.454 38.4039 140.959 38.9281C140.478 39.4376 140.238 40.1729 140.238 41.1338V47.8164H137.181V31.6558H140.238V37.2247C140.631 36.7005 141.155 36.2929 141.81 36.0017C142.466 35.6959 143.194 35.5431 143.994 35.5431ZM152.929 34.2764C152.391 34.2764 151.939 34.109 151.575 33.7741C151.226 33.4247 151.051 32.9952 151.051 32.4857C151.051 31.9761 151.226 31.5539 151.575 31.219C151.939 30.8696 152.391 30.6949 152.929 30.6949C153.468 30.6949 153.912 30.8696 154.261 31.219C154.625 31.5539 154.807 31.9761 154.807 32.4857C154.807 32.9952 154.625 33.4247 154.261 33.7741C153.912 34.109 153.468 34.2764 152.929 34.2764ZM154.436 35.7178V47.8164H151.379V35.7178H154.436ZM161.846 48.013C160.856 48.013 159.968 47.8382 159.182 47.4888C158.396 47.1248 157.77 46.6371 157.304 46.0256C156.853 45.4142 156.605 44.7372 156.561 43.9946H159.641C159.699 44.4605 159.925 44.8463 160.318 45.1521C160.725 45.4578 161.228 45.6107 161.825 45.6107C162.407 45.6107 162.858 45.4942 163.179 45.2613C163.513 45.0283 163.681 44.7299 163.681 44.3659C163.681 43.9728 163.477 43.6816 163.069 43.4924C162.676 43.2885 162.043 43.0701 161.169 42.8372C160.267 42.6188 159.524 42.3931 158.942 42.1602C158.374 41.9272 157.879 41.5705 157.457 41.0901C157.049 40.6096 156.845 39.9618 156.845 39.1465C156.845 38.4767 157.035 37.8653 157.413 37.312C157.806 36.7588 158.359 36.322 159.073 36.0017C159.801 35.6814 160.653 35.5212 161.628 35.5212C163.069 35.5212 164.22 35.8852 165.079 36.6132C165.937 37.3266 166.411 38.2947 166.498 39.5177H163.572C163.528 39.0373 163.324 38.6587 162.96 38.3821C162.611 38.0909 162.138 37.9453 161.541 37.9453C160.987 37.9453 160.558 38.0472 160.252 38.2511C159.961 38.4549 159.815 38.7388 159.815 39.1028C159.815 39.5104 160.019 39.8235 160.427 40.0418C160.835 40.2457 161.468 40.4568 162.327 40.6752C163.2 40.8935 163.921 41.1192 164.489 41.3522C165.057 41.5851 165.544 41.9491 165.952 42.4441C166.374 42.9245 166.593 43.5651 166.607 44.3659C166.607 45.0647 166.411 45.6908 166.018 46.244C165.639 46.7973 165.086 47.234 164.358 47.5543C163.644 47.8601 162.807 48.013 161.846 48.013ZM188.865 35.5431C190.35 35.5431 191.544 36.0017 192.447 36.9189C193.364 37.8216 193.823 39.0882 193.823 40.7188V47.8164H190.765V41.1338C190.765 40.1874 190.525 39.4668 190.045 38.9717C189.564 38.4622 188.909 38.2074 188.079 38.2074C187.249 38.2074 186.587 38.4622 186.092 38.9717C185.611 39.4668 185.371 40.1874 185.371 41.1338V47.8164H182.314V41.1338C182.314 40.1874 182.073 39.4668 181.593 38.9717C181.113 38.4622 180.457 38.2074 179.627 38.2074C178.783 38.2074 178.113 38.4622 177.618 38.9717C177.138 39.4668 176.898 40.1874 176.898 41.1338V47.8164H173.84V35.7178H176.898V37.181C177.291 36.6714 177.793 36.271 178.405 35.9798C179.031 35.6887 179.715 35.5431 180.457 35.5431C181.404 35.5431 182.248 35.7469 182.991 36.1546C183.733 36.5477 184.308 37.1155 184.716 37.858C185.109 37.1591 185.677 36.5986 186.419 36.1764C187.176 35.7542 187.992 35.5431 188.865 35.5431ZM195.698 41.7234C195.698 40.5005 195.938 39.4158 196.418 38.4695C196.913 37.5231 197.576 36.7952 198.406 36.2856C199.25 35.776 200.189 35.5212 201.223 35.5212C202.125 35.5212 202.912 35.7032 203.581 36.0672C204.266 36.4312 204.812 36.8898 205.219 37.443V35.7178H208.298V47.8164H205.219V46.0475C204.826 46.6153 204.28 47.0885 203.581 47.467C202.897 47.831 202.104 48.013 201.201 48.013C200.182 48.013 199.25 47.7509 198.406 47.2268C197.576 46.7026 196.913 45.9674 196.418 45.0211C195.938 44.0602 195.698 42.9609 195.698 41.7234ZM205.219 41.7671C205.219 41.0246 205.074 40.3913 204.782 39.8671C204.491 39.3284 204.098 38.9208 203.603 38.6442C203.108 38.353 202.577 38.2074 202.009 38.2074C201.441 38.2074 200.917 38.3457 200.437 38.6223C199.956 38.899 199.563 39.3066 199.257 39.8453C198.966 40.3694 198.82 40.9955 198.82 41.7234C198.82 42.4514 198.966 43.092 199.257 43.6452C199.563 44.1839 199.956 44.5988 200.437 44.89C200.932 45.1812 201.456 45.3268 202.009 45.3268C202.577 45.3268 203.108 45.1885 203.603 44.9119C204.098 44.6207 204.491 44.213 204.782 43.6889C205.074 43.1502 205.219 42.5096 205.219 41.7671ZM222.619 35.7178L215.128 53.5381H211.874L214.495 47.5107L209.647 35.7178H213.075L216.198 44.1693L219.365 35.7178H222.619ZM232.55 38.2292V44.082C232.55 44.4896 232.645 44.7881 232.834 44.9774C233.038 45.1521 233.372 45.2394 233.838 45.2394H235.258V47.8164H233.336C230.759 47.8164 229.471 46.5643 229.471 44.0602V38.2292H228.029V35.7178H229.471V32.7259H232.55V35.7178H235.258V38.2292H232.55ZM236.431 41.7234C236.431 40.5005 236.671 39.4158 237.151 38.4695C237.646 37.5231 238.309 36.7952 239.139 36.2856C239.983 35.776 240.922 35.5212 241.956 35.5212C242.858 35.5212 243.645 35.7032 244.314 36.0672C244.999 36.4312 245.545 36.8898 245.952 37.443V35.7178H249.031V47.8164H245.952V46.0475C245.559 46.6153 245.013 47.0885 244.314 47.467C243.63 47.831 242.837 48.013 241.934 48.013C240.915 48.013 239.983 47.7509 239.139 47.2268C238.309 46.7026 237.646 45.9674 237.151 45.0211C236.671 44.0602 236.431 42.9609 236.431 41.7234ZM245.952 41.7671C245.952 41.0246 245.807 40.3913 245.515 39.8671C245.224 39.3284 244.831 38.9208 244.336 38.6442C243.841 38.353 243.31 38.2074 242.742 38.2074C242.174 38.2074 241.65 38.3457 241.17 38.6223C240.689 38.899 240.296 39.3066 239.99 39.8453C239.699 40.3694 239.553 40.9955 239.553 41.7234C239.553 42.4514 239.699 43.092 239.99 43.6452C240.296 44.1839 240.689 44.5988 241.17 44.89C241.665 45.1812 242.189 45.3268 242.742 45.3268C243.31 45.3268 243.841 45.1885 244.336 44.9119C244.831 44.6207 245.224 44.213 245.515 43.6889C245.807 43.1502 245.952 42.5096 245.952 41.7671ZM258.94 47.8164L254.835 42.6625V47.8164H251.777V31.6558H254.835V40.8499L258.897 35.7178H262.871L257.543 41.7889L262.915 47.8164H258.94ZM275.537 41.505C275.537 41.9418 275.508 42.3349 275.45 42.6843H266.605C266.678 43.5579 266.984 44.2421 267.523 44.7372C268.061 45.2322 268.724 45.4797 269.51 45.4797C270.646 45.4797 271.454 44.9919 271.934 44.0165H275.232C274.882 45.1812 274.213 46.1421 273.223 46.8992C272.233 47.6417 271.017 48.013 269.575 48.013C268.411 48.013 267.363 47.7582 266.431 47.2486C265.513 46.7245 264.793 45.9892 264.269 45.0429C263.759 44.0966 263.504 43.0046 263.504 41.7671C263.504 40.515 263.759 39.4158 264.269 38.4695C264.778 37.5231 265.492 36.7952 266.409 36.2856C267.326 35.776 268.382 35.5212 269.575 35.5212C270.726 35.5212 271.752 35.7687 272.655 36.2638C273.572 36.7588 274.278 37.4649 274.773 38.3821C275.283 39.2848 275.537 40.3257 275.537 41.505ZM272.371 40.6315C272.356 39.8453 272.072 39.2193 271.519 38.7534C270.966 38.2729 270.289 38.0327 269.488 38.0327C268.731 38.0327 268.09 38.2656 267.566 38.7315C267.057 39.1829 266.744 39.8162 266.627 40.6315H272.371ZM281.706 41.7234C281.706 40.5005 281.946 39.4158 282.427 38.4695C282.922 37.5231 283.584 36.7952 284.414 36.2856C285.259 35.776 286.198 35.5212 287.231 35.5212C288.134 35.5212 288.92 35.7032 289.59 36.0672C290.274 36.4312 290.82 36.8898 291.228 37.443V35.7178H294.307V47.8164H291.228V46.0475C290.835 46.6153 290.289 47.0885 289.59 47.467C288.906 47.831 288.112 48.013 287.21 48.013C286.19 48.013 285.259 47.7509 284.414 47.2268C283.584 46.7026 282.922 45.9674 282.427 45.0211C281.946 44.0602 281.706 42.9609 281.706 41.7234ZM291.228 41.7671C291.228 41.0246 291.082 40.3913 290.791 39.8671C290.5 39.3284 290.107 38.9208 289.612 38.6442C289.117 38.353 288.585 38.2074 288.018 38.2074C287.45 38.2074 286.926 38.3457 286.445 38.6223C285.965 38.899 285.572 39.3066 285.266 39.8453C284.975 40.3694 284.829 40.9955 284.829 41.7234C284.829 42.4514 284.975 43.092 285.266 43.6452C285.572 44.1839 285.965 44.5988 286.445 44.89C286.94 45.1812 287.464 45.3268 288.018 45.3268C288.585 45.3268 289.117 45.1885 289.612 44.9119C290.107 44.6207 290.5 44.213 290.791 43.6889C291.082 43.1502 291.228 42.5096 291.228 41.7671ZM307.564 38.2292H305.445V47.8164H302.344V38.2292H300.968V35.7178H302.344V35.1063C302.344 33.6213 302.766 32.5293 303.611 31.8305C304.455 31.1317 305.729 30.8041 307.432 30.8478V33.4247C306.69 33.4102 306.173 33.5339 305.882 33.796C305.591 34.058 305.445 34.5312 305.445 35.2155V35.7178H307.564V38.2292ZM320.552 41.505C320.552 41.9418 320.522 42.3349 320.464 42.6843H311.62C311.692 43.5579 311.998 44.2421 312.537 44.7372C313.075 45.2322 313.738 45.4797 314.524 45.4797C315.66 45.4797 316.468 44.9919 316.948 44.0165H320.246C319.896 45.1812 319.227 46.1421 318.237 46.8992C317.247 47.6417 316.031 48.013 314.59 48.013C313.425 48.013 312.377 47.7582 311.445 47.2486C310.528 46.7245 309.807 45.9892 309.283 45.0429C308.773 44.0966 308.518 43.0046 308.518 41.7671C308.518 40.515 308.773 39.4158 309.283 38.4695C309.792 37.5231 310.506 36.7952 311.423 36.2856C312.34 35.776 313.396 35.5212 314.59 35.5212C315.74 35.5212 316.766 35.7687 317.669 36.2638C318.586 36.7588 319.292 37.4649 319.787 38.3821C320.297 39.2848 320.552 40.3257 320.552 41.505ZM317.385 40.6315C317.37 39.8453 317.086 39.2193 316.533 38.7534C315.98 38.2729 315.303 38.0327 314.502 38.0327C313.745 38.0327 313.105 38.2656 312.58 38.7315C312.071 39.1829 311.758 39.8162 311.641 40.6315H317.385ZM339.315 35.7178L335.777 47.8164H332.48L330.274 39.3648L328.068 47.8164H324.749L321.189 35.7178H324.29L326.43 44.9337L328.745 35.7178H331.977L334.248 44.9119L336.389 35.7178H339.315ZM360.718 35.5431C362.203 35.5431 363.397 36.0017 364.299 36.9189C365.216 37.8216 365.675 39.0882 365.675 40.7188V47.8164H362.618V41.1338C362.618 40.1874 362.377 39.4668 361.897 38.9717C361.416 38.4622 360.761 38.2074 359.931 38.2074C359.102 38.2074 358.439 38.4622 357.944 38.9717C357.464 39.4668 357.223 40.1874 357.223 41.1338V47.8164H354.166V41.1338C354.166 40.1874 353.926 39.4668 353.445 38.9717C352.965 38.4622 352.31 38.2074 351.48 38.2074C350.635 38.2074 349.966 38.4622 349.471 38.9717C348.99 39.4668 348.75 40.1874 348.75 41.1338V47.8164H345.693V35.7178H348.75V37.181C349.143 36.6714 349.645 36.271 350.257 35.9798C350.883 35.6887 351.567 35.5431 352.31 35.5431C353.256 35.5431 354.101 35.7469 354.843 36.1546C355.586 36.5477 356.161 37.1155 356.568 37.858C356.961 37.1591 357.529 36.5986 358.272 36.1764C359.029 35.7542 359.844 35.5431 360.718 35.5431ZM369.887 34.2764C369.348 34.2764 368.897 34.109 368.533 33.7741C368.183 33.4247 368.008 32.9952 368.008 32.4857C368.008 31.9761 368.183 31.5539 368.533 31.219C368.897 30.8696 369.348 30.6949 369.887 30.6949C370.425 30.6949 370.869 30.8696 371.219 31.219C371.583 31.5539 371.765 31.9761 371.765 32.4857C371.765 32.9952 371.583 33.4247 371.219 33.7741C370.869 34.109 370.425 34.2764 369.887 34.2764ZM371.393 35.7178V47.8164H368.336V35.7178H371.393ZM380.878 35.5431C382.32 35.5431 383.485 36.0017 384.373 36.9189C385.261 37.8216 385.705 39.0882 385.705 40.7188V47.8164H382.647V41.1338C382.647 40.1729 382.407 39.4376 381.927 38.9281C381.446 38.4039 380.791 38.1419 379.961 38.1419C379.117 38.1419 378.447 38.4039 377.952 38.9281C377.472 39.4376 377.231 40.1729 377.231 41.1338V47.8164H374.174V35.7178H377.231V37.2247C377.639 36.7005 378.156 36.2929 378.782 36.0017C379.423 35.6959 380.121 35.5431 380.878 35.5431ZM399.794 35.7178V47.8164H396.714V46.2877C396.321 46.8118 395.804 47.2268 395.164 47.5325C394.538 47.8237 393.854 47.9693 393.111 47.9693C392.165 47.9693 391.328 47.7727 390.6 47.3796C389.872 46.972 389.297 46.3823 388.874 45.6107C388.467 44.8245 388.263 43.8927 388.263 42.8154V35.7178H391.32V42.3786C391.32 43.3395 391.56 44.082 392.041 44.6061C392.521 45.1157 393.177 45.3705 394.006 45.3705C394.851 45.3705 395.513 45.1157 395.994 44.6061C396.474 44.082 396.714 43.3395 396.714 42.3786V35.7178H399.794ZM406.13 38.2292V44.082C406.13 44.4896 406.224 44.7881 406.414 44.9774C406.617 45.1521 406.952 45.2394 407.418 45.2394H408.838V47.8164H406.916C404.339 47.8164 403.05 46.5643 403.05 44.0602V38.2292H401.609V35.7178H403.05V32.7259H406.13V35.7178H408.838V38.2292H406.13ZM422.043 41.505C422.043 41.9418 422.014 42.3349 421.956 42.6843H413.111C413.184 43.5579 413.49 44.2421 414.029 44.7372C414.567 45.2322 415.23 45.4797 416.016 45.4797C417.152 45.4797 417.96 44.9919 418.44 44.0165H421.738C421.388 45.1812 420.719 46.1421 419.729 46.8992C418.739 47.6417 417.523 48.013 416.082 48.013C414.917 48.013 413.869 47.7582 412.937 47.2486C412.02 46.7245 411.299 45.9892 410.775 45.0429C410.265 44.0966 410.01 43.0046 410.01 41.7671C410.01 40.515 410.265 39.4158 410.775 38.4695C411.284 37.5231 411.998 36.7952 412.915 36.2856C413.832 35.776 414.888 35.5212 416.082 35.5212C417.232 35.5212 418.258 35.7687 419.161 36.2638C420.078 36.7588 420.784 37.4649 421.279 38.3821C421.789 39.2848 422.043 40.3257 422.043 41.505ZM418.877 40.6315C418.862 39.8453 418.578 39.2193 418.025 38.7534C417.472 38.2729 416.795 38.0327 415.994 38.0327C415.237 38.0327 414.596 38.2656 414.072 38.7315C413.563 39.1829 413.25 39.8162 413.133 40.6315H418.877ZM428.665 48.013C427.675 48.013 426.787 47.8382 426 47.4888C425.214 47.1248 424.588 46.6371 424.122 46.0256C423.671 45.4142 423.423 44.7372 423.38 43.9946H426.459C426.517 44.4605 426.743 44.8463 427.136 45.1521C427.544 45.4578 428.046 45.6107 428.643 45.6107C429.225 45.6107 429.677 45.4942 429.997 45.2613C430.332 45.0283 430.499 44.7299 430.499 44.3659C430.499 43.9728 430.295 43.6816 429.888 43.4924C429.495 43.2885 428.861 43.0701 427.988 42.8372C427.085 42.6188 426.343 42.3931 425.76 42.1602C425.192 41.9272 424.697 41.5705 424.275 41.0901C423.867 40.6096 423.664 39.9618 423.664 39.1465C423.664 38.4767 423.853 37.8653 424.231 37.312C424.625 36.7588 425.178 36.322 425.891 36.0017C426.619 35.6814 427.471 35.5212 428.446 35.5212C429.888 35.5212 431.038 35.8852 431.897 36.6132C432.756 37.3266 433.229 38.2947 433.316 39.5177H430.39C430.346 39.0373 430.142 38.6587 429.778 38.3821C429.429 38.0909 428.956 37.9453 428.359 37.9453C427.806 37.9453 427.376 38.0472 427.07 38.2511C426.779 38.4549 426.634 38.7388 426.634 39.1028C426.634 39.5104 426.838 39.8235 427.245 40.0418C427.653 40.2457 428.286 40.4568 429.145 40.6752C430.019 40.8935 430.739 41.1192 431.307 41.3522C431.875 41.5851 432.363 41.9491 432.77 42.4441C433.193 42.9245 433.411 43.5651 433.426 44.3659C433.426 45.0647 433.229 45.6908 432.836 46.244C432.457 46.7973 431.904 47.234 431.176 47.5543C430.463 47.8601 429.626 48.013 428.665 48.013Z" fill="#101010"/>
</g>
<defs>
<filter id="filter0_d_780_20110" x="-166.129" y="0.871481" width="619.132" height="78.8938" filterUnits="userSpaceOnUse" color-interpolation-filters="sRGB">
<feFlood flood-opacity="0" result="BackgroundImageFix"/>
<feColorMatrix in="SourceAlpha" type="matrix" values="0 0 0 0 0 0 0 0 0 0 0 0 0 0 0 0 0 0 127 0" result="hardAlpha"/>
<feMorphology radius="5.12852" operator="dilate" in="SourceAlpha" result="effect1_dropShadow_780_20110"/>
<feOffset/>
<feComposite in2="hardAlpha" operator="out"/>
<feColorMatrix type="matrix" values="0 0 0 0 0.350753 0 0 0 0 0 0 0 0 0 0.915007 0 0 0 0.09 0"/>
<feBlend mode="normal" in2="BackgroundImageFix" result="effect1_dropShadow_780_20110"/>
<feBlend mode="normal" in="SourceGraphic" in2="effect1_dropShadow_780_20110" result="shape"/>
</filter>
</defs>
</svg>
