<svg width="286" height="228" viewBox="0 0 286 228" fill="none" xmlns="http://www.w3.org/2000/svg">
<g filter="url(#filter0_dd_780_19812)">
<mask id="path-1-inside-1_780_19812" fill="white">
<path d="M86 64C86 59.5817 89.5817 56 94 56H216.915C221.333 56 224.915 59.5817 224.915 64V129.347C224.915 133.766 221.333 137.347 216.915 137.347H94C89.5817 137.347 86 133.766 86 129.347V64Z"/>
</mask>
<path d="M86 64C86 59.5817 89.5817 56 94 56H216.915C221.333 56 224.915 59.5817 224.915 64V129.347C224.915 133.766 221.333 137.347 216.915 137.347H94C89.5817 137.347 86 133.766 86 129.347V64Z" fill="white" shape-rendering="crispEdges"/>
<path d="M86 56H224.915H86ZM224.915 129.347C224.915 134.162 221.012 138.066 216.197 138.066H94.7182C89.9033 138.066 86 134.162 86 129.347C86 133.369 89.5817 136.629 94 136.629H216.915C221.333 136.629 224.915 133.369 224.915 129.347ZM86 137.347V56V137.347ZM224.915 56V137.347V56Z" fill="black" mask="url(#path-1-inside-1_780_19812)"/>
<path d="M103.238 73.4436C103.238 73.7735 103.16 74.0848 103.005 74.3773C102.849 74.6699 102.6 74.9095 102.258 75.0962C101.915 75.2768 101.476 75.367 100.941 75.367H99.7647V78H98.7003V71.5109H100.941C101.439 71.5109 101.859 71.598 102.202 71.7723C102.55 71.9404 102.808 72.1707 102.977 72.4633C103.151 72.7558 103.238 73.0826 103.238 73.4436ZM100.941 74.4987C101.346 74.4987 101.648 74.4084 101.847 74.2279C102.046 74.0412 102.146 73.7798 102.146 73.4436C102.146 72.734 101.744 72.3792 100.941 72.3792H99.7647V74.4987H100.941ZM106.578 78.084C106.092 78.084 105.654 77.9751 105.262 77.7572C104.869 77.5332 104.561 77.2219 104.337 76.8236C104.113 76.419 104.001 75.9521 104.001 75.423C104.001 74.9002 104.116 74.4364 104.346 74.0318C104.577 73.6273 104.891 73.316 105.29 73.0982C105.688 72.8803 106.133 72.7714 106.625 72.7714C107.116 72.7714 107.561 72.8803 107.96 73.0982C108.358 73.316 108.673 73.6273 108.903 74.0318C109.133 74.4364 109.248 74.9002 109.248 75.423C109.248 75.9459 109.13 76.4096 108.894 76.8142C108.657 77.2188 108.333 77.5332 107.922 77.7572C107.518 77.9751 107.07 78.084 106.578 78.084ZM106.578 77.1597C106.852 77.1597 107.107 77.0943 107.344 76.9636C107.586 76.8329 107.782 76.6368 107.932 76.3754C108.081 76.114 108.156 75.7965 108.156 75.423C108.156 75.0496 108.084 74.7352 107.941 74.48C107.798 74.2186 107.608 74.0225 107.372 73.8918C107.135 73.7611 106.88 73.6957 106.606 73.6957C106.332 73.6957 106.077 73.7611 105.84 73.8918C105.61 74.0225 105.426 74.2186 105.29 74.48C105.153 74.7352 105.084 75.0496 105.084 75.423C105.084 75.977 105.224 76.4065 105.504 76.7115C105.791 77.0103 106.149 77.1597 106.578 77.1597ZM112.261 78.084C111.857 78.084 111.493 78.0124 111.169 77.8693C110.851 77.7199 110.599 77.5207 110.413 77.2717C110.226 77.0165 110.126 76.7333 110.114 76.4221H111.216C111.234 76.6399 111.337 76.8236 111.524 76.9729C111.717 77.1161 111.956 77.1877 112.243 77.1877C112.541 77.1877 112.772 77.1317 112.934 77.0196C113.102 76.9014 113.186 76.752 113.186 76.5715C113.186 76.3785 113.092 76.2353 112.906 76.142C112.725 76.0486 112.436 75.9459 112.037 75.8339C111.651 75.728 111.337 75.6253 111.094 75.5257C110.851 75.4261 110.64 75.2736 110.459 75.0682C110.285 74.8628 110.198 74.5921 110.198 74.2559C110.198 73.9821 110.279 73.7331 110.441 73.509C110.602 73.2787 110.833 73.0982 111.132 72.9674C111.437 72.8367 111.785 72.7714 112.177 72.7714C112.762 72.7714 113.232 72.9208 113.587 73.2195C113.948 73.5121 114.141 73.9136 114.166 74.424H113.102C113.083 74.1937 112.99 74.0101 112.821 73.8731C112.653 73.7362 112.426 73.6677 112.14 73.6677C111.86 73.6677 111.645 73.7206 111.496 73.8264C111.346 73.9323 111.272 74.0723 111.272 74.2466C111.272 74.3835 111.321 74.4987 111.421 74.5921C111.521 74.6854 111.642 74.7601 111.785 74.8161C111.928 74.8659 112.14 74.9313 112.42 75.0122C112.793 75.1118 113.098 75.2145 113.335 75.3203C113.578 75.4199 113.786 75.5693 113.961 75.7685C114.135 75.9677 114.225 76.2322 114.231 76.5621C114.231 76.8547 114.15 77.1161 113.989 77.3464C113.827 77.5767 113.596 77.7572 113.298 77.888C113.005 78.0187 112.66 78.084 112.261 78.084ZM116.717 73.7237V76.5715C116.717 76.7644 116.76 76.9045 116.847 76.9916C116.941 77.0725 117.096 77.113 117.314 77.113H117.968V78H117.127C116.648 78 116.281 77.888 116.026 77.6639C115.77 77.4398 115.643 77.0757 115.643 76.5715V73.7237H115.036V72.8554H115.643V71.5763H116.717V72.8554H117.968V73.7237H116.717ZM122.625 73.6117C122.806 73.3752 123.052 73.176 123.363 73.0141C123.674 72.8523 124.026 72.7714 124.418 72.7714C124.866 72.7714 125.274 72.8834 125.641 73.1075C126.015 73.3254 126.307 73.6335 126.519 74.0318C126.73 74.4302 126.836 74.8877 126.836 75.4044C126.836 75.921 126.73 76.3847 126.519 76.7955C126.307 77.2001 126.015 77.5176 125.641 77.7479C125.274 77.972 124.866 78.084 124.418 78.084C124.026 78.084 123.677 78.0062 123.372 77.8506C123.067 77.6888 122.818 77.4896 122.625 77.2531V80.4462H121.561V72.8554H122.625V73.6117ZM125.753 75.4044C125.753 75.0496 125.678 74.7446 125.529 74.4894C125.386 74.2279 125.193 74.0318 124.95 73.9011C124.714 73.7642 124.458 73.6957 124.185 73.6957C123.917 73.6957 123.662 73.7642 123.419 73.9011C123.182 74.0381 122.989 74.2373 122.84 74.4987C122.697 74.7601 122.625 75.0682 122.625 75.423C122.625 75.7778 122.697 76.0891 122.84 76.3567C122.989 76.6181 123.182 76.8173 123.419 76.9543C123.662 77.0912 123.917 77.1597 124.185 77.1597C124.458 77.1597 124.714 77.0912 124.95 76.9543C125.193 76.8111 125.386 76.6057 125.529 76.338C125.678 76.0704 125.753 75.7592 125.753 75.4044ZM132.641 72.8554V78H131.577V77.3931C131.409 77.6047 131.188 77.7728 130.914 77.8973C130.646 78.0156 130.36 78.0747 130.055 78.0747C129.65 78.0747 129.286 77.9907 128.963 77.8226C128.645 77.6545 128.393 77.4056 128.206 77.0757C128.026 76.7458 127.935 76.3474 127.935 75.8805V72.8554H128.991V75.7218C128.991 76.1824 129.106 76.5372 129.336 76.7862C129.566 77.029 129.881 77.1503 130.279 77.1503C130.677 77.1503 130.992 77.029 131.222 76.7862C131.459 76.5372 131.577 76.1824 131.577 75.7218V72.8554H132.641ZM135.203 73.621C135.384 73.372 135.63 73.1697 135.941 73.0141C136.258 72.8523 136.61 72.7714 136.996 72.7714C137.45 72.7714 137.861 72.8803 138.229 73.0982C138.596 73.316 138.885 73.6273 139.097 74.0318C139.308 74.4302 139.414 74.8877 139.414 75.4044C139.414 75.921 139.308 76.3847 139.097 76.7955C138.885 77.2001 138.593 77.5176 138.219 77.7479C137.852 77.972 137.444 78.084 136.996 78.084C136.598 78.084 136.243 78.0062 135.932 77.8506C135.627 77.695 135.384 77.4958 135.203 77.2531V78H134.139V71.0907H135.203V73.621ZM138.331 75.4044C138.331 75.0496 138.257 74.7446 138.107 74.4894C137.964 74.2279 137.771 74.0318 137.528 73.9011C137.292 73.7642 137.037 73.6957 136.763 73.6957C136.495 73.6957 136.24 73.7642 135.997 73.9011C135.761 74.0381 135.568 74.2373 135.418 74.4987C135.275 74.7601 135.203 75.0682 135.203 75.423C135.203 75.7778 135.275 76.0891 135.418 76.3567C135.568 76.6181 135.761 76.8173 135.997 76.9543C136.24 77.0912 136.495 77.1597 136.763 77.1597C137.037 77.1597 137.292 77.0912 137.528 76.9543C137.771 76.8111 137.964 76.6057 138.107 76.338C138.257 76.0704 138.331 75.7592 138.331 75.4044ZM141.625 71.0907V78H140.56V71.0907H141.625ZM143.657 72.1738C143.464 72.1738 143.302 72.1085 143.172 71.9777C143.041 71.847 142.975 71.6852 142.975 71.4922C142.975 71.2993 143.041 71.1374 143.172 71.0067C143.302 70.876 143.464 70.8106 143.657 70.8106C143.844 70.8106 144.002 70.876 144.133 71.0067C144.264 71.1374 144.329 71.2993 144.329 71.4922C144.329 71.6852 144.264 71.847 144.133 71.9777C144.002 72.1085 143.844 72.1738 143.657 72.1738ZM144.18 72.8554V78H143.115V72.8554H144.18ZM145.316 75.423C145.316 74.8939 145.422 74.4302 145.633 74.0318C145.851 73.6273 146.15 73.316 146.53 73.0982C146.909 72.8803 147.345 72.7714 147.837 72.7714C148.459 72.7714 148.973 72.9208 149.377 73.2195C149.788 73.5121 150.065 73.9323 150.208 74.48H149.06C148.967 74.2248 148.817 74.0256 148.612 73.8825C148.406 73.7393 148.148 73.6677 147.837 73.6677C147.401 73.6677 147.053 73.8233 146.791 74.1346C146.536 74.4396 146.408 74.869 146.408 75.423C146.408 75.977 146.536 76.4096 146.791 76.7209C147.053 77.0321 147.401 77.1877 147.837 77.1877C148.453 77.1877 148.861 76.9169 149.06 76.3754H150.208C150.059 76.8983 149.779 77.3153 149.368 77.6265C148.957 77.9315 148.447 78.084 147.837 78.084C147.345 78.084 146.909 77.9751 146.53 77.7572C146.15 77.5332 145.851 77.2219 145.633 76.8236C145.422 76.419 145.316 75.9521 145.316 75.423Z" fill="black"/>
<mask id="path-4-inside-2_780_19812" fill="white">
<path d="M98 93.7457C98 90.5725 100.572 88 103.746 88H212.915V125.347H103.746C100.572 125.347 98 122.775 98 119.602V93.7457Z"/>
</mask>
<path d="M98 93.7457C98 90.5725 100.572 88 103.746 88H212.915V125.347H103.746C100.572 125.347 98 122.775 98 119.602V93.7457Z" fill="#F7F7F7"/>
<path d="M98 88H212.915H98ZM212.915 125.347H98H212.915ZM98 125.347V88V125.347ZM213.633 88V125.347H212.197V88H213.633Z" fill="#E7E7E7" mask="url(#path-4-inside-2_780_19812)"/>
<path d="M110.607 109.356C111.342 108.743 111.928 108.234 112.365 107.828C112.802 107.414 113.166 106.985 113.457 106.541C113.748 106.096 113.893 105.66 113.893 105.231C113.893 104.84 113.801 104.534 113.618 104.311C113.434 104.089 113.15 103.978 112.767 103.978C112.384 103.978 112.089 104.108 111.882 104.369C111.676 104.622 111.568 104.97 111.561 105.415H109.998C110.028 104.495 110.3 103.798 110.814 103.323C111.335 102.848 111.994 102.611 112.79 102.611C113.664 102.611 114.334 102.844 114.801 103.312C115.269 103.771 115.502 104.38 115.502 105.139C115.502 105.736 115.341 106.307 115.02 106.851C114.698 107.395 114.33 107.87 113.916 108.276C113.503 108.674 112.963 109.157 112.296 109.724H115.686V111.057H110.009V109.862L110.607 109.356ZM122.331 104.185H118.607V106.15C118.768 105.951 118.998 105.79 119.297 105.667C119.596 105.537 119.914 105.472 120.251 105.472C120.864 105.472 121.365 105.606 121.756 105.874C122.147 106.142 122.43 106.487 122.606 106.909C122.783 107.322 122.871 107.767 122.871 108.242C122.871 109.123 122.618 109.831 122.112 110.367C121.614 110.904 120.902 111.172 119.975 111.172C119.102 111.172 118.404 110.954 117.883 110.517C117.363 110.08 117.068 109.509 116.999 108.805H118.561C118.63 109.111 118.784 109.356 119.021 109.54C119.266 109.724 119.577 109.816 119.952 109.816C120.404 109.816 120.745 109.674 120.975 109.391C121.205 109.107 121.319 108.732 121.319 108.265C121.319 107.79 121.201 107.429 120.963 107.184C120.733 106.932 120.392 106.805 119.94 106.805C119.619 106.805 119.351 106.886 119.136 107.046C118.922 107.207 118.768 107.422 118.676 107.69H117.137V102.772H122.331V104.185ZM126.037 109.483L124.693 112.712H123.659L124.406 109.483H126.037ZM127.013 106.874C127.013 105.549 127.251 104.511 127.725 103.76C128.208 103.009 129.005 102.634 130.116 102.634C131.227 102.634 132.019 103.009 132.494 103.76C132.977 104.511 133.218 105.549 133.218 106.874C133.218 108.207 132.977 109.253 132.494 110.011C132.019 110.77 131.227 111.149 130.116 111.149C129.005 111.149 128.208 110.77 127.725 110.011C127.251 109.253 127.013 108.207 127.013 106.874ZM131.633 106.874C131.633 106.307 131.594 105.832 131.518 105.449C131.449 105.058 131.303 104.74 131.081 104.495C130.866 104.25 130.545 104.128 130.116 104.128C129.687 104.128 129.361 104.25 129.139 104.495C128.924 104.74 128.779 105.058 128.702 105.449C128.633 105.832 128.599 106.307 128.599 106.874C128.599 107.456 128.633 107.947 128.702 108.345C128.771 108.736 128.917 109.054 129.139 109.299C129.361 109.536 129.687 109.655 130.116 109.655C130.545 109.655 130.87 109.536 131.092 109.299C131.315 109.054 131.46 108.736 131.529 108.345C131.598 107.947 131.633 107.456 131.633 106.874ZM134.442 106.874C134.442 105.549 134.68 104.511 135.155 103.76C135.637 103.009 136.434 102.634 137.545 102.634C138.656 102.634 139.449 103.009 139.924 103.76C140.406 104.511 140.647 105.549 140.647 106.874C140.647 108.207 140.406 109.253 139.924 110.011C139.449 110.77 138.656 111.149 137.545 111.149C136.434 111.149 135.637 110.77 135.155 110.011C134.68 109.253 134.442 108.207 134.442 106.874ZM139.062 106.874C139.062 106.307 139.023 105.832 138.947 105.449C138.878 105.058 138.732 104.74 138.51 104.495C138.296 104.25 137.974 104.128 137.545 104.128C137.116 104.128 136.79 104.25 136.568 104.495C136.354 104.74 136.208 105.058 136.131 105.449C136.062 105.832 136.028 106.307 136.028 106.874C136.028 107.456 136.062 107.947 136.131 108.345C136.2 108.736 136.346 109.054 136.568 109.299C136.79 109.536 137.116 109.655 137.545 109.655C137.974 109.655 138.299 109.536 138.522 109.299C138.744 109.054 138.889 108.736 138.958 108.345C139.027 107.947 139.062 107.456 139.062 106.874ZM141.871 106.874C141.871 105.549 142.109 104.511 142.584 103.76C143.066 103.009 143.863 102.634 144.974 102.634C146.085 102.634 146.878 103.009 147.353 103.76C147.835 104.511 148.077 105.549 148.077 106.874C148.077 108.207 147.835 109.253 147.353 110.011C146.878 110.77 146.085 111.149 144.974 111.149C143.863 111.149 143.066 110.77 142.584 110.011C142.109 109.253 141.871 108.207 141.871 106.874ZM146.491 106.874C146.491 106.307 146.452 105.832 146.376 105.449C146.307 105.058 146.161 104.74 145.939 104.495C145.725 104.25 145.403 104.128 144.974 104.128C144.545 104.128 144.219 104.25 143.997 104.495C143.783 104.74 143.637 105.058 143.56 105.449C143.491 105.832 143.457 106.307 143.457 106.874C143.457 107.456 143.491 107.947 143.56 108.345C143.629 108.736 143.775 109.054 143.997 109.299C144.219 109.536 144.545 109.655 144.974 109.655C145.403 109.655 145.728 109.536 145.951 109.299C146.173 109.054 146.318 108.736 146.387 108.345C146.456 107.947 146.491 107.456 146.491 106.874Z" fill="black"/>
</g>
<defs>
<filter id="filter0_dd_780_19812" x="0.780334" y="0.681973" width="284.435" height="226.869" filterUnits="userSpaceOnUse" color-interpolation-filters="sRGB">
<feFlood flood-opacity="0" result="BackgroundImageFix"/>
<feColorMatrix in="SourceAlpha" type="matrix" values="0 0 0 0 0 0 0 0 0 0 0 0 0 0 0 0 0 0 127 0" result="hardAlpha"/>
<feOffset dx="-10" dy="14"/>
<feGaussianBlur stdDeviation="29.2"/>
<feComposite in2="hardAlpha" operator="out"/>
<feColorMatrix type="matrix" values="0 0 0 0 0.0444481 0 0 0 0 0 0 0 0 0 0.888965 0 0 0 0.07 0"/>
<feBlend mode="normal" in2="BackgroundImageFix" result="effect1_dropShadow_780_19812"/>
<feColorMatrix in="SourceAlpha" type="matrix" values="0 0 0 0 0 0 0 0 0 0 0 0 0 0 0 0 0 0 127 0" result="hardAlpha"/>
<feOffset dx="-12.459" dy="17.4426"/>
<feGaussianBlur stdDeviation="36.3803"/>
<feComposite in2="hardAlpha" operator="out"/>
<feColorMatrix type="matrix" values="0 0 0 0 0.0444481 0 0 0 0 0 0 0 0 0 0.888965 0 0 0 0.07 0"/>
<feBlend mode="normal" in2="effect1_dropShadow_780_19812" result="effect2_dropShadow_780_19812"/>
<feBlend mode="normal" in="SourceGraphic" in2="effect2_dropShadow_780_19812" result="shape"/>
</filter>
</defs>
</svg>
