<svg width="286" height="228" viewBox="0 0 286 228" fill="none" xmlns="http://www.w3.org/2000/svg">
<g filter="url(#filter0_dd_780_19808)">
<mask id="path-1-inside-1_780_19808" fill="white">
<path d="M86 64C86 59.5817 89.5817 56 94 56H216.915C221.333 56 224.915 59.5817 224.915 64V129.347C224.915 133.766 221.333 137.347 216.915 137.347H94C89.5817 137.347 86 133.766 86 129.347V64Z"/>
</mask>
<path d="M86 64C86 59.5817 89.5817 56 94 56H216.915C221.333 56 224.915 59.5817 224.915 64V129.347C224.915 133.766 221.333 137.347 216.915 137.347H94C89.5817 137.347 86 133.766 86 129.347V64Z" fill="white" shape-rendering="crispEdges"/>
<path d="M86 56H224.915H86ZM224.915 129.347C224.915 134.162 221.012 138.066 216.197 138.066H94.7182C89.9033 138.066 86 134.162 86 129.347C86 133.369 89.5817 136.629 94 136.629H216.915C221.333 136.629 224.915 133.369 224.915 129.347ZM86 137.347V56V137.347ZM224.915 56V137.347V56Z" fill="black" mask="url(#path-1-inside-1_780_19808)"/>
<path d="M100.838 78.0654C100.403 78.0654 100.011 77.9907 99.662 77.8413C99.3134 77.6857 99.0395 77.4678 98.8403 77.1877C98.6411 76.9076 98.5415 76.5808 98.5415 76.2073H99.6806C99.7055 76.4874 99.8145 76.7177 100.007 76.8983C100.207 77.0788 100.484 77.169 100.838 77.169C101.206 77.169 101.492 77.0819 101.697 76.9076C101.903 76.7271 102.006 76.4968 102.006 76.2167C102.006 75.9988 101.94 75.8214 101.809 75.6845C101.685 75.5475 101.526 75.4417 101.333 75.367C101.147 75.2923 100.885 75.2114 100.549 75.1243C100.126 75.0122 99.7802 74.9002 99.5126 74.7881C99.2511 74.6699 99.0271 74.4894 98.8403 74.2466C98.6536 74.0038 98.5602 73.6802 98.5602 73.2756C98.5602 72.9021 98.6536 72.5753 98.8403 72.2952C99.0271 72.0151 99.2885 71.8003 99.6246 71.651C99.9607 71.5016 100.35 71.4269 100.792 71.4269C101.42 71.4269 101.934 71.5856 102.332 71.903C102.737 72.2143 102.961 72.6438 103.005 73.1915H101.828C101.809 72.955 101.697 72.7527 101.492 72.5846C101.287 72.4166 101.016 72.3325 100.68 72.3325C100.375 72.3325 100.126 72.4104 99.9327 72.566C99.7398 72.7216 99.6433 72.9457 99.6433 73.2382C99.6433 73.4374 99.7024 73.6024 99.8207 73.7331C99.9452 73.8576 100.101 73.9572 100.288 74.0318C100.474 74.1065 100.729 74.1875 101.053 74.2746C101.483 74.3929 101.831 74.5111 102.099 74.6294C102.373 74.7477 102.603 74.9313 102.79 75.1803C102.983 75.423 103.079 75.7498 103.079 76.1606C103.079 76.4905 102.989 76.8018 102.808 77.0943C102.634 77.3869 102.376 77.6234 102.034 77.8039C101.697 77.9782 101.299 78.0654 100.838 78.0654ZM105.67 73.7237V76.5715C105.67 76.7644 105.714 76.9045 105.801 76.9916C105.894 77.0725 106.05 77.113 106.268 77.113H106.921V78H106.081C105.602 78 105.235 77.888 104.979 77.6639C104.724 77.4398 104.597 77.0757 104.597 76.5715V73.7237H103.99V72.8554H104.597V71.5763H105.67V72.8554H106.921V73.7237H105.67ZM110.227 78.084C109.742 78.084 109.303 77.9751 108.911 77.7572C108.519 77.5332 108.211 77.2219 107.987 76.8236C107.762 76.419 107.65 75.9521 107.65 75.423C107.65 74.9002 107.766 74.4364 107.996 74.0318C108.226 73.6273 108.541 73.316 108.939 73.0982C109.337 72.8803 109.782 72.7714 110.274 72.7714C110.766 72.7714 111.211 72.8803 111.609 73.0982C112.008 73.316 112.322 73.6273 112.552 74.0318C112.783 74.4364 112.898 74.9002 112.898 75.423C112.898 75.9459 112.779 76.4096 112.543 76.8142C112.306 77.2188 111.983 77.5332 111.572 77.7572C111.167 77.9751 110.719 78.084 110.227 78.084ZM110.227 77.1597C110.501 77.1597 110.756 77.0943 110.993 76.9636C111.236 76.8329 111.432 76.6368 111.581 76.3754C111.731 76.114 111.805 75.7965 111.805 75.423C111.805 75.0496 111.734 74.7352 111.591 74.48C111.447 74.2186 111.258 74.0225 111.021 73.8918C110.784 73.7611 110.529 73.6957 110.255 73.6957C109.982 73.6957 109.726 73.7611 109.49 73.8918C109.259 74.0225 109.076 74.2186 108.939 74.48C108.802 74.7352 108.733 75.0496 108.733 75.423C108.733 75.977 108.874 76.4065 109.154 76.7115C109.44 77.0103 109.798 77.1597 110.227 77.1597ZM115.108 73.6024C115.263 73.3409 115.469 73.1386 115.724 72.9955C115.985 72.8461 116.293 72.7714 116.648 72.7714V73.8731H116.378C115.96 73.8731 115.643 73.9789 115.425 74.1906C115.214 74.4022 115.108 74.7695 115.108 75.2923V78H114.043V72.8554H115.108V73.6024ZM122.351 72.8554L119.195 80.4182H118.094L119.139 77.916L117.113 72.8554H118.299L119.746 76.7769L121.249 72.8554H122.351ZM127.634 78.084C127.229 78.084 126.865 78.0124 126.541 77.8693C126.224 77.7199 125.972 77.5207 125.785 77.2717C125.598 77.0165 125.499 76.7333 125.486 76.4221H126.588C126.607 76.6399 126.71 76.8236 126.896 76.9729C127.089 77.1161 127.329 77.1877 127.615 77.1877C127.914 77.1877 128.144 77.1317 128.306 77.0196C128.474 76.9014 128.558 76.752 128.558 76.5715C128.558 76.3785 128.465 76.2353 128.278 76.142C128.098 76.0486 127.808 75.9459 127.41 75.8339C127.024 75.728 126.71 75.6253 126.467 75.5257C126.224 75.4261 126.012 75.2736 125.832 75.0682C125.658 74.8628 125.57 74.5921 125.57 74.2559C125.57 73.9821 125.651 73.7331 125.813 73.509C125.975 73.2787 126.205 73.0982 126.504 72.9674C126.809 72.8367 127.158 72.7714 127.55 72.7714C128.135 72.7714 128.605 72.9208 128.96 73.2195C129.321 73.5121 129.514 73.9136 129.539 74.424H128.474C128.456 74.1937 128.362 74.0101 128.194 73.8731C128.026 73.7362 127.799 73.6677 127.512 73.6677C127.232 73.6677 127.018 73.7206 126.868 73.8264C126.719 73.9323 126.644 74.0723 126.644 74.2466C126.644 74.3835 126.694 74.4987 126.794 74.5921C126.893 74.6854 127.015 74.7601 127.158 74.8161C127.301 74.8659 127.512 74.9313 127.793 75.0122C128.166 75.1118 128.471 75.2145 128.708 75.3203C128.95 75.4199 129.159 75.5693 129.333 75.7685C129.507 75.9677 129.598 76.2322 129.604 76.5621C129.604 76.8547 129.523 77.1161 129.361 77.3464C129.199 77.5767 128.969 77.7572 128.67 77.888C128.378 78.0187 128.032 78.084 127.634 78.084ZM135.563 75.3017C135.563 75.4946 135.55 75.6689 135.525 75.8245H131.594C131.625 76.2353 131.778 76.5652 132.052 76.8142C132.326 77.0632 132.662 77.1877 133.06 77.1877C133.633 77.1877 134.037 76.9481 134.274 76.4688H135.422C135.267 76.9418 134.984 77.3309 134.573 77.6359C134.168 77.9346 133.664 78.084 133.06 78.084C132.568 78.084 132.127 77.9751 131.734 77.7572C131.348 77.5332 131.043 77.2219 130.819 76.8236C130.602 76.419 130.493 75.9521 130.493 75.423C130.493 74.8939 130.598 74.4302 130.81 74.0318C131.028 73.6273 131.33 73.316 131.716 73.0982C132.108 72.8803 132.556 72.7714 133.06 72.7714C133.546 72.7714 133.978 72.8772 134.358 73.0888C134.738 73.3005 135.033 73.5992 135.245 73.9852C135.457 74.3649 135.563 74.8037 135.563 75.3017ZM134.451 74.9655C134.445 74.5734 134.305 74.259 134.031 74.0225C133.757 73.786 133.418 73.6677 133.014 73.6677C132.646 73.6677 132.332 73.786 132.071 74.0225C131.809 74.2528 131.653 74.5672 131.604 74.9655H134.451ZM138.571 78.084C138.166 78.084 137.802 78.0124 137.478 77.8693C137.161 77.7199 136.909 77.5207 136.722 77.2717C136.535 77.0165 136.436 76.7333 136.423 76.4221H137.525C137.544 76.6399 137.646 76.8236 137.833 76.9729C138.026 77.1161 138.266 77.1877 138.552 77.1877C138.851 77.1877 139.081 77.1317 139.243 77.0196C139.411 76.9014 139.495 76.752 139.495 76.5715C139.495 76.3785 139.402 76.2353 139.215 76.142C139.034 76.0486 138.745 75.9459 138.347 75.8339C137.961 75.728 137.646 75.6253 137.404 75.5257C137.161 75.4261 136.949 75.2736 136.769 75.0682C136.594 74.8628 136.507 74.5921 136.507 74.2559C136.507 73.9821 136.588 73.7331 136.75 73.509C136.912 73.2787 137.142 73.0982 137.441 72.9674C137.746 72.8367 138.095 72.7714 138.487 72.7714C139.072 72.7714 139.542 72.9208 139.897 73.2195C140.258 73.5121 140.451 73.9136 140.475 74.424H139.411C139.392 74.1937 139.299 74.0101 139.131 73.8731C138.963 73.7362 138.736 73.6677 138.449 73.6677C138.169 73.6677 137.954 73.7206 137.805 73.8264C137.656 73.9323 137.581 74.0723 137.581 74.2466C137.581 74.3835 137.631 74.4987 137.73 74.5921C137.83 74.6854 137.951 74.7601 138.095 74.8161C138.238 74.8659 138.449 74.9313 138.729 75.0122C139.103 75.1118 139.408 75.2145 139.644 75.3203C139.887 75.4199 140.096 75.5693 140.27 75.7685C140.444 75.9677 140.535 76.2322 140.541 76.5621C140.541 76.8547 140.46 77.1161 140.298 77.3464C140.136 77.5767 139.906 77.7572 139.607 77.888C139.315 78.0187 138.969 78.084 138.571 78.084ZM143.652 78.084C143.247 78.084 142.883 78.0124 142.559 77.8693C142.242 77.7199 141.99 77.5207 141.803 77.2717C141.616 77.0165 141.517 76.7333 141.504 76.4221H142.606C142.625 76.6399 142.727 76.8236 142.914 76.9729C143.107 77.1161 143.347 77.1877 143.633 77.1877C143.932 77.1877 144.162 77.1317 144.324 77.0196C144.492 76.9014 144.576 76.752 144.576 76.5715C144.576 76.3785 144.483 76.2353 144.296 76.142C144.115 76.0486 143.826 75.9459 143.428 75.8339C143.042 75.728 142.727 75.6253 142.485 75.5257C142.242 75.4261 142.03 75.2736 141.85 75.0682C141.675 74.8628 141.588 74.5921 141.588 74.2559C141.588 73.9821 141.669 73.7331 141.831 73.509C141.993 73.2787 142.223 73.0982 142.522 72.9674C142.827 72.8367 143.175 72.7714 143.568 72.7714C144.153 72.7714 144.623 72.9208 144.977 73.2195C145.338 73.5121 145.531 73.9136 145.556 74.424H144.492C144.473 74.1937 144.38 74.0101 144.212 73.8731C144.044 73.7362 143.817 73.6677 143.53 73.6677C143.25 73.6677 143.035 73.7206 142.886 73.8264C142.737 73.9323 142.662 74.0723 142.662 74.2466C142.662 74.3835 142.712 74.4987 142.811 74.5921C142.911 74.6854 143.032 74.7601 143.175 74.8161C143.319 74.8659 143.53 74.9313 143.81 75.0122C144.184 75.1118 144.489 75.2145 144.725 75.3203C144.968 75.4199 145.177 75.5693 145.351 75.7685C145.525 75.9677 145.615 76.2322 145.622 76.5621C145.622 76.8547 145.541 77.1161 145.379 77.3464C145.217 77.5767 144.987 77.7572 144.688 77.888C144.395 78.0187 144.05 78.084 143.652 78.084ZM147.407 72.1738C147.214 72.1738 147.052 72.1085 146.921 71.9777C146.79 71.847 146.725 71.6852 146.725 71.4922C146.725 71.2993 146.79 71.1374 146.921 71.0067C147.052 70.876 147.214 70.8106 147.407 70.8106C147.593 70.8106 147.752 70.876 147.883 71.0067C148.014 71.1374 148.079 71.2993 148.079 71.4922C148.079 71.6852 148.014 71.847 147.883 71.9777C147.752 72.1085 147.593 72.1738 147.407 72.1738ZM147.93 72.8554V78H146.865V72.8554H147.93ZM151.652 78.084C151.166 78.084 150.728 77.9751 150.335 77.7572C149.943 77.5332 149.635 77.2219 149.411 76.8236C149.187 76.419 149.075 75.9521 149.075 75.423C149.075 74.9002 149.19 74.4364 149.42 74.0318C149.651 73.6273 149.965 73.316 150.363 73.0982C150.762 72.8803 151.207 72.7714 151.699 72.7714C152.19 72.7714 152.635 72.8803 153.034 73.0982C153.432 73.316 153.746 73.6273 153.977 74.0318C154.207 74.4364 154.322 74.9002 154.322 75.423C154.322 75.9459 154.204 76.4096 153.967 76.8142C153.731 77.2188 153.407 77.5332 152.996 77.7572C152.592 77.9751 152.144 78.084 151.652 78.084ZM151.652 77.1597C151.926 77.1597 152.181 77.0943 152.418 76.9636C152.66 76.8329 152.856 76.6368 153.006 76.3754C153.155 76.114 153.23 75.7965 153.23 75.423C153.23 75.0496 153.158 74.7352 153.015 74.48C152.872 74.2186 152.682 74.0225 152.446 73.8918C152.209 73.7611 151.954 73.6957 151.68 73.6957C151.406 73.6957 151.151 73.7611 150.914 73.8918C150.684 74.0225 150.5 74.2186 150.363 74.48C150.226 74.7352 150.158 75.0496 150.158 75.423C150.158 75.977 150.298 76.4065 150.578 76.7115C150.865 77.0103 151.222 77.1597 151.652 77.1597ZM158.063 72.7714C158.468 72.7714 158.829 72.8554 159.147 73.0235C159.47 73.1915 159.722 73.4405 159.903 73.7704C160.083 74.1003 160.174 74.4987 160.174 74.9655V78H159.119V75.1243C159.119 74.6636 159.003 74.312 158.773 74.0692C158.543 73.8202 158.228 73.6957 157.83 73.6957C157.432 73.6957 157.114 73.8202 156.878 74.0692C156.647 74.312 156.532 74.6636 156.532 75.1243V78H155.468V72.8554H156.532V73.4436C156.707 73.232 156.927 73.067 157.195 72.9488C157.469 72.8305 157.758 72.7714 158.063 72.7714Z" fill="black"/>
<mask id="path-4-inside-2_780_19808" fill="white">
<path d="M98 93.7457C98 90.5725 100.572 88 103.746 88H212.915V125.347H103.746C100.572 125.347 98 122.775 98 119.602V93.7457Z"/>
</mask>
<path d="M98 93.7457C98 90.5725 100.572 88 103.746 88H212.915V125.347H103.746C100.572 125.347 98 122.775 98 119.602V93.7457Z" fill="#F7F7F7"/>
<path d="M98 88H212.915H98ZM212.915 125.347H98H212.915ZM98 125.347V88V125.347ZM213.633 88V125.347H212.197V88H213.633Z" fill="#E7E7E7" mask="url(#path-4-inside-2_780_19808)"/>
<path d="M110.607 109.356C111.342 108.743 111.928 108.234 112.365 107.828C112.802 107.414 113.166 106.985 113.457 106.541C113.748 106.096 113.893 105.66 113.893 105.231C113.893 104.84 113.801 104.534 113.618 104.311C113.434 104.089 113.15 103.978 112.767 103.978C112.384 103.978 112.089 104.108 111.882 104.369C111.676 104.622 111.568 104.97 111.561 105.415H109.998C110.028 104.495 110.3 103.798 110.814 103.323C111.335 102.848 111.994 102.611 112.79 102.611C113.664 102.611 114.334 102.844 114.801 103.312C115.269 103.771 115.502 104.38 115.502 105.139C115.502 105.736 115.341 106.307 115.02 106.851C114.698 107.395 114.33 107.87 113.916 108.276C113.503 108.674 112.963 109.157 112.296 109.724H115.686V111.057H110.009V109.862L110.607 109.356ZM122.331 104.185H118.607V106.15C118.768 105.951 118.998 105.79 119.297 105.667C119.596 105.537 119.914 105.472 120.251 105.472C120.864 105.472 121.365 105.606 121.756 105.874C122.147 106.142 122.43 106.487 122.606 106.909C122.783 107.322 122.871 107.767 122.871 108.242C122.871 109.123 122.618 109.831 122.112 110.367C121.614 110.904 120.902 111.172 119.975 111.172C119.102 111.172 118.404 110.954 117.883 110.517C117.363 110.08 117.068 109.509 116.999 108.805H118.561C118.63 109.111 118.784 109.356 119.021 109.54C119.266 109.724 119.577 109.816 119.952 109.816C120.404 109.816 120.745 109.674 120.975 109.391C121.205 109.107 121.319 108.732 121.319 108.265C121.319 107.79 121.201 107.429 120.963 107.184C120.733 106.932 120.392 106.805 119.94 106.805C119.619 106.805 119.351 106.886 119.136 107.046C118.922 107.207 118.768 107.422 118.676 107.69H117.137V102.772H122.331V104.185ZM126.037 109.483L124.693 112.712H123.659L124.406 109.483H126.037ZM127.013 106.874C127.013 105.549 127.251 104.511 127.725 103.76C128.208 103.009 129.005 102.634 130.116 102.634C131.227 102.634 132.019 103.009 132.494 103.76C132.977 104.511 133.218 105.549 133.218 106.874C133.218 108.207 132.977 109.253 132.494 110.011C132.019 110.77 131.227 111.149 130.116 111.149C129.005 111.149 128.208 110.77 127.725 110.011C127.251 109.253 127.013 108.207 127.013 106.874ZM131.633 106.874C131.633 106.307 131.594 105.832 131.518 105.449C131.449 105.058 131.303 104.74 131.081 104.495C130.866 104.25 130.545 104.128 130.116 104.128C129.687 104.128 129.361 104.25 129.139 104.495C128.924 104.74 128.779 105.058 128.702 105.449C128.633 105.832 128.599 106.307 128.599 106.874C128.599 107.456 128.633 107.947 128.702 108.345C128.771 108.736 128.917 109.054 129.139 109.299C129.361 109.536 129.687 109.655 130.116 109.655C130.545 109.655 130.87 109.536 131.092 109.299C131.315 109.054 131.46 108.736 131.529 108.345C131.598 107.947 131.633 107.456 131.633 106.874ZM134.442 106.874C134.442 105.549 134.68 104.511 135.155 103.76C135.637 103.009 136.434 102.634 137.545 102.634C138.656 102.634 139.449 103.009 139.924 103.76C140.406 104.511 140.647 105.549 140.647 106.874C140.647 108.207 140.406 109.253 139.924 110.011C139.449 110.77 138.656 111.149 137.545 111.149C136.434 111.149 135.637 110.77 135.155 110.011C134.68 109.253 134.442 108.207 134.442 106.874ZM139.062 106.874C139.062 106.307 139.023 105.832 138.947 105.449C138.878 105.058 138.732 104.74 138.51 104.495C138.296 104.25 137.974 104.128 137.545 104.128C137.116 104.128 136.79 104.25 136.568 104.495C136.354 104.74 136.208 105.058 136.131 105.449C136.062 105.832 136.028 106.307 136.028 106.874C136.028 107.456 136.062 107.947 136.131 108.345C136.2 108.736 136.346 109.054 136.568 109.299C136.79 109.536 137.116 109.655 137.545 109.655C137.974 109.655 138.299 109.536 138.522 109.299C138.744 109.054 138.889 108.736 138.958 108.345C139.027 107.947 139.062 107.456 139.062 106.874ZM141.871 106.874C141.871 105.549 142.109 104.511 142.584 103.76C143.066 103.009 143.863 102.634 144.974 102.634C146.085 102.634 146.878 103.009 147.353 103.76C147.835 104.511 148.077 105.549 148.077 106.874C148.077 108.207 147.835 109.253 147.353 110.011C146.878 110.77 146.085 111.149 144.974 111.149C143.863 111.149 143.066 110.77 142.584 110.011C142.109 109.253 141.871 108.207 141.871 106.874ZM146.491 106.874C146.491 106.307 146.452 105.832 146.376 105.449C146.307 105.058 146.161 104.74 145.939 104.495C145.725 104.25 145.403 104.128 144.974 104.128C144.545 104.128 144.219 104.25 143.997 104.495C143.783 104.74 143.637 105.058 143.56 105.449C143.491 105.832 143.457 106.307 143.457 106.874C143.457 107.456 143.491 107.947 143.56 108.345C143.629 108.736 143.775 109.054 143.997 109.299C144.219 109.536 144.545 109.655 144.974 109.655C145.403 109.655 145.728 109.536 145.951 109.299C146.173 109.054 146.318 108.736 146.387 108.345C146.456 107.947 146.491 107.456 146.491 106.874Z" fill="black"/>
</g>
<defs>
<filter id="filter0_dd_780_19808" x="0.780334" y="0.681973" width="284.435" height="226.869" filterUnits="userSpaceOnUse" color-interpolation-filters="sRGB">
<feFlood flood-opacity="0" result="BackgroundImageFix"/>
<feColorMatrix in="SourceAlpha" type="matrix" values="0 0 0 0 0 0 0 0 0 0 0 0 0 0 0 0 0 0 127 0" result="hardAlpha"/>
<feOffset dx="-10" dy="14"/>
<feGaussianBlur stdDeviation="29.2"/>
<feComposite in2="hardAlpha" operator="out"/>
<feColorMatrix type="matrix" values="0 0 0 0 0.0444481 0 0 0 0 0 0 0 0 0 0.888965 0 0 0 0.07 0"/>
<feBlend mode="normal" in2="BackgroundImageFix" result="effect1_dropShadow_780_19808"/>
<feColorMatrix in="SourceAlpha" type="matrix" values="0 0 0 0 0 0 0 0 0 0 0 0 0 0 0 0 0 0 127 0" result="hardAlpha"/>
<feOffset dx="-12.459" dy="17.4426"/>
<feGaussianBlur stdDeviation="36.3803"/>
<feComposite in2="hardAlpha" operator="out"/>
<feColorMatrix type="matrix" values="0 0 0 0 0.0444481 0 0 0 0 0 0 0 0 0 0.888965 0 0 0 0.07 0"/>
<feBlend mode="normal" in2="effect1_dropShadow_780_19808" result="effect2_dropShadow_780_19808"/>
<feBlend mode="normal" in="SourceGraphic" in2="effect2_dropShadow_780_19808" result="shape"/>
</filter>
</defs>
</svg>
