<svg width="286" height="228" viewBox="0 0 286 228" fill="none" xmlns="http://www.w3.org/2000/svg">
<g filter="url(#filter0_dd_780_19816)">
<mask id="path-1-inside-1_780_19816" fill="white">
<path d="M86 64C86 59.5817 89.5817 56 94 56H216.915C221.333 56 224.915 59.5817 224.915 64V129.347C224.915 133.766 221.333 137.347 216.915 137.347H94C89.5817 137.347 86 133.766 86 129.347V64Z"/>
</mask>
<path d="M86 64C86 59.5817 89.5817 56 94 56H216.915C221.333 56 224.915 59.5817 224.915 64V129.347C224.915 133.766 221.333 137.347 216.915 137.347H94C89.5817 137.347 86 133.766 86 129.347V64Z" fill="white" shape-rendering="crispEdges"/>
<path d="M86 56H224.915H86ZM224.915 129.347C224.915 134.162 221.012 138.066 216.197 138.066H94.7182C89.9033 138.066 86 134.162 86 129.347C86 133.369 89.5817 136.629 94 136.629H216.915C221.333 136.629 224.915 133.369 224.915 129.347ZM86 137.347V56V137.347ZM224.915 56V137.347V56Z" fill="black" mask="url(#path-1-inside-1_780_19816)"/>
<path d="M103.723 79.1764L102.584 77.944C102.304 78.0249 101.996 78.0654 101.66 78.0654C101.056 78.0654 100.499 77.9253 99.9887 77.6452C99.4846 77.3589 99.0831 76.9636 98.7843 76.4594C98.4917 75.949 98.3455 75.3764 98.3455 74.7414C98.3455 74.1065 98.4917 73.537 98.7843 73.0328C99.0831 72.5286 99.4846 72.1365 99.9887 71.8564C100.499 71.57 101.056 71.4269 101.66 71.4269C102.27 71.4269 102.827 71.57 103.331 71.8564C103.842 72.1365 104.243 72.5286 104.536 73.0328C104.828 73.537 104.975 74.1065 104.975 74.7414C104.975 75.339 104.844 75.8805 104.582 76.3661C104.327 76.8453 103.972 77.2313 103.518 77.5238L105.077 79.1764H103.723ZM99.4379 74.7414C99.4379 75.2207 99.5312 75.644 99.718 76.0113C99.9109 76.3723 100.175 76.6524 100.512 76.8516C100.848 77.0445 101.231 77.141 101.66 77.141C102.09 77.141 102.472 77.0445 102.808 76.8516C103.145 76.6524 103.406 76.3723 103.593 76.0113C103.786 75.644 103.882 75.2207 103.882 74.7414C103.882 74.2622 103.786 73.842 103.593 73.481C103.406 73.1199 103.145 72.843 102.808 72.65C102.472 72.457 102.09 72.3606 101.66 72.3606C101.231 72.3606 100.848 72.457 100.512 72.65C100.175 72.843 99.9109 73.1199 99.718 73.481C99.5312 73.842 99.4379 74.2622 99.4379 74.7414ZM110.802 72.8554V78H109.737V77.3931C109.569 77.6047 109.348 77.7728 109.075 77.8973C108.807 78.0156 108.521 78.0747 108.216 78.0747C107.811 78.0747 107.447 77.9907 107.123 77.8226C106.806 77.6545 106.554 77.4056 106.367 77.0757C106.186 76.7458 106.096 76.3474 106.096 75.8805V72.8554H107.151V75.7218C107.151 76.1824 107.266 76.5372 107.497 76.7862C107.727 77.029 108.041 77.1503 108.44 77.1503C108.838 77.1503 109.152 77.029 109.383 76.7862C109.619 76.5372 109.737 76.1824 109.737 75.7218V72.8554H110.802ZM114.531 78.084C114.046 78.084 113.607 77.9751 113.215 77.7572C112.822 77.5332 112.514 77.2219 112.29 76.8236C112.066 76.419 111.954 75.9521 111.954 75.423C111.954 74.9002 112.069 74.4364 112.3 74.0318C112.53 73.6273 112.844 73.316 113.243 73.0982C113.641 72.8803 114.086 72.7714 114.578 72.7714C115.07 72.7714 115.515 72.8803 115.913 73.0982C116.311 73.316 116.626 73.6273 116.856 74.0318C117.086 74.4364 117.201 74.9002 117.201 75.423C117.201 75.9459 117.083 76.4096 116.847 76.8142C116.61 77.2188 116.286 77.5332 115.876 77.7572C115.471 77.9751 115.023 78.084 114.531 78.084ZM114.531 77.1597C114.805 77.1597 115.06 77.0943 115.297 76.9636C115.539 76.8329 115.736 76.6368 115.885 76.3754C116.034 76.114 116.109 75.7965 116.109 75.423C116.109 75.0496 116.037 74.7352 115.894 74.48C115.751 74.2186 115.561 74.0225 115.325 73.8918C115.088 73.7611 114.833 73.6957 114.559 73.6957C114.285 73.6957 114.03 73.7611 113.793 73.8918C113.563 74.0225 113.38 74.2186 113.243 74.48C113.106 74.7352 113.037 75.0496 113.037 75.423C113.037 75.977 113.177 76.4065 113.457 76.7115C113.744 77.0103 114.102 77.1597 114.531 77.1597ZM119.589 73.7237V76.5715C119.589 76.7644 119.632 76.9045 119.72 76.9916C119.813 77.0725 119.968 77.113 120.186 77.113H120.84V78H120C119.52 78 119.153 77.888 118.898 77.6639C118.643 77.4398 118.515 77.0757 118.515 76.5715V73.7237H117.908V72.8554H118.515V71.5763H119.589V72.8554H120.84V73.7237H119.589ZM126.629 75.3017C126.629 75.4946 126.617 75.6689 126.592 75.8245H122.661C122.692 76.2353 122.845 76.5652 123.119 76.8142C123.393 77.0632 123.729 77.1877 124.127 77.1877C124.7 77.1877 125.104 76.9481 125.341 76.4688H126.489C126.334 76.9418 126.051 77.3309 125.64 77.6359C125.235 77.9346 124.731 78.084 124.127 78.084C123.635 78.084 123.193 77.9751 122.801 77.7572C122.415 77.5332 122.11 77.2219 121.886 76.8236C121.668 76.419 121.56 75.9521 121.56 75.423C121.56 74.8939 121.665 74.4302 121.877 74.0318C122.095 73.6273 122.397 73.316 122.783 73.0982C123.175 72.8803 123.623 72.7714 124.127 72.7714C124.613 72.7714 125.045 72.8772 125.425 73.0888C125.805 73.3005 126.1 73.5992 126.312 73.9852C126.524 74.3649 126.629 74.8037 126.629 75.3017ZM125.518 74.9655C125.512 74.5734 125.372 74.259 125.098 74.0225C124.824 73.786 124.485 73.6677 124.08 73.6677C123.713 73.6677 123.399 73.786 123.137 74.0225C122.876 74.2528 122.72 74.5672 122.671 74.9655H125.518ZM129.638 78.084C129.233 78.084 128.869 78.0124 128.545 77.8693C128.228 77.7199 127.976 77.5207 127.789 77.2717C127.602 77.0165 127.503 76.7333 127.49 76.4221H128.592C128.611 76.6399 128.713 76.8236 128.9 76.9729C129.093 77.1161 129.333 77.1877 129.619 77.1877C129.918 77.1877 130.148 77.1317 130.31 77.0196C130.478 76.9014 130.562 76.752 130.562 76.5715C130.562 76.3785 130.469 76.2353 130.282 76.142C130.101 76.0486 129.812 75.9459 129.414 75.8339C129.028 75.728 128.713 75.6253 128.471 75.5257C128.228 75.4261 128.016 75.2736 127.836 75.0682C127.661 74.8628 127.574 74.5921 127.574 74.2559C127.574 73.9821 127.655 73.7331 127.817 73.509C127.979 73.2787 128.209 73.0982 128.508 72.9674C128.813 72.8367 129.161 72.7714 129.554 72.7714C130.139 72.7714 130.609 72.9208 130.963 73.2195C131.324 73.5121 131.517 73.9136 131.542 74.424H130.478C130.459 74.1937 130.366 74.0101 130.198 73.8731C130.03 73.7362 129.803 73.6677 129.516 73.6677C129.236 73.6677 129.021 73.7206 128.872 73.8264C128.723 73.9323 128.648 74.0723 128.648 74.2466C128.648 74.3835 128.698 74.4987 128.797 74.5921C128.897 74.6854 129.018 74.7601 129.161 74.8161C129.305 74.8659 129.516 74.9313 129.796 75.0122C130.17 75.1118 130.475 75.2145 130.711 75.3203C130.954 75.4199 131.163 75.5693 131.337 75.7685C131.511 75.9677 131.601 76.2322 131.608 76.5621C131.608 76.8547 131.527 77.1161 131.365 77.3464C131.203 77.5767 130.973 77.7572 130.674 77.888C130.381 78.0187 130.036 78.084 129.638 78.084Z" fill="black"/>
<mask id="path-4-inside-2_780_19816" fill="white">
<path d="M98 93.7457C98 90.5725 100.572 88 103.746 88H212.915V125.347H103.746C100.572 125.347 98 122.775 98 119.602V93.7457Z"/>
</mask>
<path d="M98 93.7457C98 90.5725 100.572 88 103.746 88H212.915V125.347H103.746C100.572 125.347 98 122.775 98 119.602V93.7457Z" fill="#F7F7F7"/>
<path d="M98 88H212.915H98ZM212.915 125.347H98H212.915ZM98 125.347V88V125.347ZM213.633 88V125.347H212.197V88H213.633Z" fill="#E7E7E7" mask="url(#path-4-inside-2_780_19816)"/>
<path d="M110.607 109.356C111.342 108.743 111.928 108.234 112.365 107.828C112.802 107.414 113.166 106.985 113.457 106.541C113.748 106.096 113.893 105.66 113.893 105.231C113.893 104.84 113.801 104.534 113.618 104.311C113.434 104.089 113.15 103.978 112.767 103.978C112.384 103.978 112.089 104.108 111.882 104.369C111.676 104.622 111.568 104.97 111.561 105.415H109.998C110.028 104.495 110.3 103.798 110.814 103.323C111.335 102.848 111.994 102.611 112.79 102.611C113.664 102.611 114.334 102.844 114.801 103.312C115.269 103.771 115.502 104.38 115.502 105.139C115.502 105.736 115.341 106.307 115.02 106.851C114.698 107.395 114.33 107.87 113.916 108.276C113.503 108.674 112.963 109.157 112.296 109.724H115.686V111.057H110.009V109.862L110.607 109.356ZM122.331 104.185H118.607V106.15C118.768 105.951 118.998 105.79 119.297 105.667C119.596 105.537 119.914 105.472 120.251 105.472C120.864 105.472 121.365 105.606 121.756 105.874C122.147 106.142 122.43 106.487 122.606 106.909C122.783 107.322 122.871 107.767 122.871 108.242C122.871 109.123 122.618 109.831 122.112 110.367C121.614 110.904 120.902 111.172 119.975 111.172C119.102 111.172 118.404 110.954 117.883 110.517C117.363 110.08 117.068 109.509 116.999 108.805H118.561C118.63 109.111 118.784 109.356 119.021 109.54C119.266 109.724 119.577 109.816 119.952 109.816C120.404 109.816 120.745 109.674 120.975 109.391C121.205 109.107 121.319 108.732 121.319 108.265C121.319 107.79 121.201 107.429 120.963 107.184C120.733 106.932 120.392 106.805 119.94 106.805C119.619 106.805 119.351 106.886 119.136 107.046C118.922 107.207 118.768 107.422 118.676 107.69H117.137V102.772H122.331V104.185ZM126.037 109.483L124.693 112.712H123.659L124.406 109.483H126.037ZM127.013 106.874C127.013 105.549 127.251 104.511 127.725 103.76C128.208 103.009 129.005 102.634 130.116 102.634C131.227 102.634 132.019 103.009 132.494 103.76C132.977 104.511 133.218 105.549 133.218 106.874C133.218 108.207 132.977 109.253 132.494 110.011C132.019 110.77 131.227 111.149 130.116 111.149C129.005 111.149 128.208 110.77 127.725 110.011C127.251 109.253 127.013 108.207 127.013 106.874ZM131.633 106.874C131.633 106.307 131.594 105.832 131.518 105.449C131.449 105.058 131.303 104.74 131.081 104.495C130.866 104.25 130.545 104.128 130.116 104.128C129.687 104.128 129.361 104.25 129.139 104.495C128.924 104.74 128.779 105.058 128.702 105.449C128.633 105.832 128.599 106.307 128.599 106.874C128.599 107.456 128.633 107.947 128.702 108.345C128.771 108.736 128.917 109.054 129.139 109.299C129.361 109.536 129.687 109.655 130.116 109.655C130.545 109.655 130.87 109.536 131.092 109.299C131.315 109.054 131.46 108.736 131.529 108.345C131.598 107.947 131.633 107.456 131.633 106.874ZM134.442 106.874C134.442 105.549 134.68 104.511 135.155 103.76C135.637 103.009 136.434 102.634 137.545 102.634C138.656 102.634 139.449 103.009 139.924 103.76C140.406 104.511 140.647 105.549 140.647 106.874C140.647 108.207 140.406 109.253 139.924 110.011C139.449 110.77 138.656 111.149 137.545 111.149C136.434 111.149 135.637 110.77 135.155 110.011C134.68 109.253 134.442 108.207 134.442 106.874ZM139.062 106.874C139.062 106.307 139.023 105.832 138.947 105.449C138.878 105.058 138.732 104.74 138.51 104.495C138.296 104.25 137.974 104.128 137.545 104.128C137.116 104.128 136.79 104.25 136.568 104.495C136.354 104.74 136.208 105.058 136.131 105.449C136.062 105.832 136.028 106.307 136.028 106.874C136.028 107.456 136.062 107.947 136.131 108.345C136.2 108.736 136.346 109.054 136.568 109.299C136.79 109.536 137.116 109.655 137.545 109.655C137.974 109.655 138.299 109.536 138.522 109.299C138.744 109.054 138.889 108.736 138.958 108.345C139.027 107.947 139.062 107.456 139.062 106.874ZM141.871 106.874C141.871 105.549 142.109 104.511 142.584 103.76C143.066 103.009 143.863 102.634 144.974 102.634C146.085 102.634 146.878 103.009 147.353 103.76C147.835 104.511 148.077 105.549 148.077 106.874C148.077 108.207 147.835 109.253 147.353 110.011C146.878 110.77 146.085 111.149 144.974 111.149C143.863 111.149 143.066 110.77 142.584 110.011C142.109 109.253 141.871 108.207 141.871 106.874ZM146.491 106.874C146.491 106.307 146.452 105.832 146.376 105.449C146.307 105.058 146.161 104.74 145.939 104.495C145.725 104.25 145.403 104.128 144.974 104.128C144.545 104.128 144.219 104.25 143.997 104.495C143.783 104.74 143.637 105.058 143.56 105.449C143.491 105.832 143.457 106.307 143.457 106.874C143.457 107.456 143.491 107.947 143.56 108.345C143.629 108.736 143.775 109.054 143.997 109.299C144.219 109.536 144.545 109.655 144.974 109.655C145.403 109.655 145.728 109.536 145.951 109.299C146.173 109.054 146.318 108.736 146.387 108.345C146.456 107.947 146.491 107.456 146.491 106.874Z" fill="black"/>
</g>
<defs>
<filter id="filter0_dd_780_19816" x="0.780334" y="0.681973" width="284.435" height="226.869" filterUnits="userSpaceOnUse" color-interpolation-filters="sRGB">
<feFlood flood-opacity="0" result="BackgroundImageFix"/>
<feColorMatrix in="SourceAlpha" type="matrix" values="0 0 0 0 0 0 0 0 0 0 0 0 0 0 0 0 0 0 127 0" result="hardAlpha"/>
<feOffset dx="-10" dy="14"/>
<feGaussianBlur stdDeviation="29.2"/>
<feComposite in2="hardAlpha" operator="out"/>
<feColorMatrix type="matrix" values="0 0 0 0 0.0444481 0 0 0 0 0 0 0 0 0 0.888965 0 0 0 0.07 0"/>
<feBlend mode="normal" in2="BackgroundImageFix" result="effect1_dropShadow_780_19816"/>
<feColorMatrix in="SourceAlpha" type="matrix" values="0 0 0 0 0 0 0 0 0 0 0 0 0 0 0 0 0 0 127 0" result="hardAlpha"/>
<feOffset dx="-12.459" dy="17.4426"/>
<feGaussianBlur stdDeviation="36.3803"/>
<feComposite in2="hardAlpha" operator="out"/>
<feColorMatrix type="matrix" values="0 0 0 0 0.0444481 0 0 0 0 0 0 0 0 0 0.888965 0 0 0 0.07 0"/>
<feBlend mode="normal" in2="effect1_dropShadow_780_19816" result="effect2_dropShadow_780_19816"/>
<feBlend mode="normal" in="SourceGraphic" in2="effect2_dropShadow_780_19816" result="shape"/>
</filter>
</defs>
</svg>
