<svg width="286" height="228" viewBox="0 0 286 228" fill="none" xmlns="http://www.w3.org/2000/svg">
<g filter="url(#filter0_dd_780_19820)">
<mask id="path-1-inside-1_780_19820" fill="white">
<path d="M86 64C86 59.5817 89.5817 56 94 56H216.915C221.333 56 224.915 59.5817 224.915 64V129.347C224.915 133.766 221.333 137.347 216.915 137.347H94C89.5817 137.347 86 133.766 86 129.347V64Z"/>
</mask>
<path d="M86 64C86 59.5817 89.5817 56 94 56H216.915C221.333 56 224.915 59.5817 224.915 64V129.347C224.915 133.766 221.333 137.347 216.915 137.347H94C89.5817 137.347 86 133.766 86 129.347V64Z" fill="white" shape-rendering="crispEdges"/>
<path d="M86 56H224.915H86ZM224.915 129.347C224.915 134.162 221.012 138.066 216.197 138.066H94.7182C89.9033 138.066 86 134.162 86 129.347C86 133.369 89.5817 136.629 94 136.629H216.915C221.333 136.629 224.915 133.369 224.915 129.347ZM86 137.347V56V137.347ZM224.915 56V137.347V56Z" fill="black" mask="url(#path-1-inside-1_780_19820)"/>
<path d="M102.892 71.5109V72.3792H101.165V78H100.101V72.3792H98.3641V71.5109H102.892ZM110.973 72.8554L109.376 78H108.256L107.22 74.1999L106.183 78H105.063L103.457 72.8554H104.54L105.614 76.9916L106.706 72.8554H107.817L108.863 76.9729L109.927 72.8554H110.973ZM116.577 75.3017C116.577 75.4946 116.565 75.6689 116.54 75.8245H112.609C112.64 76.2353 112.792 76.5652 113.066 76.8142C113.34 77.0632 113.676 77.1877 114.075 77.1877C114.647 77.1877 115.052 76.9481 115.289 76.4688H116.437C116.281 76.9418 115.998 77.3309 115.587 77.6359C115.183 77.9346 114.679 78.084 114.075 78.084C113.583 78.084 113.141 77.9751 112.749 77.7572C112.363 77.5332 112.058 77.2219 111.834 76.8236C111.616 76.419 111.507 75.9521 111.507 75.423C111.507 74.8939 111.613 74.4302 111.825 74.0318C112.042 73.6273 112.344 73.316 112.73 73.0982C113.122 72.8803 113.571 72.7714 114.075 72.7714C114.56 72.7714 114.993 72.8772 115.373 73.0888C115.752 73.3005 116.048 73.5992 116.26 73.9852C116.471 74.3649 116.577 74.8037 116.577 75.3017ZM115.466 74.9655C115.46 74.5734 115.32 74.259 115.046 74.0225C114.772 73.786 114.433 73.6677 114.028 73.6677C113.661 73.6677 113.346 73.786 113.085 74.0225C112.824 74.2528 112.668 74.5672 112.618 74.9655H115.466ZM122.433 75.3017C122.433 75.4946 122.421 75.6689 122.396 75.8245H118.465C118.496 76.2353 118.648 76.5652 118.922 76.8142C119.196 77.0632 119.532 77.1877 119.931 77.1877C120.503 77.1877 120.908 76.9481 121.144 76.4688H122.293C122.137 76.9418 121.854 77.3309 121.443 77.6359C121.039 77.9346 120.534 78.084 119.931 78.084C119.439 78.084 118.997 77.9751 118.605 77.7572C118.219 77.5332 117.914 77.2219 117.69 76.8236C117.472 76.419 117.363 75.9521 117.363 75.423C117.363 74.8939 117.469 74.4302 117.681 74.0318C117.898 73.6273 118.2 73.316 118.586 73.0982C118.978 72.8803 119.426 72.7714 119.931 72.7714C120.416 72.7714 120.849 72.8772 121.229 73.0888C121.608 73.3005 121.904 73.5992 122.116 73.9852C122.327 74.3649 122.433 74.8037 122.433 75.3017ZM121.322 74.9655C121.316 74.5734 121.176 74.259 120.902 74.0225C120.628 73.786 120.289 73.6677 119.884 73.6677C119.517 73.6677 119.202 73.786 118.941 74.0225C118.68 74.2528 118.524 74.5672 118.474 74.9655H121.322ZM124.816 73.7237V76.5715C124.816 76.7644 124.859 76.9045 124.946 76.9916C125.04 77.0725 125.195 77.113 125.413 77.113H126.067V78H125.226C124.747 78 124.38 77.888 124.125 77.6639C123.869 77.4398 123.742 77.0757 123.742 76.5715V73.7237H123.135V72.8554H123.742V71.5763H124.816V72.8554H126.067V73.7237H124.816ZM129.008 78.084C128.604 78.084 128.24 78.0124 127.916 77.8693C127.599 77.7199 127.347 77.5207 127.16 77.2717C126.973 77.0165 126.873 76.7333 126.861 76.4221H127.963C127.981 76.6399 128.084 76.8236 128.271 76.9729C128.464 77.1161 128.703 77.1877 128.99 77.1877C129.289 77.1877 129.519 77.1317 129.681 77.0196C129.849 76.9014 129.933 76.752 129.933 76.5715C129.933 76.3785 129.839 76.2353 129.653 76.142C129.472 76.0486 129.183 75.9459 128.784 75.8339C128.398 75.728 128.084 75.6253 127.841 75.5257C127.599 75.4261 127.387 75.2736 127.206 75.0682C127.032 74.8628 126.945 74.5921 126.945 74.2559C126.945 73.9821 127.026 73.7331 127.188 73.509C127.35 73.2787 127.58 73.0982 127.879 72.9674C128.184 72.8367 128.532 72.7714 128.924 72.7714C129.51 72.7714 129.98 72.9208 130.334 73.2195C130.695 73.5121 130.888 73.9136 130.913 74.424H129.849C129.83 74.1937 129.737 74.0101 129.569 73.8731C129.401 73.7362 129.173 73.6677 128.887 73.6677C128.607 73.6677 128.392 73.7206 128.243 73.8264C128.093 73.9323 128.019 74.0723 128.019 74.2466C128.019 74.3835 128.069 74.4987 128.168 74.5921C128.268 74.6854 128.389 74.7601 128.532 74.8161C128.675 74.8659 128.887 74.9313 129.167 75.0122C129.541 75.1118 129.846 75.2145 130.082 75.3203C130.325 75.4199 130.534 75.5693 130.708 75.7685C130.882 75.9677 130.972 76.2322 130.979 76.5621C130.979 76.8547 130.898 77.1161 130.736 77.3464C130.574 77.5767 130.344 77.7572 130.045 77.888C129.752 78.0187 129.407 78.084 129.008 78.084Z" fill="black"/>
<mask id="path-4-inside-2_780_19820" fill="white">
<path d="M98 93.7457C98 90.5725 100.572 88 103.746 88H212.915V125.347H103.746C100.572 125.347 98 122.775 98 119.602V93.7457Z"/>
</mask>
<path d="M98 93.7457C98 90.5725 100.572 88 103.746 88H212.915V125.347H103.746C100.572 125.347 98 122.775 98 119.602V93.7457Z" fill="#F7F7F7"/>
<path d="M98 88H212.915H98ZM212.915 125.347H98H212.915ZM98 125.347V88V125.347ZM213.633 88V125.347H212.197V88H213.633Z" fill="#E7E7E7" mask="url(#path-4-inside-2_780_19820)"/>
<path d="M110.607 109.356C111.342 108.743 111.928 108.234 112.365 107.828C112.802 107.414 113.166 106.985 113.457 106.541C113.748 106.096 113.893 105.66 113.893 105.231C113.893 104.84 113.801 104.534 113.618 104.311C113.434 104.089 113.15 103.978 112.767 103.978C112.384 103.978 112.089 104.108 111.882 104.369C111.676 104.622 111.568 104.97 111.561 105.415H109.998C110.028 104.495 110.3 103.798 110.814 103.323C111.335 102.848 111.994 102.611 112.79 102.611C113.664 102.611 114.334 102.844 114.801 103.312C115.269 103.771 115.502 104.38 115.502 105.139C115.502 105.736 115.341 106.307 115.02 106.851C114.698 107.395 114.33 107.87 113.916 108.276C113.503 108.674 112.963 109.157 112.296 109.724H115.686V111.057H110.009V109.862L110.607 109.356ZM122.331 104.185H118.607V106.15C118.768 105.951 118.998 105.79 119.297 105.667C119.596 105.537 119.914 105.472 120.251 105.472C120.864 105.472 121.365 105.606 121.756 105.874C122.147 106.142 122.43 106.487 122.606 106.909C122.783 107.322 122.871 107.767 122.871 108.242C122.871 109.123 122.618 109.831 122.112 110.367C121.614 110.904 120.902 111.172 119.975 111.172C119.102 111.172 118.404 110.954 117.883 110.517C117.363 110.08 117.068 109.509 116.999 108.805H118.561C118.63 109.111 118.784 109.356 119.021 109.54C119.266 109.724 119.577 109.816 119.952 109.816C120.404 109.816 120.745 109.674 120.975 109.391C121.205 109.107 121.319 108.732 121.319 108.265C121.319 107.79 121.201 107.429 120.963 107.184C120.733 106.932 120.392 106.805 119.94 106.805C119.619 106.805 119.351 106.886 119.136 107.046C118.922 107.207 118.768 107.422 118.676 107.69H117.137V102.772H122.331V104.185ZM126.037 109.483L124.693 112.712H123.659L124.406 109.483H126.037ZM127.013 106.874C127.013 105.549 127.251 104.511 127.725 103.76C128.208 103.009 129.005 102.634 130.116 102.634C131.227 102.634 132.019 103.009 132.494 103.76C132.977 104.511 133.218 105.549 133.218 106.874C133.218 108.207 132.977 109.253 132.494 110.011C132.019 110.77 131.227 111.149 130.116 111.149C129.005 111.149 128.208 110.77 127.725 110.011C127.251 109.253 127.013 108.207 127.013 106.874ZM131.633 106.874C131.633 106.307 131.594 105.832 131.518 105.449C131.449 105.058 131.303 104.74 131.081 104.495C130.866 104.25 130.545 104.128 130.116 104.128C129.687 104.128 129.361 104.25 129.139 104.495C128.924 104.74 128.779 105.058 128.702 105.449C128.633 105.832 128.599 106.307 128.599 106.874C128.599 107.456 128.633 107.947 128.702 108.345C128.771 108.736 128.917 109.054 129.139 109.299C129.361 109.536 129.687 109.655 130.116 109.655C130.545 109.655 130.87 109.536 131.092 109.299C131.315 109.054 131.46 108.736 131.529 108.345C131.598 107.947 131.633 107.456 131.633 106.874ZM134.442 106.874C134.442 105.549 134.68 104.511 135.155 103.76C135.637 103.009 136.434 102.634 137.545 102.634C138.656 102.634 139.449 103.009 139.924 103.76C140.406 104.511 140.647 105.549 140.647 106.874C140.647 108.207 140.406 109.253 139.924 110.011C139.449 110.77 138.656 111.149 137.545 111.149C136.434 111.149 135.637 110.77 135.155 110.011C134.68 109.253 134.442 108.207 134.442 106.874ZM139.062 106.874C139.062 106.307 139.023 105.832 138.947 105.449C138.878 105.058 138.732 104.74 138.51 104.495C138.296 104.25 137.974 104.128 137.545 104.128C137.116 104.128 136.79 104.25 136.568 104.495C136.354 104.74 136.208 105.058 136.131 105.449C136.062 105.832 136.028 106.307 136.028 106.874C136.028 107.456 136.062 107.947 136.131 108.345C136.2 108.736 136.346 109.054 136.568 109.299C136.79 109.536 137.116 109.655 137.545 109.655C137.974 109.655 138.299 109.536 138.522 109.299C138.744 109.054 138.889 108.736 138.958 108.345C139.027 107.947 139.062 107.456 139.062 106.874ZM141.871 106.874C141.871 105.549 142.109 104.511 142.584 103.76C143.066 103.009 143.863 102.634 144.974 102.634C146.085 102.634 146.878 103.009 147.353 103.76C147.835 104.511 148.077 105.549 148.077 106.874C148.077 108.207 147.835 109.253 147.353 110.011C146.878 110.77 146.085 111.149 144.974 111.149C143.863 111.149 143.066 110.77 142.584 110.011C142.109 109.253 141.871 108.207 141.871 106.874ZM146.491 106.874C146.491 106.307 146.452 105.832 146.376 105.449C146.307 105.058 146.161 104.74 145.939 104.495C145.725 104.25 145.403 104.128 144.974 104.128C144.545 104.128 144.219 104.25 143.997 104.495C143.783 104.74 143.637 105.058 143.56 105.449C143.491 105.832 143.457 106.307 143.457 106.874C143.457 107.456 143.491 107.947 143.56 108.345C143.629 108.736 143.775 109.054 143.997 109.299C144.219 109.536 144.545 109.655 144.974 109.655C145.403 109.655 145.728 109.536 145.951 109.299C146.173 109.054 146.318 108.736 146.387 108.345C146.456 107.947 146.491 107.456 146.491 106.874Z" fill="black"/>
</g>
<defs>
<filter id="filter0_dd_780_19820" x="0.780334" y="0.681973" width="284.435" height="226.869" filterUnits="userSpaceOnUse" color-interpolation-filters="sRGB">
<feFlood flood-opacity="0" result="BackgroundImageFix"/>
<feColorMatrix in="SourceAlpha" type="matrix" values="0 0 0 0 0 0 0 0 0 0 0 0 0 0 0 0 0 0 127 0" result="hardAlpha"/>
<feOffset dx="-10" dy="14"/>
<feGaussianBlur stdDeviation="29.2"/>
<feComposite in2="hardAlpha" operator="out"/>
<feColorMatrix type="matrix" values="0 0 0 0 0.0444481 0 0 0 0 0 0 0 0 0 0.888965 0 0 0 0.07 0"/>
<feBlend mode="normal" in2="BackgroundImageFix" result="effect1_dropShadow_780_19820"/>
<feColorMatrix in="SourceAlpha" type="matrix" values="0 0 0 0 0 0 0 0 0 0 0 0 0 0 0 0 0 0 127 0" result="hardAlpha"/>
<feOffset dx="-12.459" dy="17.4426"/>
<feGaussianBlur stdDeviation="36.3803"/>
<feComposite in2="hardAlpha" operator="out"/>
<feColorMatrix type="matrix" values="0 0 0 0 0.0444481 0 0 0 0 0 0 0 0 0 0.888965 0 0 0 0.07 0"/>
<feBlend mode="normal" in2="effect1_dropShadow_780_19820" result="effect2_dropShadow_780_19820"/>
<feBlend mode="normal" in="SourceGraphic" in2="effect2_dropShadow_780_19820" result="shape"/>
</filter>
</defs>
</svg>
