<svg width="1920" height="1284" viewBox="0 0 1920 1284" fill="none" xmlns="http://www.w3.org/2000/svg">
<g clip-path="url(#clip0_90_8873)">
<rect width="1920" height="1284" fill="white"/>
<line x1="0.5" y1="2.18557e-08" x2="0.49994" y2="1373.33" stroke="#EDEDED"/>
<line x1="38.9004" y1="2.1628e-08" x2="38.9003" y2="1373.33" stroke="#EDEDED"/>
<line x1="77.3008" y1="2.1628e-08" x2="77.3007" y2="1373.33" stroke="#EDEDED"/>
<line x1="115.699" y1="2.1628e-08" x2="115.699" y2="1373.33" stroke="#EDEDED"/>
<line x1="154.1" y1="2.16281e-08" x2="154.1" y2="1373.33" stroke="#EDEDED"/>
<line x1="192.5" y1="2.16281e-08" x2="192.5" y2="1373.33" stroke="#EDEDED"/>
<line x1="230.9" y1="2.16281e-08" x2="230.9" y2="1373.33" stroke="#EDEDED"/>
<line x1="269.301" y1="2.16281e-08" x2="269.301" y2="1373.33" stroke="#EDEDED"/>
<line x1="307.699" y1="2.16281e-08" x2="307.699" y2="1373.33" stroke="#EDEDED"/>
<line x1="346.1" y1="2.16281e-08" x2="346.1" y2="1373.33" stroke="#EDEDED"/>
<line x1="384.5" y1="2.16281e-08" x2="384.5" y2="1373.33" stroke="#EDEDED"/>
<line x1="422.9" y1="2.16281e-08" x2="422.9" y2="1373.33" stroke="#EDEDED"/>
<line x1="461.299" y1="2.16281e-08" x2="461.299" y2="1373.33" stroke="#EDEDED"/>
<line x1="499.699" y1="2.16281e-08" x2="499.699" y2="1373.33" stroke="#EDEDED"/>
<line x1="538.1" y1="2.16281e-08" x2="538.1" y2="1373.33" stroke="#EDEDED"/>
<line x1="576.5" y1="2.16281e-08" x2="576.5" y2="1373.33" stroke="#EDEDED"/>
<line x1="614.898" y1="2.16281e-08" x2="614.898" y2="1373.33" stroke="#EDEDED"/>
<line x1="653.299" y1="2.16281e-08" x2="653.299" y2="1373.33" stroke="#EDEDED"/>
<line x1="691.699" y1="2.16281e-08" x2="691.699" y2="1373.33" stroke="#EDEDED"/>
<line x1="730.1" y1="2.16281e-08" x2="730.1" y2="1373.33" stroke="#EDEDED"/>
<line x1="768.5" y1="2.16281e-08" x2="768.5" y2="1373.33" stroke="#EDEDED"/>
<line x1="806.898" y1="2.16281e-08" x2="806.898" y2="1373.33" stroke="#EDEDED"/>
<line x1="845.299" y1="2.16281e-08" x2="845.299" y2="1373.33" stroke="#EDEDED"/>
<line x1="883.699" y1="2.307e-08" x2="883.699" y2="1373.33" stroke="#EDEDED"/>
<line x1="922.1" y1="2.16281e-08" x2="922.1" y2="1373.33" stroke="#EDEDED"/>
<line x1="960.498" y1="2.16281e-08" x2="960.498" y2="1373.33" stroke="#EDEDED"/>
<line x1="998.898" y1="2.16281e-08" x2="998.898" y2="1373.33" stroke="#EDEDED"/>
<line x1="1037.3" y1="2.16281e-08" x2="1037.3" y2="1373.33" stroke="#EDEDED"/>
<line x1="1075.7" y1="2.16281e-08" x2="1075.7" y2="1373.33" stroke="#EDEDED"/>
<line x1="1114.1" y1="2.16281e-08" x2="1114.1" y2="1373.33" stroke="#EDEDED"/>
<line x1="1152.5" y1="2.16281e-08" x2="1152.5" y2="1373.33" stroke="#EDEDED"/>
<line x1="1190.9" y1="2.16281e-08" x2="1190.9" y2="1373.33" stroke="#EDEDED"/>
<line x1="1229.3" y1="2.16281e-08" x2="1229.3" y2="1373.33" stroke="#EDEDED"/>
<line x1="1267.7" y1="2.16281e-08" x2="1267.7" y2="1373.33" stroke="#EDEDED"/>
<line x1="1306.1" y1="2.16281e-08" x2="1306.1" y2="1373.33" stroke="#EDEDED"/>
<line x1="1344.5" y1="2.16281e-08" x2="1344.5" y2="1373.33" stroke="#EDEDED"/>
<line x1="1382.9" y1="2.16281e-08" x2="1382.9" y2="1373.33" stroke="#EDEDED"/>
<line x1="1421.3" y1="2.16281e-08" x2="1421.3" y2="1373.33" stroke="#EDEDED"/>
<line x1="1459.7" y1="2.16281e-08" x2="1459.7" y2="1373.33" stroke="#EDEDED"/>
<line x1="1498.1" y1="2.16281e-08" x2="1498.1" y2="1373.33" stroke="#EDEDED"/>
<line x1="1536.5" y1="2.16281e-08" x2="1536.5" y2="1373.33" stroke="#EDEDED"/>
<line x1="1574.9" y1="2.16281e-08" x2="1574.9" y2="1373.33" stroke="#EDEDED"/>
<line x1="1613.3" y1="2.16281e-08" x2="1613.3" y2="1373.33" stroke="#EDEDED"/>
<line x1="1651.7" y1="2.16281e-08" x2="1651.7" y2="1373.33" stroke="#EDEDED"/>
<line x1="1690.1" y1="2.16281e-08" x2="1690.1" y2="1373.33" stroke="#EDEDED"/>
<line x1="1728.5" y1="2.16281e-08" x2="1728.5" y2="1373.33" stroke="#EDEDED"/>
<line x1="1766.9" y1="2.16281e-08" x2="1766.9" y2="1373.33" stroke="#EDEDED"/>
<line x1="1805.3" y1="2.16281e-08" x2="1805.3" y2="1373.33" stroke="#EDEDED"/>
<line x1="1843.7" y1="2.16281e-08" x2="1843.7" y2="1373.33" stroke="#EDEDED"/>
<line x1="1882.1" y1="2.16281e-08" x2="1882.1" y2="1373.33" stroke="#EDEDED"/>
<line x1="1920.5" y1="2.16281e-08" x2="1920.5" y2="1373.33" stroke="#EDEDED"/>
<line y1="1246.6" x2="1919.99" y2="1246.6" stroke="#EDEDED"/>
<line y1="1198.64" x2="1919.99" y2="1198.64" stroke="#EDEDED"/>
<line y1="1150.67" x2="1919.99" y2="1150.67" stroke="#EDEDED"/>
<line y1="1102.71" x2="1919.99" y2="1102.71" stroke="#EDEDED"/>
<line y1="1054.74" x2="1919.99" y2="1054.74" stroke="#EDEDED"/>
<line y1="1006.78" x2="1919.99" y2="1006.78" stroke="#EDEDED"/>
<line y1="958.811" x2="1919.99" y2="958.811" stroke="#EDEDED"/>
<line y1="910.844" x2="1919.99" y2="910.844" stroke="#EDEDED"/>
<line y1="862.879" x2="1919.99" y2="862.879" stroke="#EDEDED"/>
<line y1="814.914" x2="1919.99" y2="814.914" stroke="#EDEDED"/>
<line y1="766.947" x2="1919.99" y2="766.947" stroke="#EDEDED"/>
<line y1="718.982" x2="1919.99" y2="718.982" stroke="#EDEDED"/>
<line y1="671.018" x2="1919.99" y2="671.018" stroke="#EDEDED"/>
<line y1="623.052" x2="1919.99" y2="623.052" stroke="#EDEDED"/>
<line y1="575.086" x2="1919.99" y2="575.086" stroke="#EDEDED"/>
<line y1="527.121" x2="1919.99" y2="527.121" stroke="#EDEDED"/>
<line y1="479.155" x2="1919.99" y2="479.155" stroke="#EDEDED"/>
<line y1="431.189" x2="1919.99" y2="431.189" stroke="#EDEDED"/>
<line y1="383.224" x2="1919.99" y2="383.224" stroke="#EDEDED"/>
<line y1="335.259" x2="1919.99" y2="335.259" stroke="#EDEDED"/>
<line y1="287.293" x2="1919.99" y2="287.293" stroke="#EDEDED"/>
<line y1="239.328" x2="1919.99" y2="239.328" stroke="#EDEDED"/>
<line y1="191.362" x2="1919.99" y2="191.362" stroke="#EDEDED"/>
<line y1="143.396" x2="1919.99" y2="143.396" stroke="#EDEDED"/>
<line y1="95.4307" x2="1919.99" y2="95.4307" stroke="#EDEDED"/>
<line y1="47.4648" x2="1919.99" y2="47.4648" stroke="#EDEDED"/>
</g>
<defs>
<clipPath id="clip0_90_8873">
<rect width="1920" height="1284" fill="white"/>
</clipPath>
</defs>
</svg>
