<svg width="116" height="27" viewBox="0 0 116 27" fill="none" xmlns="http://www.w3.org/2000/svg">
<g clip-path="url(#clip0_532_1029)">
<path d="M1.46216 1.7207V20.4042H13.7283" stroke="black" stroke-width="2.92437"/>
<path d="M36.8796 11.793C36.8796 17.715 32.0789 22.5157 26.1569 22.5157C20.2349 22.5157 15.4342 17.715 15.4342 11.793C15.4342 5.87102 20.2349 1.07031 26.1569 1.07031C32.0789 1.07031 36.8796 5.87102 36.8796 11.793ZM18.4331 11.793C18.4331 16.0587 21.8912 19.5168 26.1569 19.5168C30.4226 19.5168 33.8806 16.0587 33.8806 11.793C33.8806 7.52726 30.4226 4.06917 26.1569 4.06917C21.8912 4.06917 18.4331 7.52726 18.4331 11.793Z" fill="black"/>
<path d="M86.2689 11.793C86.2689 17.715 81.4682 22.5157 75.5462 22.5157C69.6242 22.5157 64.8235 17.715 64.8235 11.793C64.8235 5.87102 69.6242 1.07031 75.5462 1.07031C81.4682 1.07031 86.2689 5.87102 86.2689 11.793ZM67.8224 11.793C67.8224 16.0587 71.2805 19.5168 75.5462 19.5168C79.8119 19.5168 83.2699 16.0587 83.2699 11.793C83.2699 7.52726 79.8119 4.06917 75.5462 4.06917C71.2805 4.06917 67.8224 7.52726 67.8224 11.793Z" fill="black"/>
<path d="M61.5743 11.793C61.5743 17.715 56.7736 22.5157 50.8516 22.5157C44.9296 22.5157 40.1289 17.715 40.1289 11.793C40.1289 5.87102 44.9296 1.07031 50.8516 1.07031C56.7736 1.07031 61.5743 5.87102 61.5743 11.793ZM43.1279 11.793C43.1279 16.0587 46.5859 19.5168 50.8516 19.5168C55.1173 19.5168 58.5753 16.0587 58.5753 11.793C58.5753 7.52726 55.1173 4.06917 50.8516 4.06917C46.5859 4.06917 43.1279 7.52726 43.1279 11.793Z" fill="black"/>
<path d="M51.2577 15.3672V26.0899" stroke="black" stroke-width="3.08683"/>
<path d="M113.807 6.43164V21.8658" stroke="black" stroke-width="3.08683"/>
<path d="M113.644 4.6449C114.676 4.6449 115.513 3.80841 115.513 2.77655C115.513 1.74469 114.676 0.908203 113.644 0.908203C112.612 0.908203 111.776 1.74469 111.776 2.77655C111.776 3.80841 112.612 4.6449 113.644 4.6449Z" fill="black"/>
<path d="M105.358 13.6621H100.465C98.9759 13.6621 97.4169 13.8481 96.2759 14.8056C95.3095 15.6164 94.6482 16.7154 95.0792 18.0123C95.9999 20.7821 99.9023 21.0288 102.513 19.7234C103.82 19.0698 104.952 18.0123 105.358 17.1551" stroke="black" stroke-width="2.92437"/>
<path d="M94.4734 9.92403C95.9751 8.85117 99.6172 6.14326 103.571 8.77819C104.714 9.5402 105.196 10.9329 105.196 12.3069V21.867" stroke="black" stroke-width="2.92437"/>
</g>
<defs>
<clipPath id="clip0_532_1029">
<rect width="116" height="25.1821" fill="white" transform="translate(0 0.908203)"/>
</clipPath>
</defs>
</svg>
