<svg width="40" height="40" viewBox="0 0 40 40" fill="none" xmlns="http://www.w3.org/2000/svg">
<path d="M25.1167 29.8L23.4334 33.5C23 34.4333 22.3666 35.25 21.5166 35.8166C20.65 36.4 19.5167 36.45 18.6167 35.8833C15.8833 34.15 9.91674 29.7 6.30007 21.9833C6.16674 21.7166 6.53335 21.45 6.76668 21.6166C7.71668 22.2833 8.73331 22.75 9.84998 23.0166C10.5333 23.1666 11.2334 23.2333 11.9 23.2333C15 23.2333 17.8 21.65 19.6667 20.2833C20.2167 19.8833 20.95 19.8 21.5166 20.15C23.3833 21.3166 24.6334 22.7166 25.2501 24.3C26.3167 27.1 25.15 29.6833 25.1167 29.8Z" fill="black"/>
<path d="M28.0833 30.0834C27.95 30.2334 27.6834 30.0667 27.7501 29.8834C28.4834 27.45 29.4334 21.0333 20.9334 16.9667C20.4167 16.7167 20.0333 16.25 19.9667 15.6834C18.9333 6.41669 26.9167 4.75001 26.9167 4.75001C27.5667 4.61668 28.2501 4.61668 28.8834 4.80001C30.6834 5.28334 32.5167 5.95002 34.3667 6.85002C35.95 7.61668 36.8667 9.28335 36.6333 11.0334C36.0833 15.1667 34.25 23.1334 28.0833 30.0834Z" fill="black"/>
<path d="M17.6 17.0167L17.65 17.35C17.7667 17.9834 17.4999 18.6334 16.9666 18.9667C13.3833 21.2167 7.5166 22.9167 3.93326 13.0667C3.59993 12.1667 3.39995 11.5 3.33329 10.5334C3.24995 9.26669 3.96662 7.81669 5.09995 7.28336C8.03328 5.91669 14.2333 3.53335 21.7167 3.75002C22.05 3.76669 22.1666 4.20002 21.9 4.38335C19.0166 6.58335 16.5333 10.55 17.6 17.0167Z" fill="black"/>
</svg>
