<svg width="102" height="65" viewBox="0 0 102 65" fill="none" xmlns="http://www.w3.org/2000/svg">
    <path
        d="M2.11111 7.90542L1 5.16703V65H101V25.8471L99.8889 26.8641C98.7778 27.8812 96.5556 29.9152 94.3333 26.6469C92.1111 23.3786 89.8889 14.808 87.6667 10.2891C85.4444 5.77024 83.2222 5.30309 81 7.28681C78.7778 9.27052 76.5556 13.7051 74.3333 16.1315C72.1111 18.5579 69.8889 18.9761 67.6667 20.771C65.4444 22.5658 63.2222 25.7372 61 23.7103C58.7778 21.6834 56.5556 14.458 54.3333 10.5189C52.1111 6.57974 49.8889 5.92676 47.6667 7.86864C45.4444 9.81052 43.2222 14.3473 41 14.0858C38.7778 13.8243 36.5556 8.76461 34.3333 5.41113C32.1111 2.05764 29.8889 0.410361 27.6667 1.19161C25.4444 1.97287 23.2222 5.18266 21 5.86502C18.7778 6.54738 16.5556 4.70231 14.3333 6.90313C12.1111 9.10395 9.88889 15.3507 7.66667 15.7356C5.44444 16.1206 3.22222 10.6438 2.11111 7.90542Z"
        fill="url(#paint0_linear_1106_14789)" />
    <path
        d="M1 5.10192L2.11111 7.79752C3.22222 10.4931 5.44444 15.8843 7.66667 15.5054C9.88889 15.1264 12.1111 8.97733 14.3333 6.81089C16.5556 4.64446 18.7778 6.4607 21 5.789C23.2222 5.1173 25.4444 1.95767 27.6667 1.18862C29.8889 0.419574 32.1111 2.04112 34.3333 5.34221C36.5556 8.64329 38.7778 13.6239 41 13.8813C43.2222 14.1387 45.4444 9.67285 47.6667 7.76132C49.8889 5.84978 52.1111 6.49256 54.3333 10.3702C56.5556 14.2478 58.7778 21.3602 61 23.3555C63.2222 25.3507 65.4444 22.2288 67.6667 20.462C69.8889 18.6953 72.1111 18.2836 74.3333 15.8951C76.5556 13.5066 78.7778 9.14129 81 7.18857C83.2222 5.23586 85.4444 5.6957 87.6667 10.144C89.8889 14.5923 92.1111 23.029 94.3333 26.2462C96.5556 29.4634 98.7778 27.4611 99.8889 26.46L101 25.4589"
        stroke="#18A0FB" strokeWidth="1.5" strokeLinecap="round" strokeLinejoin="round" />
    <defs>
        <linearGradient id="paint0_linear_1106_14789" x1="51" y1="1" x2="51" y2="65"
            gradientUnits="userSpaceOnUse">
            <stop stop-color="#94D4FF" />
            <stop offset="0.541667" stop-color="white" stop-opacity="0" />
        </linearGradient>
    </defs>
</svg>
    