<svg width="20" height="21" viewBox="0 0 20 21" fill="none" xmlns="http://www.w3.org/2000/svg">
<path d="M8.95832 19.2471H11.0583C11.8583 19.2471 12.375 18.6804 12.225 17.9887L11.8833 16.4805H8.13332L7.79165 17.9887C7.64165 18.6387 8.20832 19.2471 8.95832 19.2471Z" stroke="black" stroke-width="1.5" stroke-linecap="round" stroke-linejoin="round"/>
<path d="M11.8834 16.4732L13.325 15.1898C14.1334 14.4732 14.1667 13.9731 13.525 13.1648L10.9834 9.93984C10.45 9.26484 9.57504 9.26484 9.04171 9.93984L6.50005 13.1648C5.85838 13.9731 5.85838 14.4982 6.70004 15.1898L8.14171 16.4732" stroke="black" stroke-width="1.5" stroke-linecap="round" stroke-linejoin="round"/>
<path d="M10.0084 9.76562V11.874" stroke="black" stroke-width="1.5" stroke-linecap="round" stroke-linejoin="round"/>
<path d="M9.29165 4.82683L8.64165 4.17681C8.24998 3.78514 8.24998 3.15185 8.64165 2.76018L9.29165 2.11016C9.68332 1.71849 10.3166 1.71849 10.7083 2.11016L11.3583 2.76018C11.75 3.15185 11.75 3.78514 11.3583 4.17681L10.7083 4.82683C10.3166 5.2185 9.68332 5.2185 9.29165 4.82683Z" stroke="black" stroke-width="1.5" stroke-linecap="round" stroke-linejoin="round"/>
<path d="M16.2084 8.67578H17.125C17.675 8.67578 18.125 9.12579 18.125 9.67579V10.5924C18.125 11.1424 17.675 11.5925 17.125 11.5925H16.2084C15.6584 11.5925 15.2084 11.1424 15.2084 10.5924V9.67579C15.2084 9.12579 15.6584 8.67578 16.2084 8.67578Z" stroke="black" stroke-width="1.5" stroke-linecap="round" stroke-linejoin="round"/>
<path d="M3.79167 8.67578H2.875C2.325 8.67578 1.875 9.12579 1.875 9.67579V10.5924C1.875 11.1424 2.325 11.5925 2.875 11.5925H3.79167C4.34167 11.5925 4.79167 11.1424 4.79167 10.5924V9.67579C4.79167 9.12579 4.34167 8.67578 3.79167 8.67578Z" stroke="black" stroke-width="1.5" stroke-linecap="round" stroke-linejoin="round"/>
<path d="M15.45 8.91666L11.0333 4.5" stroke="black" stroke-width="1.5" stroke-linecap="round" stroke-linejoin="round"/>
<path d="M4.55005 8.91666L8.96672 4.5" stroke="black" stroke-width="1.5" stroke-linecap="round" stroke-linejoin="round"/>
</svg>
