<svg width="88" height="88" viewBox="0 0 88 88" fill="none" xmlns="http://www.w3.org/2000/svg">
<path d="M38.4997 72.9654V15.032C38.4997 9.53203 36.153 7.33203 30.323 7.33203H15.5097C9.67967 7.33203 7.33301 9.53203 7.33301 15.032V72.9654C7.33301 78.4654 9.67967 80.6654 15.5097 80.6654H30.323C36.153 80.6654 38.4997 78.4654 38.4997 72.9654Z" stroke="#292D32" stroke-width="5" stroke-linecap="round" stroke-linejoin="round"/>
<path d="M80.6667 31.2387V14.592C80.6667 9.42203 78.32 7.33203 72.49 7.33203H57.6767C51.8467 7.33203 49.5 9.42203 49.5 14.592V31.202C49.5 36.4087 51.8467 38.462 57.6767 38.462H72.49C78.32 38.4987 80.6667 36.4087 80.6667 31.2387Z" stroke="#292D32" stroke-width="5" stroke-linecap="round" stroke-linejoin="round"/>
<path d="M80.6667 72.49V57.6767C80.6667 51.8467 78.32 49.5 72.49 49.5H57.6767C51.8467 49.5 49.5 51.8467 49.5 57.6767V72.49C49.5 78.32 51.8467 80.6667 57.6767 80.6667H72.49C78.32 80.6667 80.6667 78.32 80.6667 72.49Z" stroke="#292D32" stroke-width="5" stroke-linecap="round" stroke-linejoin="round"/>
</svg>
