<svg width="88" height="88" viewBox="0 0 88 88" fill="none" xmlns="http://www.w3.org/2000/svg">
<path d="M80.6663 22.9154V41.6153C80.6663 46.2719 79.1263 50.1953 76.3763 52.9087C73.663 55.6587 69.7397 57.1986 65.083 57.1986V63.8353C65.083 66.3286 62.2963 67.832 60.243 66.4387L56.6864 64.092C57.0164 62.9553 57.163 61.7086 57.163 60.3886V45.4655C57.163 37.9855 52.1763 32.9987 44.6963 32.9987H19.7997C19.2863 32.9987 18.8097 33.0354 18.333 33.0721V22.9154C18.333 13.5654 24.5663 7.33203 33.9163 7.33203H65.083C74.433 7.33203 80.6663 13.5654 80.6663 22.9154Z" stroke="#292D32" stroke-width="5" stroke-miterlimit="10" stroke-linecap="round" stroke-linejoin="round"/>
<path d="M57.163 45.4668V60.3899C57.163 61.7099 57.0164 62.9566 56.6864 64.0933C55.3297 69.4833 50.8564 72.8566 44.6964 72.8566H34.723L23.6497 80.2267C21.9997 81.3633 19.7997 80.1534 19.7997 78.1734V72.8566C16.0597 72.8566 12.943 71.61 10.7797 69.4467C8.57968 67.2467 7.33301 64.1299 7.33301 60.3899V45.4668C7.33301 38.5001 11.6597 33.6967 18.333 33.0734C18.8097 33.0367 19.2863 33 19.7997 33H44.6964C52.1764 33 57.163 37.9868 57.163 45.4668Z" stroke="#292D32" stroke-width="5" stroke-miterlimit="10" stroke-linecap="round" stroke-linejoin="round"/>
</svg>
