<svg width="88" height="88" viewBox="0 0 88 88" fill="none" xmlns="http://www.w3.org/2000/svg">
<path d="M77.2933 31.4588V56.5387C77.2933 60.6454 75.0933 64.4588 71.5366 66.5488L49.7566 79.1255C46.1999 81.1788 41.7999 81.1788 38.2066 79.1255L16.4266 66.5488C12.8699 64.4955 10.6699 60.682 10.6699 56.5387V31.4588C10.6699 27.3522 12.8699 23.5387 16.4266 21.4487L38.2066 8.87203C41.7633 6.8187 46.1633 6.8187 49.7566 8.87203L71.5366 21.4487C75.0933 23.5387 77.2933 27.3155 77.2933 31.4588Z" stroke="#292D32" stroke-width="5" stroke-linecap="round" stroke-linejoin="round"/>
<path d="M44.0004 40.3327C48.7187 40.3327 52.5437 36.5076 52.5437 31.7893C52.5437 27.0709 48.7187 23.2461 44.0004 23.2461C39.282 23.2461 35.457 27.0709 35.457 31.7893C35.457 36.5076 39.282 40.3327 44.0004 40.3327Z" stroke="#292D32" stroke-width="5" stroke-linecap="round" stroke-linejoin="round"/>
<path d="M58.6673 61.086C58.6673 54.486 52.104 49.1328 44.0007 49.1328C35.8973 49.1328 29.334 54.486 29.334 61.086" stroke="#292D32" stroke-width="5" stroke-linecap="round" stroke-linejoin="round"/>
</svg>
